<svg width="70" height="70" viewBox="0 0 70 70" fill="none" xmlns="http://www.w3.org/2000/svg">
<rect width="70" height="70" rx="35" fill="#FB6514"/>
<path fill-rule="evenodd" clip-rule="evenodd" d="M38.8123 20.0518C39.7232 20.2825 40.277 21.2175 40.0492 22.1403L33.2492 49.6951C33.0215 50.6178 32.0985 51.1789 31.1877 50.9482C30.2768 50.7175 29.723 49.7825 29.9508 48.8597L36.7508 21.3049C36.9785 20.3822 37.9015 19.8211 38.8123 20.0518ZM27.7021 27.3935C28.366 28.0661 28.366 29.1565 27.7021 29.8291L22.1042 35.5L27.7021 41.1709C28.366 41.8435 28.366 42.9339 27.7021 43.6065C27.0382 44.279 25.9618 44.279 25.2979 43.6065L18.4979 36.7178C17.834 36.0452 17.834 34.9548 18.4979 34.2822L25.2979 27.3935C25.9618 26.721 27.0382 26.721 27.7021 27.3935ZM42.2979 27.3935C42.9618 26.721 44.0382 26.721 44.7021 27.3935L51.5021 34.2822C52.166 34.9548 52.166 36.0452 51.5021 36.7178L44.7021 43.6065C44.0382 44.279 42.9618 44.279 42.2979 43.6065C41.634 42.9339 41.634 41.8435 42.2979 41.1709L47.8958 35.5L42.2979 29.8291C41.634 29.1565 41.634 28.0661 42.2979 27.3935Z" fill="white"/>
</svg>
