<svg width="1558" height="147" viewBox="0 0 1558 147" fill="none" xmlns="http://www.w3.org/2000/svg">
<rect x="35.6868" width="1440" height="147" fill="#FB6514"/>
<rect y="77.8135" width="1556.65" height="63.0056" transform="rotate(-2.57578 0 77.8135)" fill="white"/>
<path d="M197.361 93.3805L200.777 101.495L209.102 104.361L200.987 107.777L198.122 116.102L194.705 107.987L186.381 105.122L194.495 101.705L197.361 93.3805Z" fill="#FB6514"/>
<path d="M1281.36 41.3805L1284.78 49.4949L1293.1 52.3605L1284.99 55.7768L1282.12 64.1017L1278.71 55.9872L1270.38 53.1216L1278.49 49.7053L1281.36 41.3805Z" fill="#FB6514"/>
<path d="M803.361 65.3805L806.777 73.4949L815.102 76.3605L806.987 79.7768L804.122 88.1017L800.705 79.9872L792.381 77.1216L800.495 73.7053L803.361 65.3805Z" fill="#FB6514"/>
<path d="M243.436 111.232L237.12 90.4966L239.278 90.3987L244.501 107.565L248.134 89.9971L249.992 89.9128L255.215 107.079L258.848 89.5111L261.005 89.4132L256.622 110.634L254.135 110.746L249.284 94.8249L245.894 111.12L243.436 111.232ZM276.853 100.421L277.274 109.697L275.176 109.792L274.774 100.936C274.737 100.117 274.504 99.3818 274.074 98.7307C273.644 98.0795 273.085 97.5693 272.398 97.2C271.71 96.8308 270.957 96.6648 270.138 96.7019C269.329 96.7386 268.593 96.9722 267.932 97.4026C267.281 97.8325 266.771 98.3912 266.402 99.0786C266.032 99.7661 265.866 100.519 265.903 101.339L266.305 110.194L264.207 110.29L263.188 87.8127L265.286 87.7175L265.719 97.2777C266.214 96.4945 266.876 95.8588 267.705 95.3708C268.534 94.8827 269.447 94.6161 270.446 94.5707C271.575 94.5195 272.617 94.7476 273.571 95.2549C274.525 95.7622 275.297 96.4679 275.889 97.372C276.481 98.2761 276.802 99.2926 276.853 100.421ZM289.059 94.147L291.276 94.0464L284.099 116.895L281.867 116.996L284.254 109.38L278.195 94.6397L280.488 94.5357L285.172 106.441L289.059 94.147ZM312.569 85.5729L314.667 85.4777L315.687 107.955L313.589 108.05L313.462 105.248C312.986 106.23 312.307 107.037 311.424 107.667C310.552 108.288 309.496 108.626 308.257 108.682C307.168 108.731 306.14 108.573 305.172 108.206C304.205 107.84 303.34 107.313 302.578 106.627C301.826 105.931 301.223 105.117 300.771 104.187C300.318 103.256 300.067 102.246 300.018 101.158C299.968 100.069 300.127 99.0405 300.493 98.0729C300.86 97.0953 301.386 96.2305 302.073 95.4787C302.769 94.7163 303.582 94.1089 304.512 93.6562C305.443 93.2036 306.453 92.9526 307.541 92.9032C308.78 92.847 309.862 93.0932 310.788 93.6419C311.724 94.18 312.473 94.9118 313.035 95.8373L312.569 85.5729ZM308.18 106.643C309.249 106.595 310.156 106.293 310.902 105.739C311.647 105.175 312.204 104.439 312.573 103.531C312.952 102.623 313.118 101.635 313.069 100.566C313.02 99.4667 312.765 98.4873 312.305 97.6272C311.846 96.7571 311.219 96.0798 310.426 95.5953C309.634 95.1107 308.708 94.8924 307.649 94.9404C306.59 94.9885 305.638 95.2969 304.793 95.8658C303.947 96.4247 303.285 97.1604 302.806 98.0731C302.327 98.9857 302.112 99.9815 302.161 101.06C302.21 102.149 302.52 103.126 303.089 103.991C303.659 104.846 304.39 105.514 305.282 105.994C306.185 106.474 307.151 106.69 308.18 106.643ZM325.329 107.908C323.951 107.97 322.676 107.673 321.505 107.015C320.344 106.357 319.397 105.449 318.664 104.291C317.94 103.123 317.545 101.814 317.48 100.366C317.43 99.2667 317.578 98.2339 317.925 97.2672C318.271 96.2905 318.767 95.4272 319.414 94.6771C320.07 93.9166 320.843 93.3109 321.734 92.8601C322.624 92.4093 323.584 92.1605 324.613 92.1139C325.992 92.0513 327.261 92.3491 328.422 93.0072C329.593 93.6648 330.541 94.5778 331.264 95.7462C331.998 96.9142 332.398 98.2274 332.464 99.6859C332.513 100.775 332.365 101.803 332.018 102.769C331.672 103.736 331.17 104.6 330.514 105.36C329.868 106.11 329.099 106.711 328.208 107.161C327.328 107.612 326.368 107.861 325.329 107.908ZM325.234 105.81C326.253 105.764 327.155 105.457 327.94 104.891C328.735 104.315 329.347 103.576 329.777 102.676C330.216 101.775 330.413 100.81 330.366 99.7811C330.319 98.7321 330.035 97.779 329.516 96.9217C328.996 96.0543 328.314 95.3745 327.471 94.8822C326.638 94.3894 325.717 94.1659 324.708 94.2117C323.689 94.2579 322.782 94.5693 321.988 95.1459C321.202 95.7121 320.59 96.4456 320.15 97.3464C319.721 98.2468 319.53 99.2215 319.577 100.27C319.626 101.349 319.915 102.317 320.445 103.174C320.974 104.021 321.66 104.686 322.502 105.168C323.345 105.64 324.255 105.854 325.234 105.81ZM344.227 114.168L342.129 114.263L341.109 91.7861L343.207 91.6909L343.334 94.493C343.811 93.5205 344.485 92.7191 345.357 92.0889C346.23 91.4587 347.285 91.1155 348.524 91.0594C349.613 91.01 350.641 91.1685 351.609 91.5351C352.586 91.9012 353.451 92.4325 354.203 93.1291C354.955 93.8158 355.558 94.6243 356.01 95.5548C356.463 96.4852 356.714 97.4949 356.763 98.5837C356.813 99.6726 356.654 100.706 356.288 101.683C355.922 102.661 355.396 103.531 354.71 104.293C354.023 105.045 353.21 105.647 352.269 106.1C351.339 106.553 350.329 106.804 349.24 106.853C348.001 106.909 346.919 106.663 345.993 106.114C345.068 105.566 344.323 104.829 343.761 103.903L344.227 114.168ZM348.601 93.0979C347.552 93.1455 346.65 93.4517 345.895 94.0165C345.149 94.5709 344.587 95.2971 344.207 96.1952C343.827 97.0934 343.662 98.0869 343.712 99.1757C343.76 100.245 344.009 101.214 344.459 102.085C344.919 102.955 345.546 103.637 346.339 104.132C347.142 104.626 348.073 104.849 349.132 104.801C350.171 104.754 351.113 104.451 351.959 103.892C352.814 103.333 353.487 102.601 353.977 101.698C354.466 100.785 354.685 99.7791 354.635 98.6803C354.587 97.6114 354.283 96.6491 353.724 95.7936C353.164 94.9281 352.437 94.2503 351.544 93.7603C350.651 93.2702 349.67 93.0495 348.601 93.0979ZM359.192 105.981L358.512 90.9967L360.61 90.9015L360.704 92.9694C361.199 92.1862 361.861 91.5505 362.69 91.0625C363.518 90.5744 364.432 90.3078 365.431 90.2624C366.011 90.2362 366.573 90.2857 367.12 90.4111L366.36 92.5327C365.935 92.4219 365.522 92.3755 365.122 92.3936C364.313 92.4303 363.578 92.6639 362.917 93.0943C362.266 93.5242 361.756 94.0829 361.386 94.7704C361.017 95.4578 360.851 96.2111 360.888 97.0302L361.29 105.886L359.192 105.981ZM375.07 105.652C373.691 105.714 372.417 105.416 371.246 104.759C370.085 104.101 369.137 103.193 368.404 102.035C367.681 100.866 367.286 99.558 367.22 98.1094C367.17 97.0106 367.319 95.9778 367.665 95.0111C368.011 94.0344 368.508 93.171 369.154 92.421C369.811 91.6604 370.584 91.0548 371.474 90.604C372.365 90.1532 373.325 89.9044 374.354 89.8577C375.732 89.7952 377.002 90.093 378.163 90.7511C379.334 91.4087 380.281 92.3217 381.005 93.4901C381.739 94.6581 382.139 95.9713 382.205 97.4298C382.254 98.5187 382.106 99.5465 381.759 100.513C381.412 101.48 380.911 102.343 380.255 103.104C379.608 103.854 378.84 104.454 377.949 104.905C377.069 105.356 376.109 105.604 375.07 105.652ZM374.975 103.554C375.994 103.507 376.896 103.201 377.681 102.635C378.476 102.059 379.088 101.32 379.517 100.42C379.957 99.5188 380.154 98.5539 380.107 97.5249C380.059 96.476 379.776 95.5229 379.256 94.6655C378.737 93.7982 378.055 93.1184 377.212 92.6261C376.379 92.1333 375.458 91.9098 374.449 91.9556C373.43 92.0018 372.523 92.3132 371.728 92.8898C370.943 93.456 370.331 94.1895 369.891 95.0903C369.461 95.9907 369.27 96.9654 369.318 98.0143C369.367 99.0932 369.656 100.061 370.185 100.918C370.714 101.765 371.4 102.429 372.243 102.912C373.085 103.384 373.996 103.598 374.975 103.554ZM395.72 89.3091L397.818 89.2139L398.522 104.753C398.566 105.712 398.397 106.621 398.015 107.479C397.644 108.336 397.118 109.096 396.437 109.758C395.767 110.429 394.99 110.964 394.108 111.365C393.225 111.765 392.299 111.987 391.33 112.031C390.291 112.078 389.276 111.884 388.285 111.449C387.295 111.023 386.422 110.432 385.667 109.675C384.922 108.918 384.378 108.067 384.035 107.122L385.928 106.15C386.152 106.891 386.537 107.549 387.084 108.125C387.641 108.71 388.282 109.161 389.007 109.479C389.742 109.806 390.485 109.952 391.234 109.918C391.923 109.887 392.582 109.727 393.209 109.438C393.847 109.159 394.411 108.788 394.901 108.326C395.4 107.863 395.786 107.33 396.059 106.727C396.333 106.134 396.455 105.507 396.425 104.848L396.274 101.536C395.798 102.499 395.128 103.29 394.265 103.91C393.412 104.529 392.401 104.865 391.232 104.918C390.184 104.966 389.185 104.806 388.238 104.439C387.3 104.071 386.465 103.543 385.733 102.855C385.001 102.158 384.414 101.344 383.971 100.413C383.538 99.4815 383.297 98.4714 383.248 97.3825C383.198 96.2936 383.347 95.2658 383.694 94.2991C384.05 93.322 384.561 92.4579 385.228 91.7069C385.894 90.946 386.677 90.3398 387.578 89.8886C388.488 89.4369 389.468 89.1872 390.517 89.1396C391.686 89.0866 392.723 89.3299 393.628 89.8694C394.543 90.3985 395.282 91.1258 395.844 92.0512L395.72 89.3091ZM391.155 102.88C392.194 102.833 393.076 102.522 393.801 101.949C394.535 101.375 395.087 100.634 395.457 99.7267C395.826 98.819 395.987 97.8457 395.94 96.8068C395.891 95.7379 395.637 94.7734 395.178 93.9133C394.728 93.0428 394.111 92.3601 393.328 91.8651C392.544 91.36 391.643 91.1306 390.624 91.1769C389.605 91.2231 388.688 91.5299 387.873 92.0975C387.068 92.6545 386.44 93.3887 385.991 94.3C385.542 95.2113 385.342 96.2064 385.391 97.2853C385.44 98.3642 385.734 99.3368 386.274 100.203C386.813 101.06 387.509 101.734 388.363 102.226C389.225 102.707 390.156 102.925 391.155 102.88ZM401.656 104.055L400.976 89.0706L403.074 88.9755L403.168 91.0434C403.663 90.2601 404.325 89.6245 405.153 89.1364C405.982 88.6484 406.896 88.3817 407.895 88.3364C408.474 88.3101 409.037 88.3597 409.583 88.485L408.824 90.6066C408.398 90.4958 407.986 90.4494 407.586 90.4676C406.777 90.5043 406.042 90.7378 405.381 91.1682C404.73 91.5982 404.219 92.1569 403.85 92.8443C403.481 93.5317 403.315 94.285 403.352 95.1042L403.754 103.96L401.656 104.055ZM422.561 88.0916L424.658 87.9965L425.338 102.981L423.24 103.076L423.039 100.292C422.592 101.264 421.943 102.064 421.091 102.693C420.238 103.313 419.202 103.65 417.983 103.705C416.884 103.755 415.846 103.597 414.869 103.231C413.891 102.855 413.02 102.319 412.258 101.622C411.496 100.926 410.888 100.108 410.435 99.1674C409.982 98.227 409.73 97.2073 409.681 96.1085C409.632 95.0296 409.785 94.0066 410.142 93.0394C410.508 92.0718 411.03 91.2123 411.707 90.4609C412.393 89.709 413.197 89.1119 414.118 88.6698C415.048 88.2171 416.053 87.9664 417.132 87.9174C418.381 87.8608 419.483 88.1111 420.439 88.6683C421.395 89.2156 422.17 89.9563 422.763 90.8903L422.561 88.0916ZM417.846 101.669C418.915 101.621 419.822 101.319 420.568 100.765C421.313 100.201 421.87 99.4646 422.239 98.5569C422.619 97.6488 422.784 96.6603 422.736 95.5914C422.686 94.4925 422.431 93.5131 421.972 92.653C421.512 91.7829 420.885 91.1056 420.093 90.621C419.3 90.1365 418.374 89.9182 417.315 89.9662C416.256 90.0143 415.299 90.3229 414.444 90.8923C413.599 91.4512 412.936 92.1869 412.457 93.0996C411.988 94.0118 411.778 95.0073 411.827 96.0862C411.876 97.1751 412.186 98.1521 412.755 99.0171C413.325 99.8722 414.056 100.54 414.948 101.02C415.851 101.499 416.817 101.716 417.846 101.669ZM427.887 102.865L427.207 87.8809L429.305 87.7857L429.399 89.8536C429.904 89.0699 430.566 88.4342 431.385 87.9466C432.203 87.459 433.112 87.1926 434.111 87.1473C435.24 87.0961 436.287 87.3289 437.251 87.8457C438.215 88.3526 438.983 89.0535 439.554 89.9486C440.041 89.0055 440.737 88.2382 441.642 87.6466C442.545 87.045 443.561 86.7186 444.69 86.6674C445.819 86.6162 446.861 86.8443 447.815 87.3516C448.769 87.8589 449.541 88.5646 450.133 89.4687C450.724 90.3728 451.046 91.3893 451.097 92.5182L451.518 101.794L449.42 101.889L449.02 93.0778C448.984 92.2786 448.756 91.5482 448.335 90.8866C447.915 90.225 447.366 89.7043 446.688 89.3247C446.019 88.9345 445.286 88.7576 444.486 88.7939C443.687 88.8301 442.967 89.058 442.325 89.4775C441.693 89.8865 441.198 90.4396 440.839 91.1365C440.48 91.8235 440.32 92.6016 440.359 93.4707L440.759 102.282L438.661 102.377L438.261 93.5658C438.222 92.6967 437.992 91.9363 437.572 91.2847C437.152 90.6231 436.603 90.1174 435.927 89.7677C435.25 89.408 434.512 89.2463 433.713 89.2825C432.923 89.3183 432.209 89.561 431.568 90.0104C430.928 90.4499 430.428 91.0182 430.069 91.7151C429.71 92.4121 429.549 93.1602 429.585 93.9594L429.985 102.77L427.887 102.865ZM454.07 101.678L453.391 86.6932L455.488 86.5981L455.582 88.666C456.087 87.8823 456.749 87.2466 457.568 86.759C458.387 86.2714 459.295 86.005 460.294 85.9597C461.423 85.9085 462.47 86.1413 463.434 86.6581C464.398 87.165 465.166 87.8659 465.737 88.7609C466.225 87.8179 466.921 87.0505 467.825 86.459C468.728 85.8574 469.745 85.531 470.874 85.4798C472.002 85.4286 473.044 85.6567 473.998 86.164C474.952 86.6713 475.725 87.377 476.316 88.2811C476.908 89.1852 477.229 90.2017 477.28 91.3305L477.701 100.606L475.603 100.701L475.203 91.8902C475.167 91.091 474.939 90.3606 474.518 89.699C474.098 89.0374 473.549 88.5167 472.871 88.137C472.203 87.7469 471.469 87.57 470.67 87.6062C469.871 87.6425 469.15 87.8704 468.508 88.2899C467.876 88.6989 467.381 89.252 467.022 89.9489C466.663 90.6359 466.503 91.414 466.542 92.2831L466.942 101.094L464.844 101.189L464.445 92.3782C464.405 91.5091 464.175 90.7487 463.755 90.0971C463.335 89.4355 462.787 88.9298 462.11 88.5801C461.433 88.2204 460.695 88.0587 459.896 88.0949C459.107 88.1307 458.392 88.3734 457.752 88.8228C457.111 89.2623 456.611 89.8305 456.252 90.5275C455.893 91.2245 455.732 91.9726 455.768 92.7717L456.168 101.583L454.07 101.678ZM486.572 100.594C485.193 100.657 483.918 100.359 482.747 99.7014C481.586 99.0433 480.639 98.1353 479.906 96.9774C479.182 95.809 478.788 94.5005 478.722 93.052C478.672 91.9531 478.82 90.9203 479.167 89.9536C479.513 88.977 480.009 88.1136 480.656 87.3635C481.312 86.603 482.086 85.9973 482.976 85.5465C483.867 85.0957 484.826 84.847 485.855 84.8003C486.964 84.75 487.993 84.9235 488.942 85.321C489.901 85.7179 490.733 86.2958 491.438 87.0546C492.153 87.813 492.705 88.714 493.092 89.7575C493.49 90.8005 493.687 91.9378 493.683 93.1692L480.976 93.7456C481.139 94.6892 481.477 95.5247 481.99 96.2522C482.514 96.9792 483.16 97.5455 483.929 97.9511C484.708 98.3462 485.557 98.5279 486.477 98.4962C487.476 98.4509 488.363 98.1504 489.138 97.5947C489.924 97.0385 490.541 96.2948 490.989 95.3635L493.139 95.7615C492.6 97.1173 491.746 98.2472 490.575 99.1512C489.405 100.045 488.07 100.526 486.572 100.594ZM480.839 92.055L491.493 91.5718C491.381 90.6459 491.058 89.8097 490.523 89.0632C489.998 88.3062 489.336 87.7156 488.536 87.2914C487.735 86.8572 486.871 86.6612 485.942 86.7033C485.013 86.7455 484.174 87.0137 483.426 87.5082C482.677 87.9926 482.075 88.6355 481.621 89.4369C481.166 90.2283 480.906 91.101 480.839 92.055ZM496.106 99.7712L495.426 84.7866L497.524 84.6915L497.618 86.7593C498.113 85.9761 498.774 85.3405 499.603 84.8524C500.432 84.3644 501.346 84.0977 502.345 84.0524C502.924 84.0261 503.487 84.0756 504.033 84.201L503.274 86.3226C502.848 86.2118 502.436 86.1654 502.036 86.1835C501.227 86.2202 500.492 86.4538 499.83 86.8842C499.179 87.3141 498.669 87.8728 498.3 88.5603C497.931 89.2477 497.765 90.001 497.802 90.8202L498.203 99.6761L496.106 99.7712ZM510.806 99.3897C509.986 99.4069 509.18 99.2933 508.388 99.0489C507.596 98.8046 506.9 98.4558 506.298 98.0025C505.697 97.5493 505.258 97.0237 504.981 96.4256L506.758 95.5642C506.936 95.9465 507.247 96.2928 507.691 96.603C508.146 96.9027 508.657 97.1398 509.225 97.3142C509.793 97.4787 510.352 97.5484 510.901 97.5235C511.511 97.4958 512.076 97.3701 512.596 97.1463C513.117 96.9225 513.533 96.6183 513.846 96.2337C514.169 95.8387 514.318 95.3865 514.295 94.877C514.27 94.3276 514.071 93.9062 513.697 93.6128C513.323 93.3094 512.857 93.0803 512.3 92.9254C511.742 92.7605 511.169 92.6063 510.582 92.4628C509.51 92.2211 508.561 91.9438 507.736 91.6309C506.911 91.3179 506.257 90.9021 505.773 90.3835C505.298 89.8545 505.042 89.1604 505.003 88.3013C504.961 87.3922 505.181 86.5965 505.66 85.9141C506.149 85.2212 506.8 84.6761 507.613 84.2789C508.435 83.8712 509.321 83.6458 510.27 83.6028C511.489 83.5475 512.61 83.762 513.633 84.2461C514.666 84.7298 515.427 85.401 515.916 86.2597L514.269 87.3405C514.07 86.939 513.769 86.5973 513.366 86.3153C512.963 86.0333 512.508 85.8187 512.001 85.6715C511.503 85.5239 511 85.4566 510.49 85.4698C509.85 85.4888 509.26 85.6106 508.72 85.8353C508.179 86.0501 507.747 86.3549 507.425 86.75C507.112 87.1445 506.969 87.6165 506.993 88.166C507.018 88.7154 507.202 89.1275 507.545 89.4022C507.887 89.667 508.342 89.8766 508.91 90.031C509.487 90.175 510.135 90.3458 510.855 90.5434C511.777 90.7919 512.646 91.0828 513.462 91.4162C514.278 91.7495 514.944 92.1798 515.458 92.7071C515.972 93.2343 516.244 93.9177 516.272 94.7573C516.312 95.6564 516.078 96.4528 515.569 97.1466C515.06 97.8404 514.384 98.3866 513.541 98.7852C512.698 99.1738 511.786 99.3753 510.806 99.3897ZM527.778 105.842L525.681 105.937L524.661 83.4606L526.759 83.3654L526.886 86.1675C527.362 85.195 528.037 84.3936 528.909 83.7634C529.782 83.1332 530.837 82.7901 532.076 82.7339C533.165 82.6845 534.193 82.843 535.16 83.2096C536.138 83.5757 537.003 84.107 537.755 84.8036C538.507 85.4903 539.11 86.2988 539.562 87.2293C540.015 88.1597 540.266 89.1694 540.315 90.2583C540.365 91.3471 540.206 92.3804 539.84 93.358C539.474 94.3356 538.948 95.2053 538.262 95.9672C537.575 96.719 536.762 97.3215 535.821 97.7746C534.891 98.2272 533.881 98.4782 532.792 98.5276C531.553 98.5838 530.471 98.3376 529.545 97.789C528.62 97.2404 527.875 96.5033 527.313 95.5779L527.778 105.842ZM532.153 84.7724C531.104 84.82 530.202 85.1262 529.447 85.691C528.701 86.2454 528.139 86.9716 527.759 87.8697C527.379 88.7679 527.214 89.7614 527.264 90.8502C527.312 91.9191 527.561 92.8889 528.011 93.7594C528.471 94.6294 529.098 95.3117 529.891 95.8063C530.694 96.3004 531.625 96.5234 532.684 96.4754C533.723 96.4283 534.665 96.1253 535.511 95.5664C536.366 95.0071 537.039 94.2758 537.528 93.3727C538.018 92.4596 538.237 91.4536 538.187 90.3548C538.139 89.2859 537.835 88.3237 537.276 87.4681C536.716 86.6026 535.989 85.9248 535.096 85.4348C534.203 84.9447 533.222 84.724 532.153 84.7724ZM542.744 97.6558L542.064 82.6712L544.162 82.5761L544.256 84.6439C544.751 83.8607 545.413 83.2251 546.242 82.737C547.07 82.2489 547.984 81.9823 548.983 81.937C549.563 81.9107 550.125 81.9602 550.672 82.0856L549.912 84.2072C549.486 84.0964 549.074 84.05 548.674 84.0681C547.865 84.1048 547.13 84.3384 546.469 84.7688C545.818 85.1987 545.307 85.7574 544.938 86.4449C544.569 87.1323 544.403 87.8856 544.44 88.7048L544.842 97.5607L542.744 97.6558ZM558.622 97.326C557.243 97.3885 555.968 97.091 554.797 96.4334C553.636 95.7753 552.689 94.8673 551.956 93.7093C551.232 92.5409 550.838 91.2325 550.772 89.784C550.722 88.6851 550.871 87.6523 551.217 86.6856C551.563 85.7089 552.06 84.8455 552.706 84.0955C553.362 83.335 554.136 82.7293 555.026 82.2785C555.917 81.8277 556.877 81.5789 557.905 81.5323C559.014 81.482 560.043 81.6555 560.992 82.0529C561.951 82.4499 562.783 83.0278 563.488 83.7866C564.203 84.545 564.755 85.4459 565.143 86.4894C565.54 87.5325 565.737 88.6697 565.733 89.9012L553.026 90.4775C553.189 91.4211 553.527 92.2567 554.04 92.9842C554.564 93.7112 555.21 94.2775 555.979 94.683C556.758 95.0782 557.607 95.2599 558.527 95.2282C559.526 95.1829 560.413 94.8824 561.189 94.3266C561.974 93.7705 562.591 93.0268 563.039 92.0955L565.19 92.4935C564.651 93.8493 563.796 94.9792 562.626 95.8831C561.455 96.7771 560.12 97.2581 558.622 97.326ZM552.889 88.787L563.543 88.3038C563.431 87.3779 563.108 86.5417 562.573 85.7951C562.049 85.0381 561.386 84.4475 560.586 84.0234C559.786 83.5892 558.921 83.3932 557.992 83.4353C557.063 83.4774 556.224 83.7457 555.476 84.2401C554.727 84.7246 554.125 85.3675 553.671 86.1689C553.217 86.9603 552.956 87.833 552.889 88.787ZM570.547 77.4603L570.724 81.3713L575.22 81.1674L575.315 83.2652L570.819 83.4691L571.404 96.3559L569.306 96.451L568.721 83.5643L566.669 83.6574L566.573 81.5595L568.626 81.4664L568.449 77.5554C568.416 76.8262 568.561 76.1589 568.884 75.5537C569.216 74.938 569.674 74.4417 570.258 74.0649C570.841 73.6781 571.497 73.4681 572.226 73.4351C572.756 73.411 573.27 73.4928 573.769 73.6804C574.278 73.8675 574.736 74.1571 575.145 74.549L573.713 76.1004C573.545 75.9079 573.333 75.7623 573.078 75.6637C572.833 75.5647 572.581 75.5211 572.321 75.5329C571.812 75.556 571.38 75.7558 571.027 76.1322C570.684 76.5081 570.524 76.9508 570.547 77.4603ZM584.121 96.1694C582.743 96.2319 581.468 95.9344 580.297 95.2768C579.136 94.6187 578.189 93.7107 577.456 92.5527C576.732 91.3843 576.337 90.0759 576.272 88.6274C576.222 87.5285 576.37 86.4957 576.717 85.529C577.063 84.5523 577.559 83.6889 578.206 82.9389C578.862 82.1784 579.635 81.5727 580.526 81.1219C581.416 80.6711 582.376 80.4223 583.405 80.3757C584.514 80.3254 585.543 80.4989 586.492 80.8963C587.451 81.2933 588.283 81.8712 588.988 82.63C589.703 83.3884 590.254 84.2893 590.642 85.3328C591.04 86.3759 591.237 87.5131 591.232 88.7446L578.525 89.3209C578.688 90.2645 579.026 91.1001 579.54 91.8275C580.063 92.5546 580.71 93.1209 581.479 93.5264C582.258 93.9216 583.107 94.1033 584.026 94.0716C585.025 94.0263 585.913 93.7258 586.688 93.17C587.474 92.6139 588.091 91.8702 588.539 90.9389L590.689 91.3369C590.15 92.6927 589.295 93.8226 588.125 94.7265C586.954 95.6205 585.62 96.1015 584.121 96.1694ZM578.389 87.6304L589.043 87.1472C588.931 86.2213 588.607 85.3851 588.073 84.6385C587.548 83.8815 586.886 83.2909 586.086 82.8668C585.285 82.4326 584.42 82.2366 583.491 82.2787C582.562 82.3208 581.724 82.5891 580.975 83.0835C580.226 83.568 579.625 84.2109 579.171 85.0123C578.716 85.8037 578.455 86.6764 578.389 87.6304ZM593.655 95.3466L592.976 80.362L595.073 80.2668L595.167 82.3347C595.662 81.5515 596.324 80.9158 597.153 80.4278C597.982 79.9397 598.895 79.673 599.894 79.6277C600.474 79.6015 601.037 79.651 601.583 79.7764L600.823 81.898C600.398 81.7871 599.985 81.7408 599.586 81.7589C598.777 81.7956 598.041 82.0292 597.38 82.4596C596.729 82.8895 596.219 83.4482 595.85 84.1356C595.48 84.8231 595.314 85.5764 595.351 86.3955L595.753 95.2514L593.655 95.3466ZM621.98 71.5387L624.078 71.4435L625.098 93.9204L623 94.0156L622.873 91.2135C622.397 92.196 621.718 93.0026 620.835 93.6333C619.962 94.2535 618.907 94.5916 617.668 94.6478C616.579 94.6972 615.551 94.5386 614.583 94.1721C613.616 93.8056 612.751 93.2792 611.989 92.593C611.237 91.8964 610.634 91.0829 610.182 90.1524C609.729 89.222 609.478 88.2123 609.429 87.1234C609.379 86.0346 609.538 85.0063 609.904 84.0387C610.27 83.0611 610.797 82.1964 611.483 81.4445C612.18 80.6822 612.993 80.0747 613.923 79.6221C614.854 79.1694 615.863 78.9184 616.952 78.869C618.191 78.8129 619.273 79.0591 620.199 79.6077C621.134 80.1459 621.883 80.8777 622.446 81.8031L621.98 71.5387ZM617.59 92.6092C618.659 92.5608 619.567 92.2593 620.312 91.705C621.058 91.1406 621.615 90.4046 621.984 89.497C622.363 88.5889 622.529 87.6003 622.48 86.5314C622.43 85.4326 622.176 84.4531 621.716 83.593C621.256 82.723 620.63 82.0457 619.837 81.5611C619.044 81.0765 618.119 80.8582 617.06 80.9063C616.001 80.9543 615.049 81.2628 614.204 81.8316C613.358 82.3905 612.696 83.1263 612.217 84.0389C611.737 84.9516 611.522 85.9474 611.571 87.0262C611.621 88.1151 611.93 89.0921 612.5 89.9572C613.069 90.8122 613.8 91.4798 614.693 91.9599C615.596 92.4395 616.562 92.6559 617.59 92.6092ZM639.767 78.2396L641.865 78.1445L642.544 93.1291L640.447 93.2242L640.245 90.4405C639.799 91.4117 639.149 92.212 638.297 92.8412C637.444 93.4605 636.408 93.7978 635.19 93.8531C634.091 93.9029 633.053 93.7448 632.075 93.3787C631.097 93.0027 630.227 92.4665 629.464 91.7704C628.702 91.0742 628.094 90.2559 627.641 89.3154C627.188 88.375 626.937 87.3554 626.887 86.2565C626.838 85.1776 626.992 84.1546 627.348 83.1874C627.715 82.2198 628.236 81.3603 628.913 80.6089C629.6 79.857 630.403 79.26 631.324 78.8178C632.255 78.3652 633.26 78.1144 634.338 78.0654C635.587 78.0088 636.69 78.2591 637.646 78.8163C638.602 79.3636 639.376 80.1043 639.969 81.0384L639.767 78.2396ZM635.052 91.8172C636.121 91.7687 637.028 91.4673 637.774 90.913C638.519 90.3486 639.076 89.6126 639.446 88.7049C639.825 87.7968 639.99 86.8083 639.942 85.7394C639.892 84.6405 639.637 83.6611 639.178 82.801C638.718 81.931 638.092 81.2536 637.299 80.7691C636.506 80.2845 635.58 80.0662 634.521 80.1142C633.463 80.1623 632.506 80.471 631.65 81.0403C630.805 81.5992 630.143 82.3349 629.663 83.2476C629.194 84.1598 628.984 85.1553 629.033 86.2342C629.082 87.3231 629.392 88.3001 629.962 89.1651C630.531 90.0202 631.262 90.6878 632.155 91.1678C633.057 91.6474 634.023 91.8639 635.052 91.8172ZM645.093 93.0135L644.414 78.0289L646.512 77.9337L646.605 80.0016C647.1 79.2184 647.762 78.5827 648.591 78.0947C649.42 77.6066 650.334 77.3399 651.333 77.2946C651.912 77.2683 652.475 77.3179 653.021 77.4433L652.261 79.5649C651.836 79.454 651.423 79.4077 651.024 79.4258C650.215 79.4625 649.479 79.6961 648.818 80.1265C648.167 80.5564 647.657 81.1151 647.288 81.8025C646.918 82.49 646.752 83.2433 646.79 84.0624L647.191 92.9183L645.093 93.0135ZM666.707 92.0331L664.295 92.1425L659.771 85.0953L656.936 88.8125L657.102 92.4688L655.004 92.5639L653.985 70.087L656.083 69.9919L656.788 85.5459L663.181 77.1777L665.923 77.0533L661.117 83.3225L666.707 92.0331ZM676.026 91.6104L675.346 76.6258L677.444 76.5307L677.538 78.5986C678.043 77.8149 678.705 77.1792 679.524 76.6916C680.342 76.204 681.251 75.9376 682.25 75.8923C683.379 75.8411 684.426 76.0739 685.39 76.5907C686.354 77.0976 687.122 77.7985 687.693 78.6935C688.181 77.7505 688.876 76.9831 689.781 76.3916C690.684 75.79 691.7 75.4636 692.829 75.4124C693.958 75.3612 695 75.5893 695.954 76.0966C696.908 76.6039 697.68 77.3096 698.272 78.2137C698.863 79.1178 699.185 80.1343 699.236 81.2631L699.657 90.5386L697.559 90.6338L697.159 81.8228C697.123 81.0236 696.895 80.2932 696.474 79.6316C696.054 78.97 695.505 78.4493 694.827 78.0696C694.158 77.6795 693.425 77.5026 692.625 77.5388C691.826 77.5751 691.106 77.803 690.464 78.2225C689.832 78.6315 689.337 79.1846 688.978 79.8815C688.619 80.5685 688.459 81.3466 688.498 82.2157L688.898 91.0266L686.8 91.1218L686.4 82.3108C686.361 81.4417 686.131 80.6813 685.711 80.0297C685.291 79.3681 684.742 78.8624 684.066 78.5127C683.389 78.153 682.651 77.9913 681.852 78.0275C681.062 78.0633 680.348 78.306 679.707 78.7554C679.067 79.1949 678.567 79.7631 678.208 80.4601C677.849 81.1571 677.688 81.9052 677.724 82.7043L678.124 91.5153L676.026 91.6104ZM708.528 90.5266C707.149 90.5892 705.874 90.2916 704.703 89.634C703.542 88.9759 702.595 88.0679 701.862 86.91C701.138 85.7416 700.743 84.4331 700.678 82.9846C700.628 81.8857 700.776 80.8529 701.123 79.8862C701.469 78.9095 701.965 78.0462 702.612 77.2961C703.268 76.5356 704.042 75.9299 704.932 75.4791C705.822 75.0283 706.782 74.7796 707.811 74.7329C709.19 74.6704 710.46 74.9681 711.621 75.6262C712.792 76.2838 713.739 77.1968 714.463 78.3652C715.196 79.5332 715.596 80.8464 715.662 82.3049C715.712 83.3938 715.563 84.4216 715.217 85.3883C714.87 86.355 714.369 87.2186 713.712 87.9791C713.066 88.7292 712.297 89.3296 711.407 89.7804C710.526 90.2308 709.566 90.4795 708.528 90.5266ZM708.432 88.4288C709.451 88.3826 710.353 88.0764 711.139 87.5102C711.933 86.9336 712.545 86.1951 712.975 85.2947C713.415 84.3939 713.611 83.429 713.564 82.4001C713.517 81.3511 713.233 80.398 712.714 79.5407C712.194 78.6733 711.513 77.9935 710.67 77.5012C709.836 77.0085 708.915 76.785 707.906 76.8307C706.887 76.8769 705.981 77.1884 705.186 77.765C704.401 78.3311 703.788 79.0646 703.349 79.9655C702.919 80.8658 702.728 81.8405 702.776 82.8894C702.824 83.9683 703.114 84.9362 703.643 85.7931C704.172 86.64 704.858 87.3046 705.7 87.7869C706.543 88.2592 707.453 88.4732 708.432 88.4288ZM729.257 66.6729L731.355 66.5777L732.374 89.0546L730.277 89.1498L730.149 86.3476C729.674 87.3302 728.994 88.1368 728.112 88.7674C727.239 89.3876 726.183 89.7258 724.945 89.782C723.856 89.8314 722.828 89.6728 721.86 89.3063C720.892 88.9397 720.028 88.4134 719.266 87.7272C718.513 87.0306 717.911 86.217 717.458 85.2866C717.006 84.3561 716.755 83.3465 716.705 82.2576C716.656 81.1687 716.815 80.1405 717.181 79.1729C717.547 78.1953 718.074 77.3306 718.76 76.5787C719.456 75.8163 720.27 75.2089 721.2 74.7562C722.131 74.3036 723.14 74.0526 724.229 74.0032C725.468 73.947 726.55 74.1932 727.476 74.7419C728.411 75.28 729.16 76.0118 729.723 76.9373L729.257 66.6729ZM724.867 87.7434C725.936 87.6949 726.843 87.3935 727.589 86.8392C728.334 86.2748 728.892 85.5388 729.261 84.6311C729.64 83.723 729.805 82.7345 729.757 81.6656C729.707 80.5667 729.452 79.5873 728.993 78.7272C728.533 77.8572 727.907 77.1798 727.114 76.6953C726.321 76.2107 725.395 75.9924 724.336 76.0404C723.278 76.0885 722.326 76.3969 721.48 76.9658C720.635 77.5247 719.973 78.2605 719.493 79.1731C719.014 80.0858 718.799 81.0815 718.848 82.1604C718.898 83.2493 719.207 84.2263 719.777 85.0913C720.346 85.9464 721.077 86.614 721.97 87.094C722.873 87.5736 723.838 87.7901 724.867 87.7434ZM742.017 89.0076C740.638 89.0702 739.364 88.7726 738.193 88.115C737.032 87.4569 736.084 86.5489 735.351 85.391C734.628 84.2225 734.233 82.9141 734.167 81.4656C734.117 80.3667 734.266 79.3339 734.612 78.3672C734.958 77.3905 735.455 76.5272 736.101 75.7771C736.758 75.0166 737.531 74.4109 738.421 73.9601C739.312 73.5093 740.272 73.2606 741.301 73.2139C742.409 73.1636 743.438 73.3371 744.387 73.7346C745.346 74.1315 746.178 74.7094 746.883 75.4682C747.599 76.2266 748.15 77.1275 748.538 78.1711C748.935 79.2141 749.132 80.3514 749.128 81.5828L736.421 82.1592C736.584 83.1028 736.922 83.9383 737.435 84.6658C737.959 85.3928 738.605 85.9591 739.374 86.3647C740.153 86.7598 741.002 86.9415 741.922 86.9098C742.921 86.8645 743.808 86.564 744.584 86.0083C745.369 85.4521 745.986 84.7084 746.434 83.7771L748.585 84.1751C748.046 85.5309 747.191 86.6608 746.021 87.5647C744.85 88.4587 743.515 88.9397 742.017 89.0076ZM736.284 80.4686L746.938 79.9854C746.826 79.0595 746.503 78.2233 745.968 77.4767C745.444 76.7198 744.781 76.1292 743.981 75.705C743.181 75.2708 742.316 75.0748 741.387 75.1169C740.458 75.1591 739.619 75.4273 738.871 75.9218C738.122 76.4062 737.52 77.0491 737.066 77.8505C736.612 78.6419 736.351 79.5146 736.284 80.4686ZM755.94 80.7633C755.896 79.7743 756.099 78.8541 756.551 78.0028C757.013 77.151 757.667 76.4656 758.515 75.9467C759.12 75.5989 759.583 75.1074 759.904 74.4722C760.226 73.827 760.369 73.1298 760.335 72.3805C760.302 71.6513 760.092 71.0001 759.706 70.427C759.33 69.8535 758.834 69.4055 758.219 69.0831C757.613 68.7602 756.951 68.615 756.232 68.6476C755.513 68.6803 754.861 68.885 754.278 69.2618C753.704 69.6382 753.256 70.129 752.933 70.7343C752.61 71.3395 752.465 72.0068 752.498 72.736L750.4 72.8312C750.35 71.7223 750.574 70.7011 751.072 69.7676C751.57 68.834 752.262 68.0769 753.146 67.4963C754.041 66.9151 755.038 66.5996 756.137 66.5498C757.245 66.4995 758.267 66.7235 759.2 67.2217C760.144 67.7194 760.906 68.4106 761.487 69.2952C762.067 70.1798 762.383 71.1765 762.433 72.2854C762.484 73.4142 762.257 74.4706 761.751 75.4546C761.244 76.4285 760.524 77.197 759.588 77.7599C759.081 78.0632 758.689 78.4714 758.412 78.9845C758.135 79.4975 758.011 80.0588 758.038 80.6681L755.94 80.7633ZM757.274 88.3156C756.944 88.3306 756.654 88.2236 756.404 87.9947C756.163 87.7654 756.035 87.4859 756.02 87.1562C756.005 86.8266 756.107 86.5417 756.327 86.3015C756.556 86.0608 756.836 85.933 757.165 85.9181C757.495 85.9031 757.78 86.0053 758.02 86.2247C758.27 86.4436 758.403 86.7178 758.418 87.0475C758.433 87.3771 758.326 87.6673 758.097 87.9179C757.878 88.1681 757.604 88.3007 757.274 88.3156ZM847.292 83.8422L846.34 62.8638L853.428 62.5423C854.447 62.4961 855.38 62.664 856.229 63.0459C857.086 63.4174 857.778 63.9917 858.304 64.7687C858.839 65.5352 859.132 66.4829 859.184 67.6117C859.213 68.2511 859.125 68.8656 858.922 69.4555C858.718 70.0453 858.441 70.5534 858.09 70.9797C857.739 71.3961 857.351 71.6739 856.927 71.8133C857.553 71.945 858.1 72.2005 858.568 72.5797C859.035 72.9489 859.426 73.3967 859.74 73.923C860.054 74.4393 860.289 74.9892 860.446 75.5727C860.612 76.1558 860.708 76.732 860.734 77.3014C860.788 78.4802 860.575 79.5259 860.096 80.4386C859.627 81.3508 858.974 82.0761 858.137 82.6145C857.3 83.143 856.357 83.431 855.309 83.4786L847.292 83.8422ZM849.305 81.874L855.059 81.613C855.788 81.5799 856.439 81.3602 857.011 80.9539C857.593 80.5471 858.044 80.0061 858.364 79.3309C858.693 78.6553 858.84 77.9029 858.802 77.0737C858.768 76.3345 858.557 75.6484 858.168 75.0153C857.788 74.3719 857.29 73.8639 856.672 73.4915C856.064 73.1087 855.396 72.9338 854.667 72.9669L848.912 73.2279L849.305 81.874ZM848.829 71.3848L853.639 71.1666C854.628 71.1217 855.459 70.7987 856.133 70.1976C856.816 69.586 857.133 68.7508 857.085 67.6919C857.032 66.5331 856.639 65.69 855.904 65.1628C855.179 64.6251 854.322 64.3787 853.333 64.4235L848.523 64.6417L848.829 71.3848ZM869.579 83.2217C868.201 83.2842 866.926 82.9867 865.755 82.3291C864.594 81.671 863.647 80.763 862.913 79.605C862.19 78.4366 861.795 77.1282 861.729 75.6797C861.679 74.5808 861.828 73.548 862.174 72.5813C862.52 71.6046 863.017 70.7412 863.664 69.9912C864.32 69.2307 865.093 68.625 865.984 68.1742C866.874 67.7234 867.834 67.4746 868.863 67.428C869.972 67.3777 871.001 67.5512 871.95 67.9486C872.908 68.3456 873.741 68.9235 874.446 69.6823C875.161 70.4407 875.712 71.3416 876.1 72.3851C876.497 73.4282 876.694 74.5654 876.69 75.7969L863.983 76.3732C864.146 77.3168 864.484 78.1524 864.998 78.8798C865.521 79.6069 866.167 80.1732 866.937 80.5787C867.715 80.9739 868.564 81.1556 869.484 81.1239C870.483 81.0786 871.37 80.778 872.146 80.2223C872.931 79.6662 873.548 78.9224 873.997 77.9912L876.147 78.3892C875.608 79.745 874.753 80.8749 873.583 81.7788C872.412 82.6728 871.078 83.1537 869.579 83.2217ZM863.846 74.6827L874.5 74.1995C874.388 73.2736 874.065 72.4374 873.531 71.6908C873.006 70.9338 872.343 70.3432 871.543 69.919C870.743 69.4849 869.878 69.2889 868.949 69.331C868.02 69.3731 867.181 69.6414 866.433 70.1358C865.684 70.6203 865.083 71.2632 864.628 72.0646C864.174 72.856 863.913 73.7287 863.846 74.6827ZM889.495 78.1591L891.414 79.0931C890.778 80.0729 889.948 80.8713 888.925 81.4883C887.912 82.1049 886.796 82.4408 885.577 82.4961C884.199 82.5586 882.924 82.261 881.753 81.6034C880.592 80.9454 879.645 80.0373 878.912 78.8794C878.188 77.711 877.793 76.4025 877.728 74.954C877.678 73.8551 877.826 72.8223 878.173 71.8557C878.519 70.879 879.015 70.0156 879.662 69.2655C880.318 68.505 881.091 67.8993 881.982 67.4485C882.872 66.9977 883.832 66.749 884.861 66.7023C886.08 66.647 887.222 66.8805 888.286 67.4028C889.361 67.9247 890.26 68.6497 890.983 69.5779L889.155 70.6668C888.606 70.031 887.959 69.5549 887.213 69.2383C886.468 68.9118 885.715 68.7657 884.956 68.8001C883.947 68.8459 883.045 69.1571 882.251 69.7337C881.456 70.3003 880.838 71.034 880.399 71.9349C879.969 72.8353 879.778 73.8099 879.826 74.8588C879.873 75.9078 880.157 76.8609 880.676 77.7183C881.205 78.5751 881.892 79.2497 882.735 79.742C883.578 80.2244 884.493 80.4431 885.482 80.3982C886.301 80.3611 887.062 80.1364 887.764 79.7241C888.466 79.3119 889.043 78.7902 889.495 78.1591ZM905.227 66.199L907.325 66.1038L908.005 81.0884L905.907 81.1836L905.705 78.3998C905.259 79.3711 904.61 80.1713 903.757 80.8006C902.904 81.4199 901.869 81.7571 900.65 81.8124C899.551 81.8623 898.513 81.7041 897.535 81.3381C896.557 80.962 895.687 80.4259 894.925 79.7297C894.162 79.0335 893.555 78.2152 893.102 77.2748C892.648 76.3343 892.397 75.3147 892.347 74.2158C892.298 73.1369 892.452 72.1139 892.809 71.1468C893.175 70.1792 893.697 69.3196 894.373 68.5682C895.06 67.8163 895.864 67.2193 896.785 66.7771C897.715 66.3245 898.72 66.0737 899.799 66.0248C901.047 65.9681 902.15 66.2184 903.106 66.7757C904.062 67.3229 904.836 68.0636 905.429 68.9977L905.227 66.199ZM900.512 79.7765C901.581 79.7281 902.489 79.4266 903.234 78.8723C903.98 78.3079 904.537 77.5719 904.906 76.6643C905.285 75.7562 905.451 74.7677 905.402 73.6988C905.352 72.5999 905.098 71.6204 904.638 70.7603C904.178 69.8903 903.552 69.213 902.759 68.7284C901.966 68.2438 901.041 68.0256 899.982 68.0736C898.923 68.1216 897.966 68.4303 897.111 68.9996C896.265 69.5585 895.603 70.2943 895.124 71.2069C894.655 72.1191 894.444 73.1147 894.493 74.1936C894.543 75.2824 894.852 76.2594 895.422 77.1245C895.991 77.9796 896.722 78.6471 897.615 79.1272C898.518 79.6068 899.484 79.8232 900.512 79.7765ZM909.694 75.2609L909.275 66.0154L911.372 65.9202L911.773 74.7462C911.81 75.5653 912.043 76.3005 912.473 76.9517C912.903 77.6029 913.462 78.1131 914.149 78.4823C914.847 78.8511 915.6 79.0171 916.409 78.9804C917.229 78.9433 917.959 78.7099 918.6 78.2805C919.251 77.8505 919.761 77.2918 920.131 76.6044C920.5 75.9169 920.666 75.1636 920.629 74.3445L920.228 65.5186L922.326 65.4234L923.021 80.4073L920.923 80.5025L920.813 78.4053C920.318 79.1885 919.656 79.8242 918.827 80.3122C918.008 80.7998 917.1 81.0663 916.101 81.1116C914.972 81.1628 913.93 80.9348 912.976 80.4275C912.022 79.9202 911.25 79.2145 910.658 78.3103C910.067 77.4062 909.745 76.3897 909.694 75.2609ZM930.2 80.367C929.38 80.3842 928.574 80.2706 927.782 80.0262C926.99 79.7818 926.294 79.433 925.693 78.9798C925.092 78.5266 924.652 78.0009 924.375 77.4029L926.153 76.5414C926.33 76.9238 926.641 77.2701 927.086 77.5802C927.54 77.88 928.051 78.117 928.619 78.2915C929.188 78.4559 929.746 78.5257 930.296 78.5007C930.905 78.4731 931.47 78.3474 931.99 78.1236C932.511 77.8997 932.927 77.5956 933.24 77.211C933.563 76.816 933.712 76.3637 933.689 75.8542C933.664 75.3048 933.465 74.8834 933.091 74.59C932.717 74.2867 932.251 74.0576 931.694 73.9027C931.136 73.7378 930.563 73.5836 929.976 73.44C928.904 73.1983 927.955 72.921 927.13 72.6081C926.305 72.2952 925.651 71.8794 925.167 71.3608C924.692 70.8317 924.436 70.1377 924.397 69.2785C924.356 68.3695 924.575 67.5737 925.054 66.8913C925.543 66.1984 926.194 65.6534 927.007 65.2561C927.83 64.8485 928.715 64.6231 929.664 64.58C930.883 64.5248 932.004 64.7392 933.027 65.2233C934.06 65.707 934.821 66.3782 935.31 67.2369L933.663 68.3177C933.464 67.9163 933.164 67.5746 932.76 67.2925C932.357 67.0105 931.902 66.7959 931.395 66.6488C930.898 66.5011 930.394 66.4339 929.884 66.447C929.244 66.466 928.654 66.5879 928.114 66.8126C927.573 67.0273 927.141 67.3322 926.819 67.7272C926.507 68.1218 926.363 68.5938 926.388 69.1432C926.413 69.6926 926.596 70.1047 926.939 70.3795C927.282 70.6442 927.737 70.8538 928.304 71.0083C928.881 71.1523 929.53 71.3231 930.249 71.5207C931.172 71.7691 932.041 72.06 932.857 72.3934C933.673 72.7268 934.338 73.1571 934.852 73.6843C935.367 74.2116 935.638 74.895 935.666 75.7346C935.707 76.6336 935.472 77.4301 934.963 78.1238C934.454 78.8176 933.778 79.3638 932.936 79.7624C932.092 80.151 931.181 80.3525 930.2 80.367ZM944.479 79.8244C943.1 79.887 941.825 79.5894 940.654 78.9318C939.493 78.2737 938.546 77.3657 937.813 76.2078C937.089 75.0393 936.695 73.7309 936.629 72.2824C936.579 71.1835 936.727 70.1507 937.074 69.184C937.42 68.2073 937.916 67.344 938.563 66.5939C939.219 65.8334 939.993 65.2277 940.883 64.7769C941.774 64.3261 942.733 64.0774 943.762 64.0307C944.871 63.9804 945.9 64.1539 946.849 64.5514C947.808 64.9483 948.64 65.5262 949.345 66.285C950.06 67.0434 950.612 67.9443 950.999 68.9879C951.397 70.0309 951.594 71.1682 951.59 72.3996L938.883 72.976C939.046 73.9196 939.384 74.7551 939.897 75.4826C940.421 76.2096 941.067 76.7759 941.836 77.1815C942.615 77.5766 943.464 77.7583 944.384 77.7266C945.382 77.6813 946.27 77.3808 947.045 76.8251C947.831 76.2689 948.448 75.5252 948.896 74.5939L951.046 74.9919C950.507 76.3477 949.653 77.4776 948.482 78.3815C947.312 79.2755 945.977 79.7565 944.479 79.8244ZM938.746 71.2854L949.4 70.8022C949.288 69.8763 948.965 69.0401 948.43 68.2935C947.905 67.5366 947.243 66.946 946.443 66.5218C945.642 66.0876 944.778 65.8916 943.849 65.9337C942.92 65.9759 942.081 66.2441 941.332 66.7386C940.584 67.223 939.982 67.8659 939.528 68.6673C939.073 69.4587 938.813 70.3314 938.746 71.2854ZM967.982 65.4547L964.4 65.6172L964.97 78.5046L962.872 78.5998L962.302 65.7123L959.59 65.8354L959.495 63.7375L962.207 63.6145L961.979 58.91L964.077 58.8149L964.305 63.5193L967.886 63.3569L967.982 65.4547ZM983.436 68.3725L983.857 77.6479L981.759 77.7431L981.358 68.8872C981.32 68.068 981.087 67.3329 980.657 66.6817C980.227 66.0305 979.668 65.5203 978.981 65.151C978.293 64.7818 977.54 64.6158 976.721 64.6529C975.912 64.6896 975.177 64.9232 974.515 65.3536C973.864 65.7835 973.354 66.3422 972.985 67.0297C972.616 67.7171 972.45 68.4704 972.487 69.2895L972.888 78.1454L970.791 78.2406L969.771 55.7637L971.869 55.6686L972.302 65.2287C972.798 64.4455 973.459 63.8098 974.288 63.3218C975.117 62.8337 976.031 62.5671 977.03 62.5217C978.159 62.4705 979.2 62.6986 980.154 63.2059C981.108 63.7132 981.881 64.4189 982.472 65.323C983.064 66.2271 983.385 67.2436 983.436 68.3725ZM992.727 77.636C991.348 77.6986 990.073 77.401 988.902 76.7434C987.741 76.0853 986.794 75.1773 986.061 74.0193C985.337 72.8509 984.943 71.5425 984.877 70.094C984.827 68.9951 984.975 67.9623 985.322 66.9956C985.668 66.0189 986.164 65.1555 986.811 64.4055C987.467 63.645 988.241 63.0393 989.131 62.5885C990.022 62.1377 990.981 61.8889 992.01 61.8423C993.119 61.792 994.148 61.9655 995.097 62.3629C996.056 62.7599 996.888 63.3378 997.593 64.0966C998.308 64.855 998.86 65.7559 999.247 66.7994C999.645 67.8425 999.842 68.9797 999.838 70.2112L987.131 70.7876C987.294 71.7311 987.632 72.5667 988.145 73.2942C988.669 74.0212 989.315 74.5875 990.084 74.993C990.863 75.3882 991.712 75.5699 992.632 75.5382C993.631 75.4929 994.518 75.1924 995.293 74.6366C996.079 74.0805 996.696 73.3368 997.144 72.4055L999.295 72.8035C998.755 74.1593 997.901 75.2892 996.73 76.1931C995.56 77.0871 994.225 77.5681 992.727 77.636ZM986.994 69.097L997.648 68.6138C997.536 67.6879 997.213 66.8517 996.678 66.1051C996.153 65.3481 995.491 64.7575 994.691 64.3334C993.89 63.8992 993.026 63.7032 992.097 63.7453C991.168 63.7874 990.329 64.0557 989.581 64.5501C988.832 65.0346 988.23 65.6775 987.776 66.4789C987.321 67.2703 987.061 68.143 986.994 69.097ZM1009.16 76.5004L1008.14 54.0235L1010.24 53.9283L1011.25 76.4052L1009.16 76.5004ZM1013.73 61.2773L1015.83 61.1822L1016.51 76.1668L1014.41 76.2619L1013.73 61.2773ZM1014.68 58.6068C1014.34 58.6222 1014.05 58.5254 1013.8 58.3165C1013.56 58.0972 1013.43 57.8177 1013.41 57.478C1013.4 57.1384 1013.5 56.8535 1013.72 56.6233C1013.95 56.3826 1014.23 56.2546 1014.57 56.2392C1014.9 56.2242 1015.19 56.3264 1015.43 56.5458C1015.68 56.7547 1015.81 57.029 1015.82 57.3686C1015.84 57.7083 1015.74 57.9982 1015.52 58.2384C1015.3 58.4686 1015.02 58.5914 1014.68 58.6068ZM1030.76 60.5052L1032.86 60.41L1033.56 75.949C1033.6 76.908 1033.44 77.8166 1033.05 78.6748C1032.68 79.5325 1032.16 80.2921 1031.48 80.9537C1030.81 81.6247 1030.03 82.1605 1029.15 82.5609C1028.26 82.9613 1027.34 83.1835 1026.37 83.2274C1025.33 83.2745 1024.31 83.0803 1023.32 82.6448C1022.33 82.2192 1021.46 81.6281 1020.71 80.8716C1019.96 80.1145 1019.42 79.2633 1019.07 78.3179L1020.97 77.3461C1021.19 78.0868 1021.58 78.745 1022.12 79.3208C1022.68 79.9062 1023.32 80.3576 1024.05 80.675C1024.78 81.0021 1025.52 81.1486 1026.27 81.1146C1026.96 81.0833 1027.62 80.9233 1028.25 80.6346C1028.89 80.3554 1029.45 79.9845 1029.94 79.5218C1030.44 79.0587 1030.83 78.5256 1031.1 77.9227C1031.37 77.3297 1031.49 76.7035 1031.46 76.0442L1031.31 72.7326C1030.84 73.6952 1030.17 74.4863 1029.3 75.1061C1028.45 75.7254 1027.44 76.0615 1026.27 76.1145C1025.22 76.1621 1024.22 76.0022 1023.28 75.6347C1022.34 75.2668 1021.5 74.7391 1020.77 74.0516C1020.04 73.354 1019.45 72.5398 1019.01 71.6089C1018.58 70.6776 1018.34 69.6674 1018.29 68.5786C1018.24 67.4897 1018.39 66.4619 1018.73 65.4952C1019.09 64.5181 1019.6 63.654 1020.27 62.903C1020.93 62.1421 1021.72 61.5359 1022.62 61.0847C1023.53 60.633 1024.51 60.3833 1025.56 60.3357C1026.72 60.2827 1027.76 60.526 1028.67 61.0655C1029.58 61.5946 1030.32 62.3219 1030.88 63.2473L1030.76 60.5052ZM1026.19 74.0759C1027.23 74.0288 1028.11 73.7185 1028.84 73.1451C1029.57 72.5712 1030.13 71.8304 1030.5 70.9228C1030.86 70.0151 1031.03 69.0418 1030.98 68.0029C1030.93 66.934 1030.68 65.9695 1030.22 65.1094C1029.77 64.2389 1029.15 63.5562 1028.37 63.0612C1027.58 62.5561 1026.68 62.3267 1025.66 62.373C1024.64 62.4192 1023.73 62.726 1022.91 63.2936C1022.11 63.8506 1021.48 64.5848 1021.03 65.4961C1020.58 66.4074 1020.38 67.4025 1020.43 68.4814C1020.48 69.5603 1020.77 70.5329 1021.31 71.3994C1021.85 72.2558 1022.55 72.9299 1023.4 73.4218C1024.26 73.9032 1025.19 74.1212 1026.19 74.0759ZM1049.34 65.3832L1049.76 74.6587L1047.66 74.7538L1047.26 65.8979C1047.22 65.0788 1046.99 64.3436 1046.56 63.6924C1046.13 63.0412 1045.57 62.531 1044.89 62.1618C1044.2 61.7925 1043.44 61.6265 1042.63 61.6637C1041.82 61.7004 1041.08 61.9339 1040.42 62.3643C1039.77 62.7943 1039.26 63.353 1038.89 64.0404C1038.52 64.7278 1038.35 65.4811 1038.39 66.3003L1038.79 75.1562L1036.69 75.2513L1035.68 52.7744L1037.77 52.6793L1038.21 62.2395C1038.7 61.4562 1039.36 60.8206 1040.19 60.3325C1041.02 59.8445 1041.93 59.5778 1042.93 59.5325C1044.06 59.4813 1045.1 59.7093 1046.06 60.2166C1047.01 60.7239 1047.78 61.4296 1048.38 62.3338C1048.97 63.2379 1049.29 64.2544 1049.34 65.3832ZM1059.39 61.3089L1055.8 61.4713L1056.37 74.3588L1054.28 74.4539L1053.71 61.5665L1050.99 61.6895L1050.9 59.5917L1053.61 59.4686L1053.38 54.7641L1055.48 54.669L1055.71 59.3735L1059.29 59.211L1059.39 61.3089ZM1080.58 58.2453L1082.68 58.1501L1083.36 73.1347L1081.26 73.2299L1081.06 70.4461C1080.61 71.4174 1079.96 72.2176 1079.11 72.8469C1078.26 73.4662 1077.22 73.8034 1076 73.8587C1074.91 73.9086 1073.87 73.7504 1072.89 73.3844C1071.91 73.0083 1071.04 72.4722 1070.28 71.776C1069.52 71.0798 1068.91 70.2615 1068.46 69.3211C1068 68.3806 1067.75 67.361 1067.7 66.2621C1067.65 65.1832 1067.81 64.1602 1068.16 63.1931C1068.53 62.2255 1069.05 61.3659 1069.73 60.6145C1070.41 59.8626 1071.22 59.2656 1072.14 58.8234C1073.07 58.3708 1074.07 58.12 1075.15 58.0711C1076.4 58.0144 1077.5 58.2647 1078.46 58.822C1079.42 59.3692 1080.19 60.1099 1080.78 61.044L1080.58 58.2453ZM1075.87 71.8229C1076.94 71.7744 1077.84 71.473 1078.59 70.9186C1079.33 70.3543 1079.89 69.6182 1080.26 68.7106C1080.64 67.8025 1080.81 66.814 1080.76 65.7451C1080.71 64.6462 1080.45 63.6667 1079.99 62.8067C1079.53 61.9366 1078.91 61.2593 1078.11 60.7747C1077.32 60.2901 1076.4 60.0719 1075.34 60.1199C1074.28 60.1679 1073.32 60.4766 1072.47 61.0459C1071.62 61.6048 1070.96 62.3406 1070.48 63.2532C1070.01 64.1654 1069.8 65.161 1069.85 66.2399C1069.9 67.3287 1070.21 68.3057 1070.78 69.1708C1071.35 70.0259 1072.08 70.6934 1072.97 71.1735C1073.87 71.6531 1074.84 71.8695 1075.87 71.8229ZM1092.98 59.785L1089.4 59.9475L1089.97 72.8349L1087.87 72.9301L1087.3 60.0426L1084.59 60.1657L1084.49 58.0678L1087.21 57.9448L1086.98 53.2403L1089.08 53.1452L1089.3 57.8496L1092.89 57.6872L1092.98 59.785ZM1102.86 59.3368L1099.28 59.4993L1099.85 72.3867L1097.75 72.4819L1097.18 59.5944L1094.47 59.7175L1094.38 57.6196L1097.09 57.4966L1096.86 52.7921L1098.96 52.697L1099.19 57.4014L1102.77 57.239L1102.86 59.3368ZM1105.67 72.1227L1104.99 57.1381L1107.09 57.0429L1107.18 59.1108C1107.68 58.3276 1108.34 57.6919 1109.17 57.2039C1110 56.7158 1110.91 56.4492 1111.91 56.4038C1112.49 56.3776 1113.05 56.4271 1113.6 56.5525L1112.84 58.6741C1112.41 58.5633 1112 58.5169 1111.6 58.535C1110.79 58.5717 1110.06 58.8053 1109.4 59.2357C1108.75 59.6656 1108.24 60.2243 1107.87 60.9118C1107.5 61.5992 1107.33 62.3525 1107.37 63.1716L1107.77 72.0275L1105.67 72.1227ZM1126.58 56.1591L1128.67 56.0639L1129.35 71.0485L1127.26 71.1437L1127.05 68.3599C1126.61 69.3312 1125.96 70.1314 1125.11 70.7607C1124.25 71.38 1123.22 71.7172 1122 71.7725C1120.9 71.8224 1119.86 71.6642 1118.88 71.2982C1117.91 70.9221 1117.04 70.386 1116.27 69.6898C1115.51 68.9936 1114.9 68.1753 1114.45 67.2349C1114 66.2944 1113.75 65.2748 1113.7 64.1759C1113.65 63.097 1113.8 62.074 1114.16 61.1069C1114.52 60.1393 1115.05 59.2797 1115.72 58.5283C1116.41 57.7764 1117.21 57.1794 1118.13 56.7372C1119.06 56.2846 1120.07 56.0338 1121.15 55.9849C1122.4 55.9282 1123.5 56.1785 1124.46 56.7358C1125.41 57.283 1126.19 58.0237 1126.78 58.9578L1126.58 56.1591ZM1121.86 69.7367C1122.93 69.6882 1123.84 69.3867 1124.58 68.8324C1125.33 68.268 1125.89 67.532 1126.26 66.6244C1126.63 65.7163 1126.8 64.7278 1126.75 63.6589C1126.7 62.56 1126.45 61.5805 1125.99 60.7205C1125.53 59.8504 1124.9 59.1731 1124.11 58.6885C1123.32 58.2039 1122.39 57.9857 1121.33 58.0337C1120.27 58.0817 1119.32 58.3904 1118.46 58.9597C1117.61 59.5186 1116.95 60.2544 1116.47 61.167C1116 62.0792 1115.79 63.0748 1115.84 64.1537C1115.89 65.2425 1116.2 66.2195 1116.77 67.0846C1117.34 67.9397 1118.07 68.6072 1118.96 69.0873C1119.87 69.5669 1120.83 69.7833 1121.86 69.7367ZM1142.14 66.6998L1144.06 67.6338C1143.42 68.6136 1142.59 69.412 1141.57 70.029C1140.56 70.6455 1139.44 70.9814 1138.22 71.0367C1136.84 71.0993 1135.57 70.8017 1134.4 70.1441C1133.24 69.486 1132.29 68.578 1131.56 67.42C1130.83 66.2516 1130.44 64.9432 1130.37 63.4947C1130.32 62.3958 1130.47 61.363 1130.82 60.3963C1131.16 59.4196 1131.66 58.5562 1132.31 57.8062C1132.96 57.0457 1133.74 56.44 1134.63 55.9892C1135.52 55.5384 1136.48 55.2896 1137.5 55.243C1138.72 55.1877 1139.87 55.4212 1140.93 55.9435C1142 56.4653 1142.9 57.1903 1143.63 58.1185L1141.8 59.2075C1141.25 58.5717 1140.6 58.0955 1139.86 57.779C1139.11 57.4524 1138.36 57.3064 1137.6 57.3408C1136.59 57.3866 1135.69 57.6978 1134.89 58.2744C1134.1 58.841 1133.48 59.5747 1133.04 60.4755C1132.61 61.3759 1132.42 62.3506 1132.47 63.3995C1132.52 64.4484 1132.8 65.4016 1133.32 66.2589C1133.85 67.1158 1134.54 67.7904 1135.38 68.2827C1136.22 68.765 1137.14 68.9837 1138.13 68.9389C1138.95 68.9017 1139.71 68.677 1140.41 68.2648C1141.11 67.8526 1141.69 67.3309 1142.14 66.6998ZM1153.51 57.0396L1149.93 57.202L1150.5 70.0894L1148.4 70.1846L1147.83 57.2972L1145.12 57.4202L1145.02 55.3223L1147.74 55.1993L1147.51 50.4948L1149.61 50.3997L1149.83 55.1042L1153.42 54.9417L1153.51 57.0396ZM1160.85 69.9054C1160.03 69.9226 1159.22 69.809 1158.43 69.5646C1157.64 69.3203 1156.94 68.9715 1156.34 68.5182C1155.74 68.065 1155.3 67.5394 1155.02 66.9413L1156.8 66.0799C1156.98 66.4622 1157.29 66.8085 1157.73 67.1187C1158.19 67.4184 1158.7 67.6555 1159.27 67.8299C1159.83 67.9943 1160.39 68.0641 1160.94 68.0392C1161.55 68.0115 1162.12 67.8858 1162.64 67.662C1163.16 67.4382 1163.57 67.134 1163.89 66.7494C1164.21 66.3544 1164.36 65.9022 1164.33 65.3927C1164.31 64.8433 1164.11 64.4218 1163.74 64.1285C1163.36 63.8251 1162.9 63.596 1162.34 63.4411C1161.78 63.2762 1161.21 63.122 1160.62 62.9785C1159.55 62.7368 1158.6 62.4595 1157.78 62.1465C1156.95 61.8336 1156.3 61.4178 1155.81 60.8992C1155.34 60.3702 1155.08 59.6761 1155.04 58.817C1155 57.9079 1155.22 57.1122 1155.7 56.4297C1156.19 55.7369 1156.84 55.1918 1157.65 54.7946C1158.48 54.3869 1159.36 54.1615 1160.31 54.1185C1161.53 54.0632 1162.65 54.2776 1163.67 54.7618C1164.71 55.2455 1165.47 55.9167 1165.96 56.7754L1164.31 57.8561C1164.11 57.4547 1163.81 57.113 1163.41 56.831C1163 56.549 1162.55 56.3344 1162.04 56.1872C1161.54 56.0396 1161.04 55.9723 1160.53 55.9854C1159.89 56.0045 1159.3 56.1263 1158.76 56.351C1158.22 56.5658 1157.79 56.8706 1157.46 57.2656C1157.15 57.6602 1157.01 58.1322 1157.03 58.6816C1157.06 59.2311 1157.24 59.6432 1157.58 59.9179C1157.93 60.1827 1158.38 60.3923 1158.95 60.5467C1159.53 60.6907 1160.18 60.8615 1160.9 61.0591C1161.82 61.3076 1162.69 61.5985 1163.5 61.9319C1164.32 62.2652 1164.98 62.6955 1165.5 63.2228C1166.01 63.75 1166.28 64.4334 1166.31 65.273C1166.35 66.1721 1166.12 66.9685 1165.61 67.6623C1165.1 68.3561 1164.42 68.9023 1163.58 69.3009C1162.74 69.6895 1161.83 69.891 1160.85 69.9054ZM1182.11 53.2196C1183.57 53.1534 1184.91 53.448 1186.13 54.1034C1187.36 54.7583 1188.36 55.669 1189.13 56.8356C1189.89 57.9922 1190.3 59.2998 1190.37 60.7583C1190.42 61.8472 1190.26 62.8804 1189.89 63.858C1189.53 64.8256 1189 65.6906 1188.3 66.4529C1187.61 67.2048 1186.8 67.8072 1185.86 68.2603C1184.93 68.713 1183.92 68.964 1182.83 69.0133C1181.59 69.0695 1180.51 68.8233 1179.58 68.2747C1178.66 67.7261 1177.91 66.9891 1177.35 66.0636L1177.48 68.8657L1175.38 68.9609L1174.36 46.484L1176.46 46.3888L1176.92 56.6533C1177.4 55.6807 1178.08 54.8793 1178.95 54.2491C1179.82 53.619 1180.88 53.2758 1182.11 53.2196ZM1182.72 66.9611C1183.79 66.9127 1184.75 66.609 1185.59 66.0501C1186.44 65.4812 1187.1 64.7404 1187.58 63.8278C1188.06 62.9151 1188.28 61.9244 1188.23 60.8555C1188.18 59.7566 1187.87 58.7796 1187.3 57.9245C1186.73 57.0595 1185.99 56.3871 1185.09 55.9076C1184.2 55.4275 1183.23 55.211 1182.19 55.2582C1181.13 55.3062 1180.23 55.6126 1179.47 56.1774C1178.73 56.7418 1178.16 57.478 1177.78 58.3861C1177.41 59.2938 1177.25 60.282 1177.3 61.3509C1177.35 62.4398 1177.61 63.4193 1178.07 64.2894C1178.53 65.1494 1179.15 65.8217 1179.94 66.3063C1180.75 66.7904 1181.67 67.0087 1182.72 66.9611ZM1191.81 62.4649L1191.39 53.2194L1193.49 53.1242L1193.89 61.9502C1193.92 62.7693 1194.16 63.5045 1194.59 64.1557C1195.02 64.8069 1195.58 65.3171 1196.26 65.6863C1196.96 66.0551 1197.71 66.2211 1198.52 66.1844C1199.34 66.1473 1200.07 65.9139 1200.71 65.4845C1201.36 65.0545 1201.87 64.4958 1202.24 63.8084C1202.61 63.1209 1202.78 62.3676 1202.74 61.5485L1202.34 52.7226L1204.44 52.6274L1205.13 67.6113L1203.04 67.7065L1202.93 65.6093C1202.43 66.3925 1201.77 67.0282 1200.94 67.5162C1200.12 68.0038 1199.21 68.2703 1198.21 68.3156C1197.08 68.3668 1196.04 68.1388 1195.09 67.6315C1194.14 67.1242 1193.36 66.4185 1192.77 65.5143C1192.18 64.6102 1191.86 63.5937 1191.81 62.4649ZM1218.79 51.9767L1220.88 51.8815L1221.59 67.4205C1221.63 68.3796 1221.46 69.2881 1221.08 70.1463C1220.71 71.004 1220.18 71.7636 1219.5 72.4252C1218.83 73.0962 1218.06 73.632 1217.17 74.0324C1216.29 74.4328 1215.37 74.655 1214.4 74.6989C1213.36 74.746 1212.34 74.5518 1211.35 74.1163C1210.36 73.6907 1209.49 73.0996 1208.73 72.3431C1207.99 71.5861 1207.44 70.7348 1207.1 69.7894L1208.99 68.8177C1209.22 69.5583 1209.6 70.2165 1210.15 70.7923C1210.71 71.3777 1211.35 71.8291 1212.07 72.1466C1212.81 72.4736 1213.55 72.6201 1214.3 72.5861C1214.99 72.5548 1215.65 72.3948 1216.28 72.1061C1216.91 71.8269 1217.48 71.456 1217.97 70.9933C1218.47 70.5302 1218.85 69.9972 1219.13 69.3942C1219.4 68.8012 1219.52 68.175 1219.49 67.5157L1219.34 64.2041C1218.86 65.1667 1218.19 65.9579 1217.33 66.5776C1216.48 67.1969 1215.47 67.533 1214.3 67.586C1213.25 67.6336 1212.25 67.4737 1211.3 67.1062C1210.37 66.7383 1209.53 66.2106 1208.8 65.5231C1208.07 64.8255 1207.48 64.0113 1207.04 63.0804C1206.6 62.1491 1206.36 61.139 1206.31 60.0501C1206.26 58.9612 1206.41 57.9334 1206.76 56.9667C1207.12 55.9896 1207.63 55.1255 1208.29 54.3745C1208.96 53.6136 1209.74 53.0075 1210.64 52.5562C1211.55 52.1045 1212.53 51.8548 1213.58 51.8072C1214.75 51.7542 1215.79 51.9975 1216.69 52.537C1217.61 53.0661 1218.35 53.7934 1218.91 54.7188L1218.79 51.9767ZM1214.22 65.5474C1215.26 65.5003 1216.14 65.19 1216.87 64.6166C1217.6 64.0427 1218.15 63.302 1218.52 62.3943C1218.89 61.4866 1219.05 60.5133 1219.01 59.4744C1218.96 58.4055 1218.7 57.441 1218.24 56.581C1217.79 55.7104 1217.18 55.0277 1216.39 54.5327C1215.61 54.0277 1214.71 53.7983 1213.69 53.8445C1212.67 53.8907 1211.75 54.1976 1210.94 54.7651C1210.13 55.3221 1209.51 56.0563 1209.06 56.9676C1208.61 57.8789 1208.41 58.874 1208.46 59.9529C1208.51 61.0318 1208.8 62.0044 1209.34 62.8709C1209.88 63.7273 1210.58 64.4015 1211.43 64.8933C1212.29 65.3747 1213.22 65.5928 1214.22 65.5474ZM1229.37 66.7975C1228.55 66.8147 1227.74 66.7011 1226.95 66.4567C1226.16 66.2124 1225.46 65.8636 1224.86 65.4103C1224.26 64.9571 1223.82 64.4315 1223.54 63.8334L1225.32 62.972C1225.5 63.3544 1225.81 63.7006 1226.25 64.0108C1226.7 64.3105 1227.22 64.5476 1227.78 64.722C1228.35 64.8865 1228.91 64.9562 1229.46 64.9313C1230.07 64.9037 1230.64 64.7779 1231.16 64.5541C1231.68 64.3303 1232.09 64.0261 1232.41 63.6415C1232.73 63.2465 1232.88 62.7943 1232.85 62.2848C1232.83 61.7354 1232.63 61.314 1232.26 61.0206C1231.88 60.7172 1231.42 60.4881 1230.86 60.3332C1230.3 60.1683 1229.73 60.0141 1229.14 59.8706C1228.07 59.6289 1227.12 59.3516 1226.3 59.0387C1225.47 58.7257 1224.82 58.3099 1224.33 57.7913C1223.86 57.2623 1223.6 56.5682 1223.56 55.7091C1223.52 54.8 1223.74 54.0043 1224.22 53.3219C1224.71 52.629 1225.36 52.0839 1226.17 51.6867C1226.99 51.279 1227.88 51.0536 1228.83 51.0106C1230.05 50.9553 1231.17 51.1698 1232.19 51.6539C1233.22 52.1376 1233.99 52.8088 1234.48 53.6675L1232.83 54.7483C1232.63 54.3468 1232.33 54.0051 1231.93 53.7231C1231.52 53.4411 1231.07 53.2265 1230.56 53.0793C1230.06 52.9317 1229.56 52.8644 1229.05 52.8776C1228.41 52.8966 1227.82 53.0184 1227.28 53.2431C1226.74 53.4579 1226.31 53.7627 1225.98 54.1578C1225.67 54.5523 1225.53 55.0243 1225.55 55.5738C1225.58 56.1232 1225.76 56.5353 1226.1 56.81C1226.45 57.0748 1226.9 57.2844 1227.47 57.4388C1228.05 57.5828 1228.69 57.7536 1229.41 57.9512C1230.34 58.1997 1231.21 58.4906 1232.02 58.824C1232.84 59.1574 1233.5 59.5877 1234.02 60.1149C1234.53 60.6421 1234.8 61.3255 1234.83 62.1651C1234.87 63.0642 1234.64 63.8606 1234.13 64.5544C1233.62 65.2482 1232.94 65.7944 1232.1 66.193C1231.26 66.5816 1230.35 66.7831 1229.37 66.7975ZM1236.55 59.8799L1235.88 45.195L1237.73 45.1114L1238.39 59.7963L1236.55 59.8799ZM1237.78 66.5209C1237.44 66.5363 1237.15 66.4295 1236.9 66.2007C1236.66 65.9813 1236.53 65.7018 1236.51 65.3622C1236.5 65.0325 1236.6 64.7476 1236.82 64.5074C1237.05 64.2668 1237.33 64.1388 1237.67 64.1233C1237.99 64.1088 1238.27 64.2113 1238.51 64.4306C1238.75 64.65 1238.88 64.9245 1238.9 65.2541C1238.91 65.5938 1238.81 65.8837 1238.59 66.1239C1238.37 66.374 1238.1 66.5064 1237.78 66.5209Z" fill="#171717"/>
</svg>
