<svg width="1444" height="147" viewBox="0 0 1444 147" fill="none" xmlns="http://www.w3.org/2000/svg">
<rect x="3" width="1437" height="147" fill="#232323"/>
<rect width="1442.08" height="63.0444" transform="matrix(0.998832 -0.0483143 0.0418018 0.999126 0 78.0103)" fill="white"/>
<path d="M16.3606 103.38L19.7769 111.495L28.1017 114.361L19.9873 117.777L17.1216 126.102L13.7054 117.987L5.38052 115.122L13.4949 111.705L16.3606 103.38Z" fill="#FB6514"/>
<path d="M1425.36 35.3805L1428.78 43.4949L1437.1 46.3605L1428.99 49.7768L1426.12 58.1017L1422.71 49.9872L1414.38 47.1216L1422.49 43.7053L1425.36 35.3805Z" fill="#FB6514"/>
<path d="M1022.36 56.3805L1025.78 64.4949L1034.1 67.3605L1025.99 70.7768L1023.12 79.1017L1019.71 70.9872L1011.38 68.1216L1019.49 64.7053L1022.36 56.3805Z" fill="#FB6514"/>
<path d="M39.8295 124.171L32.2503 99.2887L34.8396 99.1712L41.1074 119.77L45.4667 98.6892L47.6964 98.5881L53.9642 119.187L58.3234 98.106L60.9128 97.9886L55.6532 123.453L52.6683 123.588L46.8466 104.483L42.7784 124.037L39.8295 124.171ZM79.93 111.198L80.4348 122.329L77.9174 122.443L77.4354 111.816C77.3908 110.833 77.1105 109.951 76.5946 109.17C76.0787 108.388 75.4082 107.776 74.5833 107.333C73.7584 106.89 72.8544 106.69 71.8714 106.735C70.9004 106.779 70.0182 107.059 69.2248 107.576C68.4434 108.092 67.8311 108.762 67.3881 109.587C66.945 110.412 66.7457 111.316 66.7903 112.299L67.2724 122.926L64.7549 123.04L63.5315 96.068L66.049 95.9538L66.5693 107.426C67.1633 106.486 67.9576 105.723 68.9521 105.138C69.9466 104.552 71.0432 104.232 72.2419 104.178C73.5966 104.116 74.8462 104.39 75.991 104.999C77.1358 105.607 78.0631 106.454 78.773 107.539C79.4829 108.624 79.8685 109.844 79.93 111.198ZM94.5767 103.669L97.238 103.548L88.6255 130.967L85.9463 131.088L88.8111 121.949L81.5401 104.26L84.2913 104.136L89.9124 118.422L94.5767 103.669ZM122.79 93.3802L125.307 93.266L126.53 120.238L124.013 120.352L123.86 116.99C123.289 118.169 122.474 119.137 121.416 119.894C120.368 120.638 119.101 121.044 117.615 121.111C116.308 121.17 115.074 120.98 113.913 120.54C112.752 120.1 111.714 119.469 110.8 118.645C109.897 117.809 109.174 116.833 108.631 115.717C108.088 114.6 107.787 113.389 107.728 112.082C107.668 110.775 107.859 109.541 108.298 108.38C108.738 107.207 109.369 106.169 110.193 105.267C111.029 104.352 112.005 103.623 113.121 103.08C114.238 102.537 115.449 102.236 116.756 102.177C118.242 102.109 119.541 102.405 120.652 103.063C121.775 103.709 122.673 104.587 123.348 105.697L122.79 93.3802ZM117.522 118.665C118.805 118.607 119.893 118.245 120.788 117.58C121.682 116.902 122.351 116.019 122.794 114.93C123.249 113.84 123.448 112.654 123.389 111.371C123.33 110.053 123.024 108.877 122.473 107.845C121.921 106.801 121.169 105.989 120.218 105.407C119.267 104.826 118.156 104.564 116.885 104.621C115.614 104.679 114.472 105.049 113.458 105.732C112.443 106.402 111.648 107.285 111.073 108.38C110.498 109.476 110.24 110.671 110.299 111.965C110.358 113.272 110.73 114.444 111.413 115.482C112.097 116.508 112.974 117.31 114.045 117.886C115.128 118.461 116.287 118.721 117.522 118.665ZM138.101 120.182C136.447 120.257 134.917 119.9 133.512 119.111C132.119 118.321 130.982 117.231 130.103 115.842C129.234 114.44 128.76 112.87 128.682 111.131C128.622 109.813 128.8 108.573 129.216 107.413C129.631 106.241 130.227 105.205 131.003 104.305C131.79 103.393 132.718 102.666 133.787 102.125C134.855 101.584 136.007 101.285 137.242 101.229C138.896 101.154 140.42 101.512 141.813 102.301C143.218 103.09 144.355 104.186 145.223 105.588C146.104 106.99 146.584 108.566 146.663 110.316C146.722 111.622 146.544 112.856 146.128 114.016C145.712 115.176 145.111 116.212 144.323 117.125C143.547 118.025 142.625 118.745 141.556 119.286C140.5 119.827 139.348 120.125 138.101 120.182ZM137.987 117.664C139.21 117.609 140.292 117.242 141.235 116.562C142.188 115.87 142.923 114.984 143.438 113.904C143.966 112.823 144.202 111.665 144.146 110.43C144.089 109.171 143.748 108.028 143.125 106.999C142.501 105.958 141.684 105.142 140.672 104.551C139.672 103.96 138.567 103.692 137.356 103.747C136.133 103.802 135.045 104.176 134.091 104.868C133.149 105.547 132.414 106.427 131.887 107.508C131.371 108.589 131.142 109.759 131.199 111.017C131.258 112.312 131.605 113.473 132.24 114.502C132.875 115.518 133.698 116.315 134.709 116.894C135.72 117.461 136.812 117.718 137.987 117.664ZM160.778 127.694L158.261 127.808L157.037 100.836L159.555 100.722L159.707 104.084C160.279 102.917 161.088 101.956 162.135 101.199C163.182 100.443 164.448 100.031 165.935 99.964C167.241 99.9047 168.475 100.095 169.637 100.535C170.81 100.974 171.848 101.612 172.75 102.448C173.653 103.272 174.375 104.242 174.918 105.358C175.462 106.475 175.763 107.687 175.822 108.993C175.881 110.3 175.691 111.54 175.252 112.713C174.813 113.886 174.181 114.93 173.358 115.844C172.534 116.746 171.558 117.469 170.429 118.013C169.313 118.556 168.101 118.857 166.794 118.916C165.308 118.984 164.009 118.688 162.898 118.03C161.787 117.372 160.894 116.487 160.219 115.377L160.778 127.694ZM166.028 102.41C164.769 102.467 163.687 102.835 162.78 103.513C161.886 104.178 161.21 105.049 160.755 106.127C160.299 107.205 160.101 108.397 160.16 109.704C160.218 110.986 160.517 112.15 161.057 113.195C161.609 114.239 162.361 115.057 163.313 115.651C164.277 116.244 165.394 116.511 166.665 116.454C167.911 116.397 169.042 116.034 170.057 115.363C171.083 114.692 171.891 113.814 172.478 112.731C173.065 111.635 173.329 110.428 173.269 109.109C173.211 107.826 172.846 106.672 172.175 105.645C171.503 104.606 170.631 103.793 169.559 103.205C168.488 102.617 167.31 102.352 166.028 102.41ZM178.737 117.87L177.921 99.8888L180.438 99.7746L180.551 102.256C181.145 101.316 181.939 100.553 182.934 99.9677C183.928 99.3821 185.025 99.062 186.224 99.0077C186.919 98.9761 187.594 99.0356 188.25 99.186L187.338 101.732C186.828 101.599 186.333 101.543 185.853 101.565C184.882 101.609 184 101.889 183.207 102.406C182.425 102.922 181.813 103.592 181.37 104.417C180.927 105.242 180.727 106.146 180.772 107.129L181.254 117.756L178.737 117.87ZM197.79 117.475C196.136 117.55 194.606 117.193 193.201 116.403C191.808 115.614 190.671 114.524 189.791 113.135C188.923 111.732 188.449 110.162 188.37 108.424C188.311 107.105 188.489 105.866 188.904 104.706C189.32 103.534 189.915 102.498 190.691 101.598C191.479 100.685 192.407 99.9585 193.476 99.4175C194.544 98.8765 195.696 98.578 196.931 98.522C198.585 98.447 200.109 98.8043 201.502 99.594C202.907 100.383 204.044 101.479 204.912 102.881C205.793 104.282 206.273 105.858 206.352 107.608C206.411 108.915 206.233 110.148 205.817 111.309C205.401 112.469 204.799 113.505 204.012 114.417C203.236 115.318 202.314 116.038 201.245 116.579C200.189 117.12 199.037 117.418 197.79 117.475ZM197.676 114.957C198.899 114.902 199.981 114.534 200.923 113.855C201.877 113.163 202.612 112.277 203.127 111.196C203.655 110.115 203.891 108.957 203.835 107.723C203.777 106.464 203.437 105.32 202.814 104.291C202.19 103.251 201.372 102.435 200.361 101.844C199.361 101.253 198.255 100.985 197.045 101.039C195.822 101.095 194.734 101.469 193.78 102.161C192.838 102.84 192.103 103.72 191.576 104.801C191.06 105.882 190.831 107.051 190.888 108.31C190.947 109.605 191.294 110.766 191.929 111.794C192.563 112.811 193.386 113.608 194.398 114.187C195.408 114.754 196.501 115.01 197.676 114.957ZM222.57 97.8636L225.087 97.7494L225.933 116.396C225.985 117.547 225.783 118.637 225.325 119.667C224.879 120.696 224.248 121.608 223.431 122.402C222.626 123.207 221.695 123.85 220.635 124.33C219.576 124.811 218.465 125.078 217.302 125.13C216.055 125.187 214.838 124.954 213.649 124.431C212.46 123.92 211.413 123.211 210.507 122.303C209.613 121.395 208.96 120.373 208.548 119.239L210.82 118.073C211.088 118.962 211.55 119.751 212.206 120.442C212.875 121.145 213.644 121.687 214.514 122.067C215.397 122.46 216.288 122.636 217.187 122.595C218.014 122.557 218.804 122.365 219.557 122.019C220.323 121.684 221 121.239 221.587 120.684C222.186 120.128 222.65 119.488 222.977 118.765C223.306 118.053 223.452 117.302 223.416 116.51L223.236 112.537C222.663 113.692 221.859 114.641 220.824 115.385C219.801 116.128 218.588 116.531 217.185 116.595C215.926 116.652 214.729 116.46 213.591 116.019C212.466 115.578 211.465 114.944 210.586 114.119C209.707 113.282 209.002 112.305 208.471 111.188C207.952 110.07 207.663 108.858 207.604 107.552C207.544 106.245 207.723 105.012 208.139 103.852C208.566 102.679 209.179 101.642 209.979 100.741C210.779 99.8279 211.719 99.1005 212.799 98.559C213.892 98.017 215.068 97.7174 216.326 97.6603C217.729 97.5967 218.973 97.8886 220.06 98.536C221.158 99.1709 222.044 100.044 222.719 101.154L222.57 97.8636ZM217.092 114.149C218.339 114.092 219.397 113.72 220.267 113.032C221.149 112.343 221.811 111.454 222.254 110.365C222.697 109.276 222.89 108.108 222.834 106.861C222.776 105.578 222.471 104.421 221.92 103.389C221.38 102.344 220.64 101.525 219.7 100.931C218.76 100.325 217.678 100.05 216.455 100.105C215.233 100.16 214.132 100.529 213.154 101.21C212.187 101.878 211.434 102.759 210.895 103.853C210.356 104.946 210.116 106.14 210.175 107.435C210.234 108.73 210.587 109.897 211.235 110.937C211.882 111.964 212.717 112.773 213.741 113.364C214.776 113.941 215.893 114.203 217.092 114.149ZM229.693 115.559L228.878 97.5775L231.395 97.4633L231.508 99.9448C232.102 99.0049 232.896 98.2421 233.89 97.6565C234.885 97.0708 235.981 96.7508 237.18 96.6964C237.875 96.6649 238.551 96.7243 239.206 96.8748L238.295 99.4207C237.784 99.2877 237.289 99.2321 236.81 99.2538C235.839 99.2979 234.956 99.5781 234.163 100.095C233.382 100.611 232.769 101.281 232.326 102.106C231.883 102.931 231.684 103.835 231.729 104.818L232.211 115.445L229.693 115.559ZM254.779 96.4027L257.296 96.2885L258.112 114.27L255.594 114.384L255.353 111.044C254.817 112.209 254.038 113.169 253.015 113.925C251.992 114.668 250.749 115.072 249.286 115.139C247.967 115.199 246.722 115.009 245.549 114.57C244.375 114.118 243.331 113.475 242.416 112.64C241.501 111.804 240.772 110.822 240.228 109.694C239.684 108.565 239.383 107.342 239.323 106.023C239.264 104.728 239.449 103.501 239.877 102.34C240.316 101.179 240.942 100.147 241.754 99.2458C242.578 98.3435 243.543 97.6271 244.648 97.0964C245.764 96.5533 246.97 96.2524 248.265 96.1936C249.763 96.1257 251.086 96.426 252.234 97.0947C253.38 97.7514 254.31 98.6402 255.021 99.7612L254.779 96.4027ZM249.121 112.696C250.404 112.638 251.493 112.276 252.387 111.611C253.282 110.933 253.95 110.05 254.393 108.961C254.849 107.871 255.047 106.685 254.989 105.402C254.929 104.084 254.623 102.908 254.072 101.876C253.52 100.832 252.769 100.019 251.817 99.438C250.866 98.8565 249.755 98.5946 248.484 98.6522C247.214 98.7098 246.065 99.0803 245.039 99.7635C244.024 100.434 243.23 101.317 242.655 102.412C242.092 103.507 241.84 104.702 241.898 105.996C241.958 107.303 242.329 108.475 243.013 109.513C243.696 110.539 244.573 111.34 245.644 111.917C246.728 112.492 247.887 112.752 249.121 112.696ZM261.171 114.131L260.355 96.1498L262.872 96.0356L262.985 98.517C263.591 97.5766 264.385 96.8138 265.368 96.2287C266.35 95.6436 267.441 95.3238 268.64 95.2695C269.994 95.208 271.25 95.4874 272.408 96.1076C273.564 96.7158 274.485 97.5569 275.171 98.631C275.756 97.4993 276.591 96.5785 277.676 95.8686C278.761 95.1468 279.98 94.7551 281.335 94.6937C282.689 94.6322 283.939 94.9059 285.084 95.5146C286.228 96.1234 287.156 96.9702 287.866 98.0552C288.576 99.1401 288.961 100.36 289.023 101.715L289.527 112.845L287.01 112.959L286.531 102.386C286.487 101.427 286.213 100.551 285.709 99.7567C285.204 98.9627 284.545 98.3379 283.732 97.8823C282.93 97.4142 282.049 97.2019 281.09 97.2454C280.131 97.2889 279.266 97.5623 278.496 98.0657C277.738 98.5566 277.143 99.2202 276.713 100.057C276.282 100.881 276.09 101.815 276.137 102.858L276.617 113.431L274.099 113.545L273.62 102.972C273.572 101.929 273.297 101.016 272.793 100.234C272.288 99.4404 271.63 98.8336 270.818 98.414C270.006 97.9823 269.12 97.7883 268.161 97.8318C267.214 97.8747 266.357 98.1659 265.588 98.7053C264.819 99.2326 264.22 99.9145 263.789 100.751C263.359 101.587 263.165 102.485 263.208 103.444L263.688 114.017L261.171 114.131ZM292.591 112.706L291.775 94.7246L294.292 94.6104L294.405 97.0919C295.011 96.1515 295.805 95.3887 296.788 94.8036C297.77 94.2185 298.861 93.8987 300.06 93.8443C301.414 93.7829 302.67 94.0623 303.827 94.6825C304.984 95.2907 305.905 96.1318 306.591 97.2059C307.176 96.0742 308.011 95.1534 309.096 94.4435C310.18 93.7216 311.4 93.33 312.755 93.2685C314.109 93.2071 315.359 93.4807 316.504 94.0895C317.648 94.6982 318.576 95.5451 319.286 96.63C319.995 97.715 320.381 98.9348 320.443 100.289L320.947 111.42L318.43 111.534L317.95 100.961C317.907 100.002 317.633 99.1255 317.128 98.3315C316.624 97.5376 315.965 96.9128 315.151 96.4572C314.349 95.9891 313.469 95.7767 312.51 95.8202C311.551 95.8637 310.686 96.1372 309.916 96.6406C309.158 97.1315 308.563 97.7951 308.133 98.6314C307.702 99.4558 307.51 100.389 307.557 101.432L308.037 112.006L305.519 112.12L305.04 101.547C304.992 100.504 304.717 99.5912 304.213 98.8092C303.708 98.0153 303.05 97.4085 302.238 96.9888C301.426 96.5572 300.54 96.3631 299.581 96.4066C298.634 96.4496 297.776 96.7408 297.008 97.2801C296.239 97.8075 295.639 98.4894 295.209 99.3258C294.778 100.162 294.585 101.06 294.628 102.019L295.108 112.592L292.591 112.706ZM331.592 111.406C329.938 111.481 328.408 111.124 327.003 110.334C325.61 109.545 324.473 108.455 323.593 107.066C322.725 105.663 322.251 104.093 322.173 102.355C322.113 101.036 322.291 99.7971 322.707 98.6371C323.122 97.4651 323.718 96.429 324.494 95.5289C325.281 94.6163 326.209 93.8895 327.278 93.3485C328.346 92.8076 329.498 92.5091 330.733 92.4531C332.063 92.3927 333.298 92.601 334.437 93.0779C335.588 93.5542 336.586 94.2477 337.432 95.1583C338.29 96.0683 338.952 97.1495 339.417 98.4017C339.894 99.6533 340.13 101.018 340.125 102.496L324.877 103.187C325.073 104.32 325.478 105.322 326.095 106.195C326.723 107.068 327.498 107.747 328.421 108.234C329.356 108.708 330.375 108.926 331.478 108.888C332.677 108.834 333.742 108.473 334.672 107.806C335.615 107.139 336.355 106.246 336.893 105.129L339.474 105.607C338.827 107.234 337.801 108.589 336.397 109.674C334.992 110.747 333.39 111.324 331.592 111.406ZM324.713 101.159L337.498 100.579C337.363 99.4678 336.975 98.4644 336.334 97.5685C335.704 96.6601 334.909 95.9514 333.949 95.4424C332.989 94.9214 331.951 94.6862 330.836 94.7367C329.721 94.7873 328.715 95.1092 327.817 95.7025C326.918 96.2838 326.197 97.0553 325.652 98.017C325.106 98.9667 324.793 100.014 324.713 101.159ZM343.033 110.418L342.217 92.4367L344.735 92.3225L344.847 94.8039C345.441 93.8641 346.236 93.1013 347.23 92.5156C348.224 91.93 349.321 91.6099 350.52 91.5556C351.215 91.524 351.891 91.5835 352.546 91.734L351.634 94.2799C351.124 94.1469 350.629 94.0912 350.149 94.113C349.178 94.157 348.296 94.4373 347.503 94.9538C346.721 95.4697 346.109 96.1401 345.666 96.9651C345.223 97.79 345.024 98.6939 345.068 99.6769L345.55 110.304L343.033 110.418ZM360.673 109.96C359.689 109.981 358.722 109.845 357.772 109.551C356.822 109.258 355.986 108.84 355.264 108.296C354.543 107.752 354.016 107.121 353.683 106.403L355.816 105.37C356.029 105.829 356.403 106.244 356.936 106.616C357.481 106.976 358.094 107.26 358.777 107.47C359.458 107.667 360.129 107.751 360.788 107.721C361.519 107.688 362.197 107.537 362.822 107.268C363.446 107 363.946 106.635 364.322 106.173C364.708 105.699 364.888 105.157 364.86 104.545C364.83 103.886 364.591 103.38 364.143 103.028C363.694 102.664 363.135 102.389 362.466 102.203C361.796 102.005 361.109 101.82 360.404 101.648C359.118 101.358 357.98 101.025 356.99 100.65C356 100.274 355.214 99.7753 354.633 99.153C354.064 98.5181 353.756 97.6852 353.709 96.6543C353.66 95.5634 353.923 94.6085 354.498 93.7896C355.085 92.9582 355.866 92.3041 356.842 91.8274C357.829 91.3382 358.891 91.0677 360.03 91.0161C361.493 90.9498 362.838 91.2071 364.065 91.788C365.305 92.3685 366.218 93.1739 366.806 94.2044L364.828 95.5013C364.59 95.0196 364.229 94.6095 363.746 94.2711C363.262 93.9327 362.716 93.6752 362.107 93.4985C361.51 93.3214 360.906 93.2407 360.294 93.2564C359.526 93.2793 358.818 93.4255 358.17 93.6951C357.521 93.9528 357.003 94.3187 356.616 94.7927C356.241 95.2662 356.068 95.8326 356.098 96.4919C356.128 97.1512 356.349 97.6457 356.76 97.9754C357.171 98.2931 357.717 98.5446 358.398 98.73C359.091 98.9028 359.869 99.1077 360.732 99.3448C361.839 99.643 362.882 99.9921 363.861 100.392C364.84 100.792 365.638 101.309 366.256 101.941C366.873 102.574 367.199 103.394 367.232 104.402C367.281 105.48 367 106.436 366.389 107.269C365.778 108.101 364.967 108.757 363.956 109.235C362.944 109.701 361.85 109.943 360.673 109.96ZM392.08 90.175L394.598 90.0608L395.413 108.042L392.896 108.157L392.654 104.816C392.119 105.982 391.339 106.942 390.316 107.697C389.293 108.44 388.05 108.845 386.588 108.911C385.269 108.971 384.023 108.781 382.85 108.342C381.676 107.891 380.632 107.247 379.717 106.412C378.803 105.576 378.073 104.594 377.53 103.466C376.986 102.337 376.684 101.114 376.624 99.7952C376.566 98.5005 376.75 97.2729 377.178 96.1123C377.618 94.9512 378.244 93.9198 379.056 93.0181C379.88 92.1158 380.844 91.3994 381.949 90.8688C383.066 90.3256 384.271 90.0247 385.566 89.966C387.065 89.898 388.388 90.1984 389.535 90.867C390.682 91.5238 391.611 92.4126 392.323 93.5335L392.08 90.175ZM386.423 106.468C387.705 106.41 388.794 106.048 389.689 105.383C390.583 104.706 391.252 103.823 391.695 102.733C392.15 101.644 392.348 100.457 392.29 99.1747C392.23 97.8561 391.925 96.6807 391.374 95.6487C390.822 94.6046 390.07 93.7918 389.119 93.2103C388.167 92.6288 387.056 92.3669 385.786 92.4245C384.515 92.4822 383.367 92.8526 382.341 93.5358C381.326 94.2064 380.531 95.0894 379.956 96.1845C379.393 97.2792 379.141 98.4738 379.2 99.7685C379.259 101.075 379.631 102.248 380.314 103.286C380.997 104.312 381.875 105.113 382.946 105.689C384.029 106.264 385.188 106.524 386.423 106.468ZM398.718 107.892L397.495 80.9202L400.012 80.806L401.235 107.778L398.718 107.892ZM412.386 107.273L409.796 107.39L402.957 89.6817L405.42 89.5699L410.969 103.841L415.166 89.1279L417.828 89.0072L423.34 103.28L427.538 88.5667L430.019 88.4542L424.811 106.709L422.204 106.827L416.613 92.4137L412.386 107.273ZM446.549 87.7044L449.066 87.5903L449.882 105.572L447.364 105.686L447.123 102.345C446.587 103.511 445.808 104.471 444.785 105.226C443.762 105.969 442.519 106.374 441.056 106.441C439.737 106.5 438.492 106.311 437.319 105.871C436.145 105.42 435.101 104.777 434.186 103.941C433.271 103.106 432.542 102.124 431.998 100.995C431.454 99.8669 431.153 98.6433 431.093 97.3246C431.034 96.03 431.219 94.8024 431.647 93.6418C432.086 92.4807 432.712 91.4492 433.524 90.5475C434.348 89.6453 435.313 88.9288 436.418 88.3982C437.534 87.855 438.74 87.5541 440.035 87.4954C441.533 87.4274 442.856 87.7278 444.004 88.3965C445.151 89.0532 446.08 89.942 446.791 91.0629L446.549 87.7044ZM440.891 103.998C442.174 103.939 443.263 103.578 444.157 102.912C445.052 102.235 445.72 101.352 446.163 100.263C446.619 99.1731 446.817 97.9868 446.759 96.7042C446.699 95.3855 446.393 94.2102 445.842 93.1781C445.29 92.134 444.539 91.3212 443.587 90.7397C442.636 90.1583 441.525 89.8963 440.254 89.954C438.984 90.0116 437.835 90.382 436.809 91.0652C435.794 91.7359 435 92.6188 434.425 93.714C433.862 94.8086 433.61 96.0033 433.668 97.2979C433.728 98.6046 434.099 99.777 434.783 100.815C435.466 101.841 436.343 102.642 437.414 103.218C438.498 103.794 439.657 104.054 440.891 103.998ZM464.021 86.9119L466.682 86.7912L458.07 114.21L455.39 114.331L458.255 105.192L450.984 87.5033L453.736 87.3785L459.357 101.664L464.021 86.9119ZM475.638 104.746C474.654 104.766 473.687 104.63 472.737 104.337C471.787 104.044 470.951 103.625 470.229 103.081C469.508 102.537 468.981 101.907 468.648 101.189L470.781 100.155C470.994 100.614 471.368 101.03 471.901 101.402C472.446 101.761 473.059 102.046 473.742 102.255C474.423 102.453 475.094 102.536 475.753 102.506C476.484 102.473 477.162 102.322 477.787 102.054C478.411 101.785 478.911 101.42 479.287 100.959C479.674 100.485 479.853 99.942 479.825 99.3306C479.795 98.6713 479.556 98.1656 479.108 97.8135C478.659 97.4495 478.1 97.1746 477.431 96.9887C476.761 96.7908 476.074 96.6058 475.37 96.4335C474.083 96.1435 472.945 95.8107 471.955 95.4352C470.965 95.0597 470.179 94.5608 469.599 93.9384C469.029 93.3036 468.721 92.4707 468.674 91.4397C468.625 90.3489 468.888 89.394 469.463 88.575C470.05 87.7436 470.831 87.0895 471.807 86.6128C472.794 86.1236 473.857 85.8532 474.995 85.8015C476.458 85.7352 477.803 85.9925 479.031 86.5735C480.27 87.1539 481.184 87.9594 481.771 88.9898L479.794 90.2867C479.555 89.805 479.195 89.395 478.711 89.0565C478.227 88.7181 477.681 88.4606 477.072 88.284C476.475 88.1068 475.871 88.0261 475.259 88.0419C474.491 88.0647 473.783 88.2109 473.135 88.4806C472.486 88.7383 471.968 89.1041 471.581 89.5781C471.206 90.0516 471.034 90.618 471.063 91.2773C471.093 91.9366 471.314 92.4312 471.725 92.7609C472.136 93.0786 472.682 93.3301 473.363 93.5154C474.056 93.6882 474.834 93.8932 475.698 94.1303C476.804 94.4284 477.847 94.7775 478.826 95.1776C479.805 95.5776 480.604 96.094 481.221 96.7267C481.838 97.3594 482.164 98.1795 482.197 99.187C482.246 100.266 481.965 101.222 481.354 102.054C480.743 102.887 479.932 103.542 478.921 104.02C477.909 104.487 476.815 104.729 475.638 104.746ZM493.08 103.612L492.265 85.6309L494.782 85.5167L494.895 87.9981C495.501 87.0577 496.295 86.2949 497.277 85.7098C498.26 85.1247 499.35 84.805 500.549 84.7506C501.904 84.6891 503.16 84.9685 504.317 85.5887C505.474 86.1969 506.395 87.0381 507.08 88.1121C507.666 86.9804 508.501 86.0596 509.586 85.3498C510.67 84.6279 511.89 84.2362 513.244 84.1748C514.599 84.1133 515.848 84.387 516.993 84.9957C518.138 85.6045 519.065 86.4514 519.775 87.5363C520.485 88.6212 520.871 89.841 520.932 91.1956L521.437 102.326L518.92 102.44L518.44 91.8672C518.397 90.9082 518.123 90.0317 517.618 89.2378C517.114 88.4438 516.455 87.8191 515.641 87.3634C514.839 86.8953 513.959 86.683 513 86.7265C512.04 86.77 511.176 87.0434 510.406 87.5468C509.647 88.0377 509.053 88.7013 508.622 89.5377C508.191 90.3621 507.999 91.2957 508.047 92.3387L508.526 102.912L506.009 103.026L505.529 92.4528C505.482 91.4099 505.206 90.4975 504.702 89.7155C504.198 88.9215 503.54 88.3147 502.728 87.8951C501.916 87.4635 501.03 87.2694 500.071 87.3129C499.124 87.3559 498.266 87.647 497.498 88.1864C496.729 88.7138 496.129 89.3956 495.699 90.232C495.268 91.0684 495.075 91.9661 495.118 92.9251L495.598 103.498L493.08 103.612ZM523.684 84.2057L526.202 84.0916L527.017 102.073L524.5 102.187L523.684 84.2057ZM524.818 81.0011C524.411 81.0196 524.057 80.9035 523.758 80.6528C523.469 80.3896 523.316 80.0542 523.297 79.6466C523.279 79.239 523.402 78.8971 523.665 78.6209C523.941 78.3321 524.282 78.1785 524.69 78.16C525.085 78.142 525.427 78.2647 525.715 78.5279C526.015 78.7786 526.174 79.1077 526.193 79.5153C526.211 79.9229 526.089 80.2708 525.825 80.559C525.562 80.8352 525.226 80.9826 524.818 81.0011ZM529.739 101.95L535.91 92.6244L528.939 83.9134L532.049 83.7723L537.377 90.3957L542.065 83.318L545.158 83.1777L539.021 92.4833L546.012 101.212L542.901 101.353L537.571 94.6753L532.849 101.809L529.739 101.95ZM556.127 93.8516L555.624 82.757L558.142 82.6429L558.622 93.234C558.666 94.217 558.947 95.0992 559.463 95.8806C559.979 96.662 560.649 97.2743 561.474 97.7173C562.311 98.1599 563.215 98.3591 564.186 98.3151C565.169 98.2705 566.045 97.9905 566.814 97.4751C567.596 96.9592 568.208 96.2887 568.651 95.4638C569.094 94.6389 569.294 93.7349 569.249 92.7519L568.769 82.1608L571.286 82.0466L572.12 100.027L569.602 100.142L569.47 97.6249C568.876 98.5648 568.082 99.3276 567.087 99.9132C566.105 100.498 565.014 100.818 563.815 100.872C562.461 100.934 561.211 100.66 560.066 100.052C558.922 99.4428 557.994 98.5959 557.284 97.511C556.574 96.426 556.189 95.2062 556.127 93.8516ZM577.737 108.782L575.22 108.896L573.996 81.9237L576.514 81.8095L576.666 85.1721C577.238 84.005 578.047 83.0433 579.094 82.2871C580.141 81.5309 581.407 81.1191 582.894 81.0517C584.2 80.9924 585.434 81.1827 586.595 81.6225C587.769 82.0618 588.807 82.6994 589.709 83.5354C590.612 84.3594 591.334 85.3296 591.877 86.4461C592.421 87.5627 592.722 88.7743 592.781 90.0809C592.84 91.3876 592.65 92.6275 592.211 93.8006C591.772 94.9737 591.14 96.0174 590.317 96.9316C589.493 97.8339 588.517 98.5569 587.388 99.1006C586.272 99.6437 585.06 99.9449 583.753 100.004C582.267 100.072 580.968 99.7761 579.857 99.1178C578.746 98.4595 577.853 97.575 577.178 96.4645L577.737 108.782ZM582.987 83.498C581.728 83.5551 580.646 83.9225 579.739 84.6002C578.845 85.2655 578.169 86.137 577.714 87.2147C577.258 88.2925 577.06 89.4847 577.119 90.7913C577.177 92.074 577.476 93.2376 578.016 94.2823C578.568 95.3263 579.32 96.1451 580.272 96.7386C581.236 97.3315 582.353 97.5992 583.624 97.5415C584.87 97.485 586.001 97.1214 587.016 96.4507C588.042 95.7795 588.849 94.902 589.437 93.8183C590.024 92.7226 590.288 91.5154 590.228 90.1968C590.17 88.9141 589.805 87.7594 589.134 86.7328C588.462 85.6941 587.59 84.8808 586.518 84.2928C585.447 83.7047 584.269 83.4398 582.987 83.498ZM615.645 98.5216C613.942 98.5988 612.327 98.3358 610.798 97.7324C609.268 97.1171 607.907 96.2419 606.715 95.1068C605.533 93.9591 604.583 92.6088 603.864 91.0557C603.157 89.5022 602.763 87.8263 602.681 86.0282C602.6 84.23 602.841 82.5254 603.404 80.9142C603.98 79.3024 604.804 77.8776 605.877 76.6397C606.961 75.3893 608.238 74.3945 609.706 73.6552C611.173 72.9039 612.758 72.4897 614.46 72.4125C616.498 72.32 618.396 72.7085 620.153 73.5777C621.91 74.447 623.388 75.6413 624.586 77.1606L622.411 78.4665C621.47 77.3199 620.3 76.43 618.902 75.7967C617.516 75.1509 616.073 74.8619 614.574 74.9299C613.196 74.9924 611.92 75.3326 610.747 75.9504C609.585 76.5556 608.577 77.3642 607.722 78.3759C606.867 79.3877 606.216 80.5404 605.77 81.8339C605.324 83.1274 605.134 84.4875 605.199 85.914C605.264 87.3645 605.578 88.7137 606.139 89.9616C606.712 91.2089 607.47 92.2976 608.413 93.2279C609.368 94.1575 610.452 94.8712 611.664 95.3688C612.887 95.8539 614.176 96.0657 615.53 96.0042C617.089 95.9335 618.517 95.5144 619.816 94.7468C621.126 93.9666 622.192 92.9813 623.015 91.7908L625.299 92.8944C624.244 94.5159 622.88 95.839 621.209 96.8638C619.537 97.8766 617.682 98.4292 615.645 98.5216ZM643.858 85.62L644.363 96.7505L641.846 96.8647L641.364 86.2377C641.319 85.2547 641.039 84.3725 640.523 83.591C640.007 82.8096 639.337 82.1974 638.512 81.7543C637.687 81.3112 636.783 81.112 635.8 81.1565C634.829 81.2006 633.947 81.4808 633.153 81.9973C632.372 82.5133 631.759 83.1837 631.316 84.0086C630.873 84.8335 630.674 85.7375 630.719 86.7205L631.201 97.3476L628.683 97.4617L627.46 70.4895L629.977 70.3753L630.498 81.8475C631.092 80.9076 631.886 80.1448 632.88 79.5592C633.875 78.9735 634.972 78.6535 636.17 78.5991C637.525 78.5377 638.775 78.8113 639.919 79.4201C641.064 80.0289 641.991 80.8757 642.701 81.9607C643.411 83.0456 643.797 84.2654 643.858 85.62ZM647.425 96.6117L646.609 78.6302L649.127 78.516L649.239 80.9974C649.833 80.0575 650.627 79.2948 651.622 78.7091C652.616 78.1235 653.713 77.8034 654.912 77.7491C655.607 77.7175 656.282 77.777 656.938 77.9274L656.026 80.4734C655.516 80.3404 655.021 80.2847 654.541 80.3065C653.57 80.3505 652.688 80.6308 651.895 81.1473C651.113 81.6632 650.501 82.3336 650.058 83.1586C649.615 83.9835 649.416 84.8874 649.46 85.8704L649.942 96.4975L647.425 96.6117ZM658.678 78.0828L661.195 77.9686L662.011 95.9501L659.493 96.0643L658.678 78.0828ZM659.812 74.8781C659.404 74.8966 659.051 74.7805 658.751 74.5298C658.463 74.2666 658.309 73.9312 658.291 73.5236C658.272 73.116 658.395 72.7741 658.659 72.4979C658.934 72.2091 659.275 72.0555 659.683 72.037C660.079 72.0191 660.42 72.1417 660.709 72.4049C661.008 72.6556 661.167 72.9847 661.186 73.3923C661.204 73.7999 661.082 74.1478 660.819 74.436C660.555 74.7122 660.219 74.8596 659.812 74.8781ZM671.234 95.8741C670.25 95.8947 669.283 95.7584 668.332 95.4652C667.382 95.1719 666.546 94.7534 665.825 94.2095C665.103 93.6656 664.576 93.0348 664.243 92.3172L666.377 91.2835C666.59 91.7423 666.963 92.1578 667.496 92.53C668.041 92.8897 668.655 93.1742 669.337 93.3835C670.019 93.5808 670.689 93.6645 671.348 93.6346C672.08 93.6014 672.758 93.4506 673.382 93.182C674.006 92.9134 674.506 92.5484 674.882 92.0869C675.269 91.6129 675.448 91.0702 675.421 90.4588C675.391 89.7995 675.152 89.2938 674.703 88.9418C674.254 88.5778 673.695 88.3028 673.026 88.1169C672.356 87.9191 671.669 87.734 670.965 87.5618C669.678 87.2717 668.54 86.939 667.55 86.5635C666.56 86.1879 665.775 85.689 665.194 85.0667C664.625 84.4318 664.316 83.5989 664.27 82.568C664.22 81.4771 664.483 80.5222 665.059 79.7033C665.646 78.8718 666.427 78.2178 667.402 77.7411C668.389 77.2519 669.452 76.9814 670.591 76.9298C672.053 76.8635 673.398 77.1208 674.626 77.7017C675.865 78.2822 676.779 79.0876 677.366 80.1181L675.389 81.415C675.151 80.9333 674.79 80.5232 674.306 80.1848C673.822 79.8464 673.276 79.5888 672.667 79.4122C672.071 79.2351 671.466 79.1544 670.854 79.1701C670.087 79.1929 669.379 79.3392 668.73 79.6088C668.081 79.8665 667.563 80.2324 667.176 80.7064C666.801 81.1798 666.629 81.7462 666.659 82.4056C666.689 83.0649 666.909 83.5594 667.321 83.8891C667.732 84.2068 668.277 84.4583 668.959 84.6437C669.651 84.8165 670.429 85.0214 671.293 85.2585C672.399 85.5567 673.442 85.9058 674.421 86.3058C675.401 86.7059 676.199 87.2222 676.816 87.8549C677.433 88.4876 677.759 89.3077 677.793 90.3152C677.842 91.3941 677.561 92.3498 676.95 93.1823C676.339 94.0149 675.528 94.6703 674.516 95.1486C673.504 95.615 672.41 95.8568 671.234 95.8741ZM689.062 79.2272L684.765 79.4221L685.448 94.887L682.931 95.0012L682.247 79.5363L678.993 79.6839L678.879 77.1665L682.133 77.0189L681.859 71.3735L684.377 71.2593L684.651 76.9047L688.948 76.7098L689.062 79.2272ZM692.433 94.5702L691.618 76.5887L694.135 76.4745L694.248 78.9559C694.854 78.0155 695.648 77.2527 696.63 76.6676C697.613 76.0825 698.704 75.7628 699.902 75.7084C701.257 75.6469 702.513 75.9263 703.67 76.5465C704.827 77.1547 705.748 77.9959 706.433 79.0699C707.019 77.9382 707.854 77.0174 708.939 76.3076C710.023 75.5857 711.243 75.194 712.597 75.1326C713.952 75.0711 715.202 75.3448 716.346 75.9535C717.491 76.5623 718.418 77.4092 719.128 78.4941C719.838 79.579 720.224 80.7988 720.285 82.1534L720.79 93.284L718.273 93.3982L717.793 82.825C717.75 81.866 717.476 80.9895 716.971 80.1956C716.467 79.4016 715.808 78.7769 714.994 78.3212C714.192 77.8531 713.312 77.6408 712.353 77.6843C711.394 77.7278 710.529 78.0012 709.759 78.5046C709.001 78.9955 708.406 79.6591 707.976 80.4955C707.544 81.3199 707.353 82.2535 707.4 83.2965L707.879 93.8696L705.362 93.9838L704.882 83.4106C704.835 82.3677 704.56 81.4553 704.056 80.6733C703.551 79.8793 702.893 79.2725 702.081 78.8529C701.269 78.4213 700.383 78.2272 699.424 78.2707C698.477 78.3137 697.619 78.6048 696.851 79.1442C696.082 79.6716 695.482 80.3534 695.052 81.1898C694.621 82.0262 694.428 82.9239 694.471 83.8829L694.951 94.456L692.433 94.5702ZM737.467 74.5091L739.985 74.3949L740.8 92.3764L738.283 92.4906L738.041 89.1501C737.505 90.3156 736.726 91.2758 735.703 92.031C734.68 92.7741 733.437 93.1788 731.975 93.2452C730.656 93.305 729.41 93.1152 728.237 92.6759C727.063 92.2247 726.019 91.5813 725.104 90.7459C724.189 89.9105 723.46 88.9285 722.917 87.8C722.373 86.6715 722.071 85.4479 722.011 84.1293C721.953 82.8346 722.137 81.607 722.565 80.4464C723.005 79.2853 723.631 78.2538 724.443 77.3521C725.267 76.4499 726.231 75.7334 727.336 75.2028C728.453 74.6597 729.658 74.3587 730.953 74.3C732.452 74.232 733.775 74.5324 734.922 75.2011C736.069 75.8578 736.998 76.7466 737.71 77.8675L737.467 74.5091ZM731.81 90.8021C733.092 90.744 734.181 90.3823 735.076 89.717C735.97 89.0398 736.639 88.1566 737.082 87.0674C737.537 85.9777 737.735 84.7915 737.677 83.5088C737.617 82.1901 737.312 81.0148 736.761 79.9827C736.209 78.9386 735.457 78.1258 734.506 77.5444C733.554 76.9629 732.443 76.7009 731.173 76.7586C729.902 76.8162 728.754 77.1866 727.728 77.8698C726.713 78.5405 725.918 79.4234 725.343 80.5186C724.78 81.6132 724.528 82.8079 724.587 84.1025C724.646 85.4092 725.017 86.5816 725.701 87.6196C726.384 88.6457 727.262 89.4468 728.333 90.0229C729.416 90.5984 730.575 90.8581 731.81 90.8021ZM749.431 92.3273C748.447 92.3479 747.48 92.2116 746.529 91.9183C745.579 91.6251 744.743 91.2065 744.022 90.6626C743.3 90.1188 742.773 89.488 742.44 88.7704L744.574 87.7366C744.787 88.1954 745.16 88.611 745.693 88.9832C746.238 89.3429 746.852 89.6274 747.534 89.8367C748.216 90.034 748.886 90.1177 749.545 90.0878C750.277 90.0546 750.955 89.9037 751.579 89.6352C752.204 89.3666 752.703 89.0016 753.079 88.5401C753.466 88.0661 753.645 87.5234 753.618 86.912C753.588 86.2527 753.349 85.747 752.9 85.3949C752.451 85.0309 751.892 84.756 751.223 84.5701C750.554 84.3722 749.866 84.1872 749.162 84.0149C747.875 83.7249 746.737 83.3921 745.747 83.0166C744.757 82.6411 743.972 82.1422 743.391 81.5198C742.822 80.885 742.514 80.0521 742.467 79.0212C742.417 77.9303 742.68 76.9754 743.256 76.1565C743.843 75.325 744.624 74.6709 745.599 74.1943C746.586 73.705 747.649 73.4346 748.788 73.3829C750.25 73.3166 751.595 73.5739 752.823 74.1549C754.062 74.7353 754.976 75.5408 755.563 76.5712L753.586 77.8681C753.348 77.3864 752.987 76.9764 752.503 76.6379C752.019 76.2995 751.473 76.042 750.864 75.8654C750.268 75.6883 749.663 75.6076 749.052 75.6233C748.284 75.6461 747.576 75.7923 746.927 76.062C746.278 76.3197 745.76 76.6855 745.373 77.1595C744.998 77.633 744.826 78.1994 744.856 78.8587C744.886 79.5181 745.106 80.0126 745.518 80.3423C745.929 80.66 746.475 80.9115 747.156 81.0968C747.848 81.2696 748.626 81.4746 749.49 81.7117C750.597 82.0099 751.639 82.359 752.619 82.759C753.598 83.159 754.396 83.6754 755.013 84.3081C755.631 84.9408 755.956 85.7609 755.99 86.7684C756.039 87.8473 755.758 88.803 755.147 89.6355C754.536 90.468 753.725 91.1235 752.713 91.6018C751.701 92.0681 750.607 92.3099 749.431 92.3273ZM780.838 72.5419L783.355 72.4277L784.171 90.4092L781.653 90.5234L781.412 87.1829C780.876 88.3484 780.097 89.3087 779.074 90.0638C778.051 90.8069 776.808 91.2116 775.345 91.278C774.026 91.3378 772.781 91.1481 771.607 90.7088C770.434 90.2575 769.39 89.6141 768.475 88.7787C767.56 87.9433 766.831 86.9613 766.287 85.8328C765.743 84.7043 765.442 83.4807 765.382 82.1621C765.323 80.8674 765.508 79.6398 765.936 78.4792C766.375 77.3181 767.001 76.2867 767.813 75.3849C768.637 74.4827 769.602 73.7662 770.707 73.2356C771.823 72.6925 773.029 72.3915 774.324 72.3328C775.822 72.2648 777.145 72.5652 778.293 73.2339C779.439 73.8906 780.369 74.7794 781.08 75.9003L780.838 72.5419ZM775.18 88.8349C776.463 88.7768 777.552 88.4151 778.446 87.7498C779.341 87.0726 780.009 86.1894 780.452 85.1002C780.908 84.0105 781.106 82.8243 781.048 81.5416C780.988 80.2229 780.682 79.0476 780.131 78.0155C779.579 76.9714 778.828 76.1587 777.876 75.5772C776.925 74.9957 775.814 74.7337 774.543 74.7914C773.273 74.849 772.124 75.2194 771.098 75.9026C770.083 76.5733 769.289 77.4562 768.714 78.5514C768.151 79.646 767.899 80.8407 767.957 82.1353C768.017 83.442 768.388 84.6144 769.072 85.6525C769.755 86.6786 770.632 87.4796 771.703 88.0557C772.787 88.6312 773.946 88.8909 775.18 88.8349ZM802.405 78.4287L802.909 89.5592L800.392 89.6734L799.91 79.0464C799.865 78.0634 799.585 77.1812 799.069 76.3997C798.553 75.6183 797.883 75.0061 797.058 74.563C796.233 74.1199 795.329 73.9207 794.346 73.9652C793.375 74.0093 792.493 74.2896 791.699 74.806C790.918 75.322 790.306 75.9924 789.863 76.8173C789.42 77.6422 789.22 78.5462 789.265 79.5292L789.747 90.1563L787.23 90.2705L786.414 72.2889L788.931 72.1748L789.044 74.6562C789.638 73.7163 790.432 72.9535 791.427 72.3679C792.421 71.7822 793.518 71.4622 794.717 71.4078C796.071 71.3464 797.321 71.62 798.466 72.2288C799.61 72.8376 800.538 73.6844 801.248 74.7694C801.958 75.8543 802.343 77.0741 802.405 78.4287ZM819.195 61.7928L821.713 61.6786L822.936 88.6509L820.419 88.7651L820.266 85.4025C819.695 86.5816 818.88 87.5495 817.821 88.3063C816.774 89.0505 815.507 89.4563 814.021 89.5238C812.714 89.583 811.48 89.3927 810.319 88.9529C809.158 88.5131 808.12 87.8814 807.206 87.058C806.303 86.2221 805.58 85.2458 805.037 84.1293C804.494 83.0127 804.193 81.8011 804.133 80.4945C804.074 79.1878 804.264 77.9539 804.704 76.7928C805.143 75.6197 805.775 74.582 806.599 73.6798C807.434 72.765 808.41 72.036 809.527 71.4928C810.643 70.9497 811.855 70.6485 813.162 70.5892C814.648 70.5218 815.947 70.8173 817.058 71.4756C818.18 72.1214 819.079 72.9996 819.754 74.1101L819.195 61.7928ZM813.928 87.0775C815.21 87.0193 816.299 86.6576 817.194 85.9923C818.088 85.3151 818.757 84.4319 819.2 83.3427C819.655 82.253 819.853 81.0668 819.795 79.7841C819.735 78.4655 819.43 77.2901 818.878 76.258C818.327 75.2139 817.575 74.4012 816.624 73.8197C815.672 73.2382 814.561 72.9763 813.291 73.0339C812.02 73.0915 810.878 73.4617 809.863 74.1443C808.849 74.815 808.054 75.6979 807.479 76.7931C806.904 77.8883 806.646 79.0832 806.705 80.3779C806.764 81.6845 807.135 82.8569 807.819 83.895C808.502 84.9211 809.38 85.7221 810.451 86.2982C811.534 86.8737 812.693 87.1335 813.928 87.0775ZM849.407 62.2243L851.924 62.1102L853.066 87.2843L850.548 87.3985L849.994 75.171L836.777 75.7705L837.332 87.9979L834.815 88.1121L833.673 62.938L836.19 62.8238L836.663 73.2531L849.88 72.6536L849.407 62.2243ZM870.682 68.4667L873.2 68.3525L874.015 86.3341L871.498 86.4482L871.256 83.1078C870.72 84.2732 869.941 85.2335 868.918 85.9886C867.895 86.7318 866.652 87.1365 865.189 87.2029C863.871 87.2627 862.625 87.0729 861.452 86.6336C860.278 86.1823 859.234 85.539 858.319 84.7036C857.404 83.8682 856.675 82.8862 856.131 81.7577C855.588 80.6292 855.286 79.4056 855.226 78.0869C855.167 76.7923 855.352 75.5646 855.78 74.4041C856.22 73.2429 856.846 72.2115 857.658 71.3098C858.482 70.4075 859.446 69.6911 860.551 69.1605C861.668 68.6173 862.873 68.3164 864.168 68.2577C865.666 68.1897 866.989 68.4901 868.137 69.1588C869.284 69.8155 870.213 70.7043 870.925 71.8252L870.682 68.4667ZM865.025 84.7598C866.307 84.7016 867.396 84.3399 868.291 83.6747C869.185 82.9975 869.854 82.1143 870.297 81.0251C870.752 79.9353 870.95 78.7491 870.892 77.4665C870.832 76.1478 870.527 74.9725 869.975 73.9404C869.424 72.8963 868.672 72.0835 867.721 71.502C866.769 70.9205 865.658 70.6586 864.388 70.7163C863.117 70.7739 861.969 71.1443 860.942 71.8275C859.928 72.4982 859.133 73.3811 858.558 74.4763C857.995 75.5709 857.743 76.7655 857.802 78.0602C857.861 79.3669 858.232 80.5392 858.916 81.5773C859.599 82.6034 860.477 83.4045 861.548 83.9806C862.631 84.5561 863.79 84.8158 865.025 84.7598ZM877.32 86.1842L876.096 59.2119L878.614 59.0977L879.837 86.07L877.32 86.1842ZM883.629 85.898L882.405 58.9257L884.923 58.8116L886.146 85.7838L883.629 85.898ZM897.73 85.7269C896.076 85.8019 894.546 85.4449 893.141 84.6557C891.748 83.866 890.611 82.7764 889.732 81.3869C888.863 79.9848 888.389 78.4146 888.311 76.6764C888.251 75.3578 888.429 74.1184 888.845 72.9584C889.26 71.7864 889.856 70.7503 890.632 69.8502C891.419 68.9376 892.347 68.2108 893.416 67.6698C894.484 67.1289 895.636 66.8304 896.871 66.7744C898.525 66.6993 900.049 67.0566 901.442 67.8463C902.847 68.6355 903.984 69.7311 904.852 71.1332C905.733 72.5347 906.213 74.1106 906.292 75.8608C906.351 77.1675 906.173 78.4008 905.757 79.5608C905.341 80.7209 904.74 81.7572 903.952 82.6698C903.176 83.5699 902.254 84.2904 901.185 84.8314C900.129 85.3718 898.977 85.6703 897.73 85.7269ZM897.616 83.2095C898.839 83.154 899.921 82.7866 900.864 82.1072C901.817 81.4153 902.552 80.5291 903.067 79.4486C903.595 78.3676 903.831 77.2097 903.775 75.975C903.718 74.7163 903.377 73.5725 902.754 72.5437C902.13 71.5029 901.313 70.6871 900.301 70.0963C899.301 69.505 898.196 69.2369 896.985 69.2918C895.762 69.3472 894.674 69.7209 893.72 70.4128C892.778 71.0922 892.043 71.9724 891.516 73.0534C891 74.1339 890.771 75.3035 890.828 76.5622C890.887 77.8569 891.234 79.0184 891.869 80.0466C892.504 81.0629 893.327 81.8604 894.338 82.4392C895.349 83.006 896.441 83.2627 897.616 83.2095ZM915.968 84.4312L913.378 84.5486L906.539 66.8403L909.002 66.7286L914.551 80.9999L918.748 66.2866L921.41 66.1658L926.922 80.4387L931.12 65.7254L933.601 65.6129L928.393 83.8676L925.786 83.9859L920.195 69.5724L915.968 84.4312ZM944.099 83.6237C942.444 83.6987 940.915 83.3417 939.51 82.5526C938.116 81.7629 936.98 80.6732 936.1 79.2837C935.231 77.8816 934.758 76.3114 934.679 74.5732C934.619 73.2546 934.797 72.0152 935.213 70.8552C935.628 69.6832 936.224 68.6471 937 67.747C937.788 66.8344 938.716 66.1076 939.784 65.5667C940.853 65.0257 942.004 64.7272 943.239 64.6712C944.57 64.6108 945.804 64.8191 946.943 65.296C948.094 65.7723 949.092 66.4658 949.939 67.3764C950.797 68.2865 951.458 69.3676 951.924 70.6198C952.401 71.8715 952.637 73.2362 952.632 74.7139L937.384 75.4055C937.579 76.5378 937.985 77.5405 938.601 78.4135C939.229 79.2859 940.005 79.9655 940.928 80.4521C941.862 80.9263 942.881 81.1443 943.985 81.1063C945.183 81.0519 946.248 80.6913 947.179 80.0244C948.122 79.357 948.862 78.4646 949.4 77.3471L951.98 77.8246C951.333 79.4516 950.308 80.8075 948.903 81.8922C947.498 82.965 945.897 83.5421 944.099 83.6237ZM937.219 73.3769L950.004 72.797C949.87 71.686 949.482 70.6825 948.841 69.7866C948.211 68.8782 947.416 68.1695 946.456 67.6605C945.495 67.1395 944.458 66.9043 943.343 66.9548C942.228 67.0054 941.221 67.3273 940.323 67.9206C939.425 68.502 938.703 69.2735 938.158 70.2351C937.613 71.1848 937.3 72.2321 937.219 73.3769ZM963.297 82.7529C961.643 82.828 960.113 82.4709 958.708 81.6818C957.314 80.8921 956.178 79.8025 955.298 78.4129C954.43 77.0108 953.956 75.4407 953.877 73.7024C953.817 72.3838 953.995 71.1445 954.411 69.9844C954.827 68.8124 955.422 67.7764 956.198 66.8763C956.986 65.9636 957.914 65.2369 958.982 64.6959C960.051 64.1549 961.203 63.8564 962.437 63.8004C963.768 63.7401 965.003 63.9483 966.141 64.4252C967.292 64.9016 968.291 65.595 969.137 66.5056C969.995 67.4157 970.656 68.4968 971.122 69.749C971.599 71.0007 971.835 72.3654 971.83 73.8431L956.582 74.5348C956.777 75.6671 957.183 76.6697 957.799 77.5427C958.427 78.4151 959.203 79.0947 960.126 79.5813C961.06 80.0555 962.079 80.2735 963.183 80.2355C964.381 80.1811 965.446 79.8205 966.377 79.1537C967.32 78.4863 968.06 77.5938 968.598 76.4763L971.178 76.9539C970.531 78.5808 969.506 79.9367 968.101 81.0215C966.697 82.0942 965.095 82.6714 963.297 82.7529ZM956.418 72.5061L969.202 71.9262C969.068 70.8152 968.68 69.8117 968.039 68.9159C967.409 68.0075 966.614 67.2987 965.654 66.7897C964.693 66.2687 963.656 66.0335 962.541 66.0841C961.426 66.1346 960.42 66.4566 959.521 67.0499C958.623 67.6312 957.901 68.4027 957.356 69.3644C956.811 70.314 956.498 71.3613 956.418 72.5061ZM989.912 69.9238L990.417 81.0543L987.9 81.1685L987.418 70.5414C987.373 69.5584 987.093 68.6762 986.577 67.8948C986.061 67.1134 985.391 66.5011 984.566 66.0581C983.741 65.615 982.837 65.4157 981.854 65.4603C980.883 65.5044 980.001 65.7846 979.207 66.3011C978.426 66.817 977.814 67.4875 977.371 68.3124C976.927 69.1373 976.728 70.0413 976.773 71.0243L977.255 81.6513L974.737 81.7655L973.922 63.784L976.439 63.6698L976.552 66.1513C977.146 65.2114 977.94 64.4486 978.935 63.863C979.929 63.2773 981.026 62.9573 982.224 62.9029C983.579 62.8415 984.829 63.1151 985.973 63.7239C987.118 64.3326 988.046 65.1795 988.755 66.2644C989.465 67.3494 989.851 68.5692 989.912 69.9238ZM998.571 72.0176C998.517 70.8308 998.761 69.7266 999.304 68.705C999.858 67.6828 1000.64 66.8604 1001.66 66.2377C1002.39 65.8204 1002.94 65.2306 1003.33 64.4683C1003.71 63.694 1003.89 62.8574 1003.84 61.9583C1003.8 61.0832 1003.55 60.3018 1003.09 59.6141C1002.64 58.9259 1002.04 58.3883 1001.3 58.0013C1000.58 57.6138 999.784 57.4397 998.921 57.4788C998.058 57.518 997.276 57.7636 996.576 58.2158C995.887 58.6675 995.35 59.2565 994.962 59.9828C994.575 60.7091 994.401 61.5098 994.44 62.3849L991.923 62.499C991.863 61.1684 992.131 59.943 992.729 58.8227C993.327 57.7025 994.157 56.794 995.218 56.0972C996.292 55.3998 997.488 55.0212 998.806 54.9614C1000.14 54.901 1001.36 55.1698 1002.48 55.7677C1003.61 56.365 1004.53 57.1944 1005.23 58.2559C1005.92 59.3174 1006.3 60.5135 1006.36 61.8441C1006.42 63.1987 1006.15 64.4664 1005.54 65.6471C1004.94 66.8158 1004.07 67.738 1002.95 68.4136C1002.34 68.7775 1001.87 69.2673 1001.54 69.883C1001.2 70.4987 1001.06 71.1722 1001.09 71.9034L998.571 72.0176ZM1000.17 81.0804C999.776 81.0983 999.428 80.97 999.127 80.6953C998.838 80.4201 998.685 80.0847 998.667 79.6891C998.649 79.2935 998.771 78.9516 999.035 78.6634C999.31 78.3746 999.645 78.2213 1000.04 78.2033C1000.44 78.1854 1000.78 78.308 1001.07 78.5712C1001.37 78.8339 1001.53 79.163 1001.54 79.5586C1001.56 79.9542 1001.43 80.3024 1001.16 80.6032C1000.9 80.9034 1000.57 81.0624 1000.17 81.0804ZM1043.39 78.6515L1042.25 53.4774L1050.76 53.0916C1051.98 53.0362 1053.1 53.2376 1054.12 53.696C1055.15 54.1418 1055.98 54.8309 1056.61 55.7633C1057.25 56.6831 1057.6 57.8203 1057.66 59.1749C1057.7 59.9421 1057.59 60.6796 1057.35 61.3874C1057.1 62.0952 1056.77 62.7049 1056.35 63.2165C1055.93 63.7162 1055.46 64.0496 1054.95 64.2168C1055.71 64.3749 1056.36 64.6815 1056.92 65.1365C1057.48 65.5796 1057.95 66.1169 1058.33 66.7484C1058.71 67.368 1058.99 68.0279 1059.18 68.7281C1059.38 69.4278 1059.49 70.1193 1059.52 70.8026C1059.59 72.2171 1059.33 73.472 1058.76 74.5671C1058.19 75.6618 1057.41 76.5322 1056.41 77.1783C1055.4 77.8125 1054.27 78.1581 1053.01 78.2152L1043.39 78.6515ZM1045.81 76.2897L1052.71 75.9765C1053.59 75.9368 1054.37 75.6731 1055.05 75.1855C1055.75 74.6974 1056.29 74.0482 1056.68 73.2379C1057.07 72.4272 1057.25 71.5243 1057.2 70.5293C1057.16 69.6423 1056.91 68.8189 1056.44 68.0593C1055.99 67.2871 1055.39 66.6776 1054.65 66.2307C1053.92 65.7713 1053.12 65.5614 1052.24 65.6011L1045.34 65.9143L1045.81 76.2897ZM1045.24 63.7026L1051.01 63.4408C1052.2 63.387 1053.19 62.9994 1054 62.278C1054.82 61.5441 1055.2 60.5418 1055.14 59.2711C1055.08 57.8806 1054.61 56.8689 1053.73 56.2362C1052.86 55.591 1051.83 55.2953 1050.64 55.3491L1044.87 55.6109L1045.24 63.7026ZM1070.14 77.9069C1068.48 77.982 1066.95 77.6249 1065.55 76.8358C1064.15 76.0461 1063.02 74.9565 1062.14 73.5669C1061.27 72.1648 1060.8 70.5947 1060.72 68.8564C1060.66 67.5378 1060.84 66.2985 1061.25 65.1384C1061.67 63.9664 1062.26 62.9304 1063.04 62.0303C1063.83 61.1176 1064.75 60.3909 1065.82 59.8499C1066.89 59.3089 1068.04 59.0104 1069.28 58.9544C1070.61 58.8941 1071.84 59.1023 1072.98 59.5792C1074.13 60.0556 1075.13 60.749 1075.98 61.6596C1076.83 62.5697 1077.5 63.6508 1077.96 64.903C1078.44 66.1547 1078.67 67.5194 1078.67 68.9971L1063.42 69.6888C1063.62 70.8211 1064.02 71.8237 1064.64 72.6967C1065.27 73.5691 1066.04 74.2487 1066.97 74.7353C1067.9 75.2095 1068.92 75.4275 1070.02 75.3895C1071.22 75.3351 1072.29 74.9745 1073.22 74.3077C1074.16 73.6403 1074.9 72.7478 1075.44 71.6303L1078.02 72.1079C1077.37 73.7348 1076.35 75.0907 1074.94 76.1754C1073.54 77.2482 1071.93 77.8254 1070.14 77.9069ZM1063.26 67.6601L1076.04 67.0802C1075.91 65.9692 1075.52 64.9657 1074.88 64.0699C1074.25 63.1615 1073.45 62.4527 1072.49 61.9437C1071.53 61.4227 1070.5 61.1875 1069.38 61.2381C1068.27 61.2886 1067.26 61.6106 1066.36 62.2039C1065.46 62.7852 1064.74 63.5567 1064.2 64.5184C1063.65 65.468 1063.34 66.5153 1063.26 67.6601ZM1094.04 71.8318L1096.34 72.9526C1095.58 74.1284 1094.58 75.0865 1093.35 75.8269C1092.14 76.5667 1090.8 76.9698 1089.33 77.0361C1087.68 77.1112 1086.15 76.7541 1084.75 75.965C1083.35 75.1753 1082.22 74.0857 1081.34 72.6961C1080.47 71.294 1079.99 69.7239 1079.91 67.9857C1079.86 66.667 1080.03 65.4277 1080.45 64.2677C1080.86 63.0956 1081.46 62.0596 1082.24 61.1595C1083.02 60.2469 1083.95 59.5201 1085.02 58.9791C1086.09 58.4381 1087.24 58.1396 1088.47 58.0836C1089.94 58.0173 1091.31 58.2975 1092.59 58.9243C1093.87 59.5505 1094.95 60.4205 1095.82 61.5343L1093.63 62.841C1092.97 62.0781 1092.19 61.5067 1091.3 61.1269C1090.4 60.735 1089.5 60.5597 1088.59 60.601C1087.38 60.656 1086.3 61.0294 1085.34 61.7213C1084.39 62.4012 1083.65 63.2817 1083.12 64.3627C1082.6 65.4432 1082.38 66.6128 1082.43 67.8715C1082.49 69.1302 1082.83 70.274 1083.45 71.3028C1084.09 72.331 1084.91 73.1406 1085.92 73.7313C1086.93 74.3101 1088.03 74.5726 1089.22 74.5187C1090.2 74.4741 1091.12 74.2045 1091.96 73.7098C1092.8 73.2152 1093.49 72.5891 1094.04 71.8318ZM1112.91 57.4796L1115.43 57.3655L1116.25 75.347L1113.73 75.4612L1113.49 72.1207C1112.95 73.2861 1112.17 74.2464 1111.15 75.0016C1110.13 75.7447 1108.88 76.1494 1107.42 76.2158C1106.1 76.2756 1104.86 76.0858 1103.68 75.6465C1102.51 75.1953 1101.47 74.5519 1100.55 73.7165C1099.64 72.8811 1098.91 71.8991 1098.36 70.7706C1097.82 69.6421 1097.52 68.4185 1097.46 67.0999C1097.4 65.8052 1097.58 64.5776 1098.01 63.417C1098.45 62.2559 1099.08 61.2244 1099.89 60.3227C1100.71 59.4205 1101.68 58.704 1102.78 58.1734C1103.9 57.6303 1105.11 57.3293 1106.4 57.2706C1107.9 57.2026 1109.22 57.503 1110.37 58.1717C1111.52 58.8284 1112.45 59.7172 1113.16 60.8381L1112.91 57.4796ZM1107.26 73.7727C1108.54 73.7145 1109.63 73.3528 1110.52 72.6876C1111.42 72.0104 1112.09 71.1272 1112.53 70.038C1112.98 68.9483 1113.18 67.7621 1113.12 66.4794C1113.06 65.1607 1112.76 63.9854 1112.21 62.9533C1111.66 61.9092 1110.9 61.0964 1109.95 60.515C1109 59.9335 1107.89 59.6715 1106.62 59.7292C1105.35 59.7868 1104.2 60.1572 1103.17 60.8404C1102.16 61.5111 1101.36 62.394 1100.79 63.4892C1100.23 64.5838 1099.97 65.7785 1100.03 67.0731C1100.09 68.3798 1100.46 69.5522 1101.15 70.5902C1101.83 71.6163 1102.71 72.4174 1103.78 72.9935C1104.86 73.569 1106.02 73.8287 1107.26 73.7727ZM1118.27 68.3539L1117.77 57.2593L1120.29 57.1452L1120.77 67.7363C1120.81 68.7193 1121.09 69.6015 1121.61 70.3829C1122.13 71.1643 1122.8 71.7766 1123.62 72.2196C1124.46 72.6622 1125.36 72.8614 1126.33 72.8174C1127.32 72.7728 1128.19 72.4928 1128.96 71.9774C1129.74 71.4615 1130.36 70.791 1130.8 69.9661C1131.24 69.1412 1131.44 68.2372 1131.4 67.2542L1130.92 56.6631L1133.43 56.549L1134.27 74.5296L1131.75 74.6438L1131.62 72.1272C1131.02 73.0671 1130.23 73.8299 1129.23 74.4156C1128.25 75.0007 1127.16 75.3204 1125.96 75.3748C1124.61 75.4362 1123.36 75.1626 1122.21 74.5538C1121.07 73.9451 1120.14 73.0982 1119.43 72.0133C1118.72 70.9283 1118.34 69.7085 1118.27 68.3539ZM1142.88 74.4812C1141.9 74.5018 1140.93 74.3655 1139.98 74.0723C1139.03 73.779 1138.19 73.3605 1137.47 72.8166C1136.75 72.2727 1136.22 71.642 1135.89 70.9243L1138.02 69.8906C1138.24 70.3494 1138.61 70.7649 1139.14 71.1371C1139.69 71.4968 1140.3 71.7813 1140.98 71.9906C1141.67 72.1879 1142.34 72.2716 1143 72.2417C1143.73 72.2086 1144.41 72.0577 1145.03 71.7891C1145.65 71.5206 1146.15 71.1555 1146.53 70.694C1146.92 70.22 1147.1 69.6773 1147.07 69.066C1147.04 68.4066 1146.8 67.901 1146.35 67.5489C1145.9 67.1849 1145.34 66.9099 1144.67 66.7241C1144 66.5262 1143.32 66.3411 1142.61 66.1689C1141.33 65.8789 1140.19 65.5461 1139.2 65.1706C1138.21 64.7951 1137.42 64.2961 1136.84 63.6738C1136.27 63.039 1135.96 62.2061 1135.92 61.1751C1135.87 60.0842 1136.13 59.1293 1136.71 58.3104C1137.29 57.479 1138.07 56.8249 1139.05 56.3482C1140.04 55.859 1141.1 55.5886 1142.24 55.5369C1143.7 55.4706 1145.05 55.7279 1146.27 56.3089C1147.51 56.8893 1148.43 57.6947 1149.01 58.7252L1147.04 60.0221C1146.8 59.5404 1146.44 59.1303 1145.95 58.7919C1145.47 58.4535 1144.92 58.196 1144.32 58.0194C1143.72 57.8422 1143.11 57.7615 1142.5 57.7773C1141.73 57.8001 1141.03 57.9463 1140.38 58.216C1139.73 58.4736 1139.21 58.8395 1138.82 59.3135C1138.45 59.787 1138.28 60.3534 1138.31 61.0127C1138.34 61.672 1138.56 62.1665 1138.97 62.4962C1139.38 62.8139 1139.93 63.0655 1140.61 63.2508C1141.3 63.4236 1142.08 63.6285 1142.94 63.8657C1144.05 64.1638 1145.09 64.5129 1146.07 64.913C1147.05 65.313 1147.85 65.8294 1148.46 66.4621C1149.08 67.0947 1149.41 67.9148 1149.44 68.9223C1149.49 70.0012 1149.21 70.9569 1148.6 71.7895C1147.99 72.622 1147.18 73.2774 1146.16 73.7558C1145.15 74.2221 1144.06 74.4639 1142.88 74.4812ZM1160.02 73.8302C1158.36 73.9052 1156.83 73.5482 1155.43 72.759C1154.03 71.9694 1152.9 70.8797 1152.02 69.4902C1151.15 68.0881 1150.68 66.5179 1150.6 64.7797C1150.54 63.4611 1150.71 62.2217 1151.13 61.0617C1151.55 59.8897 1152.14 58.8536 1152.92 57.9535C1153.7 57.0409 1154.63 56.3141 1155.7 55.7732C1156.77 55.2322 1157.92 54.9337 1159.16 54.8777C1160.49 54.8173 1161.72 55.0256 1162.86 55.5025C1164.01 55.9788 1165.01 56.6723 1165.86 57.5829C1166.71 58.493 1167.38 59.5741 1167.84 60.8263C1168.32 62.078 1168.55 63.4427 1168.55 64.9204L1153.3 65.612C1153.5 66.7443 1153.9 67.747 1154.52 68.62C1155.15 69.4924 1155.92 70.1719 1156.84 70.6586C1157.78 71.1328 1158.8 71.3508 1159.9 71.3128C1161.1 71.2584 1162.17 70.8978 1163.1 70.2309C1164.04 69.5635 1164.78 68.6711 1165.32 67.5536L1167.9 68.0311C1167.25 69.6581 1166.22 71.014 1164.82 72.0987C1163.42 73.1715 1161.81 73.7486 1160.02 73.8302ZM1153.14 63.5834L1165.92 63.0035C1165.79 61.8924 1165.4 60.889 1164.76 59.9931C1164.13 59.0847 1163.33 58.376 1162.37 57.867C1161.41 57.346 1160.37 57.1108 1159.26 57.1613C1158.15 57.2119 1157.14 57.5338 1156.24 58.1271C1155.34 58.7085 1154.62 59.4799 1154.08 60.4416C1153.53 61.3913 1153.22 62.4386 1153.14 63.5834ZM1191.44 72.4048C1189.74 72.482 1188.12 72.219 1186.59 71.6156C1185.07 71.0003 1183.7 70.1191 1182.51 68.9719C1181.32 67.8248 1180.36 66.4808 1179.64 64.9397C1178.92 63.3867 1178.52 61.7111 1178.44 59.913C1178.36 58.1148 1178.61 56.4159 1179.18 54.8161C1179.76 53.2044 1180.59 51.7733 1181.67 50.5229C1182.76 49.2725 1184.03 48.2776 1185.5 47.5384C1186.97 46.7871 1188.55 46.3729 1190.26 46.2957C1191.97 46.2179 1193.59 46.4867 1195.12 47.102C1196.65 47.7054 1198.01 48.5806 1199.21 49.7277C1200.4 50.8748 1201.35 52.2252 1202.06 53.7787C1202.77 55.3197 1203.18 56.9893 1203.26 58.7875C1203.34 60.5856 1203.09 62.2906 1202.52 63.9023C1201.95 65.5015 1201.13 66.9263 1200.04 68.1767C1198.96 69.4272 1197.68 70.428 1196.21 71.1793C1194.75 71.9185 1193.16 72.3271 1191.44 72.4048ZM1191.33 69.8874C1192.71 69.8249 1193.98 69.491 1195.14 68.8857C1196.31 68.2679 1197.33 67.4531 1198.18 66.4413C1199.05 65.429 1199.7 64.2761 1200.15 62.9826C1200.61 61.6885 1200.8 60.3282 1200.74 58.9017C1200.67 57.4631 1200.35 56.1202 1199.78 54.8729C1199.21 53.6136 1198.44 52.5251 1197.49 51.6074C1196.55 50.6772 1195.46 49.9636 1194.24 49.4665C1193.03 48.9689 1191.74 48.7511 1190.37 48.8131C1188.99 48.8756 1187.72 49.2158 1186.54 49.8336C1185.38 50.4388 1184.37 51.2476 1183.5 52.2599C1182.65 53.2717 1181.99 54.4246 1181.53 55.7187C1181.09 57.0122 1180.89 58.3723 1180.96 59.7988C1181.03 61.2493 1181.34 62.5982 1181.92 63.8455C1182.49 65.0929 1183.25 66.1816 1184.19 67.1118C1185.15 68.0415 1186.23 68.7552 1187.44 69.2528C1188.67 69.7378 1189.96 69.9494 1191.33 69.8874ZM1219.26 66.1521L1221.56 67.2729C1220.8 68.4487 1219.8 69.4068 1218.57 70.1472C1217.36 70.887 1216.02 71.2901 1214.55 71.3564C1212.9 71.4315 1211.37 71.0744 1209.97 70.2853C1208.57 69.4956 1207.44 68.406 1206.56 67.0164C1205.69 65.6143 1205.21 64.0442 1205.13 62.306C1205.08 60.9873 1205.25 59.748 1205.67 58.588C1206.08 57.4159 1206.68 56.3799 1207.46 55.4798C1208.24 54.5672 1209.17 53.8404 1210.24 53.2994C1211.31 52.7584 1212.46 52.4599 1213.7 52.4039C1215.16 52.3376 1216.53 52.6178 1217.81 53.2446C1219.1 53.8708 1220.17 54.7408 1221.04 55.8546L1218.85 57.1613C1218.19 56.3984 1217.41 55.827 1216.52 55.4472C1215.62 55.0553 1214.72 54.88 1213.81 54.9213C1212.6 54.9763 1211.52 55.3497 1210.56 56.0416C1209.61 56.7215 1208.87 57.602 1208.34 58.683C1207.82 59.7635 1207.6 60.9331 1207.65 62.1918C1207.71 63.4505 1208.05 64.5943 1208.67 65.6231C1209.31 66.6513 1210.13 67.4609 1211.14 68.0516C1212.15 68.6304 1213.25 68.8929 1214.44 68.839C1215.42 68.7944 1216.34 68.5248 1217.18 68.0301C1218.02 67.5355 1218.71 66.9094 1219.26 66.1521ZM1232.9 54.5599L1228.6 54.7548L1229.29 70.2197L1226.77 70.3339L1226.09 54.869L1222.83 55.0166L1222.72 52.4992L1225.97 52.3516L1225.7 46.7062L1228.22 46.592L1228.49 52.2374L1232.79 52.0424L1232.9 54.5599ZM1251.07 69.7004C1249.53 69.77 1248.17 69.4955 1246.97 68.877C1245.78 68.2464 1244.83 67.3767 1244.12 66.2677C1243.42 65.1583 1243.04 63.9142 1242.97 62.5357L1245.49 62.4215C1245.53 63.3325 1245.78 64.1622 1246.24 64.9103C1246.7 65.646 1247.33 66.2239 1248.13 66.6441C1248.93 67.0523 1249.87 67.2319 1250.95 67.183C1251.86 67.1417 1252.7 66.8813 1253.47 66.4019C1254.26 65.9099 1254.88 65.2752 1255.33 64.4976C1255.8 63.7076 1256.02 62.857 1255.98 61.946C1255.92 60.8072 1255.59 59.8732 1254.98 59.1441C1254.37 58.4029 1253.56 57.8694 1252.53 57.5435C1251.51 57.2055 1250.35 57.0659 1249.05 57.1247L1248.96 55.0388C1250.75 54.9578 1252.16 54.5152 1253.21 53.711C1254.26 52.8943 1254.76 51.7488 1254.69 50.2743C1254.65 49.4711 1254.4 48.7499 1253.92 48.1107C1253.46 47.471 1252.87 46.9693 1252.14 46.6058C1251.43 46.2298 1250.67 46.06 1249.87 46.0964C1249.07 46.1328 1248.3 46.3717 1247.58 46.813C1246.86 47.2417 1246.29 47.7964 1245.85 48.4769C1245.42 49.1569 1245.23 49.8985 1245.27 50.7016L1242.75 50.8158C1242.71 49.8688 1242.86 48.9727 1243.22 48.1277C1243.58 47.2706 1244.09 46.5089 1244.74 45.8425C1245.39 45.1762 1246.15 44.6434 1247.01 44.244C1247.87 43.8447 1248.78 43.6233 1249.74 43.5798C1251 43.5227 1252.18 43.7814 1253.29 44.3558C1254.4 44.9297 1255.32 45.7229 1256.04 46.7353C1256.76 47.7478 1257.15 48.8894 1257.21 50.1601C1257.26 51.3948 1257 52.5241 1256.4 53.5479C1255.81 54.5717 1254.99 55.3118 1253.93 55.7683C1254.88 56.0376 1255.68 56.4755 1256.35 57.082C1257.01 57.6766 1257.53 58.3801 1257.89 59.1926C1258.25 60.005 1258.45 60.8848 1258.49 61.8318C1258.55 63.2104 1258.25 64.4854 1257.58 65.6569C1256.92 66.8283 1256.01 67.7826 1254.85 68.5197C1253.71 69.2443 1252.44 69.6379 1251.07 69.7004ZM1263.48 68.669L1262.45 46.0123L1259.75 46.1346L1260.36 43.5846L1264.85 43.3807L1265.99 68.5548L1263.48 68.669ZM1277.59 62.1187L1277.48 59.6013L1295.46 58.7857L1295.57 61.3031L1277.59 62.1187ZM1277.26 54.8542L1277.15 52.3368L1295.13 51.5212L1295.24 54.0386L1277.26 54.8542ZM1307 66.6949L1305.86 41.5208L1314.18 41.1432C1315.92 41.0643 1317.57 41.32 1319.12 41.9103C1320.67 42.4886 1322.05 43.333 1323.25 44.4436C1324.45 45.5422 1325.41 46.8381 1326.13 48.3312C1326.86 49.8117 1327.26 51.4211 1327.34 53.1593C1327.42 54.8975 1327.16 56.5428 1326.57 58.0951C1325.99 59.6349 1325.16 61.0123 1324.06 62.2273C1322.96 63.4304 1321.66 64.396 1320.17 65.1244C1318.68 65.8408 1317.06 66.2384 1315.32 66.3173L1307 66.6949ZM1309.4 64.0633L1315.21 63.7999C1316.6 63.7368 1317.89 63.4201 1319.08 62.8497C1320.28 62.2668 1321.32 61.4928 1322.2 60.5279C1323.08 59.563 1323.75 58.4635 1324.21 57.2293C1324.68 55.9827 1324.89 54.664 1324.82 53.2735C1324.76 51.8829 1324.44 50.5942 1323.86 49.4074C1323.28 48.208 1322.51 47.168 1321.53 46.2874C1320.57 45.4062 1319.47 44.7353 1318.23 44.2748C1317 43.8022 1315.69 43.5975 1314.3 43.6606L1308.49 43.924L1309.4 64.0633ZM1338.31 65.7432C1336.66 65.8182 1335.13 65.4612 1333.72 64.6721C1332.33 63.8824 1331.19 62.7927 1330.31 61.4032C1329.44 60.0011 1328.97 58.4309 1328.89 56.6927C1328.83 55.3741 1329.01 54.1347 1329.42 52.9747C1329.84 51.8027 1330.43 50.7666 1331.21 49.8665C1332 48.9539 1332.93 48.2271 1334 47.6862C1335.06 47.1452 1336.22 46.8467 1337.45 46.7907C1338.78 46.7303 1340.02 46.9386 1341.15 47.4155C1342.3 47.8918 1343.3 48.5853 1344.15 49.4959C1345.01 50.406 1345.67 51.4871 1346.13 52.7393C1346.61 53.991 1346.85 55.3557 1346.84 56.8334L1331.59 57.525C1331.79 58.6573 1332.2 59.66 1332.81 60.533C1333.44 61.4054 1334.22 62.085 1335.14 62.5716C1336.07 63.0458 1337.09 63.2638 1338.2 63.2258C1339.39 63.1714 1340.46 62.8108 1341.39 62.1439C1342.33 61.4765 1343.07 60.5841 1343.61 59.4666L1346.19 59.9441C1345.54 61.5711 1344.52 62.927 1343.11 64.0117C1341.71 65.0845 1340.11 65.6616 1338.31 65.7432ZM1331.43 55.4964L1344.22 54.9165C1344.08 53.8055 1343.69 52.802 1343.05 51.9061C1342.42 50.9977 1341.63 50.289 1340.67 49.78C1339.71 49.259 1338.67 49.0238 1337.55 49.0743C1336.44 49.1249 1335.43 49.4468 1334.53 50.0401C1333.64 50.6215 1332.91 51.393 1332.37 52.3546C1331.82 53.3043 1331.51 54.3516 1331.43 55.4964ZM1362.21 59.6681L1364.51 60.7889C1363.75 61.9647 1362.75 62.9228 1361.53 63.6632C1360.31 64.403 1358.97 64.8061 1357.51 64.8724C1355.85 64.9475 1354.32 64.5904 1352.92 63.8013C1351.53 63.0116 1350.39 61.922 1349.51 60.5324C1348.64 59.1303 1348.17 57.5602 1348.09 55.8219C1348.03 54.5033 1348.21 53.264 1348.62 52.1039C1349.04 50.9319 1349.63 49.8959 1350.41 48.9958C1351.2 48.0831 1352.12 47.3564 1353.19 46.8154C1354.26 46.2744 1355.41 45.9759 1356.65 45.9199C1358.11 45.8536 1359.48 46.1338 1360.76 46.7605C1362.05 47.3867 1363.13 48.2568 1363.99 49.3706L1361.8 50.6773C1361.14 49.9144 1360.37 49.343 1359.47 48.9631C1358.58 48.5713 1357.67 48.396 1356.76 48.4373C1355.55 48.4922 1354.47 48.8657 1353.52 49.5576C1352.56 50.2375 1351.82 51.118 1351.29 52.199C1350.78 53.2795 1350.55 54.4491 1350.61 55.7078C1350.66 56.9665 1351 58.1102 1351.63 59.139C1352.26 60.1673 1353.08 60.9768 1354.1 61.5676C1355.11 62.1464 1356.21 62.4088 1357.39 62.355C1358.38 62.3104 1359.29 62.0408 1360.13 61.5461C1360.97 61.0514 1361.67 60.4254 1362.21 59.6681ZM1374.75 63.6219L1374.65 61.3922C1375.59 60.4366 1376.62 59.3927 1377.75 58.2605C1378.87 57.1163 1379.99 55.9427 1381.08 54.7397C1382.19 53.5242 1383.2 52.3312 1384.11 51.1609C1385.02 49.9786 1385.74 48.8709 1386.27 47.8378C1386.81 46.7922 1387.06 45.8798 1387.03 45.1006C1386.98 44.1536 1386.71 43.3011 1386.21 42.5431C1385.72 41.7726 1385.07 41.1712 1384.27 40.739C1383.48 40.2943 1382.61 40.0934 1381.67 40.1364C1380.72 40.1794 1379.86 40.4585 1379.09 40.9739C1378.33 41.4768 1377.74 42.1344 1377.31 42.9468C1376.87 43.7472 1376.68 44.6209 1376.72 45.5679L1374.21 45.6821C1374.14 44.2436 1374.43 42.9272 1375.07 41.7328C1375.73 40.538 1376.62 39.5725 1377.75 38.8364C1378.88 38.0884 1380.15 37.6826 1381.55 37.619C1382.95 37.5554 1384.25 37.8451 1385.43 38.4882C1386.62 39.1307 1387.59 40.0179 1388.32 41.1497C1389.07 42.281 1389.48 43.5599 1389.54 44.9864C1389.58 45.8375 1389.4 46.7829 1388.99 47.8225C1388.59 48.8496 1388.03 49.926 1387.31 51.0517C1386.6 52.1654 1385.78 53.2954 1384.87 54.4418C1383.96 55.5881 1383.01 56.7124 1382.02 57.8146C1381.02 58.9049 1380.05 59.9338 1379.11 60.9014L1390.62 60.3795L1390.73 62.8969L1374.75 63.6219ZM1401.9 62.8588C1400.37 62.9284 1398.95 62.6202 1397.66 61.934C1396.38 61.2473 1395.35 60.2972 1394.56 59.0837C1393.77 57.8581 1393.34 56.4961 1393.27 54.9977L1395.79 54.8835C1395.84 55.9264 1396.14 56.8737 1396.7 57.7254C1397.25 58.5652 1397.97 59.2232 1398.86 59.6995C1399.76 60.1753 1400.73 60.3893 1401.79 60.3414C1402.83 60.2941 1403.77 59.9932 1404.61 59.4385C1405.45 58.8839 1406.11 58.1634 1406.59 57.2769C1407.07 56.3778 1407.29 55.4069 1407.25 54.3639C1407.2 53.309 1406.9 52.3614 1406.36 51.5212C1405.83 50.6683 1405.1 50.0049 1404.16 49.5307C1403.24 49.044 1402.15 48.829 1400.91 48.8855L1394.79 49.1628L1396.64 37.4032L1408.42 36.8689L1408.53 39.3863L1398.78 39.8284L1397.77 46.5051L1400.7 46.3902C1402.42 46.3364 1403.94 46.6338 1405.27 47.2823C1406.61 47.9303 1407.67 48.8551 1408.46 50.0567C1409.25 51.2457 1409.69 52.6434 1409.76 54.2498C1409.81 55.3766 1409.65 56.4473 1409.26 57.4618C1408.89 58.4759 1408.33 59.3839 1407.6 60.1859C1406.88 60.9754 1406.03 61.6084 1405.06 62.0851C1404.09 62.5493 1403.04 62.8072 1401.9 62.8588Z" fill="#171717"/>
</svg>
