<svg width="1559" height="147" viewBox="0 0 1559 147" fill="none" xmlns="http://www.w3.org/2000/svg">
<rect x="36" width="1440" height="147" fill="#FB6514"/>
<rect x="0.313232" y="77.8135" width="1556.65" height="63.0056" transform="rotate(-2.57578 0.313232 77.8135)" fill="white"/>
<path d="M119.361 97.3805L122.777 105.495L131.102 108.361L122.987 111.777L120.122 120.102L116.705 111.987L108.381 109.122L116.495 105.705L119.361 97.3805Z" fill="#FB6514"/>
<path d="M1391.36 35.3805L1394.78 43.4949L1403.1 46.3605L1394.99 49.7768L1392.12 58.1017L1388.71 49.9872L1380.38 47.1216L1388.49 43.7053L1391.36 35.3805Z" fill="#FB6514"/>
<path d="M1008.36 55.3805L1011.78 63.4949L1020.1 66.3605L1011.99 69.7768L1009.12 78.1017L1005.71 69.9872L997.381 67.1216L1005.49 63.7053L1008.36 55.3805Z" fill="#FB6514"/>
<path d="M165.397 114.785L159.081 94.0502L161.239 93.9523L166.462 111.118L170.095 93.5506L171.953 93.4664L177.176 110.632L180.809 93.0647L182.967 92.9668L178.584 114.187L176.096 114.3L171.245 98.3785L167.855 114.674L165.397 114.785ZM198.815 103.975L199.235 113.251L197.137 113.346L196.736 104.49C196.699 103.671 196.465 102.935 196.035 102.284C195.605 101.633 195.046 101.123 194.359 100.754C193.672 100.384 192.918 100.218 192.099 100.256C191.29 100.292 190.555 100.526 189.894 100.956C189.242 101.386 188.732 101.945 188.363 102.632C187.994 103.32 187.828 104.073 187.865 104.892L188.267 113.748L186.169 113.843L185.149 91.3663L187.247 91.2711L187.681 100.831C188.176 100.048 188.838 99.4124 189.666 98.9244C190.495 98.4363 191.409 98.1696 192.408 98.1243C193.537 98.0731 194.578 98.3012 195.532 98.8085C196.486 99.3158 197.259 100.021 197.85 100.926C198.442 101.83 198.763 102.846 198.815 103.975ZM211.02 97.7005L213.238 97.6L206.061 120.449L203.828 120.55L206.216 112.934L200.156 98.1933L202.449 98.0893L207.133 109.994L211.02 97.7005ZM234.531 89.1264L236.629 89.0313L237.648 111.508L235.55 111.603L235.423 108.801C234.947 109.784 234.268 110.59 233.386 111.221C232.513 111.841 231.457 112.179 230.219 112.236C229.13 112.285 228.101 112.126 227.134 111.76C226.166 111.393 225.302 110.867 224.54 110.181C223.787 109.484 223.185 108.671 222.732 107.74C222.28 106.81 222.029 105.8 221.979 104.711C221.93 103.622 222.088 102.594 222.455 101.626C222.821 100.649 223.347 99.7841 224.034 99.0322C224.73 98.2699 225.543 97.6624 226.474 97.2098C227.404 96.7572 228.414 96.5062 229.503 96.4568C230.742 96.4006 231.824 96.6468 232.75 97.1954C233.685 97.7336 234.434 98.4654 234.996 99.3909L234.531 89.1264ZM230.141 110.197C231.21 110.149 232.117 109.847 232.863 109.293C233.608 108.728 234.165 107.992 234.535 107.085C234.914 106.177 235.079 105.188 235.031 104.119C234.981 103.02 234.726 102.041 234.267 101.181C233.807 100.311 233.181 99.6334 232.388 99.1488C231.595 98.6643 230.669 98.446 229.61 98.494C228.551 98.5421 227.599 98.8505 226.754 99.4194C225.909 99.9783 225.246 100.714 224.767 101.627C224.288 102.539 224.073 103.535 224.122 104.614C224.171 105.703 224.481 106.68 225.051 107.545C225.62 108.4 226.351 109.068 227.244 109.548C228.146 110.027 229.112 110.244 230.141 110.197ZM247.291 111.461C245.912 111.524 244.637 111.226 243.466 110.569C242.305 109.911 241.358 109.003 240.625 107.845C239.901 106.676 239.507 105.368 239.441 103.919C239.391 102.82 239.539 101.788 239.886 100.821C240.232 99.8441 240.728 98.9807 241.375 98.2307C242.031 97.4702 242.805 96.8645 243.695 96.4137C244.586 95.9629 245.545 95.7141 246.574 95.6675C247.953 95.6049 249.223 95.9027 250.384 96.5608C251.555 97.2184 252.502 98.1314 253.226 99.2998C253.959 100.468 254.359 101.781 254.426 103.239C254.475 104.328 254.326 105.356 253.98 106.323C253.633 107.29 253.132 108.153 252.476 108.914C251.829 109.664 251.06 110.264 250.17 110.715C249.289 111.165 248.33 111.414 247.291 111.461ZM247.196 109.363C248.215 109.317 249.117 109.011 249.902 108.445C250.696 107.868 251.309 107.13 251.738 106.229C252.178 105.328 252.374 104.364 252.328 103.335C252.28 102.286 251.997 101.333 251.477 100.475C250.957 99.6079 250.276 98.9281 249.433 98.4358C248.6 97.943 247.678 97.7195 246.67 97.7653C245.651 97.8115 244.744 98.1229 243.949 98.6995C243.164 99.2657 242.552 99.9992 242.112 100.9C241.682 101.8 241.491 102.775 241.539 103.824C241.588 104.903 241.877 105.871 242.406 106.728C242.935 107.575 243.621 108.239 244.464 108.722C245.306 109.194 246.217 109.408 247.196 109.363ZM266.188 117.721L264.09 117.817L263.071 95.3397L265.168 95.2445L265.296 98.0466C265.772 97.074 266.446 96.2727 267.319 95.6425C268.191 95.0123 269.247 94.6691 270.485 94.6129C271.574 94.5636 272.602 94.7221 273.57 95.0887C274.548 95.4547 275.413 95.9861 276.165 96.6827C276.917 97.3694 277.519 98.1779 277.972 99.1083C278.424 100.039 278.675 101.048 278.725 102.137C278.774 103.226 278.616 104.259 278.25 105.237C277.884 106.215 277.357 107.084 276.671 107.846C275.985 108.598 275.171 109.201 274.231 109.654C273.3 110.106 272.291 110.357 271.202 110.407C269.963 110.463 268.881 110.217 267.955 109.668C267.029 109.119 266.285 108.382 265.722 107.457L266.188 117.721ZM270.563 96.6515C269.514 96.6991 268.612 97.0053 267.857 97.5701C267.111 98.1244 266.548 98.8507 266.169 99.7488C265.789 100.647 265.624 101.64 265.673 102.729C265.722 103.798 265.971 104.768 266.421 105.638C266.881 106.508 267.507 107.191 268.3 107.685C269.104 108.179 270.035 108.403 271.094 108.354C272.132 108.307 273.075 108.004 273.92 107.445C274.776 106.886 275.448 106.155 275.938 105.252C276.427 104.339 276.647 103.333 276.597 102.234C276.548 101.165 276.244 100.203 275.685 99.3472C275.125 98.4817 274.399 97.8039 273.506 97.3139C272.613 96.8238 271.632 96.603 270.563 96.6515ZM281.153 109.535L280.474 94.5503L282.572 94.4551L282.665 96.523C283.16 95.7398 283.822 95.1041 284.651 94.6161C285.48 94.128 286.394 93.8613 287.393 93.816C287.972 93.7898 288.535 93.8393 289.081 93.9647L288.321 96.0863C287.896 95.9754 287.483 95.9291 287.084 95.9472C286.275 95.9839 285.54 96.2175 284.878 96.6479C284.227 97.0778 283.717 97.6365 283.348 98.3239C282.979 99.0114 282.812 99.7647 282.85 100.584L283.251 109.44L281.153 109.535ZM297.031 109.205C295.653 109.268 294.378 108.97 293.207 108.312C292.046 107.654 291.099 106.746 290.366 105.588C289.642 104.42 289.247 103.112 289.182 101.663C289.132 100.564 289.28 99.5314 289.627 98.5647C289.973 97.588 290.469 96.7246 291.116 95.9746C291.772 95.214 292.545 94.6084 293.436 94.1576C294.326 93.7068 295.286 93.458 296.315 93.4113C297.694 93.3488 298.963 93.6466 300.124 94.3046C301.295 94.9623 302.243 95.8753 302.966 97.0437C303.7 98.2116 304.1 99.5249 304.166 100.983C304.216 102.072 304.067 103.1 303.72 104.067C303.374 105.033 302.872 105.897 302.216 106.658C301.57 107.408 300.801 108.008 299.911 108.459C299.03 108.909 298.07 109.158 297.031 109.205ZM296.936 107.107C297.955 107.061 298.857 106.755 299.642 106.189C300.437 105.612 301.049 104.874 301.479 103.973C301.919 103.072 302.115 102.107 302.068 101.079C302.021 100.03 301.737 99.0765 301.218 98.2191C300.698 97.3518 300.017 96.672 299.173 96.1797C298.34 95.6869 297.419 95.4634 296.41 95.5092C295.391 95.5554 294.484 95.8668 293.69 96.4434C292.905 97.0096 292.292 97.7431 291.853 98.6439C291.423 99.5443 291.232 100.519 291.279 101.568C291.328 102.647 291.618 103.615 292.147 104.472C292.676 105.318 293.362 105.983 294.204 106.465C295.047 106.938 295.957 107.152 296.936 107.107ZM317.681 92.8626L319.779 92.7675L320.484 108.307C320.527 109.266 320.358 110.174 319.977 111.032C319.605 111.89 319.079 112.65 318.399 113.311C317.728 113.982 316.952 114.518 316.069 114.918C315.186 115.319 314.26 115.541 313.291 115.585C312.252 115.632 311.238 115.438 310.247 115.002C309.256 114.577 308.384 113.986 307.629 113.229C306.884 112.472 306.34 111.621 305.996 110.675L307.889 109.704C308.113 110.444 308.498 111.102 309.045 111.678C309.602 112.264 310.243 112.715 310.968 113.033C311.704 113.36 312.446 113.506 313.195 113.472C313.885 113.441 314.543 113.281 315.171 112.992C315.809 112.713 316.373 112.342 316.862 111.879C317.362 111.416 317.748 110.883 318.021 110.28C318.294 109.687 318.416 109.061 318.386 108.402L318.236 105.09C317.759 106.053 317.089 106.844 316.226 107.464C315.374 108.083 314.363 108.419 313.194 108.472C312.145 108.52 311.147 108.36 310.199 107.992C309.261 107.624 308.427 107.097 307.695 106.409C306.962 105.712 306.375 104.897 305.932 103.966C305.5 103.035 305.259 102.025 305.209 100.936C305.16 99.8472 305.308 98.8194 305.655 97.8527C306.011 96.8756 306.522 96.0115 307.189 95.2605C307.855 94.4996 308.639 93.8934 309.539 93.4422C310.45 92.9905 311.429 92.7408 312.478 92.6932C313.647 92.6402 314.684 92.8835 315.589 93.423C316.504 93.9521 317.243 94.6794 317.806 95.6048L317.681 92.8626ZM313.116 106.433C314.155 106.386 315.037 106.076 315.762 105.503C316.497 104.929 317.049 104.188 317.418 103.28C317.787 102.373 317.948 101.399 317.901 100.36C317.853 99.2915 317.599 98.327 317.139 97.4669C316.689 96.5964 316.073 95.9137 315.29 95.4186C314.506 94.9136 313.605 94.6842 312.586 94.7305C311.567 94.7767 310.65 95.0835 309.835 95.6511C309.029 96.2081 308.402 96.9423 307.952 97.8536C307.503 98.7649 307.303 99.76 307.352 100.839C307.401 101.918 307.695 102.89 308.235 103.757C308.775 104.613 309.471 105.287 310.324 105.779C311.187 106.261 312.117 106.479 313.116 106.433ZM323.617 107.609L322.938 92.6242L325.035 92.5291L325.129 94.597C325.624 93.8137 326.286 93.1781 327.115 92.69C327.944 92.202 328.857 91.9353 329.856 91.89C330.436 91.8637 330.999 91.9132 331.545 92.0386L330.785 94.1602C330.36 94.0494 329.947 94.003 329.548 94.0212C328.738 94.0579 328.003 94.2914 327.342 94.7218C326.691 95.1518 326.181 95.7105 325.811 96.3979C325.442 97.0853 325.276 97.8386 325.313 98.6578L325.715 107.514L323.617 107.609ZM344.522 91.6452L346.62 91.5501L347.299 106.535L345.202 106.63L345 103.846C344.554 104.817 343.904 105.618 343.052 106.247C342.199 106.866 341.163 107.203 339.945 107.259C338.846 107.308 337.808 107.15 336.83 106.784C335.852 106.408 334.982 105.872 334.219 105.176C333.457 104.48 332.849 103.661 332.396 102.721C331.943 101.781 331.692 100.761 331.642 99.6621C331.593 98.5832 331.747 97.5601 332.103 96.593C332.47 95.6254 332.991 94.7659 333.668 94.0144C334.355 93.2626 335.159 92.6655 336.079 92.2233C337.01 91.7707 338.015 91.5199 339.093 91.471C340.342 91.4144 341.445 91.6647 342.401 92.2219C343.357 92.7692 344.131 93.5098 344.724 94.4439L344.522 91.6452ZM339.807 105.223C340.876 105.174 341.783 104.873 342.529 104.319C343.274 103.754 343.832 103.018 344.201 102.111C344.58 101.202 344.745 100.214 344.697 99.145C344.647 98.0461 344.392 97.0667 343.933 96.2066C343.473 95.3365 342.847 94.6592 342.054 94.1746C341.261 93.6901 340.335 93.4718 339.276 93.5198C338.218 93.5678 337.261 93.8765 336.405 94.4459C335.56 95.0047 334.898 95.7405 334.418 96.6532C333.949 97.5654 333.739 98.5609 333.788 99.6398C333.838 100.729 334.147 101.706 334.717 102.571C335.286 103.426 336.017 104.093 336.91 104.573C337.813 105.053 338.778 105.269 339.807 105.223ZM349.848 106.419L349.169 91.4344L351.267 91.3393L351.36 93.4072C351.865 92.6235 352.527 91.9878 353.346 91.5002C354.165 91.0126 355.074 90.7462 356.073 90.7009C357.201 90.6497 358.248 90.8825 359.213 91.3993C360.176 91.9062 360.944 92.6071 361.515 93.5021C362.003 92.5591 362.699 91.7917 363.603 91.2002C364.507 90.5986 365.523 90.2722 366.652 90.221C367.781 90.1698 368.822 90.3979 369.776 90.9052C370.73 91.4125 371.503 92.1182 372.094 93.0223C372.686 93.9264 373.007 94.9429 373.058 96.0717L373.479 105.347L371.381 105.442L370.982 96.6314C370.945 95.8322 370.717 95.1018 370.297 94.4402C369.876 93.7786 369.327 93.2579 368.649 92.8782C367.981 92.4881 367.247 92.3112 366.448 92.3474C365.649 92.3837 364.928 92.6116 364.287 93.0311C363.655 93.4401 363.159 93.9932 362.8 94.6901C362.441 95.3771 362.281 96.1552 362.321 97.0243L362.72 105.835L360.622 105.93L360.223 97.1194C360.183 96.2503 359.954 95.4899 359.534 94.8383C359.113 94.1767 358.565 93.671 357.888 93.3213C357.211 92.9616 356.473 92.7999 355.674 92.8361C354.885 92.8719 354.17 93.1146 353.53 93.564C352.889 94.0035 352.389 94.5717 352.03 95.2687C351.672 95.9657 351.51 96.7138 351.547 97.5129L351.946 106.324L349.848 106.419ZM376.032 105.231L375.352 90.2468L377.45 90.1517L377.544 92.2196C378.049 91.4359 378.711 90.8002 379.529 90.3126C380.348 89.825 381.257 89.5586 382.256 89.5133C383.385 89.4621 384.431 89.6949 385.396 90.2117C386.36 90.7185 387.127 91.4195 387.698 92.3145C388.186 91.3715 388.882 90.6041 389.786 90.0126C390.69 89.411 391.706 89.0846 392.835 89.0334C393.964 88.9822 395.005 89.2103 395.959 89.7176C396.913 90.2249 397.686 90.9306 398.278 91.8347C398.869 92.7388 399.19 93.7553 399.242 94.8841L399.662 104.16L397.565 104.255L397.165 95.4438C397.129 94.6446 396.9 93.9142 396.48 93.2526C396.06 92.591 395.51 92.0703 394.832 91.6906C394.164 91.3005 393.43 91.1236 392.631 91.1598C391.832 91.1961 391.112 91.424 390.47 91.8435C389.838 92.2525 389.342 92.8055 388.984 93.5025C388.624 94.1895 388.464 94.9675 388.504 95.8367L388.903 104.648L386.806 104.743L386.406 95.9318C386.367 95.0627 386.137 94.3023 385.717 93.6507C385.296 92.9891 384.748 92.4834 384.071 92.1337C383.394 91.774 382.656 91.6123 381.857 91.6485C381.068 91.6843 380.353 91.9269 379.713 92.3764C379.072 92.8159 378.572 93.3841 378.214 94.0811C377.855 94.7781 377.694 95.5262 377.73 96.3253L378.13 105.136L376.032 105.231ZM408.533 104.148C407.155 104.21 405.88 103.913 404.709 103.255C403.548 102.597 402.601 101.689 401.867 100.531C401.144 99.3625 400.749 98.0541 400.683 96.6056C400.634 95.5067 400.782 94.4739 401.128 93.5072C401.475 92.5305 401.971 91.6672 402.618 90.9171C403.274 90.1566 404.047 89.5509 404.938 89.1001C405.828 88.6493 406.788 88.4005 407.817 88.3539C408.926 88.3036 409.955 88.4771 410.904 88.8745C411.863 89.2715 412.695 89.8494 413.4 90.6082C414.115 91.3666 414.666 92.2675 415.054 93.311C415.452 94.3541 415.648 95.4914 415.644 96.7228L402.937 97.2992C403.1 98.2428 403.438 99.0783 403.952 99.8058C404.475 100.533 405.122 101.099 405.891 101.505C406.669 101.9 407.518 102.081 408.438 102.05C409.437 102.004 410.324 101.704 411.1 101.148C411.885 100.592 412.502 99.8484 412.951 98.9171L415.101 99.3151C414.562 100.671 413.707 101.801 412.537 102.705C411.366 103.599 410.032 104.08 408.533 104.148ZM402.8 95.6086L413.454 95.1254C413.342 94.1995 413.019 93.3633 412.485 92.6167C411.96 91.8597 411.297 91.2692 410.497 90.845C409.697 90.4108 408.832 90.2148 407.903 90.2569C406.974 90.2991 406.135 90.5673 405.387 91.0618C404.638 91.5462 404.037 92.1891 403.583 92.9905C403.128 93.7819 402.867 94.6546 402.8 95.6086ZM418.067 103.325L417.387 88.3402L419.485 88.2451L419.579 90.3129C420.074 89.5297 420.736 88.8941 421.565 88.406C422.393 87.9179 423.307 87.6513 424.306 87.606C424.886 87.5797 425.448 87.6292 425.995 87.7546L425.235 89.8762C424.81 89.7654 424.397 89.719 423.997 89.7371C423.188 89.7738 422.453 90.0074 421.792 90.4378C421.141 90.8677 420.63 91.4264 420.261 92.1139C419.892 92.8013 419.726 93.5546 419.763 94.3738L420.165 103.23L418.067 103.325ZM432.767 102.943C431.947 102.96 431.141 102.847 430.349 102.603C429.558 102.358 428.861 102.009 428.26 101.556C427.659 101.103 427.219 100.577 426.942 99.9792L428.72 99.1178C428.897 99.5001 429.208 99.8464 429.653 100.157C430.107 100.456 430.618 100.693 431.187 100.868C431.755 101.032 432.313 101.102 432.863 101.077C433.472 101.049 434.037 100.924 434.558 100.7C435.078 100.476 435.495 100.172 435.808 99.7873C436.13 99.3923 436.28 98.9401 436.256 98.4306C436.232 97.8812 436.032 97.4598 435.659 97.1664C435.284 96.863 434.819 96.6339 434.261 96.479C433.703 96.3141 433.13 96.1599 432.543 96.0164C431.471 95.7747 430.523 95.4974 429.698 95.1844C428.873 94.8715 428.218 94.4557 427.734 93.9371C427.26 93.4081 427.003 92.714 426.964 91.8549C426.923 90.9458 427.142 90.1501 427.622 89.4676C428.111 88.7748 428.762 88.2297 429.574 87.8325C430.397 87.4248 431.282 87.1994 432.232 87.1564C433.45 87.1011 434.571 87.3155 435.594 87.7997C436.627 88.2834 437.388 88.9546 437.878 89.8133L436.23 90.894C436.032 90.4926 435.731 90.1509 435.328 89.8689C434.924 89.5869 434.469 89.3723 433.962 89.2251C433.465 89.0775 432.961 89.0102 432.451 89.0233C431.812 89.0424 431.221 89.1642 430.681 89.3889C430.14 89.6037 429.709 89.9085 429.386 90.3035C429.074 90.6981 428.93 91.1701 428.955 91.7195C428.98 92.269 429.164 92.6811 429.506 92.9558C429.849 93.2206 430.304 93.4302 430.871 93.5846C431.449 93.7286 432.097 93.8994 432.817 94.097C433.739 94.3455 434.608 94.6364 435.424 94.9698C436.24 95.3031 436.905 95.7334 437.419 96.2607C437.934 96.7879 438.205 97.4713 438.233 98.3109C438.274 99.21 438.04 100.006 437.531 100.7C437.022 101.394 436.346 101.94 435.503 102.339C434.66 102.727 433.748 102.929 432.767 102.943ZM458.94 86.4555L461.038 86.3603L461.717 101.345L459.62 101.44L459.418 98.6563C458.972 99.6276 458.322 100.428 457.47 101.057C456.617 101.676 455.581 102.014 454.363 102.069C453.264 102.119 452.226 101.961 451.248 101.595C450.27 101.218 449.4 100.682 448.637 99.9862C447.875 99.29 447.267 98.4717 446.814 97.5313C446.361 96.5908 446.11 95.5712 446.06 94.4723C446.011 93.3934 446.165 92.3704 446.521 91.4033C446.888 90.4357 447.409 89.5761 448.086 88.8247C448.773 88.0728 449.576 87.4758 450.497 87.0336C451.428 86.581 452.432 86.3302 453.511 86.2813C454.76 86.2246 455.863 86.4749 456.819 87.0322C457.775 87.5794 458.549 88.3201 459.142 89.2542L458.94 86.4555ZM454.225 100.033C455.294 99.9846 456.201 99.6832 456.947 99.1288C457.692 98.5644 458.249 97.8284 458.619 96.9208C458.998 96.0127 459.163 95.0242 459.115 93.9553C459.065 92.8564 458.81 91.8769 458.351 91.0169C457.891 90.1468 457.265 89.4695 456.472 88.9849C455.679 88.5003 454.753 88.2821 453.694 88.3301C452.635 88.3781 451.678 88.6868 450.823 89.2561C449.978 89.815 449.316 90.5508 448.836 91.4634C448.367 92.3756 448.157 93.3712 448.206 94.4501C448.255 95.5389 448.565 96.5159 449.135 97.381C449.704 98.2361 450.435 98.9036 451.328 99.3837C452.23 99.8633 453.196 100.08 454.225 100.033ZM464.471 101.22L463.452 78.7431L465.55 78.648L466.569 101.125L464.471 101.22ZM475.861 100.703L473.703 100.801L468.004 86.0444L470.057 85.9513L474.68 97.844L478.178 85.5829L480.396 85.4823L484.99 97.3764L488.488 85.1153L490.555 85.0215L486.215 100.234L484.043 100.332L479.383 88.3211L475.861 100.703ZM504.33 84.3967L506.428 84.3015L507.108 99.2861L505.01 99.3813L504.809 96.5975C504.362 97.5688 503.713 98.369 502.86 98.9983C502.008 99.6176 500.972 99.9548 499.753 100.01C498.654 100.06 497.616 99.9018 496.638 99.5358C495.66 99.1597 494.79 98.6236 494.028 97.9274C493.265 97.2312 492.658 96.4129 492.205 95.4725C491.752 94.532 491.5 93.5124 491.45 92.4135C491.401 91.3346 491.555 90.3116 491.912 89.3445C492.278 88.3769 492.8 87.5173 493.476 86.7659C494.163 86.014 494.967 85.417 495.888 84.9748C496.818 84.5222 497.823 84.2714 498.902 84.2225C500.151 84.1658 501.253 84.4161 502.209 84.9734C503.165 85.5206 503.939 86.2613 504.532 87.1954L504.33 84.3967ZM499.616 97.9742C500.685 97.9258 501.592 97.6243 502.337 97.07C503.083 96.5056 503.64 95.7696 504.009 94.862C504.388 93.9539 504.554 92.9654 504.505 91.8964C504.455 90.7976 504.201 89.8181 503.741 88.958C503.281 88.088 502.655 87.4107 501.862 86.9261C501.07 86.4415 500.144 86.2232 499.085 86.2713C498.026 86.3193 497.069 86.628 496.214 87.1973C495.368 87.7562 494.706 88.492 494.227 89.4046C493.758 90.3168 493.548 91.3124 493.596 92.3912C493.646 93.4801 493.955 94.4571 494.525 95.3222C495.095 96.1773 495.826 96.8448 496.718 97.3249C497.621 97.8045 498.587 98.0209 499.616 97.9742ZM518.89 83.7363L521.108 83.6357L513.931 106.484L511.698 106.586L514.086 98.9696L508.027 84.229L510.319 84.125L515.003 96.03L518.89 83.7363ZM528.572 98.5979C527.752 98.615 526.946 98.5014 526.154 98.2571C525.362 98.0127 524.665 97.6639 524.064 97.2107C523.463 96.7574 523.024 96.2318 522.746 95.6338L524.524 94.7723C524.702 95.1547 525.013 95.5009 525.457 95.8111C525.911 96.1109 526.422 96.3479 526.991 96.5223C527.559 96.6868 528.118 96.7565 528.667 96.7316C529.277 96.704 529.841 96.5782 530.362 96.3544C530.882 96.1306 531.299 95.8264 531.612 95.4419C531.934 95.0469 532.084 94.5946 532.061 94.0851C532.036 93.5357 531.837 93.1143 531.463 92.8209C531.089 92.5176 530.623 92.2884 530.065 92.1335C529.507 91.9687 528.935 91.8144 528.348 91.6709C527.275 91.4292 526.327 91.1519 525.502 90.839C524.677 90.526 524.022 90.1103 523.538 89.5917C523.064 89.0626 522.807 88.3685 522.768 87.5094C522.727 86.6004 522.946 85.8046 523.426 85.1222C523.915 84.4293 524.566 83.8843 525.379 83.487C526.201 83.0793 527.087 82.854 528.036 82.8109C529.254 82.7556 530.375 82.9701 531.398 83.4542C532.431 83.9379 533.193 84.6091 533.682 85.4678L532.034 86.5486C531.836 86.1472 531.535 85.8054 531.132 85.5234C530.729 85.2414 530.273 85.0268 529.766 84.8796C529.269 84.732 528.765 84.6648 528.256 84.6779C527.616 84.6969 527.026 84.8188 526.485 85.0435C525.944 85.2582 525.513 85.5631 525.19 85.9581C524.878 86.3526 524.734 86.8246 524.759 87.3741C524.784 87.9235 524.968 88.3356 525.311 88.6104C525.653 88.8751 526.108 89.0847 526.676 89.2392C527.253 89.3832 527.901 89.554 528.621 89.7515C529.543 90 530.412 90.2909 531.228 90.6243C532.044 90.9577 532.709 91.388 533.224 91.9152C533.738 92.4424 534.009 93.1259 534.037 93.9654C534.078 94.8645 533.844 95.6609 533.335 96.3547C532.826 97.0485 532.15 97.5947 531.307 97.9933C530.464 98.3819 529.552 98.5834 528.572 98.5979ZM543.106 97.6533L542.427 82.6687L544.525 82.5736L544.618 84.6414C545.123 83.8577 545.785 83.2221 546.604 82.7345C547.423 82.2469 548.332 81.9804 549.331 81.9351C550.459 81.8839 551.506 82.1167 552.47 82.6336C553.434 83.1404 554.202 83.8414 554.773 84.7364C555.261 83.7933 555.957 83.026 556.861 82.4344C557.765 81.8329 558.781 81.5065 559.91 81.4553C561.039 81.4041 562.08 81.6321 563.034 82.1394C563.988 82.6467 564.761 83.3524 565.352 84.2566C565.944 85.1607 566.265 86.1772 566.316 87.306L566.737 96.5815L564.639 96.6766L564.24 87.8657C564.203 87.0665 563.975 86.3361 563.555 85.6745C563.134 85.0128 562.585 84.4922 561.907 84.1125C561.239 83.7224 560.505 83.5455 559.706 83.5817C558.907 83.618 558.186 83.8458 557.545 84.2653C556.912 84.6744 556.417 85.2274 556.058 85.9244C555.699 86.6114 555.539 87.3894 555.579 88.2585L555.978 97.0695L553.88 97.1646L553.481 88.3537C553.441 87.4846 553.212 86.7242 552.792 86.0726C552.371 85.4109 551.823 84.9053 551.146 84.5556C550.469 84.1959 549.731 84.0341 548.932 84.0704C548.143 84.1062 547.428 84.3488 546.788 84.7983C546.147 85.2378 545.647 85.806 545.288 86.503C544.93 87.2 544.768 87.948 544.805 88.7472L545.204 97.5582L543.106 97.6533ZM568.61 81.4811L570.708 81.3859L571.387 96.3705L569.29 96.4657L568.61 81.4811ZM569.555 78.8105C569.215 78.8259 568.921 78.7292 568.671 78.5203C568.431 78.301 568.303 78.0215 568.287 77.6818C568.272 77.3422 568.374 77.0572 568.594 76.827C568.823 76.5864 569.108 76.4584 569.448 76.443C569.777 76.428 570.062 76.5302 570.302 76.7496C570.552 76.9585 570.685 77.2327 570.7 77.5724C570.715 77.912 570.613 78.2019 570.394 78.4421C570.174 78.6723 569.895 78.7951 569.555 78.8105ZM573.655 96.2677L578.798 88.4967L572.988 81.2375L575.581 81.1199L580.02 86.6394L583.927 80.7413L586.504 80.6244L581.391 88.3791L587.216 95.6526L584.624 95.7702L580.182 90.2057L576.247 96.1501L573.655 96.2677ZM595.646 89.5193L595.226 80.2738L597.324 80.1787L597.725 89.0046C597.762 89.8238 597.995 90.5589 598.425 91.2101C598.855 91.8613 599.414 92.3715 600.101 92.7408C600.799 93.1095 601.552 93.2756 602.361 93.2389C603.18 93.2017 603.91 92.9684 604.552 92.5389C605.203 92.1089 605.713 91.5503 606.082 90.8628C606.452 90.1754 606.618 89.4221 606.58 88.6029L606.18 79.777L608.278 79.6819L608.973 94.6658L606.875 94.7609L606.765 92.6638C606.27 93.447 605.608 94.0826 604.779 94.5707C603.96 95.0583 603.051 95.3247 602.052 95.37C600.924 95.4213 599.882 95.1932 598.928 94.6859C597.974 94.1786 597.201 93.4729 596.61 92.5688C596.018 91.6647 595.697 90.6482 595.646 89.5193ZM613.654 101.961L611.556 102.056L610.536 79.5794L612.634 79.4843L612.761 82.2864C613.238 81.3138 613.912 80.5124 614.784 79.8822C615.657 79.2521 616.712 78.9089 617.951 78.8527C619.04 78.8033 620.068 78.9619 621.036 79.3284C622.013 79.6945 622.878 80.2258 623.631 80.9225C624.383 81.6091 624.985 82.4177 625.437 83.3481C625.89 84.2785 626.141 85.2882 626.19 86.3771C626.24 87.466 626.082 88.4992 625.715 89.4768C625.349 90.4544 624.823 91.3241 624.137 92.086C623.45 92.8379 622.637 93.4404 621.696 93.8934C620.766 94.3461 619.756 94.5971 618.667 94.6465C617.429 94.7026 616.346 94.4564 615.421 93.9078C614.495 93.3592 613.751 92.6222 613.188 91.6967L613.654 101.961ZM618.029 80.8913C616.98 80.9389 616.078 81.245 615.322 81.8098C614.577 82.3642 614.014 83.0904 613.634 83.9886C613.255 84.8867 613.089 85.8802 613.139 86.9691C613.187 88.038 613.437 89.0077 613.886 89.8782C614.346 90.7482 614.973 91.4306 615.766 91.9251C616.569 92.4192 617.5 92.6423 618.559 92.5943C619.598 92.5471 620.541 92.2441 621.386 91.6852C622.242 91.1259 622.914 90.3947 623.404 89.4916C623.893 88.5785 624.112 87.5725 624.063 86.4736C624.014 85.4047 623.71 84.4425 623.151 83.5869C622.591 82.7214 621.865 82.0436 620.972 81.5536C620.078 81.0636 619.097 80.8428 618.029 80.8913ZM645.243 93.411C643.825 93.4753 642.479 93.2561 641.204 92.7533C639.93 92.2406 638.796 91.5112 637.802 90.5653C636.817 89.6089 636.026 88.4836 635.426 87.1894C634.837 85.8948 634.508 84.4983 634.441 82.9998C634.373 81.5013 634.573 80.0808 635.043 78.7381C635.523 77.395 636.21 76.2077 637.104 75.1761C638.007 74.1341 639.071 73.305 640.294 72.689C641.517 72.0629 642.838 71.7177 644.256 71.6534C645.955 71.5763 647.536 71.9 649 72.6244C650.465 73.3488 651.696 74.344 652.694 75.6101L650.882 76.6984C650.098 75.7429 649.123 75.0013 647.958 74.4735C646.803 73.9354 645.6 73.6946 644.352 73.7512C643.203 73.8033 642.14 74.0868 641.162 74.6016C640.194 75.106 639.353 75.7798 638.641 76.6229C637.928 77.4661 637.386 78.4266 637.015 79.5046C636.643 80.5825 636.484 81.7159 636.538 82.9046C636.593 84.1134 636.854 85.2377 637.322 86.2776C637.8 87.317 638.431 88.2243 639.217 88.9995C640.013 89.7743 640.916 90.369 641.926 90.7836C642.945 91.1879 644.019 91.3644 645.148 91.3132C646.447 91.2543 647.637 90.905 648.719 90.2653C649.811 89.6151 650.7 88.794 651.386 87.8019L653.289 88.7216C652.409 90.0729 651.273 91.1755 649.881 92.0295C648.487 92.8735 646.942 93.334 645.243 93.411ZM668.755 82.6596L669.176 91.9351L667.078 92.0302L666.676 83.1744C666.639 82.3552 666.405 81.62 665.975 80.9688C665.545 80.3176 664.987 79.8074 664.299 79.4382C663.612 79.069 662.859 78.9029 662.039 78.9401C661.23 78.9768 660.495 79.2103 659.834 79.6408C659.183 80.0707 658.672 80.6294 658.303 81.3168C657.934 82.0043 657.768 82.7576 657.805 83.5767L658.207 92.4326L656.109 92.5278L655.089 70.0509L657.187 69.9557L657.621 79.5159C658.116 78.7327 658.778 78.097 659.607 77.609C660.435 77.1209 661.349 76.8542 662.348 76.8089C663.477 76.7577 664.518 76.9858 665.472 77.4931C666.426 78.0004 667.199 78.7061 667.791 79.6102C668.382 80.5143 668.704 81.5308 668.755 82.6596ZM671.727 91.8194L671.047 76.8348L673.145 76.7396L673.239 78.8075C673.734 78.0243 674.396 77.3886 675.224 76.9006C676.053 76.4125 676.967 76.1458 677.966 76.1005C678.545 76.0742 679.108 76.1238 679.655 76.2492L678.895 78.3708C678.469 78.2599 678.057 78.2136 677.657 78.2317C676.848 78.2684 676.113 78.502 675.452 78.9324C674.801 79.3623 674.29 79.921 673.921 80.6084C673.552 81.2959 673.386 82.0492 673.423 82.8683L673.825 91.7242L671.727 91.8194ZM681.104 76.3786L683.202 76.2835L683.882 91.268L681.784 91.3632L681.104 76.3786ZM682.049 73.708C681.71 73.7235 681.415 73.6267 681.165 73.4178C680.925 73.1985 680.797 72.919 680.782 72.5793C680.767 72.2397 680.869 71.9547 681.089 71.7245C681.318 71.4839 681.602 71.3559 681.942 71.3405C682.272 71.3255 682.557 71.4277 682.797 71.6471C683.047 71.856 683.179 72.1302 683.194 72.4699C683.21 72.8095 683.108 73.0995 682.889 73.3396C682.669 73.5698 682.389 73.6926 682.049 73.708ZM691.568 91.2047C690.748 91.2219 689.942 91.1083 689.15 90.8639C688.358 90.6196 687.661 90.2708 687.06 89.8175C686.459 89.3643 686.02 88.8387 685.742 88.2406L687.52 87.3792C687.698 87.7616 688.009 88.1078 688.453 88.418C688.907 88.7177 689.419 88.9548 689.987 89.1292C690.555 89.2937 691.114 89.3634 691.663 89.3385C692.273 89.3108 692.837 89.1851 693.358 88.9613C693.878 88.7375 694.295 88.4333 694.608 88.0487C694.93 87.6537 695.08 87.2015 695.057 86.692C695.032 86.1426 694.833 85.7212 694.459 85.4278C694.085 85.1244 693.619 84.8953 693.061 84.7404C692.503 84.5755 691.931 84.4213 691.344 84.2778C690.272 84.0361 689.323 83.7588 688.498 83.4459C687.673 83.1329 687.018 82.7171 686.534 82.1985C686.06 81.6695 685.803 80.9754 685.764 80.1163C685.723 79.2072 685.942 78.4115 686.422 77.7291C686.911 77.0362 687.562 76.4911 688.375 76.0939C689.197 75.6862 690.083 75.4608 691.032 75.4178C692.251 75.3625 693.371 75.577 694.394 76.0611C695.427 76.5448 696.189 77.216 696.678 78.0747L695.03 79.1555C694.832 78.754 694.531 78.4123 694.128 78.1303C693.725 77.8483 693.27 77.6337 692.762 77.4865C692.265 77.3389 691.762 77.2716 691.252 77.2848C690.612 77.3038 690.022 77.4256 689.481 77.6503C688.941 77.8651 688.509 78.1699 688.186 78.565C687.874 78.9595 687.73 79.4315 687.755 79.981C687.78 80.5304 687.964 80.9425 688.307 81.2172C688.649 81.482 689.104 81.6916 689.672 81.846C690.249 81.99 690.897 82.1608 691.617 82.3584C692.539 82.6069 693.408 82.8978 694.224 83.2312C695.04 83.5645 695.705 83.9949 696.22 84.5221C696.734 85.0493 697.005 85.7327 697.033 86.5723C697.074 87.4714 696.84 88.2678 696.331 88.9616C695.822 89.6554 695.146 90.2016 694.303 90.6002C693.46 90.9888 692.548 91.1903 691.568 91.2047ZM706.425 77.3323L702.844 77.4947L703.413 90.3822L701.315 90.4773L700.746 77.5899L698.034 77.7129L697.939 75.6151L700.651 75.492L700.422 70.7876L702.52 70.6924L702.749 75.3969L706.33 75.2344L706.425 77.3323ZM709.234 90.1181L708.554 75.1335L710.652 75.0384L710.746 77.1063C711.251 76.3226 711.913 75.6869 712.732 75.1993C713.55 74.7117 714.459 74.4453 715.458 74.4C716.587 74.3488 717.634 74.5816 718.598 75.0984C719.562 75.6053 720.33 76.3062 720.901 77.2012C721.389 76.2582 722.084 75.4908 722.989 74.8993C723.892 74.2977 724.909 73.9713 726.037 73.9201C727.166 73.8689 728.208 74.097 729.162 74.6043C730.116 75.1116 730.888 75.8173 731.48 76.7214C732.071 77.6255 732.393 78.642 732.444 79.7708L732.865 89.0463L730.767 89.1415L730.367 80.3305C730.331 79.5313 730.103 78.8009 729.682 78.1393C729.262 77.4777 728.713 76.957 728.035 76.5773C727.366 76.1872 726.633 76.0103 725.833 76.0465C725.034 76.0828 724.314 76.3107 723.672 76.7302C723.04 77.1392 722.545 77.6923 722.186 78.3892C721.827 79.0762 721.667 79.8543 721.706 80.7234L722.106 89.5343L720.008 89.6295L719.608 80.8185C719.569 79.9494 719.339 79.189 718.919 78.5374C718.499 77.8758 717.95 77.3701 717.274 77.0204C716.597 76.6607 715.859 76.499 715.06 76.5352C714.27 76.571 713.556 76.8137 712.915 77.2631C712.275 77.7026 711.775 78.2708 711.416 78.9678C711.057 79.6648 710.896 80.4129 710.932 81.212L711.332 90.023L709.234 90.1181ZM746.762 73.4005L748.86 73.3054L749.54 88.29L747.442 88.3851L747.241 85.6014C746.794 86.5726 746.145 87.3729 745.292 88.0021C744.44 88.6214 743.404 88.9587 742.185 89.014C741.086 89.0638 740.048 88.9057 739.07 88.5396C738.092 88.1635 737.222 87.6274 736.46 86.9312C735.697 86.2351 735.09 85.4168 734.637 84.4763C734.184 83.5359 733.932 82.5162 733.882 81.4174C733.833 80.3385 733.987 79.3154 734.344 78.3483C734.71 77.3807 735.232 76.5212 735.908 75.7697C736.595 75.0179 737.399 74.4208 738.32 73.9787C739.25 73.526 740.255 73.2752 741.334 73.2263C742.583 73.1697 743.685 73.42 744.641 73.9772C745.597 74.5245 746.371 75.2651 746.964 76.1992L746.762 73.4005ZM742.048 86.9781C743.117 86.9296 744.024 86.6282 744.769 86.0738C745.515 85.5095 746.072 84.7735 746.441 83.8658C746.82 82.9577 746.986 81.9692 746.937 80.9003C746.887 79.8014 746.633 78.822 746.173 77.9619C745.713 77.0918 745.087 76.4145 744.294 75.9299C743.502 75.4454 742.576 75.2271 741.517 75.2751C740.458 75.3232 739.501 75.6318 738.646 76.2012C737.8 76.76 737.138 77.4958 736.659 78.4085C736.19 79.3207 735.98 80.3162 736.028 81.3951C736.078 82.484 736.387 83.4609 736.957 84.326C737.527 85.1811 738.258 85.8487 739.15 86.3287C740.053 86.8083 741.019 87.0248 742.048 86.9781ZM756.732 88.249C755.912 88.2662 755.106 88.1526 754.314 87.9082C753.522 87.6639 752.826 87.3151 752.224 86.8618C751.623 86.4086 751.184 85.883 750.907 85.2849L752.684 84.4235C752.862 84.8059 753.173 85.1521 753.617 85.4623C754.072 85.762 754.583 85.9991 755.151 86.1735C755.719 86.338 756.278 86.4077 756.827 86.3828C757.437 86.3551 758.002 86.2294 758.522 86.0056C759.043 85.7818 759.459 85.4776 759.772 85.093C760.094 84.698 760.244 84.2458 760.221 83.7363C760.196 83.1869 759.997 82.7655 759.623 82.4721C759.249 82.1687 758.783 81.9396 758.226 81.7847C757.668 81.6198 757.095 81.4656 756.508 81.3221C755.436 81.0804 754.487 80.8031 753.662 80.4902C752.837 80.1772 752.183 79.7614 751.699 79.2428C751.224 78.7138 750.968 78.0197 750.929 77.1606C750.887 76.2515 751.106 75.4558 751.586 74.7734C752.075 74.0805 752.726 73.5354 753.539 73.1382C754.361 72.7305 755.247 72.5051 756.196 72.4621C757.415 72.4068 758.536 72.6213 759.559 73.1054C760.592 73.5891 761.353 74.2603 761.842 75.119L760.195 76.1998C759.996 75.7983 759.695 75.4566 759.292 75.1746C758.889 74.8926 758.434 74.678 757.927 74.5308C757.429 74.3832 756.926 74.3159 756.416 74.3291C755.776 74.3481 755.186 74.4699 754.646 74.6946C754.105 74.9094 753.673 75.2142 753.351 75.6093C753.038 76.0038 752.895 76.4758 752.919 77.0253C752.944 77.5747 753.128 77.9868 753.471 78.2615C753.813 78.5263 754.268 78.7359 754.836 78.8903C755.413 79.0343 756.061 79.2051 756.781 79.4027C757.703 79.6512 758.572 79.9421 759.388 80.2755C760.204 80.6088 760.869 81.0392 761.384 81.5664C761.898 82.0936 762.17 82.777 762.198 83.6166C762.238 84.5157 762.004 85.3121 761.495 86.0059C760.986 86.6997 760.31 87.2459 759.467 87.6445C758.624 88.0331 757.712 88.2346 756.732 88.249ZM782.904 71.7612L785.002 71.666L785.682 86.6506L783.584 86.7458L783.383 83.9621C782.936 84.9333 782.287 85.7335 781.435 86.3628C780.582 86.9821 779.546 87.3194 778.327 87.3746C777.228 87.4245 776.19 87.2664 775.212 86.9003C774.234 86.5242 773.364 85.9881 772.602 85.2919C771.84 84.5957 771.232 83.7774 770.779 82.837C770.326 81.8966 770.074 80.8769 770.024 79.778C769.976 78.6991 770.129 77.6761 770.486 76.709C770.852 75.7414 771.374 74.8819 772.051 74.1304C772.737 73.3785 773.541 72.7815 774.462 72.3393C775.392 71.8867 776.397 71.6359 777.476 71.587C778.725 71.5303 779.827 71.7806 780.783 72.3379C781.739 72.8851 782.514 73.6258 783.106 74.5599L782.904 71.7612ZM778.19 85.3388C779.259 85.2903 780.166 84.9889 780.912 84.4345C781.657 83.8702 782.214 83.1342 782.583 82.2265C782.963 81.3184 783.128 80.3299 783.079 79.261C783.03 78.1621 782.775 77.1826 782.316 76.3226C781.856 75.4525 781.229 74.7752 780.437 74.2906C779.644 73.806 778.718 73.5878 777.659 73.6358C776.6 73.6838 775.643 73.9925 774.788 74.5618C773.942 75.1207 773.28 75.8565 772.801 76.7691C772.332 77.6813 772.122 78.6769 772.171 79.7558C772.22 80.8446 772.53 81.8216 773.099 82.6867C773.669 83.5418 774.4 84.2093 775.292 84.6894C776.195 85.169 777.161 85.3854 778.19 85.3388ZM800.877 76.6669L801.298 85.9423L799.2 86.0375L798.798 77.1816C798.761 76.3624 798.527 75.6273 798.097 74.9761C797.667 74.3249 797.109 73.8147 796.421 73.4455C795.734 73.0762 794.981 72.9102 794.161 72.9473C793.352 72.9841 792.617 73.2176 791.956 73.648C791.305 74.0779 790.794 74.6366 790.425 75.3241C790.056 76.0115 789.89 76.7648 789.927 77.584L790.329 86.4399L788.231 86.535L787.551 71.5504L789.649 71.4553L789.743 73.5231C790.238 72.7399 790.9 72.1043 791.729 71.6162C792.557 71.1282 793.471 70.8615 794.47 70.8162C795.599 70.765 796.64 70.993 797.594 71.5003C798.548 72.0076 799.321 72.7133 799.913 73.6174C800.504 74.5216 800.826 75.538 800.877 76.6669ZM814.869 62.8036L816.967 62.7085L817.986 85.1854L815.889 85.2805L815.761 82.4784C815.285 83.461 814.606 84.2676 813.724 84.8982C812.851 85.5184 811.795 85.8566 810.557 85.9128C809.468 85.9622 808.44 85.8036 807.472 85.4371C806.504 85.0705 805.64 84.5442 804.878 83.858C804.125 83.1614 803.523 82.3478 803.07 81.4174C802.618 80.4869 802.367 79.4773 802.317 78.3884C802.268 77.2995 802.426 76.2713 802.793 75.3037C803.159 74.3261 803.685 73.4613 804.372 72.7094C805.068 71.9471 805.882 71.3396 806.812 70.887C807.742 70.4344 808.752 70.1834 809.841 70.134C811.08 70.0778 812.162 70.324 813.088 70.8726C814.023 71.4108 814.772 72.1426 815.335 73.0681L814.869 62.8036ZM810.479 83.8742C811.548 83.8257 812.455 83.5243 813.201 82.9699C813.946 82.4056 814.503 81.6696 814.873 80.7619C815.252 79.8538 815.417 78.8653 815.369 77.7964C815.319 76.6975 815.064 75.7181 814.605 74.858C814.145 73.9879 813.519 73.3106 812.726 72.826C811.933 72.3415 811.007 72.1232 809.948 72.1712C808.89 72.2193 807.937 72.5277 807.092 73.0966C806.247 73.6555 805.585 74.3912 805.105 75.3039C804.626 76.2165 804.411 77.2123 804.46 78.2912C804.509 79.3801 804.819 80.357 805.389 81.2221C805.958 82.0772 806.689 82.7448 807.582 83.2248C808.484 83.7044 809.45 83.9209 810.479 83.8742ZM840.045 63.1633L842.143 63.0681L843.094 84.0465L840.997 84.1417L840.534 73.9522L829.521 74.4517L829.983 84.6412L827.885 84.7364L826.934 63.758L829.031 63.6628L829.426 72.3539L840.439 71.8543L840.045 63.1633ZM857.775 68.3653L859.873 68.2701L860.552 83.2547L858.454 83.3498L858.253 80.5661C857.807 81.5373 857.157 82.3376 856.305 82.9668C855.452 83.5861 854.416 83.9234 853.197 83.9787C852.099 84.0285 851.06 83.8704 850.083 83.5043C849.105 83.1283 848.235 82.5921 847.472 81.896C846.71 81.1998 846.102 80.3815 845.649 79.441C845.196 78.5006 844.945 77.481 844.895 76.3821C844.846 75.3032 845 74.2802 845.356 73.313C845.723 72.3454 846.244 71.4859 846.921 70.7345C847.608 69.9826 848.411 69.3856 849.332 68.9434C850.263 68.4908 851.267 68.24 852.346 68.191C853.595 68.1344 854.697 68.3847 855.654 68.9419C856.609 69.4892 857.384 70.2299 857.977 71.164L857.775 68.3653ZM853.06 81.9428C854.129 81.8943 855.036 81.5929 855.782 81.0386C856.527 80.4742 857.084 79.7382 857.454 78.8305C857.833 77.9224 857.998 76.9339 857.95 75.865C857.9 74.7662 857.645 73.7867 857.186 72.9266C856.726 72.0566 856.1 71.3792 855.307 70.8947C854.514 70.4101 853.588 70.1918 852.529 70.2399C851.47 70.2879 850.513 70.5966 849.658 71.1659C848.813 71.7248 848.15 72.4605 847.671 73.3732C847.202 74.2854 846.992 75.2809 847.041 76.3598C847.09 77.4487 847.4 78.4257 847.97 79.2907C848.539 80.1458 849.27 80.8134 850.163 81.2934C851.065 81.773 852.031 81.9895 853.06 81.9428ZM863.306 83.1298L862.287 60.6529L864.384 60.5577L865.404 83.0346L863.306 83.1298ZM868.564 82.8913L867.544 60.4144L869.642 60.3193L870.661 82.7962L868.564 82.8913ZM880.315 82.7487C878.936 82.8112 877.661 82.5137 876.49 81.8561C875.329 81.198 874.382 80.29 873.649 79.132C872.925 77.9636 872.531 76.6552 872.465 75.2066C872.415 74.1078 872.564 73.075 872.91 72.1083C873.256 71.1316 873.753 70.2682 874.399 69.5182C875.056 68.7576 875.829 68.152 876.719 67.7012C877.61 67.2504 878.57 67.0016 879.598 66.9549C880.977 66.8924 882.247 67.1902 883.408 67.8483C884.579 68.5059 885.526 69.4189 886.25 70.5873C886.984 71.7552 887.384 73.0685 887.45 74.527C887.499 75.6159 887.35 76.6436 887.004 77.6103C886.657 78.577 886.156 79.4406 885.5 80.2012C884.853 80.9512 884.085 81.5517 883.194 82.0025C882.314 82.4528 881.354 82.7016 880.315 82.7487ZM880.22 80.6509C881.239 80.6046 882.141 80.2985 882.926 79.7323C883.721 79.1557 884.333 78.4172 884.762 77.5168C885.202 76.616 885.398 75.6511 885.352 74.6221C885.304 73.5732 885.021 72.6201 884.501 71.7627C883.982 70.8954 883.3 70.2156 882.457 69.7233C881.624 69.2305 880.703 69.007 879.694 69.0528C878.675 69.099 877.768 69.4104 876.973 69.987C876.188 70.5532 875.576 71.2867 875.136 72.1875C874.706 73.0879 874.515 74.0626 874.563 75.1115C874.612 76.1904 874.901 77.1583 875.43 78.0152C875.959 78.8621 876.645 79.5267 877.488 80.009C878.33 80.4813 879.241 80.6953 880.22 80.6509ZM895.513 81.669L893.355 81.7668L887.655 67.0099L889.708 66.9168L894.332 78.8095L897.83 66.5484L900.048 66.4478L904.641 78.3419L908.139 66.0808L910.207 65.987L905.867 81.1993L903.694 81.2979L899.035 69.2866L895.513 81.669ZM918.955 80.9961C917.577 81.0586 916.302 80.7611 915.131 80.1034C913.97 79.4454 913.023 78.5373 912.29 77.3794C911.566 76.211 911.171 74.9025 911.105 73.454C911.056 72.3551 911.204 71.3223 911.551 70.3557C911.897 69.379 912.393 68.5156 913.04 67.7655C913.696 67.005 914.469 66.3993 915.36 65.9485C916.25 65.4977 917.21 65.249 918.239 65.2023C919.348 65.152 920.377 65.3256 921.326 65.723C922.285 66.1199 923.117 66.6978 923.822 67.4567C924.537 68.215 925.088 69.116 925.476 70.1595C925.874 71.2025 926.07 72.3398 926.066 73.5712L913.359 74.1476C913.522 75.0912 913.86 75.9267 914.374 76.6542C914.897 77.3812 915.544 77.9475 916.313 78.3531C917.091 78.7482 917.941 78.9299 918.86 78.8982C919.859 78.8529 920.746 78.5524 921.522 77.9967C922.308 77.4405 922.925 76.6968 923.373 75.7655L925.523 76.1635C924.984 77.5193 924.129 78.6492 922.959 79.5532C921.788 80.4471 920.454 80.9281 918.955 80.9961ZM913.222 72.4571L923.876 71.9738C923.764 71.0479 923.441 70.2117 922.907 69.4652C922.382 68.7082 921.72 68.1176 920.92 67.6934C920.119 67.2592 919.254 67.0632 918.325 67.1053C917.396 67.1475 916.557 67.4158 915.809 67.9102C915.06 68.3946 914.459 69.0375 914.005 69.8389C913.55 70.6303 913.289 71.503 913.222 72.4571ZM934.954 80.2704C933.575 80.3329 932.3 80.0354 931.129 79.3778C929.968 78.7197 929.021 77.8117 928.288 76.6537C927.564 75.4853 927.17 74.1769 927.104 72.7284C927.054 71.6295 927.202 70.5967 927.549 69.63C927.895 68.6533 928.391 67.7899 929.038 67.0399C929.694 66.2794 930.468 65.6737 931.358 65.2229C932.249 64.7721 933.208 64.5233 934.237 64.4767C935.346 64.4264 936.375 64.5999 937.324 64.9973C938.283 65.3943 939.115 65.9722 939.82 66.731C940.535 67.4894 941.087 68.3903 941.474 69.4338C941.872 70.4769 942.069 71.6141 942.065 72.8456L929.358 73.4219C929.52 74.3655 929.859 75.2011 930.372 75.9285C930.896 76.6556 931.542 77.2219 932.311 77.6274C933.09 78.0226 933.939 78.2043 934.858 78.1726C935.857 78.1273 936.745 77.8267 937.52 77.271C938.306 76.7149 938.923 75.9711 939.371 75.0399L941.521 75.4379C940.982 76.7937 940.128 77.9236 938.957 78.8275C937.787 79.7215 936.452 80.2024 934.954 80.2704ZM929.221 71.7314L939.875 71.2482C939.763 70.3223 939.44 69.4861 938.905 68.7395C938.38 67.9825 937.718 67.3919 936.918 66.9677C936.117 66.5336 935.253 66.3376 934.324 66.3797C933.395 66.4218 932.556 66.6901 931.807 67.1845C931.059 67.669 930.457 68.3119 930.003 69.1133C929.548 69.9047 929.288 70.7774 929.221 71.7314ZM957.133 69.5794L957.554 78.8549L955.456 78.9501L955.055 70.0942C955.017 69.275 954.784 68.5398 954.354 67.8887C953.924 67.2375 953.365 66.7273 952.678 66.358C951.99 65.9888 951.237 65.8228 950.418 65.8599C949.609 65.8966 948.874 66.1302 948.212 66.5606C947.561 66.9905 947.051 67.5492 946.682 68.2366C946.313 68.9241 946.146 69.6774 946.184 70.4965L946.585 79.3524L944.487 79.4476L943.808 64.463L945.906 64.3678L945.999 66.4357C946.494 65.6525 947.156 65.0168 947.985 64.5288C948.814 64.0407 949.728 63.774 950.727 63.7287C951.855 63.6775 952.897 63.9056 953.851 64.4129C954.805 64.9202 955.578 65.6259 956.169 66.53C956.761 67.4341 957.082 68.4506 957.133 69.5794ZM964.349 71.3243C964.304 70.3353 964.507 69.4152 964.959 68.5638C965.421 67.712 966.076 67.0266 966.923 66.5077C967.528 66.1599 967.991 65.6684 968.313 65.0332C968.634 64.388 968.777 63.6908 968.743 62.9416C968.71 62.2123 968.501 61.5611 968.114 60.9881C967.738 60.4145 967.242 59.9665 966.627 59.6441C966.022 59.3212 965.359 59.176 964.64 59.2087C963.921 59.2413 963.269 59.446 962.686 59.8228C962.112 60.1992 961.664 60.69 961.341 61.2953C961.018 61.9005 960.873 62.5678 960.906 63.297L958.809 63.3922C958.758 62.2833 958.982 61.2621 959.481 60.3286C959.979 59.3951 960.67 58.638 961.555 58.0573C962.449 57.4761 963.446 57.1607 964.545 57.1108C965.654 57.0605 966.675 57.2845 967.609 57.7827C968.552 58.2804 969.314 58.9716 969.895 59.8562C970.475 60.7408 970.791 61.7375 970.841 62.8464C970.892 63.9752 970.665 65.0316 970.159 66.0156C969.653 66.9895 968.932 67.758 967.996 68.3209C967.49 68.6242 967.098 69.0324 966.821 69.5455C966.544 70.0585 966.419 70.6198 966.447 71.2291L964.349 71.3243ZM965.682 78.8766C965.353 78.8916 965.063 78.7846 964.812 78.5557C964.571 78.3264 964.443 78.0469 964.429 77.7173C964.414 77.3876 964.516 77.1027 964.735 76.8625C964.964 76.6218 965.244 76.494 965.574 76.4791C965.903 76.4641 966.188 76.5663 966.428 76.7857C966.679 77.0046 966.811 77.2788 966.826 77.6085C966.841 77.9382 966.734 78.2283 966.505 78.4789C966.286 78.7291 966.012 78.8617 965.682 78.8766ZM1048.95 74.7094L1048 53.731L1055.09 53.4095C1056.11 53.3633 1057.04 53.5311 1057.89 53.9131C1058.74 54.2846 1059.44 54.8589 1059.96 55.6358C1060.5 56.4024 1060.79 57.3501 1060.84 58.4789C1060.87 59.1182 1060.78 59.7328 1060.58 60.3227C1060.38 60.9125 1060.1 61.4206 1059.75 61.8469C1059.4 62.2633 1059.01 62.5411 1058.58 62.6805C1059.21 62.8122 1059.76 63.0677 1060.23 63.4469C1060.69 63.8161 1061.08 64.2639 1061.4 64.7902C1061.71 65.3065 1061.95 65.8564 1062.1 66.4399C1062.27 67.0229 1062.37 67.5992 1062.39 68.1686C1062.45 69.3474 1062.23 70.3931 1061.75 71.3057C1061.28 72.2179 1060.63 72.9433 1059.8 73.4817C1058.96 74.0102 1058.02 74.2982 1056.97 74.3458L1048.95 74.7094ZM1050.96 72.7412L1056.72 72.4802C1057.45 72.4471 1058.1 72.2274 1058.67 71.8211C1059.25 71.4143 1059.7 70.8733 1060.02 70.1981C1060.35 69.5225 1060.5 68.7701 1060.46 67.9409C1060.43 67.2017 1060.22 66.5155 1059.83 65.8825C1059.45 65.2391 1058.95 64.7311 1058.33 64.3587C1057.72 63.9759 1057.05 63.801 1056.32 63.8341L1050.57 64.0951L1050.96 72.7412ZM1050.49 62.252L1055.3 62.0338C1056.29 61.9889 1057.12 61.6659 1057.79 61.0648C1058.47 60.4532 1058.79 59.618 1058.74 58.5591C1058.69 57.4003 1058.3 56.5572 1057.56 56.03C1056.84 55.4923 1055.98 55.2459 1054.99 55.2907L1050.18 55.5089L1050.49 62.252ZM1071.24 74.0889C1069.86 74.1514 1068.58 73.8539 1067.41 73.1963C1066.25 72.5382 1065.3 71.6302 1064.57 70.4722C1063.85 69.3038 1063.45 67.9953 1063.39 66.5468C1063.34 65.448 1063.49 64.4152 1063.83 63.4485C1064.18 62.4718 1064.68 61.6084 1065.32 60.8584C1065.98 60.0978 1066.75 59.4922 1067.64 59.0414C1068.53 58.5905 1069.49 58.3418 1070.52 58.2951C1071.63 58.2448 1072.66 58.4184 1073.61 58.8158C1074.57 59.2128 1075.4 59.7907 1076.1 60.5495C1076.82 61.3079 1077.37 62.2088 1077.76 63.2523C1078.16 64.2954 1078.35 65.4326 1078.35 66.6641L1065.64 67.2404C1065.8 68.184 1066.14 69.0195 1066.66 69.747C1067.18 70.4741 1067.83 71.0404 1068.59 71.4459C1069.37 71.841 1070.22 72.0228 1071.14 71.9911C1072.14 71.9457 1073.03 71.6452 1073.8 71.0895C1074.59 70.5333 1075.21 69.7896 1075.65 68.8584L1077.81 69.2563C1077.27 70.6122 1076.41 71.7421 1075.24 72.646C1074.07 73.54 1072.74 74.0209 1071.24 74.0889ZM1065.5 65.5499L1076.16 65.0666C1076.05 64.1408 1075.72 63.3046 1075.19 62.558C1074.66 61.801 1074 61.2104 1073.2 60.7862C1072.4 60.3521 1071.54 60.156 1070.61 60.1982C1069.68 60.2403 1068.84 60.5086 1068.09 61.003C1067.34 61.4874 1066.74 62.1304 1066.29 62.9318C1065.83 63.7232 1065.57 64.5959 1065.5 65.5499ZM1091.15 69.0263L1093.07 69.9603C1092.44 70.9401 1091.61 71.7385 1090.58 72.3555C1089.57 72.9721 1088.45 73.308 1087.24 73.3632C1085.86 73.4258 1084.58 73.1282 1083.41 72.4706C1082.25 71.8126 1081.3 70.9045 1080.57 69.7466C1079.85 68.5782 1079.45 67.2697 1079.39 65.8212C1079.34 64.7223 1079.48 63.6895 1079.83 62.7228C1080.18 61.7462 1080.67 60.8828 1081.32 60.1327C1081.98 59.3722 1082.75 58.7665 1083.64 58.3157C1084.53 57.8649 1085.49 57.6162 1086.52 57.5695C1087.74 57.5142 1088.88 57.7477 1089.94 58.27C1091.02 58.7918 1091.92 59.5169 1092.64 60.4451L1090.81 61.534C1090.26 60.8982 1089.62 60.4221 1088.87 60.1055C1088.13 59.779 1087.37 59.6329 1086.61 59.6673C1085.61 59.7131 1084.7 60.0243 1083.91 60.6009C1083.11 61.1675 1082.5 61.9012 1082.06 62.8021C1081.63 63.7025 1081.44 64.6771 1081.48 65.726C1081.53 66.775 1081.81 67.7281 1082.33 68.5854C1082.86 69.4423 1083.55 70.1169 1084.39 70.6092C1085.24 71.0915 1086.15 71.3103 1087.14 71.2654C1087.96 71.2283 1088.72 71.0036 1089.42 70.5913C1090.12 70.1791 1090.7 69.6574 1091.15 69.0263ZM1106.89 57.0662L1108.98 56.971L1109.66 71.9556L1107.57 72.0508L1107.36 69.267C1106.92 70.2382 1106.27 71.0385 1105.42 71.6678C1104.56 72.287 1103.53 72.6243 1102.31 72.6796C1101.21 72.7294 1100.17 72.5713 1099.19 72.2052C1098.22 71.8292 1097.35 71.2931 1096.58 70.5969C1095.82 69.9007 1095.21 69.0824 1094.76 68.142C1094.31 67.2015 1094.06 66.1819 1094.01 65.083C1093.96 64.0041 1094.11 62.9811 1094.47 62.0139C1094.83 61.0463 1095.35 60.1868 1096.03 59.4354C1096.72 58.6835 1097.52 58.0865 1098.44 57.6443C1099.37 57.1917 1100.38 56.9409 1101.46 56.892C1102.71 56.8353 1103.81 57.0856 1104.76 57.6429C1105.72 58.1901 1106.49 58.9308 1107.09 59.8649L1106.89 57.0662ZM1102.17 70.6437C1103.24 70.5953 1104.15 70.2938 1104.89 69.7395C1105.64 69.1751 1106.19 68.4391 1106.56 67.5315C1106.94 66.6233 1107.11 65.6348 1107.06 64.5659C1107.01 63.4671 1106.76 62.4876 1106.3 61.6275C1105.84 60.7575 1105.21 60.0802 1104.42 59.5956C1103.62 59.111 1102.7 58.8927 1101.64 58.9408C1100.58 58.9888 1099.62 59.2975 1098.77 59.8668C1097.92 60.4257 1097.26 61.1615 1096.78 62.0741C1096.31 62.9863 1096.1 63.9818 1096.15 65.0607C1096.2 66.1496 1096.51 67.1266 1097.08 67.9917C1097.65 68.8467 1098.38 69.5143 1099.27 69.9944C1100.18 70.4739 1101.14 70.6904 1102.17 70.6437ZM1111.35 66.1281L1110.93 56.8826L1113.03 56.7874L1113.43 65.6134C1113.47 66.4325 1113.7 67.1677 1114.13 67.8189C1114.56 68.4701 1115.12 68.9803 1115.81 69.3495C1116.51 69.7183 1117.26 69.8843 1118.07 69.8476C1118.89 69.8105 1119.62 69.5771 1120.26 69.1476C1120.91 68.7177 1121.42 68.159 1121.79 67.4716C1122.16 66.7841 1122.32 66.0308 1122.29 65.2117L1121.89 56.3857L1123.98 56.2906L1124.68 71.2745L1122.58 71.3697L1122.47 69.2725C1121.98 70.0557 1121.31 70.6914 1120.49 71.1794C1119.67 71.667 1118.76 71.9335 1117.76 71.9788C1116.63 72.03 1115.59 71.8019 1114.63 71.2946C1113.68 70.7874 1112.91 70.0816 1112.32 69.1775C1111.72 68.2734 1111.4 67.2569 1111.35 66.1281ZM1131.86 71.2342C1131.04 71.2513 1130.23 71.1377 1129.44 70.8934C1128.65 70.649 1127.95 70.3002 1127.35 69.847C1126.75 69.3937 1126.31 68.8681 1126.03 68.2701L1127.81 67.4086C1127.99 67.791 1128.3 68.1372 1128.74 68.4474C1129.2 68.7472 1129.71 68.9842 1130.28 69.1587C1130.85 69.3231 1131.4 69.3928 1131.95 69.3679C1132.56 69.3403 1133.13 69.2146 1133.65 68.9907C1134.17 68.7669 1134.59 68.4627 1134.9 68.0782C1135.22 67.6832 1135.37 67.2309 1135.35 66.7214C1135.32 66.172 1135.12 65.7506 1134.75 65.4572C1134.38 65.1539 1133.91 64.9247 1133.35 64.7698C1132.79 64.605 1132.22 64.4507 1131.63 64.3072C1130.56 64.0655 1129.61 63.7882 1128.79 63.4753C1127.96 63.1623 1127.31 62.7466 1126.83 62.228C1126.35 61.6989 1126.09 61.0048 1126.05 60.1457C1126.01 59.2367 1126.23 58.4409 1126.71 57.7585C1127.2 57.0656 1127.85 56.5206 1128.67 56.1233C1129.49 55.7156 1130.37 55.4903 1131.32 55.4472C1132.54 55.3919 1133.66 55.6064 1134.69 56.0905C1135.72 56.5742 1136.48 57.2454 1136.97 58.1041L1135.32 59.1849C1135.12 58.7835 1134.82 58.4417 1134.42 58.1597C1134.02 57.8777 1133.56 57.6631 1133.05 57.5159C1132.56 57.3683 1132.05 57.3011 1131.54 57.3142C1130.9 57.3332 1130.31 57.4551 1129.77 57.6798C1129.23 57.8945 1128.8 58.1994 1128.48 58.5944C1128.16 58.9889 1128.02 59.4609 1128.05 60.0104C1128.07 60.5598 1128.25 60.9719 1128.6 61.2467C1128.94 61.5114 1129.39 61.721 1129.96 61.8755C1130.54 62.0195 1131.19 62.1903 1131.91 62.3878C1132.83 62.6363 1133.7 62.9272 1134.51 63.2606C1135.33 63.594 1136 64.0243 1136.51 64.5515C1137.02 65.0787 1137.3 65.7622 1137.32 66.6017C1137.36 67.5008 1137.13 68.2972 1136.62 68.991C1136.11 69.6848 1135.44 70.231 1134.59 70.6296C1133.75 71.0182 1132.84 71.2197 1131.86 71.2342ZM1146.14 70.6916C1144.76 70.7542 1143.48 70.4566 1142.31 69.799C1141.15 69.1409 1140.2 68.2329 1139.47 67.0749C1138.75 65.9065 1138.35 64.5981 1138.29 63.1496C1138.24 62.0507 1138.39 61.0179 1138.73 60.0512C1139.08 59.0745 1139.57 58.2112 1140.22 57.4611C1140.88 56.7006 1141.65 56.0949 1142.54 55.6441C1143.43 55.1933 1144.39 54.9445 1145.42 54.8979C1146.53 54.8476 1147.56 55.0211 1148.51 55.4185C1149.47 55.8155 1150.3 56.3934 1151 57.1522C1151.72 57.9106 1152.27 58.8115 1152.66 59.855C1153.06 60.8981 1153.25 62.0353 1153.25 63.2668L1140.54 63.8432C1140.7 64.7867 1141.04 65.6223 1141.56 66.3498C1142.08 67.0768 1142.73 67.6431 1143.49 68.0486C1144.27 68.4438 1145.12 68.6255 1146.04 68.5938C1147.04 68.5485 1147.93 68.248 1148.7 67.6922C1149.49 67.1361 1150.11 66.3924 1150.55 65.4611L1152.7 65.8591C1152.17 67.2149 1151.31 68.3448 1150.14 69.2487C1148.97 70.1427 1147.64 70.6237 1146.14 70.6916ZM1140.4 62.1526L1151.06 61.6694C1150.95 60.7435 1150.62 59.9073 1150.09 59.1607C1149.56 58.4037 1148.9 57.8131 1148.1 57.389C1147.3 56.9548 1146.44 56.7588 1145.51 56.8009C1144.58 56.843 1143.74 57.1113 1142.99 57.6057C1142.24 58.0902 1141.64 58.7331 1141.19 59.5345C1140.73 60.3259 1140.47 61.1986 1140.4 62.1526ZM1172.32 69.5038C1170.91 69.5681 1169.56 69.3489 1168.29 68.8461C1167.01 68.3334 1165.88 67.599 1164.88 66.6431C1163.89 65.6872 1163.09 64.5671 1162.49 63.2829C1161.89 61.9887 1161.56 60.5924 1161.49 59.094C1161.42 57.5955 1161.63 56.1797 1162.11 54.8466C1162.59 53.5035 1163.28 52.3109 1164.19 51.2689C1165.09 50.2269 1166.15 49.3978 1167.38 48.7818C1168.6 48.1557 1169.92 47.8105 1171.34 47.7462C1172.77 47.6814 1174.12 47.9054 1175.39 48.4181C1176.67 48.9209 1177.8 49.6503 1178.8 50.6062C1179.79 51.5621 1180.58 52.6874 1181.17 53.9821C1181.77 55.2662 1182.1 56.6576 1182.17 58.156C1182.24 59.6545 1182.03 61.0753 1181.55 62.4184C1181.08 63.751 1180.4 64.9384 1179.49 65.9804C1178.59 67.0224 1177.53 67.8565 1176.3 68.4825C1175.08 69.0986 1173.75 69.439 1172.32 69.5038ZM1172.23 67.406C1173.38 67.3539 1174.44 67.0756 1175.41 66.5712C1176.38 66.0564 1177.23 65.3774 1177.94 64.5343C1178.66 63.6906 1179.21 62.7299 1179.58 61.6519C1179.96 60.5735 1180.13 59.44 1180.07 58.2512C1180.02 57.0524 1179.75 55.9333 1179.27 54.8939C1178.8 53.8445 1178.16 52.9374 1177.36 52.1726C1176.58 51.3975 1175.68 50.8028 1174.66 50.3885C1173.65 49.9739 1172.57 49.7924 1171.43 49.844C1170.28 49.8961 1169.22 50.1796 1168.24 50.6944C1167.28 51.1988 1166.43 51.8728 1165.71 52.7164C1164.99 53.5596 1164.45 54.5203 1164.07 55.5987C1163.69 56.6767 1163.54 57.81 1163.59 58.9988C1163.64 60.2076 1163.91 61.3317 1164.39 62.3711C1164.87 63.4105 1165.5 64.3178 1166.28 65.093C1167.08 65.8677 1167.98 66.4624 1168.99 66.8771C1170.01 67.2813 1171.09 67.4576 1172.23 67.406ZM1195.5 64.2932L1197.42 65.2272C1196.79 66.207 1195.96 67.0055 1194.93 67.6224C1193.92 68.239 1192.8 68.5749 1191.59 68.6302C1190.21 68.6927 1188.93 68.3952 1187.76 67.7375C1186.6 67.0795 1185.65 66.1715 1184.92 65.0135C1184.2 63.8451 1183.8 62.5366 1183.74 61.0881C1183.69 59.9892 1183.83 58.9565 1184.18 57.9898C1184.53 57.0131 1185.02 56.1497 1185.67 55.3996C1186.33 54.6391 1187.1 54.0334 1187.99 53.5826C1188.88 53.1318 1189.84 52.8831 1190.87 52.8364C1192.09 52.7811 1193.23 53.0146 1194.29 53.5369C1195.37 54.0588 1196.27 54.7838 1196.99 55.712L1195.16 56.8009C1194.61 56.1651 1193.97 55.689 1193.22 55.3724C1192.48 55.0459 1191.72 54.8998 1190.96 54.9342C1189.96 54.98 1189.05 55.2912 1188.26 55.8678C1187.46 56.4344 1186.85 57.1681 1186.41 58.069C1185.98 58.9694 1185.79 59.944 1185.83 60.993C1185.88 62.0419 1186.16 62.995 1186.68 63.8524C1187.21 64.7092 1187.9 65.3838 1188.74 65.8761C1189.59 66.3585 1190.5 66.5772 1191.49 66.5323C1192.31 66.4952 1193.07 66.2705 1193.77 65.8582C1194.47 65.446 1195.05 64.9243 1195.5 64.2932ZM1206.88 54.633L1203.29 54.7954L1203.86 67.6829L1201.77 67.778L1201.2 54.8906L1198.48 55.0136L1198.39 52.9158L1201.1 52.7928L1200.87 48.0883L1202.97 47.9931L1203.2 52.6976L1206.78 52.5352L1206.88 54.633ZM1222.01 67.2501C1220.73 67.3081 1219.6 67.0794 1218.6 66.5639C1217.61 66.0385 1216.81 65.3137 1216.22 64.3896C1215.64 63.465 1215.32 62.4283 1215.27 61.2795L1217.37 61.1844C1217.4 61.9436 1217.61 62.6349 1217.99 63.2584C1218.37 63.8715 1218.9 64.3531 1219.57 64.7032C1220.23 65.0434 1221.02 65.1931 1221.92 65.1523C1222.68 65.1179 1223.38 64.9009 1224.02 64.5014C1224.67 64.0914 1225.19 63.5624 1225.57 62.9145C1225.96 62.2561 1226.14 61.5473 1226.1 60.7881C1226.06 59.8391 1225.78 59.0608 1225.28 58.4532C1224.77 57.8356 1224.09 57.391 1223.23 57.1194C1222.38 56.8377 1221.41 56.7214 1220.33 56.7703L1220.26 55.0321C1221.74 54.9646 1222.92 54.5958 1223.79 53.9257C1224.67 53.2451 1225.09 52.2904 1225.03 51.0617C1225 50.3924 1224.79 49.7914 1224.39 49.2587C1224.01 48.7256 1223.51 48.3076 1222.91 48.0046C1222.32 47.6913 1221.68 47.5498 1221.01 47.5801C1220.34 47.6105 1219.71 47.8095 1219.1 48.1773C1218.51 48.5346 1218.03 48.9968 1217.67 49.5639C1217.31 50.1305 1217.15 50.7485 1217.18 51.4178L1215.08 51.513C1215.05 50.7238 1215.18 49.9771 1215.48 49.2728C1215.77 48.5586 1216.19 47.9238 1216.74 47.3686C1217.29 46.8133 1217.92 46.3693 1218.63 46.0365C1219.35 45.7037 1220.1 45.5192 1220.9 45.483C1221.95 45.4354 1222.94 45.6509 1223.86 46.1296C1224.79 46.6079 1225.56 47.2688 1226.16 48.1126C1226.76 48.9563 1227.08 49.9076 1227.13 50.9665C1227.18 51.9955 1226.95 52.9365 1226.46 53.7897C1225.97 54.6429 1225.28 55.2597 1224.4 55.6401C1225.19 55.8645 1225.86 56.2294 1226.41 56.7348C1226.97 57.2303 1227.39 57.8165 1227.7 58.4936C1228 59.1706 1228.16 59.9038 1228.2 60.693C1228.25 61.8418 1228 62.9043 1227.44 63.8805C1226.89 64.8567 1226.13 65.652 1225.17 66.2662C1224.21 66.8701 1223.16 67.198 1222.01 67.2501ZM1232.35 66.3906L1231.5 47.51L1229.25 47.612L1229.75 45.4869L1233.5 45.317L1234.45 66.2954L1232.35 66.3906ZM1244.12 60.9321L1244.02 58.8342L1259.01 58.1546L1259.1 60.2524L1244.12 60.9321ZM1243.84 54.8783L1243.75 52.7805L1258.73 52.1008L1258.83 54.1986L1243.84 54.8783ZM1268.62 64.7455L1267.67 43.7671L1274.61 43.4524C1276.06 43.3867 1277.43 43.5998 1278.72 44.0917C1280.02 44.5736 1281.16 45.2773 1282.17 46.2028C1283.17 47.1183 1283.97 48.1982 1284.57 49.4424C1285.17 50.6762 1285.51 52.0174 1285.57 53.4659C1285.64 54.9144 1285.43 56.2854 1284.93 57.5791C1284.45 58.8622 1283.75 60.0101 1282.84 61.0226C1281.92 62.0251 1280.84 62.8298 1279.6 63.4368C1278.36 64.0338 1277.01 64.3652 1275.56 64.4309L1268.62 64.7455ZM1270.63 62.5525L1275.47 62.333C1276.62 62.2805 1277.7 62.0165 1278.69 61.5412C1279.69 61.0554 1280.55 60.4105 1281.29 59.6064C1282.02 58.8023 1282.58 57.886 1282.97 56.8576C1283.36 55.8187 1283.53 54.7198 1283.48 53.561C1283.42 52.4022 1283.15 51.3283 1282.67 50.3393C1282.19 49.3398 1281.55 48.4731 1280.73 47.7393C1279.93 47.005 1279.01 46.4459 1277.99 46.0621C1276.96 45.6683 1275.86 45.4977 1274.7 45.5503L1269.86 45.7698L1270.63 62.5525ZM1294.72 63.9525C1293.34 64.015 1292.06 63.7175 1290.89 63.0598C1289.73 62.4018 1288.78 61.4937 1288.05 60.3358C1287.33 59.1674 1286.93 57.8589 1286.87 56.4104C1286.82 55.3115 1286.96 54.2787 1287.31 53.3121C1287.66 52.3354 1288.15 51.472 1288.8 50.7219C1289.46 49.9614 1290.23 49.3557 1291.12 48.9049C1292.01 48.4541 1292.97 48.2054 1294 48.1587C1295.11 48.1084 1296.14 48.282 1297.09 48.6794C1298.04 49.0763 1298.88 49.6542 1299.58 50.4131C1300.3 51.1714 1300.85 52.0724 1301.24 53.1159C1301.63 54.1589 1301.83 55.2962 1301.83 56.5276L1289.12 57.104C1289.28 58.0476 1289.62 58.8831 1290.13 59.6106C1290.66 60.3376 1291.3 60.9039 1292.07 61.3095C1292.85 61.7046 1293.7 61.8863 1294.62 61.8546C1295.62 61.8093 1296.51 61.5088 1297.28 60.9531C1298.07 60.3969 1298.68 59.6532 1299.13 58.7219L1301.28 59.1199C1300.74 60.4757 1299.89 61.6056 1298.72 62.5096C1297.55 63.4035 1296.21 63.8845 1294.72 63.9525ZM1288.98 55.4135L1299.64 54.9302C1299.52 54.0043 1299.2 53.1681 1298.67 52.4216C1298.14 51.6646 1297.48 51.074 1296.68 50.6498C1295.88 50.2156 1295.01 50.0196 1294.08 50.0617C1293.16 50.1039 1292.32 50.3722 1291.57 50.8666C1290.82 51.351 1290.22 51.9939 1289.76 52.7953C1289.31 53.5867 1289.05 54.4594 1288.98 55.4135ZM1314.63 58.8899L1316.55 59.8239C1315.91 60.8037 1315.08 61.6021 1314.06 62.2191C1313.05 62.8356 1311.93 63.1715 1310.71 63.2268C1309.33 63.2893 1308.06 62.9918 1306.89 62.3342C1305.73 61.6761 1304.78 60.7681 1304.05 59.6101C1303.32 58.4417 1302.93 57.1333 1302.86 55.6848C1302.81 54.5859 1302.96 53.5531 1303.31 52.5864C1303.65 51.6097 1304.15 50.7463 1304.8 49.9963C1305.45 49.2358 1306.23 48.6301 1307.12 48.1793C1308.01 47.7285 1308.97 47.4797 1310 47.4331C1311.22 47.3778 1312.36 47.6113 1313.42 48.1336C1314.5 48.6554 1315.4 49.3804 1316.12 50.3086L1314.29 51.3976C1313.74 50.7618 1313.09 50.2856 1312.35 49.9691C1311.6 49.6425 1310.85 49.4965 1310.09 49.5309C1309.08 49.5767 1308.18 49.8878 1307.39 50.4644C1306.59 51.0311 1305.97 51.7648 1305.53 52.6656C1305.1 53.566 1304.91 54.5407 1304.96 55.5896C1305.01 56.6385 1305.29 57.5917 1305.81 58.449C1306.34 59.3059 1307.03 59.9805 1307.87 60.4728C1308.71 60.9551 1309.63 61.1738 1310.62 61.129C1311.44 61.0918 1312.2 60.8671 1312.9 60.4549C1313.6 60.0427 1314.18 59.521 1314.63 58.8899ZM1325.08 62.1847L1325 60.3267C1325.78 59.5303 1326.64 58.6603 1327.58 57.7169C1328.52 56.7634 1329.45 55.7854 1330.36 54.7829C1331.29 53.7699 1332.13 52.7758 1332.88 51.8005C1333.64 50.8153 1334.24 49.8922 1334.68 49.0313C1335.13 48.16 1335.34 47.3996 1335.31 46.7503C1335.28 45.9611 1335.05 45.2507 1334.63 44.619C1334.22 43.9769 1333.68 43.4758 1333.01 43.1157C1332.36 42.7451 1331.63 42.5777 1330.84 42.6135C1330.06 42.6493 1329.34 42.8819 1328.7 43.3114C1328.07 43.7304 1327.57 44.2785 1327.21 44.9555C1326.85 45.6225 1326.69 46.3506 1326.73 47.1398L1324.63 47.2349C1324.57 46.0361 1324.81 44.9391 1325.35 43.9438C1325.9 42.9481 1326.64 42.1435 1327.58 41.5302C1328.53 40.9068 1329.58 40.5686 1330.75 40.5156C1331.92 40.4626 1333 40.704 1333.98 41.24C1334.98 41.7754 1335.78 42.5147 1336.39 43.4579C1337.02 44.4006 1337.36 45.4664 1337.41 46.6551C1337.44 47.3644 1337.29 48.1522 1336.95 49.0186C1336.61 49.8745 1336.15 50.7715 1335.55 51.7095C1334.95 52.6376 1334.28 53.5793 1333.52 54.5346C1332.76 55.4899 1331.97 56.4268 1331.14 57.3453C1330.31 58.2539 1329.5 59.1113 1328.72 59.9177L1338.31 59.4827L1338.4 61.5805L1325.08 62.1847ZM1347.71 61.5488C1346.43 61.6068 1345.25 61.3499 1344.17 60.7781C1343.11 60.2059 1342.25 59.4141 1341.59 58.4028C1340.93 57.3816 1340.58 56.2466 1340.52 54.9978L1342.62 54.9027C1342.66 55.7718 1342.91 56.5612 1343.37 57.271C1343.83 57.9708 1344.43 58.5191 1345.17 58.9161C1345.92 59.3126 1346.73 59.4909 1347.61 59.451C1348.48 59.4116 1349.27 59.1608 1349.97 58.6986C1350.67 58.2364 1351.21 57.6359 1351.61 56.8972C1352.02 56.148 1352.2 55.3389 1352.16 54.4697C1352.12 53.5907 1351.88 52.801 1351.42 52.1008C1350.98 51.3901 1350.37 50.8372 1349.59 50.4421C1348.82 50.0365 1347.92 49.8573 1346.88 49.9044L1341.78 50.1355L1343.32 40.3358L1353.14 39.8906L1353.23 41.9884L1345.11 42.3568L1344.27 47.9207L1346.71 47.8249C1348.14 47.7801 1349.41 48.028 1350.51 48.5684C1351.63 49.1084 1352.51 49.8791 1353.17 50.8804C1353.84 51.8712 1354.2 53.036 1354.26 54.3746C1354.3 55.3136 1354.16 56.2059 1353.84 57.0513C1353.53 57.8963 1353.07 58.653 1352.46 59.3214C1351.86 59.9793 1351.15 60.5068 1350.34 60.9041C1349.53 61.2909 1348.66 61.5058 1347.71 61.5488Z" fill="#171717"/>
</svg>
