<svg width="1444" height="147" viewBox="0 0 1444 147" fill="none" xmlns="http://www.w3.org/2000/svg">
<rect x="3" width="1437" height="147" fill="#232323"/>
<rect width="1442.08" height="63.0444" transform="matrix(0.998832 -0.0483143 0.0418018 0.999126 0 78.0103)" fill="white"/>
<path d="M85.3606 97.3805L88.7769 105.495L97.1017 108.361L88.9873 111.777L86.1216 120.102L82.7054 111.987L74.3805 109.122L82.4949 105.705L85.3606 97.3805Z" fill="#FB6514"/>
<path d="M1357.36 35.3805L1360.78 43.4949L1369.1 46.3605L1360.99 49.7768L1358.12 58.1017L1354.71 49.9872L1346.38 47.1216L1354.49 43.7053L1357.36 35.3805Z" fill="#FB6514"/>
<path d="M974.361 55.3805L977.777 63.4949L986.102 66.3605L977.987 69.7768L975.122 78.1017L971.705 69.9872L963.381 67.1216L971.495 63.7053L974.361 55.3805Z" fill="#FB6514"/>
<path d="M131.397 114.785L125.081 94.0503L127.239 93.9524L132.462 111.118L136.095 93.5508L137.953 93.4665L143.176 110.632L146.809 93.0648L148.967 92.9669L144.584 114.187L142.096 114.3L137.245 98.3786L133.855 114.674L131.397 114.785ZM164.815 103.975L165.235 113.251L163.137 113.346L162.736 104.49C162.699 103.671 162.465 102.936 162.035 102.284C161.605 101.633 161.046 101.123 160.359 100.754C159.672 100.385 158.918 100.218 158.099 100.256C157.29 100.292 156.555 100.526 155.894 100.956C155.242 101.386 154.732 101.945 154.363 102.632C153.994 103.32 153.828 104.073 153.865 104.892L154.267 113.748L152.169 113.843L151.149 91.3664L153.247 91.2713L153.681 100.831C154.176 100.048 154.838 99.4125 155.666 98.9245C156.495 98.4364 157.409 98.1698 158.408 98.1245C159.537 98.0732 160.578 98.3013 161.532 98.8086C162.486 99.3159 163.259 100.022 163.85 100.926C164.442 101.83 164.763 102.846 164.815 103.975ZM177.02 97.7007L179.238 97.6001L172.061 120.449L169.828 120.55L172.216 112.934L166.156 98.1934L168.449 98.0894L173.133 109.994L177.02 97.7007ZM200.531 89.1266L202.629 89.0314L203.648 111.508L201.55 111.603L201.423 108.801C200.947 109.784 200.268 110.591 199.386 111.221C198.513 111.841 197.457 112.18 196.219 112.236C195.13 112.285 194.101 112.127 193.134 111.76C192.166 111.393 191.302 110.867 190.54 110.181C189.787 109.484 189.185 108.671 188.732 107.74C188.28 106.81 188.029 105.8 187.979 104.711C187.93 103.622 188.088 102.594 188.455 101.627C188.821 100.649 189.347 99.7843 190.034 99.0324C190.73 98.27 191.543 97.6626 192.474 97.2099C193.404 96.7573 194.414 96.5063 195.503 96.4569C196.742 96.4007 197.824 96.6469 198.75 97.1956C199.685 97.7337 200.434 98.4655 200.997 99.391L200.531 89.1266ZM196.141 110.197C197.21 110.149 198.117 109.847 198.863 109.293C199.608 108.729 200.165 107.993 200.535 107.085C200.914 106.177 201.079 105.188 201.031 104.119C200.981 103.02 200.726 102.041 200.267 101.181C199.807 100.311 199.181 99.6335 198.388 99.149C197.595 98.6644 196.669 98.4461 195.61 98.4941C194.551 98.5422 193.599 98.8506 192.754 99.4195C191.909 99.9784 191.246 100.714 190.767 101.627C190.288 102.539 190.073 103.535 190.122 104.614C190.171 105.703 190.481 106.68 191.051 107.545C191.62 108.4 192.351 109.068 193.244 109.548C194.146 110.027 195.112 110.244 196.141 110.197ZM213.291 111.461C211.912 111.524 210.637 111.226 209.466 110.569C208.305 109.911 207.358 109.003 206.625 107.845C205.901 106.676 205.507 105.368 205.441 103.919C205.391 102.82 205.539 101.788 205.886 100.821C206.232 99.8442 206.728 98.9809 207.375 98.2308C208.031 97.4703 208.805 96.8646 209.695 96.4138C210.586 95.963 211.545 95.7143 212.574 95.6676C213.953 95.6051 215.223 95.9028 216.384 96.5609C217.555 97.2185 218.502 98.1315 219.226 99.2999C219.959 100.468 220.359 101.781 220.426 103.24C220.475 104.328 220.326 105.356 219.98 106.323C219.633 107.29 219.132 108.153 218.476 108.914C217.829 109.664 217.06 110.264 216.17 110.715C215.289 111.165 214.33 111.414 213.291 111.461ZM213.196 109.364C214.215 109.317 215.117 109.011 215.902 108.445C216.696 107.868 217.309 107.13 217.738 106.229C218.178 105.329 218.374 104.364 218.328 103.335C218.28 102.286 217.997 101.333 217.477 100.475C216.957 99.608 216.276 98.9282 215.433 98.4359C214.6 97.9432 213.678 97.7197 212.67 97.7654C211.651 97.8116 210.744 98.1231 209.949 98.6997C209.164 99.2658 208.552 99.9993 208.112 100.9C207.682 101.801 207.491 102.775 207.539 103.824C207.588 104.903 207.877 105.871 208.406 106.728C208.935 107.575 209.621 108.239 210.464 108.722C211.306 109.194 212.217 109.408 213.196 109.364ZM232.188 117.722L230.09 117.817L229.071 95.3398L231.168 95.2446L231.296 98.0467C231.772 97.0742 232.446 96.2728 233.319 95.6426C234.191 95.0124 235.247 94.6693 236.485 94.6131C237.574 94.5637 238.602 94.7223 239.57 95.0888C240.548 95.4549 241.413 95.9862 242.165 96.6828C242.917 97.3695 243.519 98.178 243.972 99.1085C244.424 100.039 244.675 101.049 244.725 102.137C244.774 103.226 244.616 104.26 244.25 105.237C243.884 106.215 243.357 107.084 242.671 107.846C241.985 108.598 241.171 109.201 240.231 109.654C239.3 110.106 238.291 110.357 237.202 110.407C235.963 110.463 234.881 110.217 233.955 109.668C233.029 109.12 232.285 108.383 231.722 107.457L232.188 117.722ZM236.563 96.6517C235.514 96.6992 234.612 97.0054 233.857 97.5702C233.111 98.1246 232.548 98.8508 232.169 99.7489C231.789 100.647 231.624 101.641 231.673 102.729C231.722 103.798 231.971 104.768 232.421 105.639C232.881 106.509 233.507 107.191 234.3 107.685C235.104 108.18 236.035 108.403 237.094 108.355C238.132 108.307 239.075 108.004 239.92 107.446C240.776 106.886 241.448 106.155 241.938 105.252C242.427 104.339 242.647 103.333 242.597 102.234C242.548 101.165 242.244 100.203 241.685 99.3473C241.125 98.4818 240.399 97.804 239.506 97.314C238.613 96.8239 237.632 96.6032 236.563 96.6517ZM247.153 109.535L246.474 94.5504L248.572 94.4553L248.665 96.5231C249.16 95.7399 249.822 95.1043 250.651 94.6162C251.48 94.1282 252.394 93.8615 253.393 93.8162C253.972 93.7899 254.535 93.8394 255.081 93.9648L254.321 96.0864C253.896 95.9756 253.483 95.9292 253.084 95.9473C252.275 95.984 251.54 96.2176 250.878 96.648C250.227 97.0779 249.717 97.6366 249.348 98.3241C248.979 99.0115 248.812 99.7648 248.85 100.584L249.251 109.44L247.153 109.535ZM263.031 109.205C261.653 109.268 260.378 108.97 259.207 108.313C258.046 107.655 257.099 106.747 256.366 105.589C255.642 104.42 255.247 103.112 255.182 101.663C255.132 100.564 255.28 99.5315 255.627 98.5648C255.973 97.5881 256.469 96.7247 257.116 95.9747C257.772 95.2142 258.545 94.6085 259.436 94.1577C260.326 93.7069 261.286 93.4581 262.315 93.4115C263.694 93.3489 264.963 93.6467 266.124 94.3048C267.295 94.9624 268.243 95.8754 268.966 97.0438C269.7 98.2118 270.1 99.525 270.166 100.983C270.216 102.072 270.067 103.1 269.72 104.067C269.374 105.034 268.872 105.897 268.216 106.658C267.57 107.408 266.801 108.008 265.911 108.459C265.03 108.909 264.07 109.158 263.031 109.205ZM262.936 107.107C263.955 107.061 264.857 106.755 265.642 106.189C266.437 105.612 267.049 104.874 267.479 103.973C267.919 103.072 268.115 102.108 268.068 101.079C268.021 100.03 267.737 99.0766 267.218 98.2192C266.698 97.3519 266.017 96.6721 265.173 96.1798C264.34 95.687 263.419 95.4635 262.41 95.5093C261.391 95.5555 260.484 95.8669 259.69 96.4435C258.905 97.0097 258.292 97.7432 257.853 98.644C257.423 99.5444 257.232 100.519 257.279 101.568C257.328 102.647 257.618 103.615 258.147 104.472C258.676 105.319 259.362 105.983 260.204 106.466C261.047 106.938 261.957 107.152 262.936 107.107ZM283.681 92.8628L285.779 92.7676L286.484 108.307C286.527 109.266 286.358 110.174 285.977 111.032C285.605 111.89 285.079 112.65 284.399 113.311C283.728 113.982 282.952 114.518 282.069 114.918C281.186 115.319 280.26 115.541 279.291 115.585C278.252 115.632 277.238 115.438 276.247 115.002C275.256 114.577 274.384 113.986 273.629 113.229C272.884 112.472 272.34 111.621 271.996 110.676L273.889 109.704C274.113 110.444 274.498 111.103 275.045 111.678C275.602 112.264 276.243 112.715 276.968 113.033C277.704 113.36 278.446 113.506 279.195 113.472C279.885 113.441 280.543 113.281 281.171 112.992C281.809 112.713 282.373 112.342 282.862 111.879C283.362 111.416 283.748 110.883 284.021 110.28C284.294 109.687 284.416 109.061 284.386 108.402L284.236 105.09C283.759 106.053 283.089 106.844 282.226 107.464C281.374 108.083 280.363 108.419 279.194 108.472C278.145 108.52 277.147 108.36 276.199 107.992C275.261 107.624 274.427 107.097 273.695 106.409C272.962 105.712 272.375 104.897 271.932 103.967C271.5 103.035 271.259 102.025 271.209 100.936C271.16 99.8473 271.308 98.8195 271.655 97.8528C272.011 96.8757 272.522 96.0116 273.189 95.2606C273.855 94.4997 274.639 93.8936 275.539 93.4423C276.45 92.9906 277.429 92.7409 278.478 92.6933C279.647 92.6403 280.684 92.8836 281.589 93.4231C282.504 93.9522 283.243 94.6795 283.806 95.6049L283.681 92.8628ZM279.116 106.434C280.155 106.386 281.037 106.076 281.762 105.503C282.497 104.929 283.049 104.188 283.418 103.28C283.787 102.373 283.948 101.399 283.901 100.361C283.853 99.2916 283.599 98.3271 283.139 97.4671C282.689 96.5965 282.073 95.9138 281.29 95.4188C280.506 94.9138 279.605 94.6844 278.586 94.7306C277.567 94.7768 276.65 95.0837 275.835 95.6512C275.029 96.2083 274.402 96.9424 273.952 97.8537C273.503 98.765 273.303 99.7601 273.352 100.839C273.401 101.918 273.695 102.891 274.235 103.757C274.775 104.613 275.471 105.288 276.324 105.779C277.187 106.261 278.117 106.479 279.116 106.434ZM289.617 107.609L288.938 92.6244L291.035 92.5292L291.129 94.5971C291.624 93.8138 292.286 93.1782 293.115 92.6901C293.944 92.2021 294.857 91.9354 295.856 91.8901C296.436 91.8638 296.999 91.9134 297.545 92.0387L296.785 94.1603C296.36 94.0495 295.947 94.0032 295.548 94.0213C294.738 94.058 294.003 94.2915 293.342 94.7219C292.691 95.1519 292.181 95.7106 291.812 96.398C291.442 97.0854 291.276 97.8387 291.313 98.6579L291.715 107.514L289.617 107.609ZM310.522 91.6453L312.62 91.5502L313.299 106.535L311.202 106.63L311 103.846C310.554 104.817 309.904 105.618 309.052 106.247C308.199 106.866 307.163 107.203 305.945 107.259C304.846 107.309 303.808 107.15 302.83 106.784C301.852 106.408 300.982 105.872 300.219 105.176C299.457 104.48 298.849 103.662 298.396 102.721C297.943 101.781 297.692 100.761 297.642 99.6622C297.593 98.5833 297.747 97.5603 298.103 96.5931C298.47 95.6255 298.991 94.766 299.668 94.0146C300.355 93.2627 301.159 92.6657 302.079 92.2235C303.01 91.7708 304.015 91.5201 305.093 91.4711C306.342 91.4145 307.445 91.6648 308.401 92.222C309.357 92.7693 310.131 93.51 310.724 94.4441L310.522 91.6453ZM305.807 105.223C306.876 105.174 307.783 104.873 308.529 104.319C309.274 103.754 309.832 103.018 310.201 102.111C310.58 101.203 310.745 100.214 310.697 99.1451C310.647 98.0462 310.392 97.0668 309.933 96.2067C309.473 95.3367 308.847 94.6593 308.054 94.1748C307.261 93.6902 306.335 93.4719 305.276 93.5199C304.218 93.568 303.261 93.8766 302.406 94.446C301.56 95.0049 300.898 95.7406 300.418 96.6533C299.949 97.5655 299.739 98.561 299.788 99.6399C299.838 100.729 300.147 101.706 300.717 102.571C301.286 103.426 302.017 104.093 302.91 104.574C303.813 105.053 304.778 105.27 305.807 105.223ZM315.848 106.419L315.169 91.4346L317.267 91.3394L317.36 93.4073C317.865 92.6236 318.527 91.988 319.346 91.5004C320.165 91.0128 321.074 90.7463 322.073 90.701C323.201 90.6498 324.248 90.8826 325.213 91.3994C326.176 91.9063 326.944 92.6072 327.515 93.5023C328.003 92.5592 328.699 91.7919 329.603 91.2003C330.507 90.5987 331.523 90.2723 332.652 90.2211C333.781 90.1699 334.822 90.398 335.776 90.9053C336.73 91.4126 337.503 92.1183 338.094 93.0224C338.686 93.9265 339.007 94.943 339.058 96.0719L339.479 105.347L337.381 105.442L336.982 96.6315C336.945 95.8324 336.717 95.102 336.297 94.4403C335.876 93.7787 335.327 93.258 334.649 92.8784C333.981 92.4883 333.247 92.3113 332.448 92.3476C331.649 92.3838 330.928 92.6117 330.287 93.0312C329.655 93.4403 329.159 93.9933 328.8 94.6903C328.441 95.3772 328.281 96.1553 328.321 97.0244L328.72 105.835L326.622 105.93L326.223 97.1195C326.183 96.2504 325.954 95.4901 325.534 94.8384C325.113 94.1768 324.565 93.6711 323.888 93.3214C323.211 92.9617 322.473 92.8 321.674 92.8362C320.885 92.872 320.17 93.1147 319.53 93.5642C318.889 94.0036 318.389 94.5719 318.03 95.2688C317.672 95.9658 317.51 96.7139 317.547 97.5131L317.946 106.324L315.848 106.419ZM342.032 105.232L341.352 90.247L343.45 90.1518L343.544 92.2197C344.049 91.436 344.711 90.8003 345.529 90.3127C346.348 89.8251 347.257 89.5587 348.256 89.5134C349.385 89.4622 350.431 89.695 351.396 90.2118C352.36 90.7187 353.127 91.4196 353.698 92.3147C354.186 91.3716 354.882 90.6043 355.786 90.0127C356.69 89.4111 357.706 89.0847 358.835 89.0335C359.964 88.9823 361.005 89.2104 361.959 89.7177C362.913 90.225 363.686 90.9307 364.278 91.8348C364.869 92.7389 365.19 93.7554 365.242 94.8843L365.662 104.16L363.565 104.255L363.165 95.4439C363.129 94.6447 362.9 93.9143 362.48 93.2527C362.06 92.5911 361.51 92.0704 360.832 91.6908C360.164 91.3006 359.43 91.1237 358.631 91.16C357.832 91.1962 357.112 91.4241 356.47 91.8436C355.838 92.2526 355.342 92.8057 354.984 93.5026C354.624 94.1896 354.464 94.9677 354.504 95.8368L354.903 104.648L352.806 104.743L352.406 95.9319C352.367 95.0628 352.137 94.3024 351.717 93.6508C351.296 92.9892 350.748 92.4835 350.071 92.1338C349.394 91.7741 348.656 91.6124 347.857 91.6486C347.068 91.6844 346.353 91.9271 345.713 92.3765C345.072 92.816 344.572 93.3843 344.214 94.0812C343.855 94.7782 343.694 95.5263 343.73 96.3255L344.13 105.136L342.032 105.232ZM374.533 104.148C373.155 104.21 371.88 103.913 370.709 103.255C369.548 102.597 368.601 101.689 367.867 100.531C367.144 99.3627 366.749 98.0542 366.683 96.6057C366.634 95.5068 366.782 94.474 367.128 93.5073C367.475 92.5307 367.971 91.6673 368.618 90.9172C369.274 90.1567 370.047 89.551 370.938 89.1002C371.828 88.6494 372.788 88.4007 373.817 88.354C374.926 88.3037 375.955 88.4773 376.904 88.8747C377.863 89.2716 378.695 89.8495 379.4 90.6083C380.115 91.3667 380.666 92.2677 381.054 93.3112C381.452 94.3542 381.648 95.4915 381.644 96.7229L368.937 97.2993C369.1 98.2429 369.438 99.0784 369.952 99.8059C370.475 100.533 371.122 101.099 371.891 101.505C372.669 101.9 373.518 102.082 374.438 102.05C375.437 102.005 376.324 101.704 377.1 101.148C377.885 100.592 378.502 99.8485 378.951 98.9172L381.101 99.3152C380.562 100.671 379.707 101.801 378.537 102.705C377.366 103.599 376.032 104.08 374.533 104.148ZM368.8 95.6087L379.454 95.1255C379.342 94.1996 379.019 93.3634 378.485 92.6169C377.96 91.8599 377.297 91.2693 376.497 90.8451C375.697 90.4109 374.832 90.2149 373.903 90.257C372.974 90.2992 372.135 90.5675 371.387 91.0619C370.638 91.5463 370.037 92.1892 369.583 92.9906C369.128 93.782 368.867 94.6547 368.8 95.6087ZM384.067 103.325L383.387 88.3403L385.485 88.2452L385.579 90.3131C386.074 89.5298 386.736 88.8942 387.565 88.4061C388.393 87.9181 389.307 87.6514 390.306 87.6061C390.886 87.5798 391.448 87.6293 391.995 87.7547L391.235 89.8763C390.81 89.7655 390.397 89.7191 389.997 89.7373C389.188 89.774 388.453 90.0075 387.792 90.4379C387.141 90.8679 386.63 91.4265 386.261 92.114C385.892 92.8014 385.726 93.5547 385.763 94.3739L386.165 103.23L384.067 103.325ZM398.767 102.943C397.947 102.961 397.141 102.847 396.349 102.603C395.558 102.358 394.861 102.009 394.26 101.556C393.659 101.103 393.219 100.577 392.942 99.9793L394.72 99.1179C394.897 99.5003 395.208 99.8465 395.653 100.157C396.107 100.456 396.618 100.694 397.187 100.868C397.755 101.032 398.313 101.102 398.863 101.077C399.472 101.05 400.037 100.924 400.558 100.7C401.078 100.476 401.495 100.172 401.808 99.7874C402.13 99.3924 402.28 98.9402 402.256 98.4307C402.232 97.8813 402.032 97.4599 401.659 97.1665C401.284 96.8631 400.819 96.634 400.261 96.4791C399.703 96.3142 399.13 96.16 398.543 96.0165C397.471 95.7748 396.523 95.4975 395.698 95.1846C394.873 94.8716 394.218 94.4559 393.734 93.9373C393.26 93.4082 393.003 92.7141 392.964 91.855C392.923 90.9459 393.142 90.1502 393.622 89.4678C394.111 88.7749 394.762 88.2298 395.574 87.8326C396.397 87.4249 397.282 87.1996 398.232 87.1565C399.45 87.1012 400.571 87.3157 401.594 87.7998C402.627 88.2835 403.388 88.9547 403.878 89.8134L402.23 90.8942C402.032 90.4927 401.731 90.151 401.328 89.869C400.924 89.587 400.469 89.3724 399.962 89.2252C399.465 89.0776 398.961 89.0103 398.451 89.0235C397.812 89.0425 397.221 89.1643 396.681 89.3891C396.14 89.6038 395.709 89.9086 395.386 90.3037C395.074 90.6982 394.93 91.1702 394.955 91.7197C394.98 92.2691 395.164 92.6812 395.506 92.9559C395.849 93.2207 396.304 93.4303 396.871 93.5847C397.449 93.7287 398.097 93.8995 398.817 94.0971C399.739 94.3456 400.608 94.6365 401.424 94.9699C402.24 95.3033 402.905 95.7336 403.419 96.2608C403.934 96.788 404.205 97.4714 404.233 98.311C404.274 99.2101 404.04 100.007 403.531 100.7C403.022 101.394 402.346 101.94 401.503 102.339C400.66 102.727 399.748 102.929 398.767 102.943ZM424.94 86.4556L427.038 86.3605L427.717 101.345L425.62 101.44L425.418 98.6565C424.972 99.6277 424.322 100.428 423.47 101.057C422.617 101.676 421.581 102.014 420.363 102.069C419.264 102.119 418.226 101.961 417.248 101.595C416.27 101.219 415.4 100.682 414.637 99.9863C413.875 99.2901 413.267 98.4718 412.814 97.5314C412.361 96.591 412.11 95.5713 412.06 94.4724C412.011 93.3936 412.165 92.3705 412.521 91.4034C412.888 90.4358 413.409 89.5763 414.086 88.8248C414.773 88.073 415.576 87.4759 416.497 87.0337C417.428 86.5811 418.432 86.3303 419.511 86.2814C420.76 86.2248 421.863 86.4751 422.819 87.0323C423.775 87.5796 424.549 88.3202 425.142 89.2543L424.94 86.4556ZM420.225 100.033C421.294 99.9847 422.201 99.6833 422.947 99.1289C423.692 98.5646 424.249 97.8286 424.619 96.9209C424.998 96.0128 425.163 95.0243 425.115 93.9554C425.065 92.8565 424.81 91.877 424.351 91.017C423.891 90.1469 423.265 89.4696 422.472 88.985C421.679 88.5004 420.753 88.2822 419.694 88.3302C418.635 88.3782 417.678 88.6869 416.823 89.2562C415.978 89.8151 415.316 90.5509 414.836 91.4635C414.367 92.3757 414.157 93.3713 414.206 94.4502C414.255 95.5391 414.565 96.516 415.135 97.3811C415.704 98.2362 416.435 98.9037 417.328 99.3838C418.23 99.8634 419.196 100.08 420.225 100.033ZM430.471 101.22L429.452 78.7432L431.55 78.6481L432.569 101.125L430.471 101.22ZM441.861 100.704L439.703 100.801L434.004 86.0445L436.057 85.9514L440.68 97.8441L444.178 85.583L446.396 85.4824L450.99 97.3765L454.488 85.1154L456.555 85.0216L452.215 100.234L450.043 100.332L445.383 88.3212L441.861 100.704ZM470.33 84.3968L472.428 84.3016L473.108 99.2862L471.01 99.3814L470.809 96.5977C470.362 97.5689 469.713 98.3691 468.86 98.9984C468.008 99.6177 466.972 99.955 465.753 100.01C464.654 100.06 463.616 99.902 462.638 99.5359C461.66 99.1598 460.79 98.6237 460.028 97.9275C459.265 97.2313 458.658 96.413 458.205 95.4726C457.752 94.5322 457.5 93.5125 457.45 92.4136C457.401 91.3347 457.555 90.3117 457.912 89.3446C458.278 88.377 458.8 87.5175 459.476 86.766C460.163 86.0141 460.967 85.4171 461.888 84.9749C462.818 84.5223 463.823 84.2715 464.902 84.2226C466.151 84.166 467.253 84.4163 468.209 84.9735C469.165 85.5208 469.939 86.2614 470.532 87.1955L470.33 84.3968ZM465.616 97.9744C466.685 97.9259 467.592 97.6245 468.337 97.0701C469.083 96.5058 469.64 95.7698 470.009 94.8621C470.388 93.954 470.554 92.9655 470.505 91.8966C470.455 90.7977 470.201 89.8182 469.741 88.9582C469.281 88.0881 468.655 87.4108 467.862 86.9262C467.07 86.4416 466.144 86.2234 465.085 86.2714C464.026 86.3194 463.069 86.6281 462.214 87.1974C461.368 87.7563 460.706 88.4921 460.227 89.4047C459.758 90.3169 459.548 91.3125 459.597 92.3914C459.646 93.4802 459.955 94.4572 460.525 95.3223C461.095 96.1774 461.826 96.8449 462.718 97.325C463.621 97.8046 464.587 98.021 465.616 97.9744ZM484.89 83.7364L487.108 83.6358L479.931 106.484L477.698 106.586L480.086 98.9697L474.027 84.2291L476.319 84.1252L481.003 96.0301L484.89 83.7364ZM494.572 98.598C493.752 98.6152 492.946 98.5016 492.154 98.2572C491.362 98.0128 490.665 97.664 490.064 97.2108C489.463 96.7576 489.024 96.2319 488.746 95.6339L490.524 94.7724C490.702 95.1548 491.013 95.5011 491.457 95.8112C491.911 96.111 492.422 96.3481 492.991 96.5225C493.559 96.6869 494.118 96.7567 494.667 96.7317C495.277 96.7041 495.841 96.5784 496.362 96.3546C496.882 96.1308 497.299 95.8266 497.612 95.442C497.934 95.047 498.084 94.5947 498.061 94.0853C498.036 93.5358 497.837 93.1144 497.463 92.821C497.089 92.5177 496.623 92.2886 496.065 92.1337C495.507 91.9688 494.935 91.8146 494.348 91.671C493.275 91.4293 492.327 91.152 491.502 90.8391C490.677 90.5262 490.022 90.1104 489.538 89.5918C489.064 89.0627 488.807 88.3687 488.768 87.5096C488.727 86.6005 488.946 85.8047 489.426 85.1223C489.915 84.4294 490.566 83.8844 491.379 83.4871C492.201 83.0795 493.087 82.8541 494.036 82.811C495.255 82.7558 496.375 82.9702 497.398 83.4543C498.431 83.938 499.193 84.6092 499.682 85.4679L498.034 86.5487C497.836 86.1473 497.535 85.8056 497.132 85.5235C496.729 85.2415 496.273 85.0269 495.766 84.8798C495.269 84.7321 494.766 84.6649 494.256 84.678C493.616 84.697 493.026 84.8189 492.485 85.0436C491.944 85.2583 491.513 85.5632 491.19 85.9582C490.878 86.3528 490.734 86.8248 490.759 87.3742C490.784 87.9236 490.968 88.3357 491.311 88.6105C491.653 88.8752 492.108 89.0848 492.676 89.2393C493.253 89.3833 493.901 89.5541 494.621 89.7517C495.543 90.0001 496.412 90.2911 497.228 90.6244C498.044 90.9578 498.709 91.3881 499.224 91.9153C499.738 92.4426 500.009 93.126 500.037 93.9656C500.078 94.8646 499.844 95.6611 499.335 96.3548C498.826 97.0486 498.15 97.5948 497.307 97.9934C496.464 98.382 495.552 98.5835 494.572 98.598ZM509.106 97.6534L508.427 82.6688L510.525 82.5737L510.618 84.6416C511.123 83.8579 511.785 83.2222 512.604 82.7346C513.423 82.247 514.332 81.9806 515.331 81.9353C516.459 81.8841 517.506 82.1169 518.47 82.6337C519.434 83.1405 520.202 83.8415 520.773 84.7365C521.261 83.7935 521.957 83.0261 522.861 82.4346C523.765 81.833 524.781 81.5066 525.91 81.4554C527.039 81.4042 528.08 81.6323 529.034 82.1396C529.988 82.6468 530.761 83.3526 531.352 84.2567C531.944 85.1608 532.265 86.1773 532.316 87.3061L532.737 96.5816L530.639 96.6767L530.24 87.8658C530.203 87.0666 529.975 86.3362 529.555 85.6746C529.134 85.013 528.585 84.4923 527.907 84.1126C527.239 83.7225 526.505 83.5456 525.706 83.5818C524.907 83.6181 524.186 83.846 523.545 84.2655C522.912 84.6745 522.417 85.2275 522.058 85.9245C521.699 86.6115 521.539 87.3895 521.579 88.2587L521.978 97.0696L519.88 97.1647L519.481 88.3538C519.441 87.4847 519.212 86.7243 518.792 86.0727C518.371 85.4111 517.823 84.9054 517.146 84.5557C516.469 84.196 515.731 84.0343 514.932 84.0705C514.143 84.1063 513.428 84.3489 512.788 84.7984C512.147 85.2379 511.647 85.8061 511.288 86.5031C510.93 87.2001 510.768 87.9482 510.805 88.7473L511.204 97.5583L509.106 97.6534ZM534.61 81.4812L536.708 81.3861L537.387 96.3707L535.29 96.4658L534.61 81.4812ZM535.555 78.8107C535.215 78.8261 534.921 78.7293 534.671 78.5204C534.431 78.3011 534.303 78.0216 534.287 77.6819C534.272 77.3423 534.374 77.0574 534.594 76.8272C534.823 76.5865 535.108 76.4585 535.448 76.4431C535.777 76.4281 536.062 76.5303 536.302 76.7497C536.552 76.9586 536.685 77.2329 536.7 77.5725C536.715 77.9122 536.613 78.2021 536.394 78.4423C536.174 78.6725 535.895 78.7953 535.555 78.8107ZM539.655 96.2678L544.798 88.4968L538.988 81.2376L541.581 81.12L546.02 86.6395L549.927 80.7414L552.504 80.6245L547.391 88.3792L553.216 95.6527L550.624 95.7703L546.182 90.2058L542.247 96.1502L539.655 96.2678ZM561.646 89.5195L561.226 80.274L563.324 80.1788L563.725 89.0047C563.762 89.8239 563.995 90.5591 564.425 91.2103C564.855 91.8614 565.414 92.3716 566.101 92.7409C566.799 93.1097 567.552 93.2757 568.361 93.239C569.18 93.2018 569.91 92.9685 570.552 92.539C571.203 92.1091 571.713 91.5504 572.082 90.8629C572.452 90.1755 572.618 89.4222 572.58 88.6031L572.18 79.7771L574.278 79.682L574.973 94.6659L572.875 94.761L572.765 92.6639C572.27 93.4471 571.608 94.0828 570.779 94.5708C569.96 95.0584 569.051 95.3249 568.052 95.3702C566.924 95.4214 565.882 95.1933 564.928 94.686C563.974 94.1787 563.201 93.473 562.61 92.5689C562.018 91.6648 561.697 90.6483 561.646 89.5195ZM579.654 101.961L577.556 102.056L576.536 79.5795L578.634 79.4844L578.761 82.2865C579.238 81.3139 579.912 80.5125 580.784 79.8824C581.657 79.2522 582.712 78.909 583.951 78.8528C585.04 78.8034 586.068 78.962 587.036 79.3285C588.013 79.6946 588.878 80.226 589.631 80.9226C590.383 81.6092 590.985 82.4178 591.437 83.3482C591.89 84.2787 592.141 85.2883 592.19 86.3772C592.24 87.4661 592.082 88.4993 591.715 89.4769C591.349 90.4545 590.823 91.3242 590.137 92.0861C589.45 92.838 588.637 93.4405 587.696 93.8936C586.766 94.3462 585.756 94.5972 584.667 94.6466C583.429 94.7028 582.346 94.4566 581.421 93.9079C580.495 93.3593 579.751 92.6223 579.188 91.6968L579.654 101.961ZM584.029 80.8914C582.98 80.939 582.078 81.2452 581.322 81.81C580.577 82.3643 580.014 83.0906 579.634 83.9887C579.255 84.8868 579.09 85.8803 579.139 86.9692C579.187 88.0381 579.437 89.0078 579.886 89.8783C580.346 90.7484 580.973 91.4307 581.766 91.9252C582.569 92.4194 583.5 92.6424 584.559 92.5944C585.598 92.5472 586.541 92.2442 587.386 91.6854C588.242 91.126 588.914 90.3948 589.404 89.4917C589.893 88.5786 590.113 87.5726 590.063 86.4737C590.014 85.4048 589.71 84.4426 589.151 83.5871C588.591 82.7215 587.865 82.0438 586.972 81.5537C586.078 81.0637 585.097 80.8429 584.029 80.8914ZM611.243 93.4111C609.825 93.4755 608.479 93.2562 607.204 92.7535C605.93 92.2407 604.796 91.5113 603.802 90.5654C602.817 89.609 602.026 88.4837 601.426 87.1896C600.837 85.8949 600.508 84.4984 600.441 82.9999C600.373 81.5015 600.573 80.0809 601.043 78.7382C601.523 77.3951 602.21 76.2078 603.104 75.1762C604.007 74.1342 605.071 73.3052 606.294 72.6891C607.517 72.063 608.838 71.7178 610.256 71.6535C611.955 71.5765 613.536 71.9002 615 72.6245C616.465 73.3489 617.696 74.3442 618.694 75.6102L616.882 76.6985C616.098 75.743 615.123 75.0014 613.958 74.4737C612.803 73.9355 611.6 73.6947 610.352 73.7513C609.203 73.8034 608.14 74.0869 607.162 74.6017C606.194 75.1061 605.353 75.7799 604.641 76.623C603.928 77.4662 603.386 78.4267 603.015 79.5047C602.643 80.5826 602.484 81.716 602.538 82.9048C602.593 84.1135 602.854 85.2378 603.322 86.2777C603.8 87.3172 604.431 88.2245 605.217 88.9996C606.013 89.7744 606.916 90.3691 607.926 90.7837C608.945 91.188 610.019 91.3645 611.148 91.3133C612.447 91.2544 613.637 90.9051 614.719 90.2654C615.811 89.6153 616.7 88.7942 617.386 87.8021L619.289 88.7217C618.409 90.073 617.273 91.1756 615.881 92.0296C614.487 92.8736 612.942 93.3341 611.243 93.4111ZM634.755 82.6598L635.176 91.9352L633.078 92.0304L632.676 83.1745C632.639 82.3553 632.405 81.6201 631.975 80.969C631.545 80.3178 630.987 79.8076 630.299 79.4383C629.612 79.0691 628.859 78.9031 628.039 78.9402C627.23 78.9769 626.495 79.2105 625.834 79.6409C625.183 80.0708 624.672 80.6295 624.303 81.3169C623.934 82.0044 623.768 82.7577 623.805 83.5768L624.207 92.4327L622.109 92.5279L621.089 70.051L623.187 69.9558L623.621 79.516C624.116 78.7328 624.778 78.0971 625.607 77.6091C626.435 77.121 627.349 76.8544 628.348 76.809C629.477 76.7578 630.518 76.9859 631.472 77.4932C632.426 78.0005 633.199 78.7062 633.791 79.6103C634.382 80.5144 634.704 81.5309 634.755 82.6598ZM637.727 91.8195L637.047 76.8349L639.145 76.7397L639.239 78.8076C639.734 78.0244 640.396 77.3887 641.224 76.9007C642.053 76.4126 642.967 76.146 643.966 76.1006C644.545 76.0744 645.108 76.1239 645.655 76.2493L644.895 78.3709C644.469 78.2601 644.057 78.2137 643.657 78.2318C642.848 78.2685 642.113 78.5021 641.452 78.9325C640.801 79.3624 640.29 79.9211 639.921 80.6086C639.552 81.296 639.386 82.0493 639.423 82.8684L639.825 91.7243L637.727 91.8195ZM647.104 76.3787L649.202 76.2836L649.882 91.2682L647.784 91.3633L647.104 76.3787ZM648.049 73.7082C647.71 73.7236 647.415 73.6268 647.165 73.4179C646.925 73.1986 646.797 72.9191 646.782 72.5794C646.767 72.2398 646.869 71.9549 647.089 71.7247C647.318 71.484 647.602 71.356 647.942 71.3406C648.272 71.3256 648.557 71.4278 648.797 71.6472C649.047 71.8561 649.179 72.1304 649.194 72.47C649.21 72.8097 649.108 73.0996 648.889 73.3398C648.669 73.57 648.389 73.6928 648.049 73.7082ZM657.568 91.2049C656.748 91.222 655.942 91.1084 655.15 90.8641C654.358 90.6197 653.661 90.2709 653.06 89.8177C652.459 89.3644 652.02 88.8388 651.742 88.2408L653.52 87.3793C653.698 87.7617 654.009 88.1079 654.453 88.4181C654.907 88.7178 655.419 88.9549 655.987 89.1293C656.555 89.2938 657.114 89.3635 657.663 89.3386C658.273 89.311 658.837 89.1852 659.358 88.9614C659.878 88.7376 660.295 88.4334 660.608 88.0489C660.93 87.6538 661.08 87.2016 661.057 86.6921C661.032 86.1427 660.833 85.7213 660.459 85.4279C660.085 85.1246 659.619 84.8954 659.061 84.7405C658.503 84.5757 657.931 84.4214 657.344 84.2779C656.272 84.0362 655.323 83.7589 654.498 83.446C653.673 83.133 653.018 82.7173 652.534 82.1987C652.06 81.6696 651.803 80.9755 651.764 80.1164C651.723 79.2074 651.942 78.4116 652.422 77.7292C652.911 77.0363 653.562 76.4913 654.375 76.094C655.197 75.6863 656.083 75.461 657.032 75.4179C658.251 75.3626 659.371 75.5771 660.394 76.0612C661.427 76.5449 662.189 77.2161 662.678 78.0748L661.03 79.1556C660.832 78.7542 660.531 78.4124 660.128 78.1304C659.725 77.8484 659.27 77.6338 658.762 77.4866C658.265 77.339 657.762 77.2718 657.252 77.2849C656.612 77.3039 656.022 77.4258 655.481 77.6505C654.941 77.8652 654.509 78.1701 654.186 78.5651C653.874 78.9596 653.73 79.4316 653.755 79.9811C653.78 80.5305 653.964 80.9426 654.307 81.2174C654.649 81.4821 655.104 81.6917 655.672 81.8462C656.249 81.9902 656.897 82.1609 657.617 82.3585C658.539 82.607 659.408 82.8979 660.224 83.2313C661.04 83.5647 661.705 83.995 662.22 84.5222C662.734 85.0494 663.005 85.7329 663.033 86.5724C663.074 87.4715 662.84 88.2679 662.331 88.9617C661.822 89.6555 661.146 90.2017 660.303 90.6003C659.46 90.9889 658.548 91.1904 657.568 91.2049ZM672.425 77.3324L668.844 77.4948L669.413 90.3823L667.315 90.4774L666.746 77.59L664.034 77.713L663.939 75.6152L666.651 75.4922L666.422 70.7877L668.52 70.6925L668.749 75.397L672.33 75.2346L672.425 77.3324ZM675.234 90.1183L674.554 75.1337L676.652 75.0385L676.746 77.1064C677.251 76.3227 677.913 75.6871 678.732 75.1995C679.55 74.7119 680.459 74.4454 681.458 74.4001C682.587 74.3489 683.634 74.5817 684.598 75.0985C685.562 75.6054 686.33 76.3063 686.901 77.2014C687.389 76.2583 688.084 75.491 688.989 74.8994C689.892 74.2978 690.909 73.9714 692.037 73.9202C693.166 73.869 694.208 74.0971 695.162 74.6044C696.116 75.1117 696.888 75.8174 697.48 76.7215C698.071 77.6256 698.393 78.6421 698.444 79.771L698.865 89.0464L696.767 89.1416L696.367 80.3306C696.331 79.5315 696.103 78.8011 695.682 78.1394C695.262 77.4778 694.713 76.9571 694.035 76.5775C693.366 76.1874 692.633 76.0104 691.833 76.0467C691.034 76.0829 690.314 76.3108 689.672 76.7303C689.04 77.1394 688.545 77.6924 688.186 78.3893C687.827 79.0763 687.667 79.8544 687.706 80.7235L688.106 89.5344L686.008 89.6296L685.608 80.8186C685.569 79.9495 685.339 79.1892 684.919 78.5375C684.499 77.8759 683.95 77.3702 683.274 77.0205C682.597 76.6608 681.859 76.4991 681.06 76.5353C680.27 76.5711 679.556 76.8138 678.915 77.2633C678.275 77.7027 677.775 78.271 677.416 78.9679C677.057 79.6649 676.896 80.413 676.932 81.2122L677.332 90.0231L675.234 90.1183ZM712.762 73.4006L714.86 73.3055L715.54 88.2901L713.442 88.3852L713.241 85.6015C712.794 86.5727 712.145 87.373 711.292 88.0022C710.44 88.6215 709.404 88.9588 708.185 89.0141C707.086 89.0639 706.048 88.9058 705.07 88.5397C704.092 88.1637 703.222 87.6275 702.46 86.9314C701.697 86.2352 701.09 85.4169 700.637 84.4764C700.184 83.536 699.932 82.5164 699.882 81.4175C699.833 80.3386 699.987 79.3156 700.344 78.3484C700.71 77.3808 701.232 76.5213 701.908 75.7699C702.595 75.018 703.399 74.421 704.32 73.9788C705.25 73.5261 706.255 73.2754 707.334 73.2264C708.583 73.1698 709.685 73.4201 710.641 73.9773C711.597 74.5246 712.371 75.2653 712.964 76.1994L712.762 73.4006ZM708.048 86.9782C709.117 86.9297 710.024 86.6283 710.769 86.074C711.515 85.5096 712.072 84.7736 712.441 83.8659C712.82 82.9578 712.986 81.9693 712.937 80.9004C712.887 79.8015 712.633 78.8221 712.173 77.962C711.713 77.092 711.087 76.4146 710.294 75.9301C709.502 75.4455 708.576 75.2272 707.517 75.2752C706.458 75.3233 705.501 75.632 704.646 76.2013C703.8 76.7602 703.138 77.4959 702.659 78.4086C702.19 79.3208 701.98 80.3163 702.028 81.3952C702.078 82.4841 702.387 83.4611 702.957 84.3261C703.527 85.1812 704.258 85.8488 705.15 86.3288C706.053 86.8084 707.019 87.0249 708.048 86.9782ZM722.732 88.2492C721.912 88.2663 721.106 88.1527 720.314 87.9084C719.522 87.664 718.826 87.3152 718.224 86.862C717.623 86.4087 717.184 85.8831 716.907 85.2851L718.684 84.4236C718.862 84.806 719.173 85.1522 719.617 85.4624C720.072 85.7621 720.583 85.9992 721.151 86.1736C721.719 86.3381 722.278 86.4078 722.827 86.3829C723.437 86.3553 724.002 86.2295 724.522 86.0057C725.043 85.7819 725.459 85.4777 725.772 85.0932C726.094 84.6981 726.244 84.2459 726.221 83.7364C726.196 83.187 725.997 82.7656 725.623 82.4722C725.249 82.1689 724.783 81.9397 724.226 81.7848C723.668 81.62 723.095 81.4657 722.508 81.3222C721.436 81.0805 720.487 80.8032 719.662 80.4903C718.837 80.1773 718.183 79.7616 717.699 79.243C717.224 78.7139 716.968 78.0198 716.929 77.1607C716.887 76.2517 717.106 75.4559 717.586 74.7735C718.075 74.0806 718.726 73.5356 719.539 73.1383C720.361 72.7306 721.247 72.5053 722.196 72.4622C723.415 72.4069 724.536 72.6214 725.559 73.1055C726.592 73.5892 727.353 74.2604 727.842 75.1191L726.195 76.1999C725.996 75.7985 725.695 75.4567 725.292 75.1747C724.889 74.8927 724.434 74.6781 723.927 74.5309C723.429 74.3833 722.926 74.3161 722.416 74.3292C721.776 74.3482 721.186 74.4701 720.646 74.6948C720.105 74.9095 719.673 75.2144 719.351 75.6094C719.038 76.0039 718.895 76.4759 718.919 77.0254C718.944 77.5748 719.128 77.9869 719.471 78.2617C719.813 78.5264 720.268 78.736 720.836 78.8905C721.413 79.0345 722.061 79.2052 722.781 79.4028C723.703 79.6513 724.572 79.9422 725.388 80.2756C726.204 80.609 726.87 81.0393 727.384 81.5665C727.898 82.0937 728.17 82.7771 728.198 83.6167C728.238 84.5158 728.004 85.3122 727.495 86.006C726.986 86.6998 726.31 87.246 725.467 87.6446C724.624 88.0332 723.712 88.2347 722.732 88.2492ZM748.904 71.7613L751.002 71.6662L751.682 86.6508L749.584 86.7459L749.383 83.9622C748.936 84.9334 748.287 85.7336 747.435 86.3629C746.582 86.9822 745.546 87.3195 744.327 87.3748C743.228 87.4246 742.19 87.2665 741.213 86.9004C740.234 86.5243 739.364 85.9882 738.602 85.292C737.84 84.5959 737.232 83.7776 736.779 82.8371C736.326 81.8967 736.074 80.877 736.024 79.7782C735.976 78.6993 736.129 77.6762 736.486 76.7091C736.852 75.7415 737.374 74.882 738.051 74.1305C738.737 73.3787 739.541 72.7816 740.462 72.3394C741.392 71.8868 742.397 71.636 743.476 71.5871C744.725 71.5305 745.827 71.7808 746.783 72.338C747.739 72.8853 748.514 73.6259 749.106 74.56L748.904 71.7613ZM744.19 85.3389C745.259 85.2904 746.166 84.989 746.912 84.4346C747.657 83.8703 748.214 83.1343 748.583 82.2266C748.963 81.3185 749.128 80.33 749.079 79.2611C749.03 78.1622 748.775 77.1828 748.316 76.3227C747.856 75.4526 747.229 74.7753 746.437 74.2907C745.644 73.8062 744.718 73.5879 743.659 73.6359C742.6 73.6839 741.643 73.9926 740.788 74.562C739.942 75.1208 739.28 75.8566 738.801 76.7693C738.332 77.6815 738.122 78.677 738.171 79.7559C738.22 80.8448 738.53 81.8217 739.099 82.6868C739.669 83.5419 740.4 84.2095 741.292 84.6895C742.195 85.1691 743.161 85.3856 744.19 85.3389ZM766.877 76.667L767.298 85.9425L765.2 86.0376L764.798 77.1817C764.761 76.3626 764.527 75.6274 764.097 74.9762C763.667 74.325 763.109 73.8148 762.421 73.4456C761.734 73.0764 760.981 72.9103 760.161 72.9475C759.352 72.9842 758.617 73.2177 757.956 73.6481C757.305 74.0781 756.794 74.6368 756.425 75.3242C756.056 76.0116 755.89 76.7649 755.927 77.5841L756.329 86.44L754.231 86.5351L753.551 71.5505L755.649 71.4554L755.743 73.5233C756.238 72.74 756.9 72.1044 757.729 71.6163C758.557 71.1283 759.471 70.8616 760.47 70.8163C761.599 70.7651 762.64 70.9931 763.594 71.5004C764.548 72.0077 765.321 72.7134 765.913 73.6176C766.504 74.5217 766.826 75.5382 766.877 76.667ZM780.869 62.8038L782.967 62.7086L783.986 85.1855L781.889 85.2807L781.761 82.4785C781.285 83.4611 780.606 84.2677 779.724 84.8983C778.851 85.5185 777.795 85.8567 776.557 85.9129C775.468 85.9623 774.44 85.8037 773.472 85.4372C772.504 85.0706 771.64 84.5443 770.878 83.8581C770.125 83.1615 769.523 82.3479 769.07 81.4175C768.618 80.487 768.367 79.4774 768.317 78.3885C768.268 77.2996 768.426 76.2714 768.793 75.3038C769.159 74.3262 769.685 73.4615 770.372 72.7096C771.068 71.9472 771.882 71.3398 772.812 70.8871C773.742 70.4345 774.752 70.1835 775.841 70.1341C777.08 70.0779 778.162 70.3241 779.088 70.8728C780.023 71.4109 780.772 72.1427 781.335 73.0682L780.869 62.8038ZM776.479 83.8743C777.548 83.8258 778.455 83.5244 779.201 82.9701C779.946 82.4057 780.503 81.6697 780.873 80.762C781.252 79.8539 781.417 78.8654 781.369 77.7965C781.319 76.6976 781.064 75.7182 780.605 74.8581C780.145 73.9881 779.519 73.3107 778.726 72.8262C777.933 72.3416 777.007 72.1233 775.948 72.1713C774.89 72.2194 773.938 72.5278 773.092 73.0967C772.247 73.6556 771.585 74.3914 771.105 75.304C770.626 76.2167 770.411 77.2124 770.46 78.2913C770.509 79.3802 770.819 80.3572 771.389 81.2222C771.958 82.0773 772.689 82.7449 773.582 83.2249C774.484 83.7045 775.45 83.921 776.479 83.8743ZM806.045 63.1634L808.143 63.0682L809.094 84.0467L806.997 84.1418L806.534 73.9523L795.521 74.4518L795.983 84.6414L793.885 84.7365L792.934 63.7581L795.031 63.6629L795.426 72.354L806.439 71.8544L806.045 63.1634ZM823.775 68.3654L825.873 68.2702L826.552 83.2548L824.454 83.35L824.253 80.5662C823.807 81.5375 823.157 82.3377 822.305 82.967C821.452 83.5862 820.416 83.9235 819.197 83.9788C818.099 84.0287 817.06 83.8705 816.083 83.5045C815.105 83.1284 814.235 82.5923 813.472 81.8961C812.71 81.1999 812.102 80.3816 811.649 79.4412C811.196 78.5007 810.945 77.4811 810.895 76.3822C810.846 75.3033 811 74.2803 811.356 73.3132C811.723 72.3456 812.244 71.486 812.921 70.7346C813.608 69.9827 814.411 69.3857 815.332 68.9435C816.263 68.4909 817.267 68.2401 818.346 68.1912C819.595 68.1345 820.697 68.3848 821.654 68.9421C822.609 69.4893 823.384 70.23 823.977 71.1641L823.775 68.3654ZM819.06 81.9429C820.129 81.8945 821.036 81.593 821.782 81.0387C822.527 80.4743 823.084 79.7383 823.454 78.8307C823.833 77.9226 823.998 76.934 823.95 75.8651C823.9 74.7663 823.645 73.7868 823.186 72.9267C822.726 72.0567 822.1 71.3794 821.307 70.8948C820.514 70.4102 819.588 70.1919 818.529 70.24C817.47 70.288 816.513 70.5967 815.658 71.166C814.813 71.7249 814.15 72.4607 813.671 73.3733C813.202 74.2855 812.992 75.2811 813.041 76.3599C813.09 77.4488 813.4 78.4258 813.97 79.2909C814.539 80.146 815.27 80.8135 816.163 81.2936C817.065 81.7732 818.031 81.9896 819.06 81.9429ZM829.306 83.1299L828.287 60.653L830.384 60.5579L831.404 83.0347L829.306 83.1299ZM834.564 82.8914L833.544 60.4145L835.642 60.3194L836.661 82.7963L834.564 82.8914ZM846.315 82.7488C844.936 82.8114 843.662 82.5138 842.491 81.8562C841.329 81.1981 840.382 80.2901 839.649 79.1321C838.925 77.9637 838.531 76.6553 838.465 75.2068C838.415 74.1079 838.564 73.0751 838.91 72.1084C839.256 71.1317 839.753 70.2683 840.399 69.5183C841.056 68.7578 841.829 68.1521 842.719 67.7013C843.61 67.2505 844.57 67.0017 845.599 66.9551C846.977 66.8925 848.247 67.1903 849.408 67.8484C850.579 68.506 851.526 69.419 852.25 70.5874C852.984 71.7554 853.384 73.0686 853.45 74.5271C853.499 75.616 853.35 76.6438 853.004 77.6105C852.657 78.5772 852.156 79.4408 851.5 80.2013C850.853 80.9513 850.085 81.5518 849.194 82.0026C848.314 82.453 847.354 82.7017 846.315 82.7488ZM846.22 80.651C847.239 80.6048 848.141 80.2986 848.926 79.7324C849.721 79.1558 850.333 78.4173 850.762 77.5169C851.202 76.6161 851.398 75.6512 851.352 74.6222C851.304 73.5733 851.021 72.6202 850.501 71.7628C849.982 70.8955 849.3 70.2157 848.457 69.7234C847.624 69.2306 846.703 69.0071 845.694 69.0529C844.675 69.0991 843.768 69.4105 842.973 69.9871C842.188 70.5533 841.576 71.2868 841.136 72.1876C840.706 73.088 840.515 74.0627 840.563 75.1116C840.612 76.1905 840.901 77.1584 841.43 78.0153C841.959 78.8622 842.645 79.5268 843.488 80.0091C844.33 80.4814 845.241 80.6954 846.22 80.651ZM861.513 81.6691L859.355 81.767L853.655 67.0101L855.708 66.9169L860.332 78.8097L863.83 66.5486L866.048 66.448L870.641 78.342L874.139 66.081L876.207 65.9872L871.867 81.1994L869.694 81.298L865.035 69.2868L861.513 81.6691ZM884.955 80.9962C883.577 81.0587 882.302 80.7612 881.131 80.1036C879.97 79.4455 879.023 78.5375 878.29 77.3795C877.566 76.2111 877.171 74.9026 877.105 73.4541C877.056 72.3553 877.204 71.3225 877.551 70.3558C877.897 69.3791 878.393 68.5157 879.04 67.7656C879.696 67.0051 880.469 66.3995 881.36 65.9486C882.25 65.4978 883.21 65.2491 884.239 65.2024C885.348 65.1521 886.377 65.3257 887.326 65.7231C888.285 66.1201 889.117 66.6979 889.822 67.4568C890.537 68.2151 891.088 69.1161 891.476 70.1596C891.874 71.2026 892.07 72.3399 892.066 73.5714L879.359 74.1477C879.522 75.0913 879.86 75.9268 880.374 76.6543C880.897 77.3813 881.544 77.9476 882.313 78.3532C883.091 78.7483 883.941 78.93 884.86 78.8983C885.859 78.853 886.746 78.5525 887.522 77.9968C888.308 77.4406 888.925 76.6969 889.373 75.7657L891.523 76.1636C890.984 77.5195 890.129 78.6493 888.959 79.5533C887.788 80.4473 886.454 80.9282 884.955 80.9962ZM879.222 72.4572L889.877 71.9739C889.764 71.0481 889.441 70.2118 888.907 69.4653C888.382 68.7083 887.72 68.1177 886.92 67.6935C886.119 67.2593 885.254 67.0633 884.325 67.1055C883.396 67.1476 882.557 67.4159 881.809 67.9103C881.06 68.3947 880.459 69.0376 880.005 69.839C879.55 70.6305 879.289 71.5032 879.222 72.4572ZM900.954 80.2705C899.575 80.3331 898.3 80.0355 897.129 79.3779C895.968 78.7198 895.021 77.8118 894.288 76.6539C893.564 75.4854 893.17 74.177 893.104 72.7285C893.054 71.6296 893.202 70.5968 893.549 69.6301C893.895 68.6534 894.391 67.7901 895.038 67.04C895.694 66.2795 896.468 65.6738 897.358 65.223C898.249 64.7722 899.208 64.5234 900.237 64.4768C901.346 64.4265 902.375 64.6 903.324 64.9974C904.283 65.3944 905.115 65.9723 905.82 66.7311C906.535 67.4895 907.087 68.3904 907.474 69.4339C907.872 70.477 908.069 71.6143 908.065 72.8457L895.358 73.4221C895.521 74.3657 895.859 75.2012 896.372 75.9287C896.896 76.6557 897.542 77.222 898.311 77.6276C899.09 78.0227 899.939 78.2044 900.858 78.1727C901.857 78.1274 902.745 77.8269 903.52 77.2712C904.306 76.715 904.923 75.9713 905.371 75.04L907.521 75.438C906.982 76.7938 906.128 77.9237 904.957 78.8276C903.787 79.7216 902.452 80.2026 900.954 80.2705ZM895.221 71.7315L905.875 71.2483C905.763 70.3224 905.44 69.4862 904.905 68.7396C904.38 67.9826 903.718 67.3921 902.918 66.9679C902.117 66.5337 901.253 66.3377 900.324 66.3798C899.395 66.422 898.556 66.6902 897.807 67.1847C897.059 67.6691 896.457 68.312 896.003 69.1134C895.548 69.9048 895.288 70.7775 895.221 71.7315ZM923.133 69.5796L923.554 78.855L921.456 78.9502L921.055 70.0943C921.017 69.2751 920.784 68.54 920.354 67.8888C919.924 67.2376 919.365 66.7274 918.678 66.3581C917.99 65.9889 917.237 65.8229 916.418 65.86C915.609 65.8967 914.874 66.1303 914.212 66.5607C913.561 66.9906 913.051 67.5493 912.682 68.2368C912.313 68.9242 912.146 69.6775 912.184 70.4967L912.585 79.3526L910.487 79.4477L909.808 64.4631L911.906 64.368L911.999 66.4358C912.494 65.6526 913.156 65.017 913.985 64.5289C914.814 64.0408 915.728 63.7742 916.727 63.7289C917.855 63.6777 918.897 63.9057 919.851 64.413C920.805 64.9203 921.578 65.626 922.169 66.5301C922.761 67.4342 923.082 68.4507 923.133 69.5796ZM930.349 71.3244C930.304 70.3354 930.507 69.4153 930.959 68.5639C931.421 67.7121 932.076 67.0268 932.923 66.5078C933.528 66.1601 933.991 65.6686 934.313 65.0333C934.634 64.3881 934.777 63.6909 934.743 62.9417C934.71 62.2124 934.501 61.5613 934.114 60.9882C933.738 60.4147 933.242 59.9667 932.627 59.6442C932.022 59.3213 931.359 59.1762 930.64 59.2088C929.921 59.2414 929.269 59.4461 928.686 59.823C928.112 60.1993 927.664 60.6901 927.341 61.2954C927.018 61.9006 926.873 62.5679 926.907 63.2972L924.809 63.3923C924.758 62.2834 924.982 61.2622 925.481 60.3287C925.979 59.3952 926.67 58.6381 927.555 58.0574C928.449 57.4763 929.446 57.1608 930.545 57.1109C931.654 57.0606 932.675 57.2846 933.609 57.7828C934.552 58.2806 935.314 58.9717 935.895 59.8563C936.476 60.7409 936.791 61.7377 936.841 62.8465C936.892 63.9754 936.665 65.0318 936.159 66.0157C935.653 66.9896 934.932 67.7581 933.996 68.3211C933.49 68.6243 933.098 69.0325 932.821 69.5456C932.544 70.0587 932.419 70.6199 932.447 71.2293L930.349 71.3244ZM931.682 78.8768C931.353 78.8917 931.063 78.7847 930.812 78.5559C930.571 78.3265 930.443 78.047 930.429 77.7174C930.414 77.3877 930.516 77.1028 930.735 76.8626C930.964 76.622 931.244 76.4942 931.574 76.4792C931.903 76.4643 932.188 76.5665 932.428 76.7858C932.679 77.0047 932.811 77.279 932.826 77.6086C932.841 77.9383 932.734 78.2284 932.505 78.4791C932.286 78.7292 932.012 78.8618 931.682 78.8768ZM1014.95 74.7095L1014 53.7311L1021.09 53.4096C1022.11 53.3634 1023.04 53.5313 1023.89 53.9132C1024.74 54.2847 1025.44 54.859 1025.96 55.636C1026.5 56.4025 1026.79 57.3502 1026.84 58.479C1026.87 59.1184 1026.78 59.7329 1026.58 60.3228C1026.38 60.9126 1026.1 61.4207 1025.75 61.847C1025.4 62.2634 1025.01 62.5412 1024.58 62.6806C1025.21 62.8123 1025.76 63.0678 1026.23 63.447C1026.69 63.8162 1027.08 64.264 1027.4 64.7903C1027.71 65.3066 1027.95 65.8565 1028.1 66.44C1028.27 67.0231 1028.37 67.5993 1028.39 68.1687C1028.45 69.3475 1028.23 70.3932 1027.75 71.3059C1027.28 72.2181 1026.63 72.9434 1025.8 73.4818C1024.96 74.0103 1024.02 74.2983 1022.97 74.3459L1014.95 74.7095ZM1016.96 72.7413L1022.72 72.4803C1023.45 72.4472 1024.1 72.2275 1024.67 71.8212C1025.25 71.4144 1025.7 70.8734 1026.02 70.1982C1026.35 69.5226 1026.5 68.7702 1026.46 67.941C1026.43 67.2018 1026.22 66.5157 1025.83 65.8826C1025.45 65.2392 1024.95 64.7312 1024.33 64.3588C1023.72 63.976 1023.05 63.8011 1022.32 63.8342L1016.57 64.0952L1016.96 72.7413ZM1016.49 62.2521L1021.3 62.0339C1022.29 61.989 1023.12 61.6661 1023.79 61.0649C1024.47 60.4533 1024.79 59.6181 1024.74 58.5592C1024.69 57.4004 1024.3 56.5574 1023.56 56.0301C1022.84 55.4924 1021.98 55.246 1020.99 55.2908L1016.18 55.509L1016.49 62.2521ZM1037.24 74.089C1035.86 74.1516 1034.58 73.854 1033.41 73.1964C1032.25 72.5383 1031.3 71.6303 1030.57 70.4723C1029.85 69.3039 1029.45 67.9955 1029.39 66.547C1029.34 65.4481 1029.49 64.4153 1029.83 63.4486C1030.18 62.4719 1030.68 61.6085 1031.32 60.8585C1031.98 60.098 1032.75 59.4923 1033.64 59.0415C1034.53 58.5907 1035.49 58.3419 1036.52 58.2953C1037.63 58.245 1038.66 58.4185 1039.61 58.8159C1040.57 59.2129 1041.4 59.7908 1042.1 60.5496C1042.82 61.308 1043.37 62.2089 1043.76 63.2524C1044.16 64.2955 1044.35 65.4327 1044.35 66.6642L1031.64 67.2406C1031.8 68.1841 1032.14 69.0197 1032.66 69.7472C1033.18 70.4742 1033.83 71.0405 1034.59 71.446C1035.37 71.8412 1036.22 72.0229 1037.14 71.9912C1038.14 71.9459 1039.03 71.6454 1039.8 71.0896C1040.59 70.5335 1041.21 69.7898 1041.65 68.8585L1043.81 69.2565C1043.27 70.6123 1042.41 71.7422 1041.24 72.6461C1040.07 73.5401 1038.74 74.0211 1037.24 74.089ZM1031.5 65.55L1042.16 65.0668C1042.05 64.1409 1041.72 63.3047 1041.19 62.5581C1040.66 61.8011 1040 61.2105 1039.2 60.7864C1038.4 60.3522 1037.54 60.1562 1036.61 60.1983C1035.68 60.2404 1034.84 60.5087 1034.09 61.0031C1033.34 61.4876 1032.74 62.1305 1032.29 62.9319C1031.83 63.7233 1031.57 64.596 1031.5 65.55ZM1057.15 69.0264L1059.07 69.9604C1058.44 70.9402 1057.61 71.7387 1056.58 72.3556C1055.57 72.9722 1054.45 73.3081 1053.24 73.3634C1051.86 73.4259 1050.58 73.1284 1049.41 72.4707C1048.25 71.8127 1047.3 70.9047 1046.57 69.7467C1045.85 68.5783 1045.45 67.2698 1045.39 65.8213C1045.34 64.7224 1045.48 63.6897 1045.83 62.723C1046.18 61.7463 1046.67 60.8829 1047.32 60.1328C1047.98 59.3723 1048.75 58.7666 1049.64 58.3158C1050.53 57.865 1051.49 57.6163 1052.52 57.5696C1053.74 57.5143 1054.88 57.7478 1055.94 58.2701C1057.02 58.792 1057.92 59.517 1058.64 60.4452L1056.81 61.5341C1056.26 60.8984 1055.62 60.4222 1054.87 60.1056C1054.13 59.7791 1053.37 59.633 1052.61 59.6675C1051.61 59.7132 1050.7 60.0244 1049.91 60.601C1049.11 61.1676 1048.5 61.9013 1048.06 62.8022C1047.63 63.7026 1047.44 64.6772 1047.48 65.7262C1047.53 66.7751 1047.81 67.7282 1048.33 68.5856C1048.86 69.4425 1049.55 70.117 1050.39 70.6093C1051.24 71.0917 1052.15 71.3104 1053.14 71.2655C1053.96 71.2284 1054.72 71.0037 1055.42 70.5914C1056.12 70.1792 1056.7 69.6575 1057.15 69.0264ZM1072.89 57.0663L1074.98 56.9711L1075.66 71.9557L1073.57 72.0509L1073.36 69.2671C1072.92 70.2384 1072.27 71.0386 1071.42 71.6679C1070.56 72.2872 1069.53 72.6244 1068.31 72.6797C1067.21 72.7296 1066.17 72.5714 1065.19 72.2054C1064.22 71.8293 1063.35 71.2932 1062.58 70.597C1061.82 69.9008 1061.21 69.0825 1060.76 68.1421C1060.31 67.2017 1060.06 66.182 1060.01 65.0831C1059.96 64.0042 1060.11 62.9812 1060.47 62.0141C1060.83 61.0465 1061.35 60.1869 1062.03 59.4355C1062.72 58.6836 1063.52 58.0866 1064.44 57.6444C1065.37 57.1918 1066.38 56.941 1067.46 56.8921C1068.71 56.8354 1069.81 57.0857 1070.76 57.643C1071.72 58.1902 1072.49 58.9309 1073.09 59.865L1072.89 57.0663ZM1068.17 70.6439C1069.24 70.5954 1070.15 70.294 1070.89 69.7396C1071.64 69.1753 1072.19 68.4393 1072.56 67.5316C1072.94 66.6235 1073.11 65.635 1073.06 64.5661C1073.01 63.4672 1072.76 62.4877 1072.3 61.6277C1071.84 60.7576 1071.21 60.0803 1070.42 59.5957C1069.62 59.1111 1068.7 58.8929 1067.64 58.9409C1066.58 58.9889 1065.62 59.2976 1064.77 59.8669C1063.92 60.4258 1063.26 61.1616 1062.78 62.0742C1062.31 62.9864 1062.1 63.982 1062.15 65.0609C1062.2 66.1497 1062.51 67.1267 1063.08 67.9918C1063.65 68.8469 1064.38 69.5144 1065.27 69.9945C1066.18 70.4741 1067.14 70.6905 1068.17 70.6439ZM1077.35 66.1282L1076.93 56.8827L1079.03 56.7876L1079.43 65.6135C1079.47 66.4326 1079.7 67.1678 1080.13 67.819C1080.56 68.4702 1081.12 68.9804 1081.81 69.3496C1082.51 69.7184 1083.26 69.8844 1084.07 69.8477C1084.89 69.8106 1085.62 69.5773 1086.26 69.1478C1086.91 68.7178 1087.42 68.1591 1087.79 67.4717C1088.16 66.7842 1088.32 66.031 1088.29 65.2118L1087.89 56.3859L1089.98 56.2907L1090.68 71.2746L1088.58 71.3698L1088.47 69.2726C1087.98 70.0559 1087.31 70.6915 1086.49 71.1795C1085.67 71.6671 1084.76 71.9336 1083.76 71.9789C1082.63 72.0301 1081.59 71.8021 1080.63 71.2948C1079.68 70.7875 1078.91 70.0818 1078.32 69.1776C1077.72 68.2735 1077.4 67.257 1077.35 66.1282ZM1097.86 71.2343C1097.04 71.2515 1096.23 71.1379 1095.44 70.8935C1094.65 70.6491 1093.95 70.3003 1093.35 69.8471C1092.75 69.3939 1092.31 68.8682 1092.03 68.2702L1093.81 67.4087C1093.99 67.7911 1094.3 68.1374 1094.74 68.4475C1095.2 68.7473 1095.71 68.9844 1096.28 69.1588C1096.85 69.3232 1097.4 69.393 1097.95 69.368C1098.56 69.3404 1099.13 69.2147 1099.65 68.9909C1100.17 68.7671 1100.59 68.4629 1100.9 68.0783C1101.22 67.6833 1101.37 67.231 1101.35 66.7216C1101.32 66.1721 1101.12 65.7507 1100.75 65.4573C1100.38 65.154 1099.91 64.9249 1099.35 64.77C1098.79 64.6051 1098.22 64.4509 1097.63 64.3073C1096.56 64.0656 1095.61 63.7883 1094.79 63.4754C1093.96 63.1625 1093.31 62.7467 1092.83 62.2281C1092.35 61.699 1092.09 61.005 1092.06 60.1459C1092.01 59.2368 1092.23 58.441 1092.71 57.7586C1093.2 57.0657 1093.85 56.5207 1094.67 56.1234C1095.49 55.7158 1096.37 55.4904 1097.32 55.4473C1098.54 55.3921 1099.66 55.6065 1100.69 56.0906C1101.72 56.5743 1102.48 57.2455 1102.97 58.1042L1101.32 59.185C1101.12 58.7836 1100.82 58.4419 1100.42 58.1598C1100.02 57.8778 1099.56 57.6632 1099.05 57.5161C1098.56 57.3684 1098.05 57.3012 1097.54 57.3143C1096.9 57.3333 1096.31 57.4552 1095.77 57.6799C1095.23 57.8946 1094.8 58.1995 1094.48 58.5945C1094.16 58.9891 1094.02 59.4611 1094.05 60.0105C1094.07 60.5599 1094.25 60.972 1094.6 61.2468C1094.94 61.5115 1095.39 61.7211 1095.96 61.8756C1096.54 62.0196 1097.19 62.1904 1097.91 62.388C1098.83 62.6364 1099.7 62.9274 1100.51 63.2607C1101.33 63.5941 1102 64.0244 1102.51 64.5516C1103.02 65.0789 1103.3 65.7623 1103.32 66.6019C1103.36 67.5009 1103.13 68.2974 1102.62 68.9912C1102.11 69.6849 1101.44 70.2311 1100.59 70.6297C1099.75 71.0183 1098.84 71.2198 1097.86 71.2343ZM1112.14 70.6917C1110.76 70.7543 1109.48 70.4567 1108.31 69.7991C1107.15 69.1411 1106.2 68.233 1105.47 67.0751C1104.75 65.9067 1104.35 64.5982 1104.29 63.1497C1104.24 62.0508 1104.39 61.018 1104.73 60.0513C1105.08 59.0747 1105.57 58.2113 1106.22 57.4612C1106.88 56.7007 1107.65 56.095 1108.54 55.6442C1109.43 55.1934 1110.39 54.9447 1111.42 54.898C1112.53 54.8477 1113.56 55.0212 1114.51 55.4187C1115.47 55.8156 1116.3 56.3935 1117 57.1523C1117.72 57.9107 1118.27 58.8117 1118.66 59.8552C1119.06 60.8982 1119.25 62.0355 1119.25 63.2669L1106.54 63.8433C1106.7 64.7869 1107.04 65.6224 1107.56 66.3499C1108.08 67.0769 1108.73 67.6432 1109.49 68.0488C1110.27 68.4439 1111.12 68.6256 1112.04 68.5939C1113.04 68.5486 1113.93 68.2481 1114.7 67.6924C1115.49 67.1362 1116.11 66.3925 1116.55 65.4612L1118.7 65.8592C1118.17 67.215 1117.31 68.3449 1116.14 69.2489C1114.97 70.1428 1113.64 70.6238 1112.14 70.6917ZM1106.4 62.1527L1117.06 61.6695C1116.95 60.7436 1116.62 59.9074 1116.09 59.1609C1115.56 58.4039 1114.9 57.8133 1114.1 57.3891C1113.3 56.9549 1112.44 56.7589 1111.51 56.801C1110.58 56.8432 1109.74 57.1114 1108.99 57.6059C1108.24 58.0903 1107.64 58.7332 1107.19 59.5346C1106.73 60.326 1106.47 61.1987 1106.4 62.1527ZM1138.32 69.5039C1136.91 69.5683 1135.56 69.349 1134.29 68.8463C1133.01 68.3335 1131.88 67.5991 1130.88 66.6432C1129.89 65.6873 1129.09 64.5672 1128.49 63.283C1127.89 61.9889 1127.56 60.5925 1127.49 59.0941C1127.42 57.5956 1127.63 56.1798 1128.11 54.8467C1128.59 53.5036 1129.28 52.311 1130.19 51.269C1131.09 50.227 1132.15 49.398 1133.38 48.7819C1134.6 48.1558 1135.92 47.8106 1137.34 47.7463C1138.77 47.6815 1140.12 47.9055 1141.39 48.4183C1142.67 48.9211 1143.8 49.6504 1144.8 50.6063C1145.79 51.5623 1146.58 52.6875 1147.17 53.9822C1147.77 55.2664 1148.1 56.6577 1148.17 58.1561C1148.24 59.6546 1148.03 61.0754 1147.55 62.4185C1147.08 63.7512 1146.4 64.9385 1145.49 65.9805C1144.59 67.0225 1143.53 67.8566 1142.3 68.4826C1141.08 69.0987 1139.75 69.4391 1138.32 69.5039ZM1138.23 67.4061C1139.38 67.354 1140.44 67.0757 1141.41 66.5713C1142.38 66.0565 1143.23 65.3775 1143.94 64.5344C1144.66 63.6908 1145.21 62.73 1145.58 61.6521C1145.96 60.5737 1146.13 59.4401 1146.07 58.2513C1146.02 57.0525 1145.75 55.9334 1145.27 54.894C1144.8 53.8446 1144.16 52.9375 1143.36 52.1728C1142.58 51.3976 1141.68 50.8029 1140.66 50.3887C1139.65 49.974 1138.57 49.7925 1137.43 49.8441C1136.28 49.8962 1135.22 50.1797 1134.24 50.6945C1133.28 51.1989 1132.43 51.8729 1131.71 52.7165C1130.99 53.5597 1130.45 54.5205 1130.07 55.5988C1129.69 56.6768 1129.54 57.8102 1129.59 58.9989C1129.64 60.2077 1129.91 61.3318 1130.39 62.3712C1130.87 63.4106 1131.5 64.3179 1132.28 65.0931C1133.08 65.8679 1133.98 66.4626 1134.99 66.8772C1136.01 67.2815 1137.09 67.4577 1138.23 67.4061ZM1161.5 64.2933L1163.42 65.2273C1162.79 66.2072 1161.96 67.0056 1160.93 67.6226C1159.92 68.2391 1158.8 68.575 1157.59 68.6303C1156.21 68.6928 1154.93 68.3953 1153.76 67.7377C1152.6 67.0796 1151.65 66.1716 1150.92 65.0136C1150.2 63.8452 1149.8 62.5367 1149.74 61.0882C1149.69 59.9894 1149.83 58.9566 1150.18 57.9899C1150.53 57.0132 1151.02 56.1498 1151.67 55.3997C1152.33 54.6392 1153.1 54.0336 1153.99 53.5828C1154.88 53.1319 1155.84 52.8832 1156.87 52.8365C1158.09 52.7812 1159.23 53.0148 1160.29 53.537C1161.37 54.0589 1162.27 54.7839 1162.99 55.7121L1161.16 56.801C1160.61 56.1653 1159.97 55.6891 1159.22 55.3725C1158.48 55.046 1157.72 54.8999 1156.96 54.9344C1155.96 54.9801 1155.05 55.2913 1154.26 55.8679C1153.46 56.4345 1152.85 57.1683 1152.41 58.0691C1151.98 58.9695 1151.79 59.9442 1151.83 60.9931C1151.88 62.042 1152.16 62.9951 1152.68 63.8525C1153.21 64.7094 1153.9 65.384 1154.74 65.8763C1155.59 66.3586 1156.5 66.5773 1157.49 66.5324C1158.31 66.4953 1159.07 66.2706 1159.77 65.8584C1160.47 65.4461 1161.05 64.9245 1161.5 64.2933ZM1172.88 54.6331L1169.29 54.7956L1169.86 67.683L1167.77 67.7782L1167.2 54.8907L1164.48 55.0137L1164.39 52.9159L1167.1 52.7929L1166.87 48.0884L1168.97 47.9932L1169.2 52.6977L1172.78 52.5353L1172.88 54.6331ZM1188.01 67.2503C1186.73 67.3083 1185.6 67.0795 1184.6 66.564C1183.61 66.0386 1182.81 65.3138 1182.22 64.3897C1181.64 63.4651 1181.32 62.4285 1181.27 61.2796L1183.37 61.1845C1183.4 61.9437 1183.61 62.6351 1183.99 63.2585C1184.37 63.8716 1184.9 64.3532 1185.57 64.7033C1186.23 65.0435 1187.02 65.1932 1187.92 65.1524C1188.68 65.118 1189.38 64.901 1190.02 64.5015C1190.67 64.0915 1191.19 63.5626 1191.57 62.9146C1191.96 62.2563 1192.14 61.5475 1192.1 60.7882C1192.06 59.8392 1191.78 59.0609 1191.28 58.4533C1190.77 57.8357 1190.09 57.3911 1189.23 57.1195C1188.38 56.8379 1187.41 56.7215 1186.33 56.7705L1186.26 55.0322C1187.74 54.9647 1188.92 54.5959 1189.79 53.9258C1190.67 53.2452 1191.09 52.2905 1191.03 51.0618C1191 50.3925 1190.79 49.7915 1190.39 49.2588C1190.01 48.7257 1189.51 48.3077 1188.91 48.0048C1188.32 47.6914 1187.68 47.5499 1187.01 47.5802C1186.34 47.6106 1185.71 47.8097 1185.1 48.1774C1184.51 48.5347 1184.03 48.9969 1183.67 49.564C1183.31 50.1307 1183.15 50.7486 1183.18 51.418L1181.08 51.5131C1181.05 50.7239 1181.18 49.9772 1181.48 49.273C1181.77 48.5587 1182.19 47.924 1182.74 47.3687C1183.29 46.8134 1183.92 46.3694 1184.63 46.0366C1185.35 45.7038 1186.1 45.5193 1186.9 45.4831C1187.95 45.4355 1188.94 45.6511 1189.86 46.1297C1190.79 46.608 1191.56 47.269 1192.16 48.1127C1192.76 48.9564 1193.08 49.9077 1193.13 50.9667C1193.18 51.9956 1192.95 52.9367 1192.46 53.7898C1191.97 54.643 1191.28 55.2598 1190.4 55.6402C1191.19 55.8646 1191.86 56.2295 1192.41 56.735C1192.97 57.2304 1193.39 57.8167 1193.7 58.4937C1194 59.1708 1194.16 59.9039 1194.2 60.6931C1194.25 61.8419 1194 62.9044 1193.44 63.8806C1192.89 64.8568 1192.13 65.6521 1191.17 66.2664C1190.21 66.8702 1189.16 67.1982 1188.01 67.2503ZM1198.35 66.3907L1197.5 47.5101L1195.25 47.6121L1195.75 45.4871L1199.5 45.3171L1200.45 66.2956L1198.35 66.3907ZM1210.12 60.9322L1210.02 58.8344L1225.01 58.1547L1225.1 60.2525L1210.12 60.9322ZM1209.84 54.8784L1209.75 52.7806L1224.73 52.1009L1224.83 54.1988L1209.84 54.8784ZM1234.62 64.7457L1233.67 43.7672L1240.61 43.4525C1242.06 43.3868 1243.43 43.5999 1244.72 44.0918C1246.02 44.5737 1247.16 45.2774 1248.17 46.2029C1249.17 47.1185 1249.97 48.1983 1250.57 49.4426C1251.17 50.6763 1251.51 52.0175 1251.57 53.466C1251.64 54.9145 1251.43 56.2856 1250.93 57.5792C1250.45 58.8624 1249.75 60.0102 1248.84 61.0227C1247.92 62.0252 1246.84 62.83 1245.6 63.4369C1244.36 64.0339 1243.01 64.3653 1241.56 64.431L1234.62 64.7457ZM1236.63 62.5527L1241.47 62.3331C1242.62 62.2806 1243.7 62.0166 1244.69 61.5413C1245.69 61.0555 1246.55 60.4106 1247.29 59.6065C1248.02 58.8024 1248.58 57.8861 1248.97 56.8577C1249.36 55.8188 1249.53 54.72 1249.48 53.5611C1249.42 52.4023 1249.15 51.3284 1248.67 50.3394C1248.19 49.3399 1247.55 48.4733 1246.73 47.7394C1245.93 47.0051 1245.01 46.446 1243.99 46.0622C1242.96 45.6684 1241.86 45.4978 1240.7 45.5504L1235.86 45.7699L1236.63 62.5527ZM1260.72 63.9526C1259.34 64.0151 1258.06 63.7176 1256.89 63.06C1255.73 62.4019 1254.78 61.4939 1254.05 60.3359C1253.33 59.1675 1252.93 57.859 1252.87 56.4105C1252.82 55.3117 1252.96 54.2789 1253.31 53.3122C1253.66 52.3355 1254.15 51.4721 1254.8 50.722C1255.46 49.9615 1256.23 49.3559 1257.12 48.905C1258.01 48.4542 1258.97 48.2055 1260 48.1588C1261.11 48.1085 1262.14 48.2821 1263.09 48.6795C1264.04 49.0765 1264.88 49.6543 1265.58 50.4132C1266.3 51.1716 1266.85 52.0725 1267.24 53.116C1267.63 54.1591 1267.83 55.2963 1267.83 56.5278L1255.12 57.1041C1255.28 58.0477 1255.62 58.8832 1256.13 59.6107C1256.66 60.3377 1257.3 60.904 1258.07 61.3096C1258.85 61.7047 1259.7 61.8864 1260.62 61.8547C1261.62 61.8094 1262.51 61.5089 1263.28 60.9532C1264.07 60.397 1264.68 59.6533 1265.13 58.7221L1267.28 59.12C1266.74 60.4759 1265.89 61.6057 1264.72 62.5097C1263.55 63.4037 1262.21 63.8846 1260.72 63.9526ZM1254.98 55.4136L1265.64 54.9303C1265.52 54.0045 1265.2 53.1682 1264.67 52.4217C1264.14 51.6647 1263.48 51.0741 1262.68 50.6499C1261.88 50.2157 1261.01 50.0197 1260.08 50.0619C1259.16 50.104 1258.32 50.3723 1257.57 50.8667C1256.82 51.3511 1256.22 51.994 1255.76 52.7954C1255.31 53.5869 1255.05 54.4596 1254.98 55.4136ZM1280.63 58.89L1282.55 59.824C1281.91 60.8038 1281.08 61.6022 1280.06 62.2192C1279.05 62.8358 1277.93 63.1717 1276.71 63.2269C1275.33 63.2895 1274.06 62.9919 1272.89 62.3343C1271.73 61.6762 1270.78 60.7682 1270.05 59.6103C1269.32 58.4418 1268.93 57.1334 1268.86 55.6849C1268.81 54.586 1268.96 53.5532 1269.31 52.5865C1269.65 51.6098 1270.15 50.7465 1270.8 49.9964C1271.45 49.2359 1272.23 48.6302 1273.12 48.1794C1274.01 47.7286 1274.97 47.4798 1276 47.4332C1277.22 47.3779 1278.36 47.6114 1279.42 48.1337C1280.5 48.6555 1281.4 49.3806 1282.12 50.3088L1280.29 51.3977C1279.74 50.7619 1279.09 50.2858 1278.35 49.9692C1277.6 49.6426 1276.85 49.4966 1276.09 49.531C1275.08 49.5768 1274.18 49.888 1273.39 50.4646C1272.59 51.0312 1271.97 51.7649 1271.53 52.6658C1271.1 53.5661 1270.91 54.5408 1270.96 55.5897C1271.01 56.6386 1271.29 57.5918 1271.81 58.4491C1272.34 59.306 1273.03 59.9806 1273.87 60.4729C1274.71 60.9552 1275.63 61.174 1276.62 61.1291C1277.44 61.0919 1278.2 60.8672 1278.9 60.455C1279.6 60.0428 1280.18 59.5211 1280.63 58.89ZM1291.08 62.1849L1291 60.3268C1291.78 59.5304 1292.64 58.6605 1293.58 57.717C1294.52 56.7635 1295.45 55.7855 1296.36 54.783C1297.29 53.7701 1298.13 52.7759 1298.88 51.8007C1299.64 50.8154 1300.24 49.8923 1300.68 49.0314C1301.13 48.1601 1301.34 47.3998 1301.31 46.7504C1301.28 45.9612 1301.05 45.2508 1300.63 44.6192C1300.22 43.977 1299.68 43.4759 1299.01 43.1158C1298.36 42.7452 1297.63 42.5778 1296.84 42.6136C1296.06 42.6494 1295.34 42.882 1294.7 43.3115C1294.07 43.7306 1293.57 44.2786 1293.21 44.9556C1292.85 45.6226 1292.69 46.3507 1292.73 47.1399L1290.63 47.235C1290.57 46.0363 1290.81 44.9392 1291.35 43.9439C1291.9 42.9482 1292.64 42.1437 1293.58 41.5303C1294.53 40.9069 1295.58 40.5688 1296.75 40.5157C1297.92 40.4627 1299 40.7042 1299.98 41.2401C1300.98 41.7755 1301.78 42.5148 1302.39 43.458C1303.02 44.4007 1303.36 45.4665 1303.41 46.6553C1303.44 47.3645 1303.29 48.1523 1302.95 49.0187C1302.61 49.8746 1302.15 50.7716 1301.55 51.7096C1300.95 52.6377 1300.28 53.5794 1299.52 54.5347C1298.76 55.49 1297.97 56.4269 1297.14 57.3454C1296.31 58.254 1295.5 59.1114 1294.72 59.9178L1304.31 59.4828L1304.4 61.5806L1291.08 62.1849ZM1313.71 61.5489C1312.43 61.6069 1311.25 61.3501 1310.17 60.7783C1309.11 60.206 1308.25 59.4143 1307.59 58.403C1306.93 57.3817 1306.58 56.2467 1306.52 54.998L1308.62 54.9028C1308.66 55.7719 1308.91 56.5614 1309.37 57.2711C1309.83 57.9709 1310.43 58.5193 1311.17 58.9162C1311.92 59.3127 1312.73 59.491 1313.61 59.4511C1314.48 59.4117 1315.27 59.1609 1315.97 58.6987C1316.67 58.2365 1317.21 57.6361 1317.61 56.8973C1318.02 56.1481 1318.2 55.339 1318.16 54.4699C1318.12 53.5908 1317.88 52.8011 1317.42 52.1009C1316.98 51.3902 1316.37 50.8373 1315.59 50.4422C1314.82 50.0366 1313.92 49.8574 1312.88 49.9045L1307.78 50.1356L1309.32 40.3359L1319.14 39.8907L1319.23 41.9885L1311.11 42.3569L1310.27 47.9209L1312.71 47.8251C1314.14 47.7803 1315.41 48.0281 1316.51 48.5685C1317.63 49.1085 1318.51 49.8792 1319.17 50.8805C1319.84 51.8714 1320.2 53.0361 1320.26 54.3747C1320.3 55.3138 1320.16 56.206 1319.84 57.0515C1319.53 57.8965 1319.07 58.6531 1318.46 59.3215C1317.86 59.9794 1317.15 60.5069 1316.34 60.9042C1315.53 61.291 1314.66 61.5059 1313.71 61.5489Z" fill="#171717"/>
</svg>
