<svg width="1450" height="147" viewBox="0 0 1450 147" fill="none" xmlns="http://www.w3.org/2000/svg">
<rect x="7" width="1440" height="147" fill="#232323"/>
<rect width="1449.06" height="63.045" transform="matrix(0.998832 -0.0483143 0.0418018 0.999126 0 78.0103)" fill="white"/>
<path d="M90.3606 97.3805L93.7769 105.495L102.102 108.361L93.9873 111.777L91.1216 120.102L87.7054 111.987L79.3805 109.122L87.4949 105.705L90.3606 97.3805Z" fill="#FB6514"/>
<path d="M1362.36 35.3805L1365.78 43.4949L1374.1 46.3605L1365.99 49.7768L1363.12 58.1017L1359.71 49.9872L1351.38 47.1216L1359.49 43.7053L1362.36 35.3805Z" fill="#FB6514"/>
<path d="M979.361 55.3805L982.777 63.4949L991.102 66.3605L982.987 69.7768L980.122 78.1017L976.705 69.9872L968.381 67.1216L976.495 63.7053L979.361 55.3805Z" fill="#FB6514"/>
<path d="M136.397 114.785L130.081 94.0503L132.239 93.9524L137.462 111.118L141.095 93.5508L142.953 93.4665L148.176 110.632L151.809 93.0648L153.967 92.9669L149.584 114.187L147.096 114.3L142.245 98.3786L138.855 114.674L136.397 114.785ZM169.815 103.975L170.235 113.251L168.137 113.346L167.736 104.49C167.699 103.671 167.465 102.936 167.035 102.284C166.605 101.633 166.046 101.123 165.359 100.754C164.672 100.385 163.918 100.218 163.099 100.256C162.29 100.292 161.555 100.526 160.894 100.956C160.242 101.386 159.732 101.945 159.363 102.632C158.994 103.32 158.828 104.073 158.865 104.892L159.267 113.748L157.169 113.843L156.149 91.3664L158.247 91.2713L158.681 100.831C159.176 100.048 159.838 99.4125 160.666 98.9245C161.495 98.4364 162.409 98.1698 163.408 98.1245C164.537 98.0732 165.578 98.3013 166.532 98.8086C167.486 99.3159 168.259 100.022 168.85 100.926C169.442 101.83 169.763 102.846 169.815 103.975ZM182.02 97.7007L184.238 97.6001L177.061 120.449L174.828 120.55L177.216 112.934L171.156 98.1934L173.449 98.0894L178.133 109.994L182.02 97.7007ZM205.531 89.1266L207.629 89.0314L208.648 111.508L206.55 111.603L206.423 108.801C205.947 109.784 205.268 110.591 204.386 111.221C203.513 111.841 202.457 112.18 201.219 112.236C200.13 112.285 199.101 112.127 198.134 111.76C197.166 111.393 196.302 110.867 195.54 110.181C194.787 109.484 194.185 108.671 193.732 107.74C193.28 106.81 193.029 105.8 192.979 104.711C192.93 103.622 193.088 102.594 193.455 101.627C193.821 100.649 194.347 99.7843 195.034 99.0324C195.73 98.27 196.543 97.6626 197.474 97.2099C198.404 96.7573 199.414 96.5063 200.503 96.4569C201.742 96.4007 202.824 96.6469 203.75 97.1956C204.685 97.7337 205.434 98.4655 205.997 99.391L205.531 89.1266ZM201.141 110.197C202.21 110.149 203.117 109.847 203.863 109.293C204.608 108.729 205.165 107.993 205.535 107.085C205.914 106.177 206.079 105.188 206.031 104.119C205.981 103.02 205.726 102.041 205.267 101.181C204.807 100.311 204.181 99.6335 203.388 99.149C202.595 98.6644 201.669 98.4461 200.61 98.4941C199.551 98.5422 198.599 98.8506 197.754 99.4195C196.909 99.9784 196.246 100.714 195.767 101.627C195.288 102.539 195.073 103.535 195.122 104.614C195.171 105.703 195.481 106.68 196.051 107.545C196.62 108.4 197.351 109.068 198.244 109.548C199.146 110.027 200.112 110.244 201.141 110.197ZM218.291 111.461C216.912 111.524 215.637 111.226 214.466 110.569C213.305 109.911 212.358 109.003 211.625 107.845C210.901 106.676 210.507 105.368 210.441 103.919C210.391 102.82 210.539 101.788 210.886 100.821C211.232 99.8442 211.728 98.9809 212.375 98.2308C213.031 97.4703 213.805 96.8646 214.695 96.4138C215.586 95.963 216.545 95.7143 217.574 95.6676C218.953 95.6051 220.223 95.9028 221.384 96.5609C222.555 97.2185 223.502 98.1315 224.226 99.2999C224.959 100.468 225.359 101.781 225.426 103.24C225.475 104.328 225.326 105.356 224.98 106.323C224.633 107.29 224.132 108.153 223.476 108.914C222.829 109.664 222.06 110.264 221.17 110.715C220.289 111.165 219.33 111.414 218.291 111.461ZM218.196 109.364C219.215 109.317 220.117 109.011 220.902 108.445C221.696 107.868 222.309 107.13 222.738 106.229C223.178 105.329 223.374 104.364 223.328 103.335C223.28 102.286 222.997 101.333 222.477 100.475C221.957 99.608 221.276 98.9282 220.433 98.4359C219.6 97.9432 218.678 97.7197 217.67 97.7654C216.651 97.8116 215.744 98.1231 214.949 98.6997C214.164 99.2658 213.552 99.9993 213.112 100.9C212.682 101.801 212.491 102.775 212.539 103.824C212.588 104.903 212.877 105.871 213.406 106.728C213.935 107.575 214.621 108.239 215.464 108.722C216.306 109.194 217.217 109.408 218.196 109.364ZM237.188 117.722L235.09 117.817L234.071 95.3398L236.168 95.2446L236.296 98.0467C236.772 97.0742 237.446 96.2728 238.319 95.6426C239.191 95.0124 240.247 94.6693 241.485 94.6131C242.574 94.5637 243.602 94.7223 244.57 95.0888C245.548 95.4549 246.413 95.9862 247.165 96.6828C247.917 97.3695 248.519 98.178 248.972 99.1085C249.424 100.039 249.675 101.049 249.725 102.137C249.774 103.226 249.616 104.26 249.25 105.237C248.884 106.215 248.357 107.084 247.671 107.846C246.985 108.598 246.171 109.201 245.231 109.654C244.3 110.106 243.291 110.357 242.202 110.407C240.963 110.463 239.881 110.217 238.955 109.668C238.029 109.12 237.285 108.383 236.722 107.457L237.188 117.722ZM241.563 96.6517C240.514 96.6992 239.612 97.0054 238.857 97.5702C238.111 98.1246 237.548 98.8508 237.169 99.7489C236.789 100.647 236.624 101.641 236.673 102.729C236.722 103.798 236.971 104.768 237.421 105.639C237.881 106.509 238.507 107.191 239.3 107.685C240.104 108.18 241.035 108.403 242.094 108.355C243.132 108.307 244.075 108.004 244.92 107.446C245.776 106.886 246.448 106.155 246.938 105.252C247.427 104.339 247.647 103.333 247.597 102.234C247.548 101.165 247.244 100.203 246.685 99.3473C246.125 98.4818 245.399 97.804 244.506 97.314C243.613 96.8239 242.632 96.6032 241.563 96.6517ZM252.153 109.535L251.474 94.5504L253.572 94.4553L253.665 96.5231C254.16 95.7399 254.822 95.1043 255.651 94.6162C256.48 94.1282 257.394 93.8615 258.393 93.8162C258.972 93.7899 259.535 93.8394 260.081 93.9648L259.321 96.0864C258.896 95.9756 258.483 95.9292 258.084 95.9473C257.275 95.984 256.54 96.2176 255.878 96.648C255.227 97.0779 254.717 97.6366 254.348 98.3241C253.979 99.0115 253.812 99.7648 253.85 100.584L254.251 109.44L252.153 109.535ZM268.031 109.205C266.653 109.268 265.378 108.97 264.207 108.313C263.046 107.655 262.099 106.747 261.366 105.589C260.642 104.42 260.247 103.112 260.182 101.663C260.132 100.564 260.28 99.5315 260.627 98.5648C260.973 97.5881 261.469 96.7247 262.116 95.9747C262.772 95.2142 263.545 94.6085 264.436 94.1577C265.326 93.7069 266.286 93.4581 267.315 93.4115C268.694 93.3489 269.963 93.6467 271.124 94.3048C272.295 94.9624 273.243 95.8754 273.966 97.0438C274.7 98.2118 275.1 99.525 275.166 100.983C275.216 102.072 275.067 103.1 274.72 104.067C274.374 105.034 273.872 105.897 273.216 106.658C272.57 107.408 271.801 108.008 270.911 108.459C270.03 108.909 269.07 109.158 268.031 109.205ZM267.936 107.107C268.955 107.061 269.857 106.755 270.642 106.189C271.437 105.612 272.049 104.874 272.479 103.973C272.919 103.072 273.115 102.108 273.068 101.079C273.021 100.03 272.737 99.0766 272.218 98.2192C271.698 97.3519 271.017 96.6721 270.173 96.1798C269.34 95.687 268.419 95.4635 267.41 95.5093C266.391 95.5555 265.484 95.8669 264.69 96.4435C263.905 97.0097 263.292 97.7432 262.853 98.644C262.423 99.5444 262.232 100.519 262.279 101.568C262.328 102.647 262.618 103.615 263.147 104.472C263.676 105.319 264.362 105.983 265.204 106.466C266.047 106.938 266.957 107.152 267.936 107.107ZM288.681 92.8628L290.779 92.7676L291.484 108.307C291.527 109.266 291.358 110.174 290.977 111.032C290.605 111.89 290.079 112.65 289.399 113.311C288.728 113.982 287.952 114.518 287.069 114.918C286.186 115.319 285.26 115.541 284.291 115.585C283.252 115.632 282.238 115.438 281.247 115.002C280.256 114.577 279.384 113.986 278.629 113.229C277.884 112.472 277.34 111.621 276.996 110.676L278.889 109.704C279.113 110.444 279.498 111.103 280.045 111.678C280.602 112.264 281.243 112.715 281.968 113.033C282.704 113.36 283.446 113.506 284.195 113.472C284.885 113.441 285.543 113.281 286.171 112.992C286.809 112.713 287.373 112.342 287.862 111.879C288.362 111.416 288.748 110.883 289.021 110.28C289.294 109.687 289.416 109.061 289.386 108.402L289.236 105.09C288.759 106.053 288.089 106.844 287.226 107.464C286.374 108.083 285.363 108.419 284.194 108.472C283.145 108.52 282.147 108.36 281.199 107.992C280.261 107.624 279.427 107.097 278.695 106.409C277.962 105.712 277.375 104.897 276.932 103.967C276.5 103.035 276.259 102.025 276.209 100.936C276.16 99.8473 276.308 98.8195 276.655 97.8528C277.011 96.8757 277.522 96.0116 278.189 95.2606C278.855 94.4997 279.639 93.8936 280.539 93.4423C281.45 92.9906 282.429 92.7409 283.478 92.6933C284.647 92.6403 285.684 92.8836 286.589 93.4231C287.504 93.9522 288.243 94.6795 288.806 95.6049L288.681 92.8628ZM284.116 106.434C285.155 106.386 286.037 106.076 286.762 105.503C287.497 104.929 288.049 104.188 288.418 103.28C288.787 102.373 288.948 101.399 288.901 100.361C288.853 99.2916 288.599 98.3271 288.139 97.4671C287.689 96.5965 287.073 95.9138 286.29 95.4188C285.506 94.9138 284.605 94.6844 283.586 94.7306C282.567 94.7768 281.65 95.0837 280.835 95.6512C280.029 96.2083 279.402 96.9424 278.952 97.8537C278.503 98.765 278.303 99.7601 278.352 100.839C278.401 101.918 278.695 102.891 279.235 103.757C279.775 104.613 280.471 105.288 281.324 105.779C282.187 106.261 283.117 106.479 284.116 106.434ZM294.617 107.609L293.938 92.6244L296.035 92.5292L296.129 94.5971C296.624 93.8138 297.286 93.1782 298.115 92.6901C298.944 92.2021 299.857 91.9354 300.856 91.8901C301.436 91.8638 301.999 91.9134 302.545 92.0387L301.785 94.1603C301.36 94.0495 300.947 94.0032 300.548 94.0213C299.738 94.058 299.003 94.2915 298.342 94.7219C297.691 95.1519 297.181 95.7106 296.812 96.398C296.442 97.0854 296.276 97.8387 296.313 98.6579L296.715 107.514L294.617 107.609ZM315.522 91.6453L317.62 91.5502L318.299 106.535L316.202 106.63L316 103.846C315.554 104.817 314.904 105.618 314.052 106.247C313.199 106.866 312.163 107.203 310.945 107.259C309.846 107.309 308.808 107.15 307.83 106.784C306.852 106.408 305.982 105.872 305.219 105.176C304.457 104.48 303.849 103.662 303.396 102.721C302.943 101.781 302.692 100.761 302.642 99.6622C302.593 98.5833 302.747 97.5603 303.103 96.5931C303.47 95.6255 303.991 94.766 304.668 94.0146C305.355 93.2627 306.159 92.6657 307.079 92.2235C308.01 91.7708 309.015 91.5201 310.093 91.4711C311.342 91.4145 312.445 91.6648 313.401 92.222C314.357 92.7693 315.131 93.51 315.724 94.4441L315.522 91.6453ZM310.807 105.223C311.876 105.174 312.783 104.873 313.529 104.319C314.274 103.754 314.832 103.018 315.201 102.111C315.58 101.203 315.745 100.214 315.697 99.1451C315.647 98.0462 315.392 97.0668 314.933 96.2067C314.473 95.3367 313.847 94.6593 313.054 94.1748C312.261 93.6902 311.335 93.4719 310.276 93.5199C309.218 93.568 308.261 93.8766 307.406 94.446C306.56 95.0049 305.898 95.7406 305.418 96.6533C304.949 97.5655 304.739 98.561 304.788 99.6399C304.838 100.729 305.147 101.706 305.717 102.571C306.286 103.426 307.017 104.093 307.91 104.574C308.813 105.053 309.778 105.27 310.807 105.223ZM320.848 106.419L320.169 91.4346L322.267 91.3394L322.36 93.4073C322.865 92.6236 323.527 91.988 324.346 91.5004C325.165 91.0128 326.074 90.7463 327.073 90.701C328.201 90.6498 329.248 90.8826 330.213 91.3994C331.176 91.9063 331.944 92.6072 332.515 93.5023C333.003 92.5592 333.699 91.7919 334.603 91.2003C335.507 90.5987 336.523 90.2723 337.652 90.2211C338.781 90.1699 339.822 90.398 340.776 90.9053C341.73 91.4126 342.503 92.1183 343.094 93.0224C343.686 93.9265 344.007 94.943 344.058 96.0719L344.479 105.347L342.381 105.442L341.982 96.6315C341.945 95.8324 341.717 95.102 341.297 94.4403C340.876 93.7787 340.327 93.258 339.649 92.8784C338.981 92.4883 338.247 92.3113 337.448 92.3476C336.649 92.3838 335.928 92.6117 335.287 93.0312C334.655 93.4403 334.159 93.9933 333.8 94.6903C333.441 95.3772 333.281 96.1553 333.321 97.0244L333.72 105.835L331.622 105.93L331.223 97.1195C331.183 96.2504 330.954 95.4901 330.534 94.8384C330.113 94.1768 329.565 93.6711 328.888 93.3214C328.211 92.9617 327.473 92.8 326.674 92.8362C325.885 92.872 325.17 93.1147 324.53 93.5642C323.889 94.0036 323.389 94.5719 323.03 95.2688C322.672 95.9658 322.51 96.7139 322.547 97.5131L322.946 106.324L320.848 106.419ZM347.032 105.232L346.352 90.247L348.45 90.1518L348.544 92.2197C349.049 91.436 349.711 90.8003 350.529 90.3127C351.348 89.8251 352.257 89.5587 353.256 89.5134C354.385 89.4622 355.431 89.695 356.396 90.2118C357.36 90.7187 358.127 91.4196 358.698 92.3147C359.186 91.3716 359.882 90.6043 360.786 90.0127C361.69 89.4111 362.706 89.0847 363.835 89.0335C364.964 88.9823 366.005 89.2104 366.959 89.7177C367.913 90.225 368.686 90.9307 369.278 91.8348C369.869 92.7389 370.19 93.7554 370.242 94.8843L370.662 104.16L368.565 104.255L368.165 95.4439C368.129 94.6447 367.9 93.9143 367.48 93.2527C367.06 92.5911 366.51 92.0704 365.832 91.6908C365.164 91.3006 364.43 91.1237 363.631 91.16C362.832 91.1962 362.112 91.4241 361.47 91.8436C360.838 92.2526 360.342 92.8057 359.984 93.5026C359.624 94.1896 359.464 94.9677 359.504 95.8368L359.903 104.648L357.806 104.743L357.406 95.9319C357.367 95.0628 357.137 94.3024 356.717 93.6508C356.296 92.9892 355.748 92.4835 355.071 92.1338C354.394 91.7741 353.656 91.6124 352.857 91.6486C352.068 91.6844 351.353 91.9271 350.713 92.3765C350.072 92.816 349.572 93.3843 349.214 94.0812C348.855 94.7782 348.694 95.5263 348.73 96.3255L349.13 105.136L347.032 105.232ZM379.533 104.148C378.155 104.21 376.88 103.913 375.709 103.255C374.548 102.597 373.601 101.689 372.867 100.531C372.144 99.3627 371.749 98.0542 371.683 96.6057C371.634 95.5068 371.782 94.474 372.128 93.5073C372.475 92.5307 372.971 91.6673 373.618 90.9172C374.274 90.1567 375.047 89.551 375.938 89.1002C376.828 88.6494 377.788 88.4007 378.817 88.354C379.926 88.3037 380.955 88.4773 381.904 88.8747C382.863 89.2716 383.695 89.8495 384.4 90.6083C385.115 91.3667 385.666 92.2677 386.054 93.3112C386.452 94.3542 386.648 95.4915 386.644 96.7229L373.937 97.2993C374.1 98.2429 374.438 99.0784 374.952 99.8059C375.475 100.533 376.122 101.099 376.891 101.505C377.669 101.9 378.518 102.082 379.438 102.05C380.437 102.005 381.324 101.704 382.1 101.148C382.885 100.592 383.502 99.8485 383.951 98.9172L386.101 99.3152C385.562 100.671 384.707 101.801 383.537 102.705C382.366 103.599 381.032 104.08 379.533 104.148ZM373.8 95.6087L384.454 95.1255C384.342 94.1996 384.019 93.3634 383.485 92.6169C382.96 91.8599 382.297 91.2693 381.497 90.8451C380.697 90.4109 379.832 90.2149 378.903 90.257C377.974 90.2992 377.135 90.5675 376.387 91.0619C375.638 91.5463 375.037 92.1892 374.583 92.9906C374.128 93.782 373.867 94.6547 373.8 95.6087ZM389.067 103.325L388.387 88.3403L390.485 88.2452L390.579 90.3131C391.074 89.5298 391.736 88.8942 392.565 88.4061C393.393 87.9181 394.307 87.6514 395.306 87.6061C395.886 87.5798 396.448 87.6293 396.995 87.7547L396.235 89.8763C395.81 89.7655 395.397 89.7191 394.997 89.7373C394.188 89.774 393.453 90.0075 392.792 90.4379C392.141 90.8679 391.63 91.4265 391.261 92.114C390.892 92.8014 390.726 93.5547 390.763 94.3739L391.165 103.23L389.067 103.325ZM403.767 102.943C402.947 102.961 402.141 102.847 401.349 102.603C400.558 102.358 399.861 102.009 399.26 101.556C398.659 101.103 398.219 100.577 397.942 99.9793L399.72 99.1179C399.897 99.5003 400.208 99.8465 400.653 100.157C401.107 100.456 401.618 100.694 402.187 100.868C402.755 101.032 403.313 101.102 403.863 101.077C404.472 101.05 405.037 100.924 405.558 100.7C406.078 100.476 406.495 100.172 406.808 99.7874C407.13 99.3924 407.28 98.9402 407.256 98.4307C407.232 97.8813 407.032 97.4599 406.659 97.1665C406.284 96.8631 405.819 96.634 405.261 96.4791C404.703 96.3142 404.13 96.16 403.543 96.0165C402.471 95.7748 401.523 95.4975 400.698 95.1846C399.873 94.8716 399.218 94.4559 398.734 93.9373C398.26 93.4082 398.003 92.7141 397.964 91.855C397.923 90.9459 398.142 90.1502 398.622 89.4678C399.111 88.7749 399.762 88.2298 400.574 87.8326C401.397 87.4249 402.282 87.1996 403.232 87.1565C404.45 87.1012 405.571 87.3157 406.594 87.7998C407.627 88.2835 408.388 88.9547 408.878 89.8134L407.23 90.8942C407.032 90.4927 406.731 90.151 406.328 89.869C405.924 89.587 405.469 89.3724 404.962 89.2252C404.465 89.0776 403.961 89.0103 403.451 89.0235C402.812 89.0425 402.221 89.1643 401.681 89.3891C401.14 89.6038 400.709 89.9086 400.386 90.3037C400.074 90.6982 399.93 91.1702 399.955 91.7197C399.98 92.2691 400.164 92.6812 400.506 92.9559C400.849 93.2207 401.304 93.4303 401.871 93.5847C402.449 93.7287 403.097 93.8995 403.817 94.0971C404.739 94.3456 405.608 94.6365 406.424 94.9699C407.24 95.3033 407.905 95.7336 408.419 96.2608C408.934 96.788 409.205 97.4714 409.233 98.311C409.274 99.2101 409.04 100.007 408.531 100.7C408.022 101.394 407.346 101.94 406.503 102.339C405.66 102.727 404.748 102.929 403.767 102.943ZM429.94 86.4556L432.038 86.3605L432.717 101.345L430.62 101.44L430.418 98.6565C429.972 99.6277 429.322 100.428 428.47 101.057C427.617 101.676 426.581 102.014 425.363 102.069C424.264 102.119 423.226 101.961 422.248 101.595C421.27 101.219 420.4 100.682 419.637 99.9863C418.875 99.2901 418.267 98.4718 417.814 97.5314C417.361 96.591 417.11 95.5713 417.06 94.4724C417.011 93.3936 417.165 92.3705 417.521 91.4034C417.888 90.4358 418.409 89.5763 419.086 88.8248C419.773 88.073 420.576 87.4759 421.497 87.0337C422.428 86.5811 423.432 86.3303 424.511 86.2814C425.76 86.2248 426.863 86.4751 427.819 87.0323C428.775 87.5796 429.549 88.3202 430.142 89.2543L429.94 86.4556ZM425.225 100.033C426.294 99.9847 427.201 99.6833 427.947 99.1289C428.692 98.5646 429.249 97.8286 429.619 96.9209C429.998 96.0128 430.163 95.0243 430.115 93.9554C430.065 92.8565 429.81 91.877 429.351 91.017C428.891 90.1469 428.265 89.4696 427.472 88.985C426.679 88.5004 425.753 88.2822 424.694 88.3302C423.635 88.3782 422.678 88.6869 421.823 89.2562C420.978 89.8151 420.316 90.5509 419.836 91.4635C419.367 92.3757 419.157 93.3713 419.206 94.4502C419.255 95.5391 419.565 96.516 420.135 97.3811C420.704 98.2362 421.435 98.9037 422.328 99.3838C423.23 99.8634 424.196 100.08 425.225 100.033ZM435.471 101.22L434.452 78.7432L436.55 78.6481L437.569 101.125L435.471 101.22ZM446.861 100.704L444.703 100.801L439.004 86.0445L441.057 85.9514L445.68 97.8441L449.178 85.583L451.396 85.4824L455.99 97.3765L459.488 85.1154L461.555 85.0216L457.215 100.234L455.043 100.332L450.383 88.3212L446.861 100.704ZM475.33 84.3968L477.428 84.3016L478.108 99.2862L476.01 99.3814L475.809 96.5977C475.362 97.5689 474.713 98.3691 473.86 98.9984C473.008 99.6177 471.972 99.955 470.753 100.01C469.654 100.06 468.616 99.902 467.638 99.5359C466.66 99.1598 465.79 98.6237 465.028 97.9275C464.265 97.2313 463.658 96.413 463.205 95.4726C462.752 94.5322 462.5 93.5125 462.45 92.4136C462.401 91.3347 462.555 90.3117 462.912 89.3446C463.278 88.377 463.8 87.5175 464.476 86.766C465.163 86.0141 465.967 85.4171 466.888 84.9749C467.818 84.5223 468.823 84.2715 469.902 84.2226C471.151 84.166 472.253 84.4163 473.209 84.9735C474.165 85.5208 474.939 86.2614 475.532 87.1955L475.33 84.3968ZM470.616 97.9744C471.685 97.9259 472.592 97.6245 473.337 97.0701C474.083 96.5058 474.64 95.7698 475.009 94.8621C475.388 93.954 475.554 92.9655 475.505 91.8966C475.455 90.7977 475.201 89.8182 474.741 88.9582C474.281 88.0881 473.655 87.4108 472.862 86.9262C472.07 86.4416 471.144 86.2234 470.085 86.2714C469.026 86.3194 468.069 86.6281 467.214 87.1974C466.368 87.7563 465.706 88.4921 465.227 89.4047C464.758 90.3169 464.548 91.3125 464.597 92.3914C464.646 93.4802 464.955 94.4572 465.525 95.3223C466.095 96.1774 466.826 96.8449 467.718 97.325C468.621 97.8046 469.587 98.021 470.616 97.9744ZM489.89 83.7364L492.108 83.6358L484.931 106.484L482.698 106.586L485.086 98.9697L479.027 84.2291L481.319 84.1252L486.003 96.0301L489.89 83.7364ZM499.572 98.598C498.752 98.6152 497.946 98.5016 497.154 98.2572C496.362 98.0128 495.665 97.664 495.064 97.2108C494.463 96.7576 494.024 96.2319 493.746 95.6339L495.524 94.7724C495.702 95.1548 496.013 95.5011 496.457 95.8112C496.911 96.111 497.422 96.3481 497.991 96.5225C498.559 96.6869 499.118 96.7567 499.667 96.7317C500.277 96.7041 500.841 96.5784 501.362 96.3546C501.882 96.1308 502.299 95.8266 502.612 95.442C502.934 95.047 503.084 94.5947 503.061 94.0853C503.036 93.5358 502.837 93.1144 502.463 92.821C502.089 92.5177 501.623 92.2886 501.065 92.1337C500.507 91.9688 499.935 91.8146 499.348 91.671C498.275 91.4293 497.327 91.152 496.502 90.8391C495.677 90.5262 495.022 90.1104 494.538 89.5918C494.064 89.0627 493.807 88.3687 493.768 87.5096C493.727 86.6005 493.946 85.8047 494.426 85.1223C494.915 84.4294 495.566 83.8844 496.379 83.4871C497.201 83.0795 498.087 82.8541 499.036 82.811C500.255 82.7558 501.375 82.9702 502.398 83.4543C503.431 83.938 504.193 84.6092 504.682 85.4679L503.034 86.5487C502.836 86.1473 502.535 85.8056 502.132 85.5235C501.729 85.2415 501.273 85.0269 500.766 84.8798C500.269 84.7321 499.766 84.6649 499.256 84.678C498.616 84.697 498.026 84.8189 497.485 85.0436C496.944 85.2583 496.513 85.5632 496.19 85.9582C495.878 86.3528 495.734 86.8248 495.759 87.3742C495.784 87.9236 495.968 88.3357 496.311 88.6105C496.653 88.8752 497.108 89.0848 497.676 89.2393C498.253 89.3833 498.901 89.5541 499.621 89.7517C500.543 90.0001 501.412 90.2911 502.228 90.6244C503.044 90.9578 503.709 91.3881 504.224 91.9153C504.738 92.4426 505.009 93.126 505.037 93.9656C505.078 94.8646 504.844 95.6611 504.335 96.3548C503.826 97.0486 503.15 97.5948 502.307 97.9934C501.464 98.382 500.552 98.5835 499.572 98.598ZM514.106 97.6534L513.427 82.6688L515.525 82.5737L515.618 84.6416C516.123 83.8579 516.785 83.2222 517.604 82.7346C518.423 82.247 519.332 81.9806 520.331 81.9353C521.459 81.8841 522.506 82.1169 523.47 82.6337C524.434 83.1405 525.202 83.8415 525.773 84.7365C526.261 83.7935 526.957 83.0261 527.861 82.4346C528.765 81.833 529.781 81.5066 530.91 81.4554C532.039 81.4042 533.08 81.6323 534.034 82.1396C534.988 82.6468 535.761 83.3526 536.352 84.2567C536.944 85.1608 537.265 86.1773 537.316 87.3061L537.737 96.5816L535.639 96.6767L535.24 87.8658C535.203 87.0666 534.975 86.3362 534.555 85.6746C534.134 85.013 533.585 84.4923 532.907 84.1126C532.239 83.7225 531.505 83.5456 530.706 83.5818C529.907 83.6181 529.186 83.846 528.545 84.2655C527.912 84.6745 527.417 85.2275 527.058 85.9245C526.699 86.6115 526.539 87.3895 526.579 88.2587L526.978 97.0696L524.88 97.1647L524.481 88.3538C524.441 87.4847 524.212 86.7243 523.792 86.0727C523.371 85.4111 522.823 84.9054 522.146 84.5557C521.469 84.196 520.731 84.0343 519.932 84.0705C519.143 84.1063 518.428 84.3489 517.788 84.7984C517.147 85.2379 516.647 85.8061 516.288 86.5031C515.93 87.2001 515.768 87.9482 515.805 88.7473L516.204 97.5583L514.106 97.6534ZM539.61 81.4812L541.708 81.3861L542.387 96.3707L540.29 96.4658L539.61 81.4812ZM540.555 78.8107C540.215 78.8261 539.921 78.7293 539.671 78.5204C539.431 78.3011 539.303 78.0216 539.287 77.6819C539.272 77.3423 539.374 77.0574 539.594 76.8272C539.823 76.5865 540.108 76.4585 540.448 76.4431C540.777 76.4281 541.062 76.5303 541.302 76.7497C541.552 76.9586 541.685 77.2329 541.7 77.5725C541.715 77.9122 541.613 78.2021 541.394 78.4423C541.174 78.6725 540.895 78.7953 540.555 78.8107ZM544.655 96.2678L549.798 88.4968L543.988 81.2376L546.581 81.12L551.02 86.6395L554.927 80.7414L557.504 80.6245L552.391 88.3792L558.216 95.6527L555.624 95.7703L551.182 90.2058L547.247 96.1502L544.655 96.2678ZM566.646 89.5195L566.226 80.274L568.324 80.1788L568.725 89.0047C568.762 89.8239 568.995 90.5591 569.425 91.2103C569.855 91.8614 570.414 92.3716 571.101 92.7409C571.799 93.1097 572.552 93.2757 573.361 93.239C574.18 93.2018 574.91 92.9685 575.552 92.539C576.203 92.1091 576.713 91.5504 577.082 90.8629C577.452 90.1755 577.618 89.4222 577.58 88.6031L577.18 79.7771L579.278 79.682L579.973 94.6659L577.875 94.761L577.765 92.6639C577.27 93.4471 576.608 94.0828 575.779 94.5708C574.96 95.0584 574.051 95.3249 573.052 95.3702C571.924 95.4214 570.882 95.1933 569.928 94.686C568.974 94.1787 568.201 93.473 567.61 92.5689C567.018 91.6648 566.697 90.6483 566.646 89.5195ZM584.654 101.961L582.556 102.056L581.536 79.5795L583.634 79.4844L583.761 82.2865C584.238 81.3139 584.912 80.5125 585.784 79.8824C586.657 79.2522 587.712 78.909 588.951 78.8528C590.04 78.8034 591.068 78.962 592.036 79.3285C593.013 79.6946 593.878 80.226 594.631 80.9226C595.383 81.6092 595.985 82.4178 596.437 83.3482C596.89 84.2787 597.141 85.2883 597.19 86.3772C597.24 87.4661 597.082 88.4993 596.715 89.4769C596.349 90.4545 595.823 91.3242 595.137 92.0861C594.45 92.838 593.637 93.4405 592.696 93.8936C591.766 94.3462 590.756 94.5972 589.667 94.6466C588.429 94.7028 587.346 94.4566 586.421 93.9079C585.495 93.3593 584.751 92.6223 584.188 91.6968L584.654 101.961ZM589.029 80.8914C587.98 80.939 587.078 81.2452 586.322 81.81C585.577 82.3643 585.014 83.0906 584.634 83.9887C584.255 84.8868 584.09 85.8803 584.139 86.9692C584.187 88.0381 584.437 89.0078 584.886 89.8783C585.346 90.7484 585.973 91.4307 586.766 91.9252C587.569 92.4194 588.5 92.6424 589.559 92.5944C590.598 92.5472 591.541 92.2442 592.386 91.6854C593.242 91.126 593.914 90.3948 594.404 89.4917C594.893 88.5786 595.113 87.5726 595.063 86.4737C595.014 85.4048 594.71 84.4426 594.151 83.5871C593.591 82.7215 592.865 82.0438 591.972 81.5537C591.078 81.0637 590.097 80.8429 589.029 80.8914ZM616.243 93.4111C614.825 93.4755 613.479 93.2562 612.204 92.7535C610.93 92.2407 609.796 91.5113 608.802 90.5654C607.817 89.609 607.026 88.4837 606.426 87.1896C605.837 85.8949 605.508 84.4984 605.441 82.9999C605.373 81.5015 605.573 80.0809 606.043 78.7382C606.523 77.3951 607.21 76.2078 608.104 75.1762C609.007 74.1342 610.071 73.3052 611.294 72.6891C612.517 72.063 613.838 71.7178 615.256 71.6535C616.955 71.5765 618.536 71.9002 620 72.6245C621.465 73.3489 622.696 74.3442 623.694 75.6102L621.882 76.6985C621.098 75.743 620.123 75.0014 618.958 74.4737C617.803 73.9355 616.6 73.6947 615.352 73.7513C614.203 73.8034 613.14 74.0869 612.162 74.6017C611.194 75.1061 610.353 75.7799 609.641 76.623C608.928 77.4662 608.386 78.4267 608.015 79.5047C607.643 80.5826 607.484 81.716 607.538 82.9048C607.593 84.1135 607.854 85.2378 608.322 86.2777C608.8 87.3172 609.431 88.2245 610.217 88.9996C611.013 89.7744 611.916 90.3691 612.926 90.7837C613.945 91.188 615.019 91.3645 616.148 91.3133C617.447 91.2544 618.637 90.9051 619.719 90.2654C620.811 89.6153 621.7 88.7942 622.386 87.8021L624.289 88.7217C623.409 90.073 622.273 91.1756 620.881 92.0296C619.487 92.8736 617.942 93.3341 616.243 93.4111ZM639.755 82.6598L640.176 91.9352L638.078 92.0304L637.676 83.1745C637.639 82.3553 637.405 81.6201 636.975 80.969C636.545 80.3178 635.987 79.8076 635.299 79.4383C634.612 79.0691 633.859 78.9031 633.039 78.9402C632.23 78.9769 631.495 79.2105 630.834 79.6409C630.183 80.0708 629.672 80.6295 629.303 81.3169C628.934 82.0044 628.768 82.7577 628.805 83.5768L629.207 92.4327L627.109 92.5279L626.089 70.051L628.187 69.9558L628.621 79.516C629.116 78.7328 629.778 78.0971 630.607 77.6091C631.435 77.121 632.349 76.8544 633.348 76.809C634.477 76.7578 635.518 76.9859 636.472 77.4932C637.426 78.0005 638.199 78.7062 638.791 79.6103C639.382 80.5144 639.704 81.5309 639.755 82.6598ZM642.727 91.8195L642.047 76.8349L644.145 76.7397L644.239 78.8076C644.734 78.0244 645.396 77.3887 646.224 76.9007C647.053 76.4126 647.967 76.146 648.966 76.1006C649.545 76.0744 650.108 76.1239 650.655 76.2493L649.895 78.3709C649.469 78.2601 649.057 78.2137 648.657 78.2318C647.848 78.2685 647.113 78.5021 646.452 78.9325C645.801 79.3624 645.29 79.9211 644.921 80.6086C644.552 81.296 644.386 82.0493 644.423 82.8684L644.825 91.7243L642.727 91.8195ZM652.104 76.3787L654.202 76.2836L654.882 91.2682L652.784 91.3633L652.104 76.3787ZM653.049 73.7082C652.71 73.7236 652.415 73.6268 652.165 73.4179C651.925 73.1986 651.797 72.9191 651.782 72.5794C651.767 72.2398 651.869 71.9549 652.089 71.7247C652.318 71.484 652.602 71.356 652.942 71.3406C653.272 71.3256 653.557 71.4278 653.797 71.6472C654.047 71.8561 654.179 72.1304 654.194 72.47C654.21 72.8097 654.108 73.0996 653.889 73.3398C653.669 73.57 653.389 73.6928 653.049 73.7082ZM662.568 91.2049C661.748 91.222 660.942 91.1084 660.15 90.8641C659.358 90.6197 658.661 90.2709 658.06 89.8177C657.459 89.3644 657.02 88.8388 656.742 88.2408L658.52 87.3793C658.698 87.7617 659.009 88.1079 659.453 88.4181C659.907 88.7178 660.419 88.9549 660.987 89.1293C661.555 89.2938 662.114 89.3635 662.663 89.3386C663.273 89.311 663.837 89.1852 664.358 88.9614C664.878 88.7376 665.295 88.4334 665.608 88.0489C665.93 87.6538 666.08 87.2016 666.057 86.6921C666.032 86.1427 665.833 85.7213 665.459 85.4279C665.085 85.1246 664.619 84.8954 664.061 84.7405C663.503 84.5757 662.931 84.4214 662.344 84.2779C661.272 84.0362 660.323 83.7589 659.498 83.446C658.673 83.133 658.018 82.7173 657.534 82.1987C657.06 81.6696 656.803 80.9755 656.764 80.1164C656.723 79.2074 656.942 78.4116 657.422 77.7292C657.911 77.0363 658.562 76.4913 659.375 76.094C660.197 75.6863 661.083 75.461 662.032 75.4179C663.251 75.3626 664.371 75.5771 665.394 76.0612C666.427 76.5449 667.189 77.2161 667.678 78.0748L666.03 79.1556C665.832 78.7542 665.531 78.4124 665.128 78.1304C664.725 77.8484 664.27 77.6338 663.762 77.4866C663.265 77.339 662.762 77.2718 662.252 77.2849C661.612 77.3039 661.022 77.4258 660.481 77.6505C659.941 77.8652 659.509 78.1701 659.186 78.5651C658.874 78.9596 658.73 79.4316 658.755 79.9811C658.78 80.5305 658.964 80.9426 659.307 81.2174C659.649 81.4821 660.104 81.6917 660.672 81.8462C661.249 81.9902 661.897 82.1609 662.617 82.3585C663.539 82.607 664.408 82.8979 665.224 83.2313C666.04 83.5647 666.705 83.995 667.22 84.5222C667.734 85.0494 668.005 85.7329 668.033 86.5724C668.074 87.4715 667.84 88.2679 667.331 88.9617C666.822 89.6555 666.146 90.2017 665.303 90.6003C664.46 90.9889 663.548 91.1904 662.568 91.2049ZM677.425 77.3324L673.844 77.4948L674.413 90.3823L672.315 90.4774L671.746 77.59L669.034 77.713L668.939 75.6152L671.651 75.4922L671.422 70.7877L673.52 70.6925L673.749 75.397L677.33 75.2346L677.425 77.3324ZM680.234 90.1183L679.554 75.1337L681.652 75.0385L681.746 77.1064C682.251 76.3227 682.913 75.6871 683.732 75.1995C684.55 74.7119 685.459 74.4454 686.458 74.4001C687.587 74.3489 688.634 74.5817 689.598 75.0985C690.562 75.6054 691.33 76.3063 691.901 77.2014C692.389 76.2583 693.084 75.491 693.989 74.8994C694.892 74.2978 695.909 73.9714 697.037 73.9202C698.166 73.869 699.208 74.0971 700.162 74.6044C701.116 75.1117 701.888 75.8174 702.48 76.7215C703.071 77.6256 703.393 78.6421 703.444 79.771L703.865 89.0464L701.767 89.1416L701.367 80.3306C701.331 79.5315 701.103 78.8011 700.682 78.1394C700.262 77.4778 699.713 76.9571 699.035 76.5775C698.366 76.1874 697.633 76.0104 696.833 76.0467C696.034 76.0829 695.314 76.3108 694.672 76.7303C694.04 77.1394 693.545 77.6924 693.186 78.3893C692.827 79.0763 692.667 79.8544 692.706 80.7235L693.106 89.5344L691.008 89.6296L690.608 80.8186C690.569 79.9495 690.339 79.1892 689.919 78.5375C689.499 77.8759 688.95 77.3702 688.274 77.0205C687.597 76.6608 686.859 76.4991 686.06 76.5353C685.27 76.5711 684.556 76.8138 683.915 77.2633C683.275 77.7027 682.775 78.271 682.416 78.9679C682.057 79.6649 681.896 80.413 681.932 81.2122L682.332 90.0231L680.234 90.1183ZM717.762 73.4006L719.86 73.3055L720.54 88.2901L718.442 88.3852L718.241 85.6015C717.794 86.5727 717.145 87.373 716.292 88.0022C715.44 88.6215 714.404 88.9588 713.185 89.0141C712.086 89.0639 711.048 88.9058 710.07 88.5397C709.092 88.1637 708.222 87.6275 707.46 86.9314C706.697 86.2352 706.09 85.4169 705.637 84.4764C705.184 83.536 704.932 82.5164 704.882 81.4175C704.833 80.3386 704.987 79.3156 705.344 78.3484C705.71 77.3808 706.232 76.5213 706.908 75.7699C707.595 75.018 708.399 74.421 709.32 73.9788C710.25 73.5261 711.255 73.2754 712.334 73.2264C713.583 73.1698 714.685 73.4201 715.641 73.9773C716.597 74.5246 717.371 75.2653 717.964 76.1994L717.762 73.4006ZM713.048 86.9782C714.117 86.9297 715.024 86.6283 715.769 86.074C716.515 85.5096 717.072 84.7736 717.441 83.8659C717.82 82.9578 717.986 81.9693 717.937 80.9004C717.887 79.8015 717.633 78.8221 717.173 77.962C716.713 77.092 716.087 76.4146 715.294 75.9301C714.502 75.4455 713.576 75.2272 712.517 75.2752C711.458 75.3233 710.501 75.632 709.646 76.2013C708.8 76.7602 708.138 77.4959 707.659 78.4086C707.19 79.3208 706.98 80.3163 707.028 81.3952C707.078 82.4841 707.387 83.4611 707.957 84.3261C708.527 85.1812 709.258 85.8488 710.15 86.3288C711.053 86.8084 712.019 87.0249 713.048 86.9782ZM727.732 88.2492C726.912 88.2663 726.106 88.1527 725.314 87.9084C724.522 87.664 723.826 87.3152 723.224 86.862C722.623 86.4087 722.184 85.8831 721.907 85.2851L723.684 84.4236C723.862 84.806 724.173 85.1522 724.617 85.4624C725.072 85.7621 725.583 85.9992 726.151 86.1736C726.719 86.3381 727.278 86.4078 727.827 86.3829C728.437 86.3553 729.002 86.2295 729.522 86.0057C730.043 85.7819 730.459 85.4777 730.772 85.0932C731.094 84.6981 731.244 84.2459 731.221 83.7364C731.196 83.187 730.997 82.7656 730.623 82.4722C730.249 82.1689 729.783 81.9397 729.226 81.7848C728.668 81.62 728.095 81.4657 727.508 81.3222C726.436 81.0805 725.487 80.8032 724.662 80.4903C723.837 80.1773 723.183 79.7616 722.699 79.243C722.224 78.7139 721.968 78.0198 721.929 77.1607C721.887 76.2517 722.106 75.4559 722.586 74.7735C723.075 74.0806 723.726 73.5356 724.539 73.1383C725.361 72.7306 726.247 72.5053 727.196 72.4622C728.415 72.4069 729.536 72.6214 730.559 73.1055C731.592 73.5892 732.353 74.2604 732.842 75.1191L731.195 76.1999C730.996 75.7985 730.695 75.4567 730.292 75.1747C729.889 74.8927 729.434 74.6781 728.927 74.5309C728.429 74.3833 727.926 74.3161 727.416 74.3292C726.776 74.3482 726.186 74.4701 725.646 74.6948C725.105 74.9095 724.673 75.2144 724.351 75.6094C724.038 76.0039 723.895 76.4759 723.919 77.0254C723.944 77.5748 724.128 77.9869 724.471 78.2617C724.813 78.5264 725.268 78.736 725.836 78.8905C726.413 79.0345 727.061 79.2052 727.781 79.4028C728.703 79.6513 729.572 79.9422 730.388 80.2756C731.204 80.609 731.87 81.0393 732.384 81.5665C732.898 82.0937 733.17 82.7771 733.198 83.6167C733.238 84.5158 733.004 85.3122 732.495 86.006C731.986 86.6998 731.31 87.246 730.467 87.6446C729.624 88.0332 728.712 88.2347 727.732 88.2492ZM753.904 71.7613L756.002 71.6662L756.682 86.6508L754.584 86.7459L754.383 83.9622C753.936 84.9334 753.287 85.7336 752.435 86.3629C751.582 86.9822 750.546 87.3195 749.327 87.3748C748.228 87.4246 747.19 87.2665 746.213 86.9004C745.234 86.5243 744.364 85.9882 743.602 85.292C742.84 84.5959 742.232 83.7776 741.779 82.8371C741.326 81.8967 741.074 80.877 741.024 79.7782C740.976 78.6993 741.129 77.6762 741.486 76.7091C741.852 75.7415 742.374 74.882 743.051 74.1305C743.737 73.3787 744.541 72.7816 745.462 72.3394C746.392 71.8868 747.397 71.636 748.476 71.5871C749.725 71.5305 750.827 71.7808 751.783 72.338C752.739 72.8853 753.514 73.6259 754.106 74.56L753.904 71.7613ZM749.19 85.3389C750.259 85.2904 751.166 84.989 751.912 84.4346C752.657 83.8703 753.214 83.1343 753.583 82.2266C753.963 81.3185 754.128 80.33 754.079 79.2611C754.03 78.1622 753.775 77.1828 753.316 76.3227C752.856 75.4526 752.229 74.7753 751.437 74.2907C750.644 73.8062 749.718 73.5879 748.659 73.6359C747.6 73.6839 746.643 73.9926 745.788 74.562C744.942 75.1208 744.28 75.8566 743.801 76.7693C743.332 77.6815 743.122 78.677 743.171 79.7559C743.22 80.8448 743.53 81.8217 744.099 82.6868C744.669 83.5419 745.4 84.2095 746.292 84.6895C747.195 85.1691 748.161 85.3856 749.19 85.3389ZM771.877 76.667L772.298 85.9425L770.2 86.0376L769.798 77.1817C769.761 76.3626 769.527 75.6274 769.097 74.9762C768.667 74.325 768.109 73.8148 767.421 73.4456C766.734 73.0764 765.981 72.9103 765.161 72.9475C764.352 72.9842 763.617 73.2177 762.956 73.6481C762.305 74.0781 761.794 74.6368 761.425 75.3242C761.056 76.0116 760.89 76.7649 760.927 77.5841L761.329 86.44L759.231 86.5351L758.551 71.5505L760.649 71.4554L760.743 73.5233C761.238 72.74 761.9 72.1044 762.729 71.6163C763.557 71.1283 764.471 70.8616 765.47 70.8163C766.599 70.7651 767.64 70.9931 768.594 71.5004C769.548 72.0077 770.321 72.7134 770.913 73.6176C771.504 74.5217 771.826 75.5382 771.877 76.667ZM785.869 62.8038L787.967 62.7086L788.986 85.1855L786.889 85.2807L786.761 82.4785C786.285 83.4611 785.606 84.2677 784.724 84.8983C783.851 85.5185 782.795 85.8567 781.557 85.9129C780.468 85.9623 779.44 85.8037 778.472 85.4372C777.504 85.0706 776.64 84.5443 775.878 83.8581C775.125 83.1615 774.523 82.3479 774.07 81.4175C773.618 80.487 773.367 79.4774 773.317 78.3885C773.268 77.2996 773.426 76.2714 773.793 75.3038C774.159 74.3262 774.685 73.4615 775.372 72.7096C776.068 71.9472 776.882 71.3398 777.812 70.8871C778.742 70.4345 779.752 70.1835 780.841 70.1341C782.08 70.0779 783.162 70.3241 784.088 70.8728C785.023 71.4109 785.772 72.1427 786.335 73.0682L785.869 62.8038ZM781.479 83.8743C782.548 83.8258 783.455 83.5244 784.201 82.9701C784.946 82.4057 785.503 81.6697 785.873 80.762C786.252 79.8539 786.417 78.8654 786.369 77.7965C786.319 76.6976 786.064 75.7182 785.605 74.8581C785.145 73.9881 784.519 73.3107 783.726 72.8262C782.933 72.3416 782.007 72.1233 780.948 72.1713C779.89 72.2194 778.938 72.5278 778.092 73.0967C777.247 73.6556 776.585 74.3914 776.105 75.304C775.626 76.2167 775.411 77.2124 775.46 78.2913C775.509 79.3802 775.819 80.3572 776.389 81.2222C776.958 82.0773 777.689 82.7449 778.582 83.2249C779.484 83.7045 780.45 83.921 781.479 83.8743ZM811.045 63.1634L813.143 63.0682L814.094 84.0467L811.997 84.1418L811.534 73.9523L800.521 74.4518L800.983 84.6414L798.885 84.7365L797.934 63.7581L800.031 63.6629L800.426 72.354L811.439 71.8544L811.045 63.1634ZM828.775 68.3654L830.873 68.2702L831.552 83.2548L829.454 83.35L829.253 80.5662C828.807 81.5375 828.157 82.3377 827.305 82.967C826.452 83.5862 825.416 83.9235 824.197 83.9788C823.099 84.0287 822.06 83.8705 821.083 83.5045C820.105 83.1284 819.235 82.5923 818.472 81.8961C817.71 81.1999 817.102 80.3816 816.649 79.4412C816.196 78.5007 815.945 77.4811 815.895 76.3822C815.846 75.3033 816 74.2803 816.356 73.3132C816.723 72.3456 817.244 71.486 817.921 70.7346C818.608 69.9827 819.411 69.3857 820.332 68.9435C821.263 68.4909 822.267 68.2401 823.346 68.1912C824.595 68.1345 825.697 68.3848 826.654 68.9421C827.609 69.4893 828.384 70.23 828.977 71.1641L828.775 68.3654ZM824.06 81.9429C825.129 81.8945 826.036 81.593 826.782 81.0387C827.527 80.4743 828.084 79.7383 828.454 78.8307C828.833 77.9226 828.998 76.934 828.95 75.8651C828.9 74.7663 828.645 73.7868 828.186 72.9267C827.726 72.0567 827.1 71.3794 826.307 70.8948C825.514 70.4102 824.588 70.1919 823.529 70.24C822.47 70.288 821.513 70.5967 820.658 71.166C819.813 71.7249 819.15 72.4607 818.671 73.3733C818.202 74.2855 817.992 75.2811 818.041 76.3599C818.09 77.4488 818.4 78.4258 818.97 79.2909C819.539 80.146 820.27 80.8135 821.163 81.2936C822.065 81.7732 823.031 81.9896 824.06 81.9429ZM834.306 83.1299L833.287 60.653L835.384 60.5579L836.404 83.0347L834.306 83.1299ZM839.564 82.8914L838.544 60.4145L840.642 60.3194L841.661 82.7963L839.564 82.8914ZM851.315 82.7488C849.936 82.8114 848.662 82.5138 847.491 81.8562C846.329 81.1981 845.382 80.2901 844.649 79.1321C843.925 77.9637 843.531 76.6553 843.465 75.2068C843.415 74.1079 843.564 73.0751 843.91 72.1084C844.256 71.1317 844.753 70.2683 845.399 69.5183C846.056 68.7578 846.829 68.1521 847.719 67.7013C848.61 67.2505 849.57 67.0017 850.599 66.9551C851.977 66.8925 853.247 67.1903 854.408 67.8484C855.579 68.506 856.526 69.419 857.25 70.5874C857.984 71.7554 858.384 73.0686 858.45 74.5271C858.499 75.616 858.35 76.6438 858.004 77.6105C857.657 78.5772 857.156 79.4408 856.5 80.2013C855.853 80.9513 855.085 81.5518 854.194 82.0026C853.314 82.453 852.354 82.7017 851.315 82.7488ZM851.22 80.651C852.239 80.6048 853.141 80.2986 853.926 79.7324C854.721 79.1558 855.333 78.4173 855.762 77.5169C856.202 76.6161 856.398 75.6512 856.352 74.6222C856.304 73.5733 856.021 72.6202 855.501 71.7628C854.982 70.8955 854.3 70.2157 853.457 69.7234C852.624 69.2306 851.703 69.0071 850.694 69.0529C849.675 69.0991 848.768 69.4105 847.973 69.9871C847.188 70.5533 846.576 71.2868 846.136 72.1876C845.706 73.088 845.515 74.0627 845.563 75.1116C845.612 76.1905 845.901 77.1584 846.43 78.0153C846.959 78.8622 847.645 79.5268 848.488 80.0091C849.33 80.4814 850.241 80.6954 851.22 80.651ZM866.513 81.6691L864.355 81.767L858.655 67.0101L860.708 66.9169L865.332 78.8097L868.83 66.5486L871.048 66.448L875.641 78.342L879.139 66.081L881.207 65.9872L876.867 81.1994L874.694 81.298L870.035 69.2868L866.513 81.6691ZM889.955 80.9962C888.577 81.0587 887.302 80.7612 886.131 80.1036C884.97 79.4455 884.023 78.5375 883.29 77.3795C882.566 76.2111 882.171 74.9026 882.105 73.4541C882.056 72.3553 882.204 71.3225 882.551 70.3558C882.897 69.3791 883.393 68.5157 884.04 67.7656C884.696 67.0051 885.469 66.3995 886.36 65.9486C887.25 65.4978 888.21 65.2491 889.239 65.2024C890.348 65.1521 891.377 65.3257 892.326 65.7231C893.285 66.1201 894.117 66.6979 894.822 67.4568C895.537 68.2151 896.088 69.1161 896.476 70.1596C896.874 71.2026 897.07 72.3399 897.066 73.5714L884.359 74.1477C884.522 75.0913 884.86 75.9268 885.374 76.6543C885.897 77.3813 886.544 77.9476 887.313 78.3532C888.091 78.7483 888.941 78.93 889.86 78.8983C890.859 78.853 891.746 78.5525 892.522 77.9968C893.308 77.4406 893.925 76.6969 894.373 75.7657L896.523 76.1636C895.984 77.5195 895.129 78.6493 893.959 79.5533C892.788 80.4473 891.454 80.9282 889.955 80.9962ZM884.222 72.4572L894.877 71.9739C894.764 71.0481 894.441 70.2118 893.907 69.4653C893.382 68.7083 892.72 68.1177 891.92 67.6935C891.119 67.2593 890.254 67.0633 889.325 67.1055C888.396 67.1476 887.557 67.4159 886.809 67.9103C886.06 68.3947 885.459 69.0376 885.005 69.839C884.55 70.6305 884.289 71.5032 884.222 72.4572ZM905.954 80.2705C904.575 80.3331 903.3 80.0355 902.129 79.3779C900.968 78.7198 900.021 77.8118 899.288 76.6539C898.564 75.4854 898.17 74.177 898.104 72.7285C898.054 71.6296 898.202 70.5968 898.549 69.6301C898.895 68.6534 899.391 67.7901 900.038 67.04C900.694 66.2795 901.468 65.6738 902.358 65.223C903.249 64.7722 904.208 64.5234 905.237 64.4768C906.346 64.4265 907.375 64.6 908.324 64.9974C909.283 65.3944 910.115 65.9723 910.82 66.7311C911.535 67.4895 912.087 68.3904 912.474 69.4339C912.872 70.477 913.069 71.6143 913.065 72.8457L900.358 73.4221C900.521 74.3657 900.859 75.2012 901.372 75.9287C901.896 76.6557 902.542 77.222 903.311 77.6276C904.09 78.0227 904.939 78.2044 905.858 78.1727C906.857 78.1274 907.745 77.8269 908.52 77.2712C909.306 76.715 909.923 75.9713 910.371 75.04L912.521 75.438C911.982 76.7938 911.128 77.9237 909.957 78.8276C908.787 79.7216 907.452 80.2026 905.954 80.2705ZM900.221 71.7315L910.875 71.2483C910.763 70.3224 910.44 69.4862 909.905 68.7396C909.38 67.9826 908.718 67.3921 907.918 66.9679C907.117 66.5337 906.253 66.3377 905.324 66.3798C904.395 66.422 903.556 66.6902 902.807 67.1847C902.059 67.6691 901.457 68.312 901.003 69.1134C900.548 69.9048 900.288 70.7775 900.221 71.7315ZM928.133 69.5796L928.554 78.855L926.456 78.9502L926.055 70.0943C926.017 69.2751 925.784 68.54 925.354 67.8888C924.924 67.2376 924.365 66.7274 923.678 66.3581C922.99 65.9889 922.237 65.8229 921.418 65.86C920.609 65.8967 919.874 66.1303 919.212 66.5607C918.561 66.9906 918.051 67.5493 917.682 68.2368C917.313 68.9242 917.146 69.6775 917.184 70.4967L917.585 79.3526L915.487 79.4477L914.808 64.4631L916.906 64.368L916.999 66.4358C917.494 65.6526 918.156 65.017 918.985 64.5289C919.814 64.0408 920.728 63.7742 921.727 63.7289C922.855 63.6777 923.897 63.9057 924.851 64.413C925.805 64.9203 926.578 65.626 927.169 66.5301C927.761 67.4342 928.082 68.4507 928.133 69.5796ZM935.349 71.3244C935.304 70.3354 935.507 69.4153 935.959 68.5639C936.421 67.7121 937.076 67.0268 937.923 66.5078C938.528 66.1601 938.991 65.6686 939.313 65.0333C939.634 64.3881 939.777 63.6909 939.743 62.9417C939.71 62.2124 939.501 61.5613 939.114 60.9882C938.738 60.4147 938.242 59.9667 937.627 59.6442C937.022 59.3213 936.359 59.1762 935.64 59.2088C934.921 59.2414 934.269 59.4461 933.686 59.823C933.112 60.1993 932.664 60.6901 932.341 61.2954C932.018 61.9006 931.873 62.5679 931.907 63.2972L929.809 63.3923C929.758 62.2834 929.982 61.2622 930.481 60.3287C930.979 59.3952 931.67 58.6381 932.555 58.0574C933.449 57.4763 934.446 57.1608 935.545 57.1109C936.654 57.0606 937.675 57.2846 938.609 57.7828C939.552 58.2806 940.314 58.9717 940.895 59.8563C941.476 60.7409 941.791 61.7377 941.841 62.8465C941.892 63.9754 941.665 65.0318 941.159 66.0157C940.653 66.9896 939.932 67.7581 938.996 68.3211C938.49 68.6243 938.098 69.0325 937.821 69.5456C937.544 70.0587 937.419 70.6199 937.447 71.2293L935.349 71.3244ZM936.682 78.8768C936.353 78.8917 936.063 78.7847 935.812 78.5559C935.571 78.3265 935.443 78.047 935.429 77.7174C935.414 77.3877 935.516 77.1028 935.735 76.8626C935.964 76.622 936.244 76.4942 936.574 76.4792C936.903 76.4643 937.188 76.5665 937.428 76.7858C937.679 77.0047 937.811 77.279 937.826 77.6086C937.841 77.9383 937.734 78.2284 937.505 78.4791C937.286 78.7292 937.012 78.8618 936.682 78.8768ZM1019.95 74.7095L1019 53.7311L1026.09 53.4096C1027.11 53.3634 1028.04 53.5313 1028.89 53.9132C1029.74 54.2847 1030.44 54.859 1030.96 55.636C1031.5 56.4025 1031.79 57.3502 1031.84 58.479C1031.87 59.1184 1031.78 59.7329 1031.58 60.3228C1031.38 60.9126 1031.1 61.4207 1030.75 61.847C1030.4 62.2634 1030.01 62.5412 1029.58 62.6806C1030.21 62.8123 1030.76 63.0678 1031.23 63.447C1031.69 63.8162 1032.08 64.264 1032.4 64.7903C1032.71 65.3066 1032.95 65.8565 1033.1 66.44C1033.27 67.0231 1033.37 67.5993 1033.39 68.1687C1033.45 69.3475 1033.23 70.3932 1032.75 71.3059C1032.28 72.2181 1031.63 72.9434 1030.8 73.4818C1029.96 74.0103 1029.02 74.2983 1027.97 74.3459L1019.95 74.7095ZM1021.96 72.7413L1027.72 72.4803C1028.45 72.4472 1029.1 72.2275 1029.67 71.8212C1030.25 71.4144 1030.7 70.8734 1031.02 70.1982C1031.35 69.5226 1031.5 68.7702 1031.46 67.941C1031.43 67.2018 1031.22 66.5157 1030.83 65.8826C1030.45 65.2392 1029.95 64.7312 1029.33 64.3588C1028.72 63.976 1028.05 63.8011 1027.32 63.8342L1021.57 64.0952L1021.96 72.7413ZM1021.49 62.2521L1026.3 62.0339C1027.29 61.989 1028.12 61.6661 1028.79 61.0649C1029.47 60.4533 1029.79 59.6181 1029.74 58.5592C1029.69 57.4004 1029.3 56.5574 1028.56 56.0301C1027.84 55.4924 1026.98 55.246 1025.99 55.2908L1021.18 55.509L1021.49 62.2521ZM1042.24 74.089C1040.86 74.1516 1039.58 73.854 1038.41 73.1964C1037.25 72.5383 1036.3 71.6303 1035.57 70.4723C1034.85 69.3039 1034.45 67.9955 1034.39 66.547C1034.34 65.4481 1034.49 64.4153 1034.83 63.4486C1035.18 62.4719 1035.68 61.6085 1036.32 60.8585C1036.98 60.098 1037.75 59.4923 1038.64 59.0415C1039.53 58.5907 1040.49 58.3419 1041.52 58.2953C1042.63 58.245 1043.66 58.4185 1044.61 58.8159C1045.57 59.2129 1046.4 59.7908 1047.1 60.5496C1047.82 61.308 1048.37 62.2089 1048.76 63.2524C1049.16 64.2955 1049.35 65.4327 1049.35 66.6642L1036.64 67.2406C1036.8 68.1841 1037.14 69.0197 1037.66 69.7472C1038.18 70.4742 1038.83 71.0405 1039.59 71.446C1040.37 71.8412 1041.22 72.0229 1042.14 71.9912C1043.14 71.9459 1044.03 71.6454 1044.8 71.0896C1045.59 70.5335 1046.21 69.7898 1046.65 68.8585L1048.81 69.2565C1048.27 70.6123 1047.41 71.7422 1046.24 72.6461C1045.07 73.5401 1043.74 74.0211 1042.24 74.089ZM1036.5 65.55L1047.16 65.0668C1047.05 64.1409 1046.72 63.3047 1046.19 62.5581C1045.66 61.8011 1045 61.2105 1044.2 60.7864C1043.4 60.3522 1042.54 60.1562 1041.61 60.1983C1040.68 60.2404 1039.84 60.5087 1039.09 61.0031C1038.34 61.4876 1037.74 62.1305 1037.29 62.9319C1036.83 63.7233 1036.57 64.596 1036.5 65.55ZM1062.15 69.0264L1064.07 69.9604C1063.44 70.9402 1062.61 71.7387 1061.58 72.3556C1060.57 72.9722 1059.45 73.3081 1058.24 73.3634C1056.86 73.4259 1055.58 73.1284 1054.41 72.4707C1053.25 71.8127 1052.3 70.9047 1051.57 69.7467C1050.85 68.5783 1050.45 67.2698 1050.39 65.8213C1050.34 64.7224 1050.48 63.6897 1050.83 62.723C1051.18 61.7463 1051.67 60.8829 1052.32 60.1328C1052.98 59.3723 1053.75 58.7666 1054.64 58.3158C1055.53 57.865 1056.49 57.6163 1057.52 57.5696C1058.74 57.5143 1059.88 57.7478 1060.94 58.2701C1062.02 58.792 1062.92 59.517 1063.64 60.4452L1061.81 61.5341C1061.26 60.8984 1060.62 60.4222 1059.87 60.1056C1059.13 59.7791 1058.37 59.633 1057.61 59.6675C1056.61 59.7132 1055.7 60.0244 1054.91 60.601C1054.11 61.1676 1053.5 61.9013 1053.06 62.8022C1052.63 63.7026 1052.44 64.6772 1052.48 65.7262C1052.53 66.7751 1052.81 67.7282 1053.33 68.5856C1053.86 69.4425 1054.55 70.117 1055.39 70.6093C1056.24 71.0917 1057.15 71.3104 1058.14 71.2655C1058.96 71.2284 1059.72 71.0037 1060.42 70.5914C1061.12 70.1792 1061.7 69.6575 1062.15 69.0264ZM1077.89 57.0663L1079.98 56.9711L1080.66 71.9557L1078.57 72.0509L1078.36 69.2671C1077.92 70.2384 1077.27 71.0386 1076.42 71.6679C1075.56 72.2872 1074.53 72.6244 1073.31 72.6797C1072.21 72.7296 1071.17 72.5714 1070.19 72.2054C1069.22 71.8293 1068.35 71.2932 1067.58 70.597C1066.82 69.9008 1066.21 69.0825 1065.76 68.1421C1065.31 67.2017 1065.06 66.182 1065.01 65.0831C1064.96 64.0042 1065.11 62.9812 1065.47 62.0141C1065.83 61.0465 1066.35 60.1869 1067.03 59.4355C1067.72 58.6836 1068.52 58.0866 1069.44 57.6444C1070.37 57.1918 1071.38 56.941 1072.46 56.8921C1073.71 56.8354 1074.81 57.0857 1075.76 57.643C1076.72 58.1902 1077.49 58.9309 1078.09 59.865L1077.89 57.0663ZM1073.17 70.6439C1074.24 70.5954 1075.15 70.294 1075.89 69.7396C1076.64 69.1753 1077.19 68.4393 1077.56 67.5316C1077.94 66.6235 1078.11 65.635 1078.06 64.5661C1078.01 63.4672 1077.76 62.4877 1077.3 61.6277C1076.84 60.7576 1076.21 60.0803 1075.42 59.5957C1074.62 59.1111 1073.7 58.8929 1072.64 58.9409C1071.58 58.9889 1070.62 59.2976 1069.77 59.8669C1068.92 60.4258 1068.26 61.1616 1067.78 62.0742C1067.31 62.9864 1067.1 63.982 1067.15 65.0609C1067.2 66.1497 1067.51 67.1267 1068.08 67.9918C1068.65 68.8469 1069.38 69.5144 1070.27 69.9945C1071.18 70.4741 1072.14 70.6905 1073.17 70.6439ZM1082.35 66.1282L1081.93 56.8827L1084.03 56.7876L1084.43 65.6135C1084.47 66.4326 1084.7 67.1678 1085.13 67.819C1085.56 68.4702 1086.12 68.9804 1086.81 69.3496C1087.51 69.7184 1088.26 69.8844 1089.07 69.8477C1089.89 69.8106 1090.62 69.5773 1091.26 69.1478C1091.91 68.7178 1092.42 68.1591 1092.79 67.4717C1093.16 66.7842 1093.32 66.031 1093.29 65.2118L1092.89 56.3859L1094.98 56.2907L1095.68 71.2746L1093.58 71.3698L1093.47 69.2726C1092.98 70.0559 1092.31 70.6915 1091.49 71.1795C1090.67 71.6671 1089.76 71.9336 1088.76 71.9789C1087.63 72.0301 1086.59 71.8021 1085.63 71.2948C1084.68 70.7875 1083.91 70.0818 1083.32 69.1776C1082.72 68.2735 1082.4 67.257 1082.35 66.1282ZM1102.86 71.2343C1102.04 71.2515 1101.23 71.1379 1100.44 70.8935C1099.65 70.6491 1098.95 70.3003 1098.35 69.8471C1097.75 69.3939 1097.31 68.8682 1097.03 68.2702L1098.81 67.4087C1098.99 67.7911 1099.3 68.1374 1099.74 68.4475C1100.2 68.7473 1100.71 68.9844 1101.28 69.1588C1101.85 69.3232 1102.4 69.393 1102.95 69.368C1103.56 69.3404 1104.13 69.2147 1104.65 68.9909C1105.17 68.7671 1105.59 68.4629 1105.9 68.0783C1106.22 67.6833 1106.37 67.231 1106.35 66.7216C1106.32 66.1721 1106.12 65.7507 1105.75 65.4573C1105.38 65.154 1104.91 64.9249 1104.35 64.77C1103.79 64.6051 1103.22 64.4509 1102.63 64.3073C1101.56 64.0656 1100.61 63.7883 1099.79 63.4754C1098.96 63.1625 1098.31 62.7467 1097.83 62.2281C1097.35 61.699 1097.09 61.005 1097.06 60.1459C1097.01 59.2368 1097.23 58.441 1097.71 57.7586C1098.2 57.0657 1098.85 56.5207 1099.67 56.1234C1100.49 55.7158 1101.37 55.4904 1102.32 55.4473C1103.54 55.3921 1104.66 55.6065 1105.69 56.0906C1106.72 56.5743 1107.48 57.2455 1107.97 58.1042L1106.32 59.185C1106.12 58.7836 1105.82 58.4419 1105.42 58.1598C1105.02 57.8778 1104.56 57.6632 1104.05 57.5161C1103.56 57.3684 1103.05 57.3012 1102.54 57.3143C1101.9 57.3333 1101.31 57.4552 1100.77 57.6799C1100.23 57.8946 1099.8 58.1995 1099.48 58.5945C1099.16 58.9891 1099.02 59.4611 1099.05 60.0105C1099.07 60.5599 1099.25 60.972 1099.6 61.2468C1099.94 61.5115 1100.39 61.7211 1100.96 61.8756C1101.54 62.0196 1102.19 62.1904 1102.91 62.388C1103.83 62.6364 1104.7 62.9274 1105.51 63.2607C1106.33 63.5941 1107 64.0244 1107.51 64.5516C1108.02 65.0789 1108.3 65.7623 1108.32 66.6019C1108.36 67.5009 1108.13 68.2974 1107.62 68.9912C1107.11 69.6849 1106.44 70.2311 1105.59 70.6297C1104.75 71.0183 1103.84 71.2198 1102.86 71.2343ZM1117.14 70.6917C1115.76 70.7543 1114.48 70.4567 1113.31 69.7991C1112.15 69.1411 1111.2 68.233 1110.47 67.0751C1109.75 65.9067 1109.35 64.5982 1109.29 63.1497C1109.24 62.0508 1109.39 61.018 1109.73 60.0513C1110.08 59.0747 1110.57 58.2113 1111.22 57.4612C1111.88 56.7007 1112.65 56.095 1113.54 55.6442C1114.43 55.1934 1115.39 54.9447 1116.42 54.898C1117.53 54.8477 1118.56 55.0212 1119.51 55.4187C1120.47 55.8156 1121.3 56.3935 1122 57.1523C1122.72 57.9107 1123.27 58.8117 1123.66 59.8552C1124.06 60.8982 1124.25 62.0355 1124.25 63.2669L1111.54 63.8433C1111.7 64.7869 1112.04 65.6224 1112.56 66.3499C1113.08 67.0769 1113.73 67.6432 1114.49 68.0488C1115.27 68.4439 1116.12 68.6256 1117.04 68.5939C1118.04 68.5486 1118.93 68.2481 1119.7 67.6924C1120.49 67.1362 1121.11 66.3925 1121.55 65.4612L1123.7 65.8592C1123.17 67.215 1122.31 68.3449 1121.14 69.2489C1119.97 70.1428 1118.64 70.6238 1117.14 70.6917ZM1111.4 62.1527L1122.06 61.6695C1121.95 60.7436 1121.62 59.9074 1121.09 59.1609C1120.56 58.4039 1119.9 57.8133 1119.1 57.3891C1118.3 56.9549 1117.44 56.7589 1116.51 56.801C1115.58 56.8432 1114.74 57.1114 1113.99 57.6059C1113.24 58.0903 1112.64 58.7332 1112.19 59.5346C1111.73 60.326 1111.47 61.1987 1111.4 62.1527ZM1143.32 69.5039C1141.91 69.5683 1140.56 69.349 1139.29 68.8463C1138.01 68.3335 1136.88 67.5991 1135.88 66.6432C1134.89 65.6873 1134.09 64.5672 1133.49 63.283C1132.89 61.9889 1132.56 60.5925 1132.49 59.0941C1132.42 57.5956 1132.63 56.1798 1133.11 54.8467C1133.59 53.5036 1134.28 52.311 1135.19 51.269C1136.09 50.227 1137.15 49.398 1138.38 48.7819C1139.6 48.1558 1140.92 47.8106 1142.34 47.7463C1143.77 47.6815 1145.12 47.9055 1146.39 48.4183C1147.67 48.9211 1148.8 49.6504 1149.8 50.6063C1150.79 51.5623 1151.58 52.6875 1152.17 53.9822C1152.77 55.2664 1153.1 56.6577 1153.17 58.1561C1153.24 59.6546 1153.03 61.0754 1152.55 62.4185C1152.08 63.7512 1151.4 64.9385 1150.49 65.9805C1149.59 67.0225 1148.53 67.8566 1147.3 68.4826C1146.08 69.0987 1144.75 69.4391 1143.32 69.5039ZM1143.23 67.4061C1144.38 67.354 1145.44 67.0757 1146.41 66.5713C1147.38 66.0565 1148.23 65.3775 1148.94 64.5344C1149.66 63.6908 1150.21 62.73 1150.58 61.6521C1150.96 60.5737 1151.13 59.4401 1151.07 58.2513C1151.02 57.0525 1150.75 55.9334 1150.27 54.894C1149.8 53.8446 1149.16 52.9375 1148.36 52.1728C1147.58 51.3976 1146.68 50.8029 1145.66 50.3887C1144.65 49.974 1143.57 49.7925 1142.43 49.8441C1141.28 49.8962 1140.22 50.1797 1139.24 50.6945C1138.28 51.1989 1137.43 51.8729 1136.71 52.7165C1135.99 53.5597 1135.45 54.5205 1135.07 55.5988C1134.69 56.6768 1134.54 57.8102 1134.59 58.9989C1134.64 60.2077 1134.91 61.3318 1135.39 62.3712C1135.87 63.4106 1136.5 64.3179 1137.28 65.0931C1138.08 65.8679 1138.98 66.4626 1139.99 66.8772C1141.01 67.2815 1142.09 67.4577 1143.23 67.4061ZM1166.5 64.2933L1168.42 65.2273C1167.79 66.2072 1166.96 67.0056 1165.93 67.6226C1164.92 68.2391 1163.8 68.575 1162.59 68.6303C1161.21 68.6928 1159.93 68.3953 1158.76 67.7377C1157.6 67.0796 1156.65 66.1716 1155.92 65.0136C1155.2 63.8452 1154.8 62.5367 1154.74 61.0882C1154.69 59.9894 1154.83 58.9566 1155.18 57.9899C1155.53 57.0132 1156.02 56.1498 1156.67 55.3997C1157.33 54.6392 1158.1 54.0336 1158.99 53.5828C1159.88 53.1319 1160.84 52.8832 1161.87 52.8365C1163.09 52.7812 1164.23 53.0148 1165.29 53.537C1166.37 54.0589 1167.27 54.7839 1167.99 55.7121L1166.16 56.801C1165.61 56.1653 1164.97 55.6891 1164.22 55.3725C1163.48 55.046 1162.72 54.8999 1161.96 54.9344C1160.96 54.9801 1160.05 55.2913 1159.26 55.8679C1158.46 56.4345 1157.85 57.1683 1157.41 58.0691C1156.98 58.9695 1156.79 59.9442 1156.83 60.9931C1156.88 62.042 1157.16 62.9951 1157.68 63.8525C1158.21 64.7094 1158.9 65.384 1159.74 65.8763C1160.59 66.3586 1161.5 66.5773 1162.49 66.5324C1163.31 66.4953 1164.07 66.2706 1164.77 65.8584C1165.47 65.4461 1166.05 64.9245 1166.5 64.2933ZM1177.88 54.6331L1174.29 54.7956L1174.86 67.683L1172.77 67.7782L1172.2 54.8907L1169.48 55.0137L1169.39 52.9159L1172.1 52.7929L1171.87 48.0884L1173.97 47.9932L1174.2 52.6977L1177.78 52.5353L1177.88 54.6331ZM1193.01 67.2503C1191.73 67.3083 1190.6 67.0795 1189.6 66.564C1188.61 66.0386 1187.81 65.3138 1187.22 64.3897C1186.64 63.4651 1186.32 62.4285 1186.27 61.2796L1188.37 61.1845C1188.4 61.9437 1188.61 62.6351 1188.99 63.2585C1189.37 63.8716 1189.9 64.3532 1190.57 64.7033C1191.23 65.0435 1192.02 65.1932 1192.92 65.1524C1193.68 65.118 1194.38 64.901 1195.02 64.5015C1195.67 64.0915 1196.19 63.5626 1196.57 62.9146C1196.96 62.2563 1197.14 61.5475 1197.1 60.7882C1197.06 59.8392 1196.78 59.0609 1196.28 58.4533C1195.77 57.8357 1195.09 57.3911 1194.23 57.1195C1193.38 56.8379 1192.41 56.7215 1191.33 56.7705L1191.26 55.0322C1192.74 54.9647 1193.92 54.5959 1194.79 53.9258C1195.67 53.2452 1196.09 52.2905 1196.03 51.0618C1196 50.3925 1195.79 49.7915 1195.39 49.2588C1195.01 48.7257 1194.51 48.3077 1193.91 48.0048C1193.32 47.6914 1192.68 47.5499 1192.01 47.5802C1191.34 47.6106 1190.71 47.8097 1190.1 48.1774C1189.51 48.5347 1189.03 48.9969 1188.67 49.564C1188.31 50.1307 1188.15 50.7486 1188.18 51.418L1186.08 51.5131C1186.05 50.7239 1186.18 49.9772 1186.48 49.273C1186.77 48.5587 1187.19 47.924 1187.74 47.3687C1188.29 46.8134 1188.92 46.3694 1189.63 46.0366C1190.35 45.7038 1191.1 45.5193 1191.9 45.4831C1192.95 45.4355 1193.94 45.6511 1194.86 46.1297C1195.79 46.608 1196.56 47.269 1197.16 48.1127C1197.76 48.9564 1198.08 49.9077 1198.13 50.9667C1198.18 51.9956 1197.95 52.9367 1197.46 53.7898C1196.97 54.643 1196.28 55.2598 1195.4 55.6402C1196.19 55.8646 1196.86 56.2295 1197.41 56.735C1197.97 57.2304 1198.39 57.8167 1198.7 58.4937C1199 59.1708 1199.16 59.9039 1199.2 60.6931C1199.25 61.8419 1199 62.9044 1198.44 63.8806C1197.89 64.8568 1197.13 65.6521 1196.17 66.2664C1195.21 66.8702 1194.16 67.1982 1193.01 67.2503ZM1203.35 66.3907L1202.5 47.5101L1200.25 47.6121L1200.75 45.4871L1204.5 45.3171L1205.45 66.2956L1203.35 66.3907ZM1215.12 60.9322L1215.02 58.8344L1230.01 58.1547L1230.1 60.2525L1215.12 60.9322ZM1214.84 54.8784L1214.75 52.7806L1229.73 52.1009L1229.83 54.1988L1214.84 54.8784ZM1239.62 64.7457L1238.67 43.7672L1245.61 43.4525C1247.06 43.3868 1248.43 43.5999 1249.72 44.0918C1251.02 44.5737 1252.16 45.2774 1253.17 46.2029C1254.17 47.1185 1254.97 48.1983 1255.57 49.4426C1256.17 50.6763 1256.51 52.0175 1256.57 53.466C1256.64 54.9145 1256.43 56.2856 1255.93 57.5792C1255.45 58.8624 1254.75 60.0102 1253.84 61.0227C1252.92 62.0252 1251.84 62.83 1250.6 63.4369C1249.36 64.0339 1248.01 64.3653 1246.56 64.431L1239.62 64.7457ZM1241.63 62.5527L1246.47 62.3331C1247.62 62.2806 1248.7 62.0166 1249.69 61.5413C1250.69 61.0555 1251.55 60.4106 1252.29 59.6065C1253.02 58.8024 1253.58 57.8861 1253.97 56.8577C1254.36 55.8188 1254.53 54.72 1254.48 53.5611C1254.42 52.4023 1254.15 51.3284 1253.67 50.3394C1253.19 49.3399 1252.55 48.4733 1251.73 47.7394C1250.93 47.0051 1250.01 46.446 1248.99 46.0622C1247.96 45.6684 1246.86 45.4978 1245.7 45.5504L1240.86 45.7699L1241.63 62.5527ZM1265.72 63.9526C1264.34 64.0151 1263.06 63.7176 1261.89 63.06C1260.73 62.4019 1259.78 61.4939 1259.05 60.3359C1258.33 59.1675 1257.93 57.859 1257.87 56.4105C1257.82 55.3117 1257.96 54.2789 1258.31 53.3122C1258.66 52.3355 1259.15 51.4721 1259.8 50.722C1260.46 49.9615 1261.23 49.3559 1262.12 48.905C1263.01 48.4542 1263.97 48.2055 1265 48.1588C1266.11 48.1085 1267.14 48.2821 1268.09 48.6795C1269.04 49.0765 1269.88 49.6543 1270.58 50.4132C1271.3 51.1716 1271.85 52.0725 1272.24 53.116C1272.63 54.1591 1272.83 55.2963 1272.83 56.5278L1260.12 57.1041C1260.28 58.0477 1260.62 58.8832 1261.13 59.6107C1261.66 60.3377 1262.3 60.904 1263.07 61.3096C1263.85 61.7047 1264.7 61.8864 1265.62 61.8547C1266.62 61.8094 1267.51 61.5089 1268.28 60.9532C1269.07 60.397 1269.68 59.6533 1270.13 58.7221L1272.28 59.12C1271.74 60.4759 1270.89 61.6057 1269.72 62.5097C1268.55 63.4037 1267.21 63.8846 1265.72 63.9526ZM1259.98 55.4136L1270.64 54.9303C1270.52 54.0045 1270.2 53.1682 1269.67 52.4217C1269.14 51.6647 1268.48 51.0741 1267.68 50.6499C1266.88 50.2157 1266.01 50.0197 1265.08 50.0619C1264.16 50.104 1263.32 50.3723 1262.57 50.8667C1261.82 51.3511 1261.22 51.994 1260.76 52.7954C1260.31 53.5869 1260.05 54.4596 1259.98 55.4136ZM1285.63 58.89L1287.55 59.824C1286.91 60.8038 1286.08 61.6022 1285.06 62.2192C1284.05 62.8358 1282.93 63.1717 1281.71 63.2269C1280.33 63.2895 1279.06 62.9919 1277.89 62.3343C1276.73 61.6762 1275.78 60.7682 1275.05 59.6103C1274.32 58.4418 1273.93 57.1334 1273.86 55.6849C1273.81 54.586 1273.96 53.5532 1274.31 52.5865C1274.65 51.6098 1275.15 50.7465 1275.8 49.9964C1276.45 49.2359 1277.23 48.6302 1278.12 48.1794C1279.01 47.7286 1279.97 47.4798 1281 47.4332C1282.22 47.3779 1283.36 47.6114 1284.42 48.1337C1285.5 48.6555 1286.4 49.3806 1287.12 50.3088L1285.29 51.3977C1284.74 50.7619 1284.09 50.2858 1283.35 49.9692C1282.6 49.6426 1281.85 49.4966 1281.09 49.531C1280.08 49.5768 1279.18 49.888 1278.39 50.4646C1277.59 51.0312 1276.97 51.7649 1276.53 52.6658C1276.1 53.5661 1275.91 54.5408 1275.96 55.5897C1276.01 56.6386 1276.29 57.5918 1276.81 58.4491C1277.34 59.306 1278.03 59.9806 1278.87 60.4729C1279.71 60.9552 1280.63 61.174 1281.62 61.1291C1282.44 61.0919 1283.2 60.8672 1283.9 60.455C1284.6 60.0428 1285.18 59.5211 1285.63 58.89ZM1296.08 62.1849L1296 60.3268C1296.78 59.5304 1297.64 58.6605 1298.58 57.717C1299.52 56.7635 1300.45 55.7855 1301.36 54.783C1302.29 53.7701 1303.13 52.7759 1303.88 51.8007C1304.64 50.8154 1305.24 49.8923 1305.68 49.0314C1306.13 48.1601 1306.34 47.3998 1306.31 46.7504C1306.28 45.9612 1306.05 45.2508 1305.63 44.6192C1305.22 43.977 1304.68 43.4759 1304.01 43.1158C1303.36 42.7452 1302.63 42.5778 1301.84 42.6136C1301.06 42.6494 1300.34 42.882 1299.7 43.3115C1299.07 43.7306 1298.57 44.2786 1298.21 44.9556C1297.85 45.6226 1297.69 46.3507 1297.73 47.1399L1295.63 47.235C1295.57 46.0363 1295.81 44.9392 1296.35 43.9439C1296.9 42.9482 1297.64 42.1437 1298.58 41.5303C1299.53 40.9069 1300.58 40.5688 1301.75 40.5157C1302.92 40.4627 1304 40.7042 1304.98 41.2401C1305.98 41.7755 1306.78 42.5148 1307.39 43.458C1308.02 44.4007 1308.36 45.4665 1308.41 46.6553C1308.44 47.3645 1308.29 48.1523 1307.95 49.0187C1307.61 49.8746 1307.15 50.7716 1306.55 51.7096C1305.95 52.6377 1305.28 53.5794 1304.52 54.5347C1303.76 55.49 1302.97 56.4269 1302.14 57.3454C1301.31 58.254 1300.5 59.1114 1299.72 59.9178L1309.31 59.4828L1309.4 61.5806L1296.08 62.1849ZM1318.71 61.5489C1317.43 61.6069 1316.25 61.3501 1315.17 60.7783C1314.11 60.206 1313.25 59.4143 1312.59 58.403C1311.93 57.3817 1311.58 56.2467 1311.52 54.998L1313.62 54.9028C1313.66 55.7719 1313.91 56.5614 1314.37 57.2711C1314.83 57.9709 1315.43 58.5193 1316.17 58.9162C1316.92 59.3127 1317.73 59.491 1318.61 59.4511C1319.48 59.4117 1320.27 59.1609 1320.97 58.6987C1321.67 58.2365 1322.21 57.6361 1322.61 56.8973C1323.02 56.1481 1323.2 55.339 1323.16 54.4699C1323.12 53.5908 1322.88 52.8011 1322.42 52.1009C1321.98 51.3902 1321.37 50.8373 1320.59 50.4422C1319.82 50.0366 1318.92 49.8574 1317.88 49.9045L1312.78 50.1356L1314.32 40.3359L1324.14 39.8907L1324.23 41.9885L1316.11 42.3569L1315.27 47.9209L1317.71 47.8251C1319.14 47.7803 1320.41 48.0281 1321.51 48.5685C1322.63 49.1085 1323.51 49.8792 1324.17 50.8805C1324.84 51.8714 1325.2 53.0361 1325.26 54.3747C1325.3 55.3138 1325.16 56.206 1324.84 57.0515C1324.53 57.8965 1324.07 58.6531 1323.46 59.3215C1322.86 59.9794 1322.15 60.5069 1321.34 60.9042C1320.53 61.291 1319.66 61.5059 1318.71 61.5489Z" fill="#171717"/>
</svg>
