<svg width="1440" height="972" viewBox="0 0 1440 972" fill="none" xmlns="http://www.w3.org/2000/svg">
<rect width="1440" height="972" fill="white"/>
<path d="M383.311 373.231C381.628 380.891 370.604 394.529 373.217 419.191M366.123 360.089C352.722 368.298 324.4 389.199 318.32 407.135M362.389 340.533C355.58 339.038 336.581 338.612 315.057 348.873" stroke="#FB6514" stroke-width="5" stroke-linecap="round" stroke-linejoin="round"/>
<path d="M45.135 559.445H38.1C38.22 552.44 39.6 551.285 43.905 548.735C44.4 548.435 44.565 547.805 44.265 547.295C43.98 546.8 43.335 546.635 42.84 546.935C37.77 549.935 36 551.765 36 560.48V568.565C36 571.13 38.085 573.2 40.635 573.2H45.135C47.775 573.2 49.77 571.205 49.77 568.565V564.065C49.77 561.44 47.775 559.445 45.135 559.445Z" fill="#344054"/>
<path d="M61.365 559.445H54.33C54.45 552.44 55.83 551.285 60.135 548.735C60.63 548.435 60.795 547.805 60.495 547.295C60.195 546.8 59.565 546.635 59.055 546.935C53.985 549.935 52.215 551.765 52.215 560.495V568.58C52.215 571.145 54.3 573.215 56.85 573.215H61.35C63.99 573.215 65.985 571.22 65.985 568.58V564.08C66 561.44 64.005 559.445 61.365 559.445Z" fill="#344054"/>
<path d="M34.92 632V609.6H48.552V611.84H37.16V618.88H46.584V621.12H37.16V629.76H48.552V632H34.92ZM51.5963 616H53.8363V632H51.5963V616ZM52.7323 613.2C52.3696 613.2 52.0603 613.083 51.8043 612.848C51.5589 612.603 51.4363 612.299 51.4363 611.936C51.4363 611.573 51.5589 611.275 51.8043 611.04C52.0603 610.795 52.3696 610.672 52.7323 610.672C53.0843 610.672 53.3829 610.795 53.6283 611.04C53.8843 611.275 54.0123 611.573 54.0123 611.936C54.0123 612.299 53.8896 612.603 53.6443 612.848C53.3989 613.083 53.0949 613.2 52.7323 613.2ZM57.335 632V608H59.575V632H57.335ZM69.8637 632.416C68.3917 632.416 67.0477 632.037 65.8317 631.28C64.6264 630.523 63.6611 629.509 62.9357 628.24C62.2211 626.96 61.8637 625.547 61.8637 624C61.8637 622.827 62.0717 621.733 62.4877 620.72C62.9037 619.696 63.4744 618.8 64.1997 618.032C64.9357 617.253 65.7891 616.645 66.7597 616.208C67.7304 615.771 68.7651 615.552 69.8637 615.552C71.0477 615.552 72.1357 615.787 73.1278 616.256C74.1304 616.725 74.9891 617.381 75.7038 618.224C76.4291 619.067 76.9731 620.053 77.3358 621.184C77.7091 622.315 77.8637 623.536 77.7997 624.848H64.2317C64.3597 625.861 64.6797 626.768 65.1917 627.568C65.7144 628.368 66.3757 629.003 67.1757 629.472C67.9864 629.931 68.8824 630.165 69.8637 630.176C70.9304 630.176 71.8904 629.899 72.7437 629.344C73.6077 628.789 74.3011 628.027 74.8238 627.056L77.0958 627.584C76.4558 629.003 75.4904 630.165 74.1997 631.072C72.9091 631.968 71.4637 632.416 69.8637 632.416ZM64.1677 623.04H75.5437C75.4691 622.048 75.1651 621.141 74.6318 620.32C74.1091 619.488 73.4317 618.827 72.5997 618.336C71.7678 617.835 70.8558 617.584 69.8637 617.584C68.8717 617.584 67.9651 617.829 67.1437 618.32C66.3224 618.8 65.6504 619.456 65.1277 620.288C64.6051 621.109 64.2851 622.027 64.1677 623.04ZM86.9463 632.416C85.4743 632.416 84.1303 632.037 82.9143 631.28C81.7089 630.523 80.7436 629.509 80.0183 628.24C79.3036 626.96 78.9463 625.547 78.9463 624C78.9463 622.827 79.1543 621.733 79.5703 620.72C79.9863 619.696 80.5569 618.8 81.2823 618.032C82.0183 617.253 82.8716 616.645 83.8423 616.208C84.8129 615.771 85.8476 615.552 86.9463 615.552C88.1303 615.552 89.2183 615.787 90.2103 616.256C91.2129 616.725 92.0716 617.381 92.7863 618.224C93.5116 619.067 94.0556 620.053 94.4183 621.184C94.7916 622.315 94.9463 623.536 94.8823 624.848H81.3143C81.4423 625.861 81.7623 626.768 82.2743 627.568C82.7969 628.368 83.4583 629.003 84.2583 629.472C85.0689 629.931 85.9649 630.165 86.9463 630.176C88.0129 630.176 88.9729 629.899 89.8263 629.344C90.6903 628.789 91.3836 628.027 91.9063 627.056L94.1783 627.584C93.5383 629.003 92.5729 630.165 91.2823 631.072C89.9916 631.968 88.5463 632.416 86.9463 632.416ZM81.2503 623.04H92.6263C92.5516 622.048 92.2476 621.141 91.7143 620.32C91.1916 619.488 90.5143 618.827 89.6823 618.336C88.8503 617.835 87.9383 617.584 86.9463 617.584C85.9543 617.584 85.0476 617.829 84.2263 618.32C83.4049 618.8 82.7329 619.456 82.2103 620.288C81.6876 621.109 81.3676 622.027 81.2503 623.04ZM111.097 622.096V632H108.857V622.544C108.857 621.669 108.644 620.875 108.217 620.16C107.79 619.445 107.22 618.875 106.505 618.448C105.79 618.021 104.996 617.808 104.121 617.808C103.257 617.808 102.462 618.021 101.737 618.448C101.022 618.875 100.452 619.445 100.025 620.16C99.5983 620.875 99.385 621.669 99.385 622.544V632H97.145V616H99.385V618.208C99.9503 617.397 100.686 616.752 101.593 616.272C102.5 615.792 103.486 615.552 104.553 615.552C105.758 615.552 106.857 615.845 107.849 616.432C108.841 617.019 109.63 617.808 110.217 618.8C110.804 619.792 111.097 620.891 111.097 622.096ZM121.029 616H123.269V632H121.029V616ZM122.165 613.2C121.802 613.2 121.493 613.083 121.237 612.848C120.991 612.603 120.869 612.299 120.869 611.936C120.869 611.573 120.991 611.275 121.237 611.04C121.493 610.795 121.802 610.672 122.165 610.672C122.517 610.672 122.815 610.795 123.061 611.04C123.317 611.275 123.445 611.573 123.445 611.936C123.445 612.299 123.322 612.603 123.077 612.848C122.831 613.083 122.527 613.2 122.165 613.2ZM131.462 632.304C130.587 632.283 129.734 632.123 128.902 631.824C128.07 631.525 127.344 631.12 126.726 630.608C126.107 630.096 125.664 629.515 125.398 628.864L127.334 628.032C127.504 628.448 127.819 628.832 128.278 629.184C128.747 629.525 129.28 629.803 129.878 630.016C130.475 630.219 131.067 630.32 131.654 630.32C132.304 630.32 132.912 630.213 133.478 630C134.043 629.787 134.502 629.483 134.854 629.088C135.216 628.683 135.398 628.208 135.398 627.664C135.398 627.077 135.206 626.619 134.822 626.288C134.438 625.947 133.952 625.68 133.366 625.488C132.779 625.285 132.176 625.093 131.558 624.912C130.427 624.603 129.43 624.261 128.566 623.888C127.702 623.515 127.024 623.04 126.534 622.464C126.054 621.877 125.814 621.125 125.814 620.208C125.814 619.237 126.086 618.4 126.63 617.696C127.184 616.981 127.904 616.432 128.79 616.048C129.686 615.653 130.64 615.456 131.654 615.456C132.955 615.456 134.139 615.739 135.206 616.304C136.283 616.869 137.062 617.621 137.542 618.56L135.734 619.632C135.542 619.195 135.238 618.816 134.822 618.496C134.406 618.176 133.931 617.925 133.398 617.744C132.875 617.563 132.342 617.467 131.798 617.456C131.115 617.445 130.48 617.547 129.894 617.76C129.307 617.963 128.832 618.267 128.47 618.672C128.118 619.077 127.942 619.573 127.942 620.16C127.942 620.747 128.118 621.195 128.47 621.504C128.822 621.803 129.296 622.048 129.894 622.24C130.502 622.421 131.184 622.635 131.942 622.88C132.912 623.189 133.824 623.541 134.678 623.936C135.531 624.331 136.219 624.821 136.742 625.408C137.264 625.995 137.52 626.736 137.51 627.632C137.51 628.592 137.222 629.429 136.646 630.144C136.07 630.859 135.323 631.408 134.406 631.792C133.488 632.165 132.507 632.336 131.462 632.304ZM146.995 632V616H149.235V618.208C149.8 617.397 150.536 616.752 151.443 616.272C152.35 615.792 153.336 615.552 154.403 615.552C155.022 615.552 155.619 615.632 156.195 615.792L155.283 618.016C154.835 617.877 154.398 617.808 153.971 617.808C153.107 617.808 152.312 618.021 151.587 618.448C150.872 618.875 150.302 619.445 149.875 620.16C149.448 620.875 149.235 621.669 149.235 622.544V632H146.995ZM163.93 632.416C162.458 632.416 161.114 632.037 159.898 631.28C158.693 630.523 157.727 629.509 157.002 628.24C156.287 626.96 155.93 625.547 155.93 624C155.93 622.827 156.138 621.733 156.554 620.72C156.97 619.696 157.541 618.8 158.266 618.032C159.002 617.253 159.855 616.645 160.826 616.208C161.797 615.771 162.831 615.552 163.93 615.552C165.114 615.552 166.202 615.787 167.194 616.256C168.197 616.725 169.055 617.381 169.77 618.224C170.495 619.067 171.039 620.053 171.402 621.184C171.775 622.315 171.93 623.536 171.866 624.848H158.298C158.426 625.861 158.746 626.768 159.258 627.568C159.781 628.368 160.442 629.003 161.242 629.472C162.053 629.931 162.949 630.165 163.93 630.176C164.997 630.176 165.957 629.899 166.81 629.344C167.674 628.789 168.367 628.027 168.89 627.056L171.162 627.584C170.522 629.003 169.557 630.165 168.266 631.072C166.975 631.968 165.53 632.416 163.93 632.416ZM158.234 623.04H169.61C169.535 622.048 169.231 621.141 168.698 620.32C168.175 619.488 167.498 618.827 166.666 618.336C165.834 617.835 164.922 617.584 163.93 617.584C162.938 617.584 162.031 617.829 161.21 618.32C160.389 618.8 159.717 619.456 159.194 620.288C158.671 621.109 158.351 622.027 158.234 623.04ZM187.125 616H189.365V632H187.125L187.045 629.024C186.522 630.037 185.791 630.859 184.853 631.488C183.914 632.107 182.794 632.416 181.493 632.416C180.319 632.416 179.221 632.197 178.197 631.76C177.173 631.312 176.271 630.699 175.493 629.92C174.714 629.141 174.106 628.24 173.669 627.216C173.231 626.192 173.013 625.093 173.013 623.92C173.013 622.768 173.226 621.685 173.653 620.672C174.09 619.659 174.687 618.768 175.445 618C176.213 617.232 177.098 616.635 178.101 616.208C179.114 615.771 180.197 615.552 181.349 615.552C182.682 615.552 183.845 615.872 184.837 616.512C185.829 617.141 186.618 617.968 187.205 618.992L187.125 616ZM181.445 630.24C182.586 630.24 183.567 629.963 184.389 629.408C185.21 628.843 185.839 628.085 186.277 627.136C186.725 626.187 186.949 625.141 186.949 624C186.949 622.827 186.725 621.771 186.277 620.832C185.829 619.883 185.194 619.131 184.373 618.576C183.551 618.021 182.575 617.744 181.445 617.744C180.314 617.744 179.279 618.027 178.341 618.592C177.413 619.147 176.671 619.899 176.117 620.848C175.573 621.797 175.301 622.848 175.301 624C175.301 625.163 175.583 626.219 176.149 627.168C176.714 628.107 177.461 628.853 178.389 629.408C179.327 629.963 180.346 630.24 181.445 630.24ZM192.305 632V608H194.545V632H192.305ZM197.919 632V608H200.159V632H197.919ZM214.024 616H216.392L207.64 640H205.256L208.168 632L202.424 616H204.872L209.288 628.912L214.024 616ZM237.746 627.984L239.746 629.072C239.021 630.085 238.098 630.896 236.978 631.504C235.869 632.112 234.664 632.416 233.362 632.416C231.89 632.416 230.546 632.037 229.33 631.28C228.125 630.523 227.16 629.509 226.434 628.24C225.72 626.96 225.362 625.547 225.362 624C225.362 622.827 225.57 621.733 225.986 620.72C226.402 619.696 226.973 618.8 227.698 618.032C228.434 617.253 229.288 616.645 230.258 616.208C231.229 615.771 232.264 615.552 233.362 615.552C234.664 615.552 235.869 615.856 236.978 616.464C238.098 617.072 239.021 617.888 239.746 618.912L237.746 619.984C237.192 619.28 236.525 618.741 235.746 618.368C234.968 617.984 234.173 617.792 233.362 617.792C232.285 617.792 231.309 618.08 230.434 618.656C229.56 619.221 228.866 619.973 228.354 620.912C227.853 621.851 227.602 622.88 227.602 624C227.602 625.12 227.858 626.149 228.37 627.088C228.893 628.027 229.592 628.779 230.466 629.344C231.341 629.899 232.306 630.176 233.362 630.176C234.237 630.176 235.058 629.973 235.826 629.568C236.594 629.163 237.234 628.635 237.746 627.984ZM248.976 632.416C247.504 632.416 246.16 632.037 244.944 631.28C243.739 630.523 242.774 629.509 242.048 628.24C241.334 626.96 240.976 625.547 240.976 624C240.976 622.827 241.184 621.733 241.6 620.72C242.016 619.696 242.587 618.8 243.312 618.032C244.048 617.253 244.902 616.645 245.872 616.208C246.843 615.771 247.878 615.552 248.976 615.552C250.448 615.552 251.787 615.931 252.992 616.688C254.208 617.445 255.174 618.464 255.888 619.744C256.614 621.024 256.976 622.443 256.976 624C256.976 625.163 256.768 626.251 256.352 627.264C255.936 628.277 255.36 629.173 254.624 629.952C253.899 630.72 253.051 631.323 252.08 631.76C251.12 632.197 250.086 632.416 248.976 632.416ZM248.976 630.176C250.064 630.176 251.04 629.893 251.904 629.328C252.779 628.752 253.467 627.995 253.968 627.056C254.48 626.117 254.736 625.099 254.736 624C254.736 622.88 254.48 621.851 253.968 620.912C253.456 619.963 252.763 619.205 251.888 618.64C251.024 618.075 250.054 617.792 248.976 617.792C247.888 617.792 246.907 618.08 246.032 618.656C245.168 619.221 244.48 619.973 243.968 620.912C243.467 621.851 243.216 622.88 243.216 624C243.216 625.152 243.478 626.197 244 627.136C244.523 628.064 245.222 628.805 246.096 629.36C246.971 629.904 247.931 630.176 248.976 630.176ZM266.09 632.416C264.618 632.416 263.274 632.037 262.058 631.28C260.853 630.523 259.887 629.509 259.162 628.24C258.447 626.96 258.09 625.547 258.09 624C258.09 622.827 258.298 621.733 258.714 620.72C259.13 619.696 259.701 618.8 260.426 618.032C261.162 617.253 262.015 616.645 262.986 616.208C263.957 615.771 264.991 615.552 266.09 615.552C267.562 615.552 268.901 615.931 270.106 616.688C271.322 617.445 272.287 618.464 273.002 619.744C273.727 621.024 274.09 622.443 274.09 624C274.09 625.163 273.882 626.251 273.466 627.264C273.05 628.277 272.474 629.173 271.738 629.952C271.013 630.72 270.165 631.323 269.194 631.76C268.234 632.197 267.199 632.416 266.09 632.416ZM266.09 630.176C267.178 630.176 268.154 629.893 269.018 629.328C269.893 628.752 270.581 627.995 271.082 627.056C271.594 626.117 271.85 625.099 271.85 624C271.85 622.88 271.594 621.851 271.082 620.912C270.57 619.963 269.877 619.205 269.002 618.64C268.138 618.075 267.167 617.792 266.09 617.792C265.002 617.792 264.021 618.08 263.146 618.656C262.282 619.221 261.594 619.973 261.082 620.912C260.581 621.851 260.33 622.88 260.33 624C260.33 625.152 260.591 626.197 261.114 627.136C261.637 628.064 262.335 628.805 263.21 629.36C264.085 629.904 265.045 630.176 266.09 630.176ZM276.195 632V608H278.435V632H276.195ZM302.168 616H304.408V632H302.168L302.088 629.024C301.566 630.037 300.835 630.859 299.896 631.488C298.958 632.107 297.838 632.416 296.536 632.416C295.363 632.416 294.264 632.197 293.24 631.76C292.216 631.312 291.315 630.699 290.536 629.92C289.758 629.141 289.15 628.24 288.712 627.216C288.275 626.192 288.056 625.093 288.056 623.92C288.056 622.768 288.27 621.685 288.696 620.672C289.134 619.659 289.731 618.768 290.488 618C291.256 617.232 292.142 616.635 293.144 616.208C294.158 615.771 295.24 615.552 296.392 615.552C297.726 615.552 298.888 615.872 299.88 616.512C300.872 617.141 301.662 617.968 302.248 618.992L302.168 616ZM296.488 630.24C297.63 630.24 298.611 629.963 299.432 629.408C300.254 628.843 300.883 628.085 301.32 627.136C301.768 626.187 301.992 625.141 301.992 624C301.992 622.827 301.768 621.771 301.32 620.832C300.872 619.883 300.238 619.131 299.416 618.576C298.595 618.021 297.619 617.744 296.488 617.744C295.358 617.744 294.323 618.027 293.384 618.592C292.456 619.147 291.715 619.899 291.16 620.848C290.616 621.797 290.344 622.848 290.344 624C290.344 625.163 290.627 626.219 291.192 627.168C291.758 628.107 292.504 628.853 293.432 629.408C294.371 629.963 295.39 630.24 296.488 630.24ZM321.082 622.096V632H318.842V622.544C318.842 621.669 318.629 620.875 318.202 620.16C317.775 619.445 317.205 618.875 316.49 618.448C315.775 618.021 314.981 617.808 314.106 617.808C313.242 617.808 312.447 618.021 311.722 618.448C311.007 618.875 310.437 619.445 310.01 620.16C309.583 620.875 309.37 621.669 309.37 622.544V632H307.13V616H309.37V618.208C309.935 617.397 310.671 616.752 311.578 616.272C312.485 615.792 313.471 615.552 314.538 615.552C315.743 615.552 316.842 615.845 317.834 616.432C318.826 617.019 319.615 617.808 320.202 618.8C320.789 619.792 321.082 620.891 321.082 622.096ZM336.662 608H338.902V632H336.662V629.008C336.107 630.032 335.344 630.859 334.374 631.488C333.414 632.107 332.272 632.416 330.95 632.416C329.787 632.416 328.699 632.197 327.686 631.76C326.672 631.323 325.776 630.72 324.998 629.952C324.23 629.173 323.627 628.277 323.19 627.264C322.752 626.251 322.534 625.163 322.534 624C322.534 622.837 322.752 621.749 323.19 620.736C323.627 619.712 324.23 618.816 324.998 618.048C325.776 617.269 326.672 616.661 327.686 616.224C328.699 615.787 329.787 615.568 330.95 615.568C332.272 615.568 333.414 615.883 334.374 616.512C335.344 617.131 336.107 617.947 336.662 618.96V608ZM330.966 630.24C332.107 630.24 333.088 629.963 333.91 629.408C334.731 628.843 335.36 628.085 335.798 627.136C336.246 626.187 336.47 625.141 336.47 624C336.47 622.827 336.246 621.771 335.798 620.832C335.35 619.883 334.715 619.131 333.894 618.576C333.072 618.021 332.096 617.744 330.966 617.744C329.835 617.744 328.806 618.027 327.878 618.592C326.95 619.147 326.208 619.899 325.654 620.848C325.099 621.797 324.822 622.848 324.822 624C324.822 625.163 325.104 626.219 325.67 627.168C326.235 628.107 326.982 628.853 327.91 629.408C328.848 629.963 329.867 630.24 330.966 630.24ZM35.4 670V647.6H37.64V670H35.4ZM53.6228 670.304C52.7481 670.283 51.8948 670.123 51.0628 669.824C50.2308 669.525 49.5054 669.12 48.8867 668.608C48.2681 668.096 47.8254 667.515 47.5587 666.864L49.4948 666.032C49.6654 666.448 49.9801 666.832 50.4388 667.184C50.9081 667.525 51.4414 667.803 52.0388 668.016C52.6361 668.219 53.2281 668.32 53.8148 668.32C54.4654 668.32 55.0734 668.213 55.6388 668C56.2041 667.787 56.6628 667.483 57.0148 667.088C57.3774 666.683 57.5588 666.208 57.5588 665.664C57.5588 665.077 57.3668 664.619 56.9828 664.288C56.5988 663.947 56.1134 663.68 55.5268 663.488C54.9401 663.285 54.3374 663.093 53.7188 662.912C52.5881 662.603 51.5908 662.261 50.7268 661.888C49.8628 661.515 49.1854 661.04 48.6948 660.464C48.2148 659.877 47.9748 659.125 47.9748 658.208C47.9748 657.237 48.2468 656.4 48.7908 655.696C49.3454 654.981 50.0654 654.432 50.9508 654.048C51.8468 653.653 52.8014 653.456 53.8148 653.456C55.1161 653.456 56.3001 653.739 57.3668 654.304C58.4441 654.869 59.2228 655.621 59.7028 656.56L57.8948 657.632C57.7028 657.195 57.3988 656.816 56.9828 656.496C56.5668 656.176 56.0921 655.925 55.5588 655.744C55.0361 655.563 54.5028 655.467 53.9588 655.456C53.2761 655.445 52.6414 655.547 52.0548 655.76C51.4681 655.963 50.9934 656.267 50.6308 656.672C50.2788 657.077 50.1028 657.573 50.1028 658.16C50.1028 658.747 50.2788 659.195 50.6308 659.504C50.9828 659.803 51.4574 660.048 52.0548 660.24C52.6628 660.421 53.3454 660.635 54.1028 660.88C55.0734 661.189 55.9854 661.541 56.8388 661.936C57.6921 662.331 58.3801 662.821 58.9028 663.408C59.4254 663.995 59.6814 664.736 59.6708 665.632C59.6708 666.592 59.3828 667.429 58.8068 668.144C58.2308 668.859 57.4841 669.408 56.5668 669.792C55.6494 670.165 54.6681 670.336 53.6228 670.304ZM74.9757 654H77.2157V670H74.9757L74.8958 667.024C74.3731 668.037 73.6424 668.859 72.7037 669.488C71.7651 670.107 70.6451 670.416 69.3438 670.416C68.1704 670.416 67.0717 670.197 66.0477 669.76C65.0237 669.312 64.1224 668.699 63.3437 667.92C62.5651 667.141 61.9571 666.24 61.5197 665.216C61.0824 664.192 60.8637 663.093 60.8637 661.92C60.8637 660.768 61.0771 659.685 61.5037 658.672C61.9411 657.659 62.5384 656.768 63.2957 656C64.0637 655.232 64.9491 654.635 65.9517 654.208C66.9651 653.771 68.0477 653.552 69.1997 653.552C70.5331 653.552 71.6957 653.872 72.6877 654.512C73.6797 655.141 74.4691 655.968 75.0557 656.992L74.9757 654ZM69.2957 668.24C70.4371 668.24 71.4184 667.963 72.2397 667.408C73.0611 666.843 73.6904 666.085 74.1278 665.136C74.5758 664.187 74.7998 663.141 74.7998 662C74.7998 660.827 74.5758 659.771 74.1278 658.832C73.6798 657.883 73.0451 657.131 72.2238 656.576C71.4024 656.021 70.4264 655.744 69.2957 655.744C68.1651 655.744 67.1304 656.027 66.1917 656.592C65.2637 657.147 64.5224 657.899 63.9677 658.848C63.4237 659.797 63.1517 660.848 63.1517 662C63.1517 663.163 63.4344 664.219 63.9997 665.168C64.5651 666.107 65.3117 666.853 66.2397 667.408C67.1784 667.963 68.1971 668.24 69.2957 668.24ZM90.5225 654H92.8905L84.1385 678H81.7545L84.6665 670L78.9225 654H81.3705L85.7865 666.912L90.5225 654ZM110.997 656.24H107.173L107.157 670H104.917L104.933 656.24H102.037V654H104.933L104.917 648.976H107.157L107.173 654H110.997V656.24ZM127.325 660.096V670H125.085V660.544C125.085 659.669 124.871 658.875 124.444 658.16C124.018 657.445 123.447 656.875 122.733 656.448C122.018 656.021 121.223 655.808 120.349 655.808C119.484 655.808 118.69 656.021 117.964 656.448C117.25 656.875 116.679 657.445 116.252 658.16C115.826 658.875 115.612 659.669 115.612 660.544V670H113.372V646H115.612V656.208C116.178 655.397 116.914 654.752 117.82 654.272C118.727 653.792 119.714 653.552 120.78 653.552C121.986 653.552 123.084 653.845 124.076 654.432C125.068 655.019 125.858 655.808 126.444 656.8C127.031 657.792 127.325 658.891 127.325 660.096ZM142.888 654H145.128V670H142.888L142.808 667.024C142.286 668.037 141.555 668.859 140.616 669.488C139.678 670.107 138.558 670.416 137.256 670.416C136.083 670.416 134.984 670.197 133.96 669.76C132.936 669.312 132.035 668.699 131.256 667.92C130.478 667.141 129.87 666.24 129.432 665.216C128.995 664.192 128.776 663.093 128.776 661.92C128.776 660.768 128.99 659.685 129.416 658.672C129.854 657.659 130.451 656.768 131.208 656C131.976 655.232 132.862 654.635 133.864 654.208C134.878 653.771 135.96 653.552 137.112 653.552C138.446 653.552 139.608 653.872 140.6 654.512C141.592 655.141 142.382 655.968 142.968 656.992L142.888 654ZM137.208 668.24C138.35 668.24 139.331 667.963 140.152 667.408C140.974 666.843 141.603 666.085 142.04 665.136C142.488 664.187 142.712 663.141 142.712 662C142.712 660.827 142.488 659.771 142.04 658.832C141.592 657.883 140.958 657.131 140.136 656.576C139.315 656.021 138.339 655.744 137.208 655.744C136.078 655.744 135.043 656.027 134.104 656.592C133.176 657.147 132.435 657.899 131.88 658.848C131.336 659.797 131.064 660.848 131.064 662C131.064 663.163 131.347 664.219 131.912 665.168C132.478 666.107 133.224 666.853 134.152 667.408C135.091 667.963 136.11 668.24 137.208 668.24ZM156.026 656.24H152.202L152.186 670H149.946L149.962 656.24H147.066V654H149.962L149.946 648.976H152.186L152.202 654H156.026V656.24ZM167.369 670V649.84H164.969L165.609 647.6H169.609V670H167.369ZM181.23 670.416C179.886 670.416 178.686 670.117 177.63 669.52C176.574 668.912 175.672 668.075 174.926 667.008C174.179 665.941 173.608 664.709 173.214 663.312C172.83 661.904 172.638 660.4 172.638 658.8C172.638 657.2 172.83 655.696 173.214 654.288C173.608 652.88 174.179 651.648 174.926 650.592C175.672 649.525 176.574 648.693 177.63 648.096C178.686 647.488 179.886 647.184 181.23 647.184C182.563 647.184 183.758 647.488 184.814 648.096C185.87 648.693 186.766 649.525 187.502 650.592C188.238 651.648 188.798 652.88 189.182 654.288C189.576 655.696 189.774 657.2 189.774 658.8C189.774 660.4 189.576 661.904 189.182 663.312C188.798 664.709 188.238 665.941 187.502 667.008C186.766 668.075 185.87 668.912 184.814 669.52C183.758 670.117 182.563 670.416 181.23 670.416ZM181.23 668.176C182.638 668.176 183.816 667.744 184.766 666.88C185.726 666.016 186.446 664.875 186.926 663.456C187.406 662.027 187.646 660.475 187.646 658.8C187.646 657.029 187.395 655.44 186.894 654.032C186.403 652.613 185.678 651.493 184.718 650.672C183.768 649.84 182.606 649.424 181.23 649.424C180.142 649.424 179.192 649.675 178.382 650.176C177.571 650.677 176.899 651.365 176.366 652.24C175.832 653.115 175.432 654.117 175.166 655.248C174.899 656.368 174.766 657.552 174.766 658.8C174.766 660.485 175.011 662.043 175.502 663.472C175.992 664.891 176.718 666.032 177.678 666.896C178.638 667.749 179.822 668.176 181.23 668.176ZM199.499 670.416C198.155 670.416 196.955 670.117 195.899 669.52C194.843 668.912 193.942 668.075 193.195 667.008C192.449 665.941 191.878 664.709 191.483 663.312C191.099 661.904 190.907 660.4 190.907 658.8C190.907 657.2 191.099 655.696 191.483 654.288C191.878 652.88 192.449 651.648 193.195 650.592C193.942 649.525 194.843 648.693 195.899 648.096C196.955 647.488 198.155 647.184 199.499 647.184C200.833 647.184 202.027 647.488 203.083 648.096C204.139 648.693 205.035 649.525 205.771 650.592C206.507 651.648 207.067 652.88 207.451 654.288C207.846 655.696 208.043 657.2 208.043 658.8C208.043 660.4 207.846 661.904 207.451 663.312C207.067 664.709 206.507 665.941 205.771 667.008C205.035 668.075 204.139 668.912 203.083 669.52C202.027 670.117 200.833 670.416 199.499 670.416ZM199.499 668.176C200.907 668.176 202.086 667.744 203.035 666.88C203.995 666.016 204.715 664.875 205.195 663.456C205.675 662.027 205.915 660.475 205.915 658.8C205.915 657.029 205.665 655.44 205.163 654.032C204.673 652.613 203.947 651.493 202.987 650.672C202.038 649.84 200.875 649.424 199.499 649.424C198.411 649.424 197.462 649.675 196.651 650.176C195.841 650.677 195.169 651.365 194.635 652.24C194.102 653.115 193.702 654.117 193.435 655.248C193.169 656.368 193.035 657.552 193.035 658.8C193.035 660.485 193.281 662.043 193.771 663.472C194.262 664.891 194.987 666.032 195.947 666.896C196.907 667.749 198.091 668.176 199.499 668.176ZM211.01 670L223.938 647.6H226.53L213.602 670H211.01ZM213.634 656.352C212.93 656.352 212.29 656.181 211.714 655.84C211.138 655.499 210.674 655.04 210.322 654.464C209.981 653.877 209.81 653.232 209.81 652.528C209.81 651.803 209.981 651.152 210.322 650.576C210.674 650 211.138 649.541 211.714 649.2C212.301 648.859 212.941 648.688 213.634 648.688C214.338 648.688 214.978 648.864 215.554 649.216C216.13 649.557 216.589 650.016 216.93 650.592C217.282 651.168 217.458 651.813 217.458 652.528C217.458 653.243 217.282 653.888 216.93 654.464C216.589 655.04 216.125 655.499 215.538 655.84C214.962 656.181 214.327 656.352 213.634 656.352ZM213.634 654.64C214.231 654.64 214.733 654.437 215.138 654.032C215.543 653.616 215.746 653.115 215.746 652.528C215.746 651.931 215.543 651.429 215.138 651.024C214.733 650.608 214.231 650.4 213.634 650.4C213.047 650.4 212.546 650.608 212.13 651.024C211.725 651.429 211.522 651.931 211.522 652.528C211.522 653.115 211.725 653.616 212.13 654.032C212.546 654.437 213.047 654.64 213.634 654.64ZM223.938 668.928C223.234 668.928 222.589 668.752 222.002 668.4C221.426 668.037 220.962 667.568 220.61 666.992C220.269 666.405 220.098 665.771 220.098 665.088C220.098 664.373 220.274 663.728 220.626 663.152C220.978 662.565 221.442 662.101 222.018 661.76C222.605 661.419 223.245 661.248 223.938 661.248C224.653 661.248 225.298 661.424 225.874 661.776C226.45 662.128 226.909 662.597 227.25 663.184C227.591 663.76 227.762 664.395 227.762 665.088C227.762 665.792 227.591 666.437 227.25 667.024C226.909 667.6 226.445 668.064 225.858 668.416C225.282 668.757 224.642 668.928 223.938 668.928ZM223.938 667.216C224.514 667.216 225.01 667.008 225.426 666.592C225.842 666.176 226.05 665.675 226.05 665.088C226.05 664.501 225.842 664 225.426 663.584C225.01 663.168 224.514 662.96 223.938 662.96C223.351 662.96 222.845 663.168 222.418 663.584C222.002 664 221.794 664.501 221.794 665.088C221.794 665.675 222.002 666.176 222.418 666.592C222.845 667.008 223.351 667.216 223.938 667.216ZM245.406 670H242.558L236.718 653.952H239.102L243.982 667.376L248.862 653.952H251.246L245.406 670ZM259.831 670.416C258.359 670.416 257.015 670.037 255.799 669.28C254.594 668.523 253.629 667.509 252.903 666.24C252.189 664.96 251.831 663.547 251.831 662C251.831 660.827 252.039 659.733 252.455 658.72C252.871 657.696 253.442 656.8 254.167 656.032C254.903 655.253 255.757 654.645 256.727 654.208C257.698 653.771 258.733 653.552 259.831 653.552C261.303 653.552 262.642 653.931 263.847 654.688C265.063 655.445 266.029 656.464 266.743 657.744C267.469 659.024 267.831 660.443 267.831 662C267.831 663.163 267.623 664.251 267.207 665.264C266.791 666.277 266.215 667.173 265.479 667.952C264.754 668.72 263.906 669.323 262.935 669.76C261.975 670.197 260.941 670.416 259.831 670.416ZM259.831 668.176C260.919 668.176 261.895 667.893 262.759 667.328C263.634 666.752 264.322 665.995 264.823 665.056C265.335 664.117 265.591 663.099 265.591 662C265.591 660.88 265.335 659.851 264.823 658.912C264.311 657.963 263.618 657.205 262.743 656.64C261.879 656.075 260.909 655.792 259.831 655.792C258.743 655.792 257.762 656.08 256.887 656.656C256.023 657.221 255.335 657.973 254.823 658.912C254.322 659.851 254.071 660.88 254.071 662C254.071 663.152 254.333 664.197 254.855 665.136C255.378 666.064 256.077 666.805 256.951 667.36C257.826 667.904 258.786 668.176 259.831 668.176ZM269.936 670V646H272.176V670H269.936ZM274.91 663.872V654H277.15V663.424C277.15 664.299 277.363 665.093 277.79 665.808C278.217 666.523 278.787 667.093 279.502 667.52C280.227 667.947 281.022 668.16 281.886 668.16C282.761 668.16 283.55 667.947 284.254 667.52C284.969 667.093 285.539 666.523 285.966 665.808C286.393 665.093 286.606 664.299 286.606 663.424V654H288.846L288.862 670H286.622L286.606 667.76C286.041 668.571 285.305 669.216 284.398 669.696C283.502 670.176 282.521 670.416 281.454 670.416C280.249 670.416 279.15 670.123 278.158 669.536C277.166 668.949 276.377 668.16 275.79 667.168C275.203 666.176 274.91 665.077 274.91 663.872ZM305.522 660.096V670H303.282V660.544C303.282 659.669 303.069 658.875 302.642 658.16C302.215 657.445 301.645 656.875 300.93 656.448C300.215 656.021 299.421 655.808 298.546 655.808C297.682 655.808 296.887 656.021 296.162 656.448C295.447 656.875 294.877 657.445 294.45 658.16C294.023 658.875 293.81 659.669 293.81 660.544V670H291.57V654H293.81V656.208C294.375 655.397 295.111 654.752 296.018 654.272C296.925 653.792 297.911 653.552 298.978 653.552C300.183 653.552 301.282 653.845 302.274 654.432C303.266 655.019 304.055 655.808 304.642 656.8C305.229 657.792 305.522 658.891 305.522 660.096ZM316.422 656.24H312.598L312.582 670H310.342L310.358 656.24H307.462V654H310.358L310.342 648.976H312.582L312.598 654H316.422V656.24ZM331.512 654H333.752V670H331.512L331.432 667.024C330.909 668.037 330.179 668.859 329.24 669.488C328.301 670.107 327.181 670.416 325.88 670.416C324.707 670.416 323.608 670.197 322.584 669.76C321.56 669.312 320.659 668.699 319.88 667.92C319.101 667.141 318.493 666.24 318.056 665.216C317.619 664.192 317.4 663.093 317.4 661.92C317.4 660.768 317.613 659.685 318.04 658.672C318.477 657.659 319.075 656.768 319.832 656C320.6 655.232 321.485 654.635 322.488 654.208C323.501 653.771 324.584 653.552 325.736 653.552C327.069 653.552 328.232 653.872 329.224 654.512C330.216 655.141 331.005 655.968 331.592 656.992L331.512 654ZM325.832 668.24C326.973 668.24 327.955 667.963 328.776 667.408C329.597 666.843 330.227 666.085 330.664 665.136C331.112 664.187 331.336 663.141 331.336 662C331.336 660.827 331.112 659.771 330.664 658.832C330.216 657.883 329.581 657.131 328.76 656.576C327.939 656.021 326.963 655.744 325.832 655.744C324.701 655.744 323.667 656.027 322.728 656.592C321.8 657.147 321.059 657.899 320.504 658.848C319.96 659.797 319.688 660.848 319.688 662C319.688 663.163 319.971 664.219 320.536 665.168C321.101 666.107 321.848 666.853 322.776 667.408C323.715 667.963 324.733 668.24 325.832 668.24ZM336.474 670V654H338.714V656.208C339.279 655.397 340.015 654.752 340.922 654.272C341.828 653.792 342.815 653.552 343.882 653.552C344.5 653.552 345.098 653.632 345.674 653.792L344.762 656.016C344.314 655.877 343.876 655.808 343.45 655.808C342.586 655.808 341.791 656.021 341.066 656.448C340.351 656.875 339.78 657.445 339.354 658.16C338.927 658.875 338.714 659.669 338.714 660.544V670H336.474ZM347.213 654H349.453V670H347.213V654ZM348.349 651.2C347.986 651.2 347.677 651.083 347.421 650.848C347.175 650.603 347.053 650.299 347.053 649.936C347.053 649.573 347.175 649.275 347.421 649.04C347.677 648.795 347.986 648.672 348.349 648.672C348.701 648.672 348.999 648.795 349.245 649.04C349.501 649.275 349.629 649.573 349.629 649.936C349.629 650.299 349.506 650.603 349.261 650.848C349.015 651.083 348.711 651.2 348.349 651.2ZM352.951 670V646H355.191V670H352.951ZM369.056 654H371.424L362.672 678H360.288L363.2 670L357.456 654H359.904L364.32 666.912L369.056 654Z" fill="#344054"/>
<path d="M1262.89 634.093C1262.55 634.428 1262.39 634.912 1262.47 635.387L1263.65 641.947C1263.75 642.503 1263.52 643.065 1263.05 643.387C1262.6 643.72 1261.99 643.76 1261.49 643.493L1255.59 640.413C1255.38 640.304 1255.15 640.245 1254.92 640.239H1254.56C1254.43 640.257 1254.31 640.297 1254.2 640.359L1248.29 643.453C1248 643.6 1247.67 643.652 1247.34 643.6C1246.56 643.451 1246.03 642.699 1246.16 641.905L1247.34 635.345C1247.42 634.867 1247.26 634.38 1246.92 634.04L1242.1 629.373C1241.7 628.983 1241.56 628.396 1241.75 627.867C1241.92 627.339 1242.38 626.953 1242.93 626.867L1249.56 625.905C1250.06 625.853 1250.5 625.547 1250.73 625.093L1253.65 619.107C1253.72 618.973 1253.81 618.851 1253.92 618.747L1254.04 618.653C1254.1 618.584 1254.17 618.527 1254.25 618.48L1254.4 618.427L1254.62 618.333H1255.19C1255.69 618.385 1256.13 618.685 1256.36 619.133L1259.32 625.093C1259.53 625.529 1259.95 625.832 1260.42 625.905L1267.05 626.867C1267.61 626.947 1268.08 627.333 1268.26 627.867C1268.44 628.401 1268.29 628.988 1267.88 629.373L1262.89 634.093Z" fill="#FB6514"/>
<path d="M1294.89 634.093C1294.55 634.428 1294.39 634.912 1294.47 635.387L1295.65 641.947C1295.75 642.503 1295.52 643.065 1295.05 643.387C1294.6 643.72 1293.99 643.76 1293.49 643.493L1287.59 640.413C1287.38 640.304 1287.15 640.245 1286.92 640.239H1286.56C1286.43 640.257 1286.31 640.297 1286.2 640.359L1280.29 643.453C1280 643.6 1279.67 643.652 1279.34 643.6C1278.56 643.451 1278.03 642.699 1278.16 641.905L1279.34 635.345C1279.42 634.867 1279.26 634.38 1278.92 634.04L1274.1 629.373C1273.7 628.983 1273.56 628.396 1273.75 627.867C1273.92 627.339 1274.38 626.953 1274.93 626.867L1281.56 625.905C1282.06 625.853 1282.5 625.547 1282.73 625.093L1285.65 619.107C1285.72 618.973 1285.81 618.851 1285.92 618.747L1286.04 618.653C1286.1 618.584 1286.17 618.527 1286.25 618.48L1286.4 618.427L1286.62 618.333H1287.19C1287.69 618.385 1288.13 618.685 1288.36 619.133L1291.32 625.093C1291.53 625.529 1291.95 625.832 1292.42 625.905L1299.05 626.867C1299.61 626.947 1300.08 627.333 1300.26 627.867C1300.44 628.401 1300.29 628.988 1299.88 629.373L1294.89 634.093Z" fill="#FB6514"/>
<path d="M1326.89 634.093C1326.55 634.428 1326.39 634.912 1326.47 635.387L1327.65 641.947C1327.75 642.503 1327.52 643.065 1327.05 643.387C1326.6 643.72 1325.99 643.76 1325.49 643.493L1319.59 640.413C1319.38 640.304 1319.15 640.245 1318.92 640.239H1318.56C1318.43 640.257 1318.31 640.297 1318.2 640.359L1312.29 643.453C1312 643.6 1311.67 643.652 1311.34 643.6C1310.56 643.451 1310.03 642.699 1310.16 641.905L1311.34 635.345C1311.42 634.867 1311.26 634.38 1310.92 634.04L1306.1 629.373C1305.7 628.983 1305.56 628.396 1305.75 627.867C1305.92 627.339 1306.38 626.953 1306.93 626.867L1313.56 625.905C1314.06 625.853 1314.5 625.547 1314.73 625.093L1317.65 619.107C1317.72 618.973 1317.81 618.851 1317.92 618.747L1318.04 618.653C1318.1 618.584 1318.17 618.527 1318.25 618.48L1318.4 618.427L1318.62 618.333H1319.19C1319.69 618.385 1320.13 618.685 1320.36 619.133L1323.32 625.093C1323.53 625.529 1323.95 625.832 1324.42 625.905L1331.05 626.867C1331.61 626.947 1332.08 627.333 1332.26 627.867C1332.44 628.401 1332.29 628.988 1331.88 629.373L1326.89 634.093Z" fill="#FB6514"/>
<path d="M1358.89 634.093C1358.55 634.428 1358.39 634.912 1358.47 635.387L1359.65 641.947C1359.75 642.503 1359.52 643.065 1359.05 643.387C1358.6 643.72 1357.99 643.76 1357.49 643.493L1351.59 640.413C1351.38 640.304 1351.15 640.245 1350.92 640.239H1350.56C1350.43 640.257 1350.31 640.297 1350.2 640.359L1344.29 643.453C1344 643.6 1343.67 643.652 1343.34 643.6C1342.56 643.451 1342.03 642.699 1342.16 641.905L1343.34 635.345C1343.42 634.867 1343.26 634.38 1342.92 634.04L1338.1 629.373C1337.7 628.983 1337.56 628.396 1337.75 627.867C1337.92 627.339 1338.38 626.953 1338.93 626.867L1345.56 625.905C1346.06 625.853 1346.5 625.547 1346.73 625.093L1349.65 619.107C1349.72 618.973 1349.81 618.851 1349.92 618.747L1350.04 618.653C1350.1 618.584 1350.17 618.527 1350.25 618.48L1350.4 618.427L1350.62 618.333H1351.19C1351.69 618.385 1352.13 618.685 1352.36 619.133L1355.32 625.093C1355.53 625.529 1355.95 625.832 1356.42 625.905L1363.05 626.867C1363.61 626.947 1364.08 627.333 1364.26 627.867C1364.44 628.401 1364.29 628.988 1363.88 629.373L1358.89 634.093Z" fill="#FB6514"/>
<path d="M1390.89 634.093C1390.55 634.428 1390.39 634.912 1390.47 635.387L1391.65 641.947C1391.75 642.503 1391.52 643.065 1391.05 643.387C1390.6 643.72 1389.99 643.76 1389.49 643.493L1383.59 640.413C1383.38 640.304 1383.15 640.245 1382.92 640.239H1382.56C1382.43 640.257 1382.31 640.297 1382.2 640.359L1376.29 643.453C1376 643.6 1375.67 643.652 1375.34 643.6C1374.56 643.451 1374.03 642.699 1374.16 641.905L1375.34 635.345C1375.42 634.867 1375.26 634.38 1374.92 634.04L1370.1 629.373C1369.7 628.983 1369.56 628.396 1369.75 627.867C1369.92 627.339 1370.38 626.953 1370.93 626.867L1377.56 625.905C1378.06 625.853 1378.5 625.547 1378.73 625.093L1381.65 619.107C1381.72 618.973 1381.81 618.851 1381.92 618.747L1382.04 618.653C1382.1 618.584 1382.17 618.527 1382.25 618.48L1382.4 618.427L1382.62 618.333H1383.19C1383.69 618.385 1384.13 618.685 1384.36 619.133L1387.32 625.093C1387.53 625.529 1387.95 625.832 1388.42 625.905L1395.05 626.867C1395.61 626.947 1396.08 627.333 1396.26 627.867C1396.44 628.401 1396.29 628.988 1395.88 629.373L1390.89 634.093Z" fill="#FB6514"/>
<path d="M1210.69 703.832C1207.83 703.832 1205.21 703.117 1202.82 701.688C1200.43 700.259 1198.52 698.349 1197.09 695.96C1195.66 693.571 1194.95 690.925 1194.95 688.024C1194.95 686.531 1195.12 685.144 1195.46 683.864C1195.82 682.584 1196.38 681.293 1197.12 679.992L1209.67 658.2H1218.72L1210.31 672.76C1212.04 672.632 1213.7 672.781 1215.3 673.208C1216.9 673.635 1218.38 674.307 1219.75 675.224C1221.11 676.141 1222.31 677.251 1223.33 678.552C1224.36 679.853 1225.15 681.304 1225.7 682.904C1226.28 684.504 1226.56 686.211 1226.56 688.024C1226.56 690.2 1226.15 692.237 1225.32 694.136C1224.51 696.035 1223.38 697.72 1221.92 699.192C1220.47 700.643 1218.79 701.784 1216.87 702.616C1214.95 703.427 1212.89 703.832 1210.69 703.832ZM1210.69 696.024C1212.25 696.024 1213.64 695.651 1214.85 694.904C1216.07 694.136 1217.02 693.144 1217.7 691.928C1218.4 690.712 1218.76 689.421 1218.76 688.056C1218.76 686.584 1218.4 685.24 1217.7 684.024C1217 682.808 1216.04 681.837 1214.82 681.112C1213.63 680.387 1212.27 680.024 1210.76 680.024C1209.2 680.024 1207.81 680.408 1206.6 681.176C1205.4 681.923 1204.46 682.904 1203.78 684.12C1203.1 685.336 1202.76 686.648 1202.76 688.056C1202.76 689.571 1203.13 690.925 1203.88 692.12C1204.62 693.315 1205.59 694.264 1206.79 694.968C1208 695.672 1209.31 696.024 1210.69 696.024ZM1273.22 658.2H1282.44L1267.05 682.808V703H1259.24V682.808L1243.85 658.2H1253.06L1263.14 674.296L1273.22 658.2ZM1294.51 703.832C1291.57 703.832 1288.88 703.075 1286.45 701.56C1284.04 700.045 1282.11 698.008 1280.66 695.448C1279.23 692.888 1278.51 690.061 1278.51 686.968C1278.51 684.643 1278.93 682.467 1279.76 680.44C1280.59 678.392 1281.74 676.6 1283.19 675.064C1284.66 673.507 1286.36 672.291 1288.31 671.416C1290.25 670.541 1292.32 670.104 1294.51 670.104C1297.01 670.104 1299.29 670.637 1301.36 671.704C1303.45 672.749 1305.22 674.189 1306.67 676.024C1308.12 677.859 1309.18 679.949 1309.84 682.296C1310.5 684.643 1310.65 687.096 1310.29 689.656H1286.9C1287.2 690.851 1287.69 691.928 1288.37 692.888C1289.05 693.827 1289.92 694.584 1290.96 695.16C1292.01 695.715 1293.19 696.003 1294.51 696.024C1295.88 696.045 1297.12 695.725 1298.23 695.064C1299.36 694.381 1300.3 693.464 1301.04 692.312L1309.01 694.168C1307.71 697.005 1305.77 699.331 1303.19 701.144C1300.6 702.936 1297.71 703.832 1294.51 703.832ZM1286.64 683.8H1302.39C1302.15 682.52 1301.65 681.368 1300.88 680.344C1300.14 679.299 1299.21 678.467 1298.1 677.848C1296.99 677.229 1295.79 676.92 1294.51 676.92C1293.23 676.92 1292.05 677.229 1290.96 677.848C1289.87 678.445 1288.95 679.267 1288.18 680.312C1287.43 681.336 1286.92 682.499 1286.64 683.8ZM1338.79 671H1346.6V703H1338.79L1338.44 699.032C1337.56 700.461 1336.4 701.624 1334.95 702.52C1333.52 703.395 1331.82 703.832 1329.86 703.832C1327.49 703.832 1325.27 703.384 1323.21 702.488C1321.14 701.592 1319.31 700.355 1317.73 698.776C1316.18 697.197 1314.95 695.373 1314.05 693.304C1313.18 691.235 1312.74 689.016 1312.74 686.648C1312.74 684.365 1313.16 682.221 1313.99 680.216C1314.84 678.211 1316.03 676.451 1317.54 674.936C1319.06 673.421 1320.81 672.237 1322.79 671.384C1324.77 670.531 1326.91 670.104 1329.19 670.104C1331.3 670.104 1333.19 670.573 1334.85 671.512C1336.54 672.451 1337.97 673.645 1339.14 675.096L1338.79 671ZM1329.67 696.312C1331.33 696.312 1332.81 695.896 1334.09 695.064C1335.37 694.232 1336.37 693.112 1337.09 691.704C1337.82 690.275 1338.18 688.707 1338.18 687C1338.18 685.272 1337.82 683.704 1337.09 682.296C1336.37 680.867 1335.35 679.736 1334.05 678.904C1332.77 678.072 1331.31 677.656 1329.67 677.656C1328.03 677.656 1326.52 678.083 1325.16 678.936C1323.81 679.768 1322.74 680.888 1321.93 682.296C1321.14 683.704 1320.74 685.272 1320.74 687C1320.74 688.728 1321.15 690.296 1321.96 691.704C1322.77 693.112 1323.85 694.232 1325.19 695.064C1326.55 695.896 1328.05 696.312 1329.67 696.312ZM1352.05 703L1352.01 671H1359.82L1359.85 673.848C1360.94 672.696 1362.24 671.789 1363.76 671.128C1365.27 670.445 1366.9 670.104 1368.65 670.104C1369.83 670.104 1371 670.275 1372.17 670.616L1369.1 678.488C1368.29 678.168 1367.48 678.008 1366.67 678.008C1365.41 678.008 1364.26 678.317 1363.21 678.936C1362.19 679.533 1361.37 680.355 1360.75 681.4C1360.15 682.424 1359.85 683.565 1359.85 684.824V703H1352.05ZM1384.12 703.576C1382.45 703.469 1380.84 703.139 1379.29 702.584C1377.75 702.008 1376.39 701.229 1375.19 700.248C1374 699.267 1373.08 698.093 1372.44 696.728L1379.03 693.912C1379.29 694.339 1379.7 694.797 1380.28 695.288C1380.85 695.757 1381.54 696.152 1382.33 696.472C1383.14 696.792 1384.02 696.952 1384.98 696.952C1385.79 696.952 1386.56 696.845 1387.29 696.632C1388.03 696.397 1388.63 696.045 1389.08 695.576C1389.55 695.107 1389.78 694.499 1389.78 693.752C1389.78 692.963 1389.51 692.355 1388.95 691.928C1388.42 691.48 1387.73 691.149 1386.9 690.936C1386.09 690.701 1385.3 690.488 1384.53 690.296C1382.51 689.891 1380.62 689.261 1378.87 688.408C1377.14 687.555 1375.75 686.456 1374.68 685.112C1373.63 683.747 1373.11 682.104 1373.11 680.184C1373.11 678.072 1373.67 676.248 1374.77 674.712C1375.91 673.176 1377.37 671.992 1379.16 671.16C1380.97 670.328 1382.92 669.912 1385.01 669.912C1387.55 669.912 1389.88 670.445 1391.99 671.512C1394.12 672.557 1395.81 674.04 1397.05 675.96L1390.87 679.608C1390.57 679.096 1390.16 678.627 1389.62 678.2C1389.09 677.752 1388.48 677.389 1387.8 677.112C1387.12 676.813 1386.4 676.643 1385.65 676.6C1384.69 676.557 1383.82 676.643 1383.03 676.856C1382.24 677.069 1381.6 677.432 1381.11 677.944C1380.64 678.456 1380.41 679.139 1380.41 679.992C1380.41 680.803 1380.73 681.411 1381.37 681.816C1382.01 682.2 1382.77 682.499 1383.67 682.712C1384.59 682.925 1385.46 683.16 1386.29 683.416C1388.17 684.035 1389.93 684.792 1391.57 685.688C1393.24 686.584 1394.57 687.683 1395.57 688.984C1396.58 690.285 1397.06 691.843 1397.01 693.656C1397.01 695.725 1396.4 697.539 1395.16 699.096C1393.92 700.632 1392.32 701.805 1390.36 702.616C1388.42 703.427 1386.34 703.747 1384.12 703.576Z" fill="#171717"/>
<path d="M1231.21 744V718.8H1246.55V721.32H1233.73V729.24H1244.33V731.76H1233.73V741.48H1246.55V744H1231.21ZM1248.3 744L1254.89 734.964L1248.32 725.946H1251.43L1256.45 732.804L1261.46 725.946H1264.55L1258 734.964L1264.59 744H1261.48L1256.45 737.088L1251.41 744H1248.3ZM1269.81 753H1267.29V726H1269.81V729.366C1270.43 728.226 1271.29 727.302 1272.37 726.594C1273.45 725.886 1274.73 725.532 1276.22 725.532C1277.53 725.532 1278.75 725.778 1279.89 726.27C1281.04 726.762 1282.05 727.446 1282.91 728.322C1283.78 729.186 1284.46 730.188 1284.95 731.328C1285.44 732.468 1285.69 733.692 1285.69 735C1285.69 736.308 1285.44 737.538 1284.95 738.69C1284.46 739.842 1283.78 740.856 1282.91 741.732C1282.05 742.596 1281.04 743.274 1279.89 743.766C1278.75 744.258 1277.53 744.504 1276.22 744.504C1274.73 744.504 1273.45 744.15 1272.37 743.442C1271.29 742.734 1270.43 741.81 1269.81 740.67V753ZM1276.2 727.98C1274.94 727.98 1273.84 728.298 1272.91 728.934C1271.98 729.558 1271.27 730.398 1270.76 731.454C1270.26 732.51 1270.01 733.692 1270.01 735C1270.01 736.284 1270.25 737.46 1270.75 738.528C1271.25 739.596 1271.96 740.448 1272.89 741.084C1273.82 741.72 1274.93 742.038 1276.2 742.038C1277.45 742.038 1278.59 741.726 1279.64 741.102C1280.69 740.478 1281.54 739.638 1282.18 738.582C1282.81 737.514 1283.13 736.32 1283.13 735C1283.13 733.716 1282.82 732.546 1282.19 731.49C1281.57 730.422 1280.74 729.57 1279.69 728.934C1278.65 728.298 1277.48 727.98 1276.2 727.98ZM1295.94 744.468C1294.28 744.468 1292.77 744.042 1291.4 743.19C1290.05 742.338 1288.96 741.198 1288.14 739.77C1287.34 738.33 1286.94 736.74 1286.94 735C1286.94 733.68 1287.17 732.45 1287.64 731.31C1288.11 730.158 1288.75 729.15 1289.57 728.286C1290.39 727.41 1291.35 726.726 1292.45 726.234C1293.54 725.742 1294.7 725.496 1295.94 725.496C1297.27 725.496 1298.49 725.76 1299.61 726.288C1300.74 726.816 1301.7 727.554 1302.51 728.502C1303.32 729.45 1303.94 730.56 1304.34 731.832C1304.76 733.104 1304.94 734.478 1304.87 735.954H1289.6C1289.75 737.094 1290.11 738.114 1290.68 739.014C1291.27 739.914 1292.01 740.628 1292.91 741.156C1293.83 741.672 1294.83 741.936 1295.94 741.948C1297.14 741.948 1298.22 741.636 1299.18 741.012C1300.15 740.388 1300.93 739.53 1301.52 738.438L1304.07 739.032C1303.35 740.628 1302.27 741.936 1300.82 742.956C1299.36 743.964 1297.74 744.468 1295.94 744.468ZM1289.53 733.92H1302.33C1302.24 732.804 1301.9 731.784 1301.3 730.86C1300.71 729.924 1299.95 729.18 1299.02 728.628C1298.08 728.064 1297.05 727.782 1295.94 727.782C1294.82 727.782 1293.8 728.058 1292.88 728.61C1291.95 729.15 1291.2 729.888 1290.61 730.824C1290.02 731.748 1289.66 732.78 1289.53 733.92ZM1307.41 744V726H1309.93V728.484C1310.57 727.572 1311.4 726.846 1312.42 726.306C1313.44 725.766 1314.55 725.496 1315.75 725.496C1316.44 725.496 1317.11 725.586 1317.76 725.766L1316.74 728.268C1316.23 728.112 1315.74 728.034 1315.26 728.034C1314.29 728.034 1313.39 728.274 1312.58 728.754C1311.77 729.234 1311.13 729.876 1310.65 730.68C1310.17 731.484 1309.93 732.378 1309.93 733.362V744H1307.41ZM1319.49 726H1322.01V744H1319.49V726ZM1320.77 722.85C1320.36 722.85 1320.02 722.718 1319.73 722.454C1319.45 722.178 1319.31 721.836 1319.31 721.428C1319.31 721.02 1319.45 720.684 1319.73 720.42C1320.02 720.144 1320.36 720.006 1320.77 720.006C1321.17 720.006 1321.5 720.144 1321.78 720.42C1322.07 720.684 1322.21 721.02 1322.21 721.428C1322.21 721.836 1322.07 722.178 1321.8 722.454C1321.52 722.718 1321.18 722.85 1320.77 722.85ZM1333.55 744.468C1331.9 744.468 1330.39 744.042 1329.02 743.19C1327.66 742.338 1326.58 741.198 1325.76 739.77C1324.96 738.33 1324.55 736.74 1324.55 735C1324.55 733.68 1324.79 732.45 1325.26 731.31C1325.72 730.158 1326.37 729.15 1327.18 728.286C1328.01 727.41 1328.97 726.726 1330.06 726.234C1331.15 725.742 1332.32 725.496 1333.55 725.496C1334.89 725.496 1336.11 725.76 1337.23 726.288C1338.35 726.816 1339.32 727.554 1340.12 728.502C1340.94 729.45 1341.55 730.56 1341.96 731.832C1342.38 733.104 1342.55 734.478 1342.48 735.954H1327.22C1327.36 737.094 1327.72 738.114 1328.3 739.014C1328.89 739.914 1329.63 740.628 1330.53 741.156C1331.44 741.672 1332.45 741.936 1333.55 741.948C1334.75 741.948 1335.83 741.636 1336.79 741.012C1337.77 740.388 1338.55 739.53 1339.13 738.438L1341.69 739.032C1340.97 740.628 1339.88 741.936 1338.43 742.956C1336.98 743.964 1335.35 744.468 1333.55 744.468ZM1327.15 733.92H1339.94C1339.86 732.804 1339.52 731.784 1338.92 730.86C1338.33 729.924 1337.57 729.18 1336.63 728.628C1335.7 728.064 1334.67 727.782 1333.55 727.782C1332.44 727.782 1331.42 728.058 1330.49 728.61C1329.57 729.15 1328.81 729.888 1328.23 730.824C1327.64 731.748 1327.28 732.78 1327.15 733.92ZM1360.72 732.858V744H1358.2V733.362C1358.2 732.378 1357.96 731.484 1357.48 730.68C1357 729.876 1356.36 729.234 1355.56 728.754C1354.75 728.274 1353.86 728.034 1352.87 728.034C1351.9 728.034 1351.01 728.274 1350.19 728.754C1349.39 729.234 1348.75 729.876 1348.27 730.68C1347.79 731.484 1347.55 732.378 1347.55 733.362V744H1345.03V726H1347.55V728.484C1348.18 727.572 1349.01 726.846 1350.03 726.306C1351.05 725.766 1352.16 725.496 1353.36 725.496C1354.72 725.496 1355.95 725.826 1357.07 726.486C1358.18 727.146 1359.07 728.034 1359.73 729.15C1360.39 730.266 1360.72 731.502 1360.72 732.858ZM1376.29 739.482L1378.54 740.706C1377.72 741.846 1376.68 742.758 1375.42 743.442C1374.18 744.126 1372.82 744.468 1371.36 744.468C1369.7 744.468 1368.19 744.042 1366.82 743.19C1365.46 742.338 1364.38 741.198 1363.56 739.77C1362.76 738.33 1362.36 736.74 1362.36 735C1362.36 733.68 1362.59 732.45 1363.06 731.31C1363.53 730.158 1364.17 729.15 1364.98 728.286C1365.81 727.41 1366.77 726.726 1367.86 726.234C1368.96 725.742 1370.12 725.496 1371.36 725.496C1372.82 725.496 1374.18 725.838 1375.42 726.522C1376.68 727.206 1377.72 728.124 1378.54 729.276L1376.29 730.482C1375.66 729.69 1374.91 729.084 1374.04 728.664C1373.16 728.232 1372.27 728.016 1371.36 728.016C1370.14 728.016 1369.05 728.34 1368.06 728.988C1367.08 729.624 1366.3 730.47 1365.72 731.526C1365.16 732.582 1364.88 733.74 1364.88 735C1364.88 736.26 1365.16 737.418 1365.74 738.474C1366.33 739.53 1367.11 740.376 1368.1 741.012C1369.08 741.636 1370.17 741.948 1371.36 741.948C1372.34 741.948 1373.26 741.72 1374.13 741.264C1374.99 740.808 1375.71 740.214 1376.29 739.482ZM1388.92 744.468C1387.27 744.468 1385.75 744.042 1384.39 743.19C1383.03 742.338 1381.94 741.198 1381.13 739.77C1380.32 738.33 1379.92 736.74 1379.92 735C1379.92 733.68 1380.16 732.45 1380.62 731.31C1381.09 730.158 1381.73 729.15 1382.55 728.286C1383.38 727.41 1384.34 726.726 1385.43 726.234C1386.52 725.742 1387.69 725.496 1388.92 725.496C1390.25 725.496 1391.48 725.76 1392.59 726.288C1393.72 726.816 1394.69 727.554 1395.49 728.502C1396.31 729.45 1396.92 730.56 1397.33 731.832C1397.75 733.104 1397.92 734.478 1397.85 735.954H1382.59C1382.73 737.094 1383.09 738.114 1383.67 739.014C1384.25 739.914 1385 740.628 1385.9 741.156C1386.81 741.672 1387.82 741.936 1388.92 741.948C1390.12 741.948 1391.2 741.636 1392.16 741.012C1393.13 740.388 1393.91 739.53 1394.5 738.438L1397.06 739.032C1396.34 740.628 1395.25 741.936 1393.8 742.956C1392.35 743.964 1390.72 744.468 1388.92 744.468ZM1382.51 733.92H1395.31C1395.23 732.804 1394.89 731.784 1394.29 730.86C1393.7 729.924 1392.94 729.18 1392 728.628C1391.06 728.064 1390.04 727.782 1388.92 727.782C1387.81 727.782 1386.79 728.058 1385.86 728.61C1384.94 729.15 1384.18 729.888 1383.59 730.824C1383.01 731.748 1382.65 732.78 1382.51 733.92Z" fill="#171717"/>
<path d="M1138.78 972C868.186 972 597.593 972 327 972C327 747.833 508.723 566.111 732.889 566.111C957.056 566.111 1138.78 747.833 1138.78 972Z" fill="#FEB273"/>
<rect x="657.637" y="81.6373" width="102.706" height="43.7255" rx="21.8627" fill="white" fill-opacity="0.1"/>
<rect x="657.637" y="81.6373" width="102.706" height="43.7255" rx="21.8627" stroke="#171717" stroke-width="1.27451"/>
<path d="M693.135 95.7012H695.488V109.5H693.135V103.68H686.367V109.5H683.994V95.7012H686.367V101.443H693.135V95.7012ZM708.118 104.422C708.118 104.721 708.098 105.014 708.059 105.301H699.798C699.98 106.036 700.364 106.626 700.95 107.068C701.542 107.505 702.252 107.723 703.079 107.723C703.717 107.723 704.309 107.589 704.856 107.322C705.41 107.055 705.839 106.72 706.145 106.316L707.659 107.615C707.132 108.279 706.461 108.8 705.647 109.178C704.84 109.555 703.964 109.744 703.02 109.744C701.406 109.744 700.061 109.23 698.987 108.201C697.919 107.173 697.386 105.893 697.386 104.363C697.386 103.374 697.62 102.475 698.089 101.668C698.557 100.854 699.202 100.216 700.022 99.7539C700.849 99.2917 701.764 99.0605 702.766 99.0605C704.296 99.0605 705.569 99.5716 706.585 100.594C707.607 101.609 708.118 102.885 708.118 104.422ZM702.747 101.082C702.024 101.082 701.393 101.3 700.852 101.736C700.318 102.173 699.96 102.749 699.778 103.465H705.725C705.556 102.749 705.198 102.173 704.651 101.736C704.111 101.3 703.476 101.082 702.747 101.082ZM709.771 109.5V95.0957H712.017V109.5H709.771ZM714.373 109.5V95.0957H716.62V109.5H714.373ZM723.82 109.744C722.264 109.744 720.965 109.233 719.923 108.211C718.881 107.189 718.361 105.919 718.361 104.402C718.361 102.885 718.881 101.616 719.923 100.594C720.965 99.5716 722.264 99.0605 723.82 99.0605C724.835 99.0605 725.76 99.2949 726.593 99.7637C727.433 100.226 728.09 100.867 728.566 101.688C729.041 102.501 729.279 103.406 729.279 104.402C729.279 105.398 729.041 106.307 728.566 107.127C728.09 107.941 727.433 108.582 726.593 109.051C725.76 109.513 724.835 109.744 723.82 109.744ZM721.564 106.668C722.169 107.273 722.921 107.576 723.82 107.576C724.718 107.576 725.463 107.273 726.056 106.668C726.655 106.056 726.954 105.301 726.954 104.402C726.954 103.497 726.655 102.742 726.056 102.137C725.463 101.525 724.718 101.219 723.82 101.219C722.921 101.219 722.169 101.525 721.564 102.137C720.958 102.749 720.655 103.504 720.655 104.402C720.655 105.301 720.958 106.056 721.564 106.668ZM731.283 105.32L731.146 99.0996V95.7012H733.52V99.0996L733.383 105.32H731.283ZM732.318 109.656C731.876 109.656 731.508 109.51 731.215 109.217C730.928 108.924 730.785 108.559 730.785 108.123C730.785 107.68 730.932 107.312 731.225 107.02C731.518 106.727 731.882 106.58 732.318 106.58C732.768 106.58 733.139 106.727 733.432 107.02C733.731 107.312 733.881 107.68 733.881 108.123C733.881 108.566 733.731 108.934 733.432 109.227C733.139 109.513 732.768 109.656 732.318 109.656Z" fill="#171717"/>
<path d="M756.99 80C756.99 77 759.99 71 756.99 62M764.49 83.5C768.824 79.3333 777.69 69.2 778.49 62M767.49 90.5C770.157 90.5 777.29 89.1 784.49 83.5" stroke="#FEB273" stroke-width="4" stroke-linecap="round" stroke-linejoin="round"/>
<path d="M546.277 232.919V173.419H555.117V232.919H546.277ZM561.909 195.604L564.544 173.419H573.384L567.774 195.604H561.909ZM577.398 232.919V190.419H586.238V194.924C587.711 193.167 589.511 191.779 591.636 190.759C593.789 189.739 596.112 189.229 598.606 189.229C601.637 189.229 604.428 189.966 606.978 191.439C609.528 192.884 611.554 194.811 613.056 197.219C614.557 194.811 616.555 192.884 619.048 191.439C621.57 189.966 624.346 189.229 627.378 189.229C630.523 189.229 633.385 189.994 635.963 191.524C638.541 193.054 640.596 195.108 642.126 197.686C643.656 200.265 644.421 203.126 644.421 206.271V232.919H635.581V208.524C635.581 206.654 635.127 204.94 634.221 203.381C633.314 201.823 632.096 200.562 630.566 199.599C629.036 198.636 627.336 198.154 625.466 198.154C623.596 198.154 621.896 198.607 620.366 199.514C618.836 200.421 617.617 201.653 616.711 203.211C615.804 204.77 615.351 206.541 615.351 208.524V232.919H606.511V208.524C606.511 206.541 606.057 204.77 605.151 203.211C604.244 201.653 603.011 200.421 601.453 199.514C599.923 198.607 598.223 198.154 596.353 198.154C594.511 198.154 592.811 198.636 591.253 199.599C589.723 200.562 588.505 201.823 587.598 203.381C586.691 204.94 586.238 206.654 586.238 208.524V232.919H577.398ZM885.493 237.679L888.128 223.314H896.968L891.358 237.679H885.493ZM458.844 317.919L443.629 258.419H452.724L463.859 302.066L474.952 258.419H482.984L494.119 302.066L505.254 258.419H514.349L499.219 317.919H489.062L478.989 278.521L468.917 317.919H458.844ZM533.653 319.024C529.743 319.024 526.173 318.018 522.943 316.006C519.741 313.995 517.177 311.303 515.251 307.931C513.352 304.531 512.403 300.777 512.403 296.669C512.403 293.552 512.956 290.648 514.061 287.956C515.166 285.236 516.681 282.856 518.608 280.816C520.563 278.748 522.83 277.133 525.408 275.971C527.986 274.81 530.735 274.229 533.653 274.229C536.911 274.229 539.901 274.909 542.621 276.269C545.341 277.601 547.664 279.456 549.591 281.836C551.517 284.188 552.934 286.908 553.841 289.996C554.747 293.056 555.016 296.315 554.648 299.771H521.881C522.249 301.726 522.957 303.497 524.006 305.084C525.082 306.642 526.442 307.875 528.086 308.781C529.757 309.688 531.613 310.156 533.653 310.184C535.806 310.184 537.761 309.646 539.518 308.569C541.303 307.492 542.762 306.005 543.896 304.106L552.863 306.189C551.163 309.957 548.599 313.046 545.171 315.454C541.742 317.834 537.903 319.024 533.653 319.024ZM521.583 293.014H545.723C545.44 290.974 544.717 289.132 543.556 287.489C542.422 285.817 540.991 284.5 539.263 283.536C537.563 282.545 535.693 282.049 533.653 282.049C531.641 282.049 529.771 282.531 528.043 283.494C526.343 284.457 524.926 285.775 523.793 287.446C522.688 289.09 521.951 290.946 521.583 293.014ZM581.93 274.229C586.067 274.229 589.821 275.235 593.193 277.246C596.593 279.258 599.299 281.964 601.31 285.364C603.322 288.736 604.328 292.49 604.328 296.626C604.328 299.715 603.747 302.619 602.585 305.339C601.424 308.031 599.809 310.411 597.74 312.479C595.7 314.519 593.32 316.12 590.6 317.281C587.909 318.443 585.019 319.024 581.93 319.024C578.955 319.024 576.349 318.344 574.11 316.984C571.9 315.596 570.087 313.825 568.67 311.671V317.919H559.83V254.169H568.67V281.581C570.087 279.4 571.9 277.629 574.11 276.269C576.349 274.909 578.955 274.229 581.93 274.229ZM581.845 310.439C584.31 310.439 586.563 309.816 588.603 308.569C590.643 307.322 592.258 305.651 593.448 303.554C594.666 301.457 595.275 299.148 595.275 296.626C595.275 294.048 594.666 291.711 593.448 289.614C592.23 287.517 590.6 285.86 588.56 284.641C586.52 283.395 584.282 282.771 581.845 282.771C579.38 282.771 577.213 283.395 575.343 284.641C573.473 285.888 572.014 287.56 570.965 289.656C569.917 291.753 569.393 294.076 569.393 296.626C569.393 299.176 569.917 301.5 570.965 303.596C572.014 305.693 573.473 307.365 575.343 308.611C577.213 309.83 579.38 310.439 581.845 310.439ZM629.829 317.919V258.419H649.507C653.615 258.419 657.468 259.198 661.067 260.756C664.665 262.286 667.824 264.426 670.544 267.174C673.264 269.894 675.389 273.053 676.919 276.651C678.478 280.221 679.257 284.061 679.257 288.169C679.257 292.277 678.478 296.131 676.919 299.729C675.389 303.299 673.264 306.458 670.544 309.206C667.824 311.926 664.665 314.066 661.067 315.624C657.468 317.154 653.615 317.919 649.507 317.919H629.829ZM638.669 309.079H649.507C652.397 309.079 655.088 308.541 657.582 307.464C660.103 306.387 662.328 304.886 664.254 302.959C666.209 301.032 667.725 298.808 668.802 296.286C669.878 293.765 670.417 291.059 670.417 288.169C670.417 285.279 669.878 282.573 668.802 280.051C667.725 277.53 666.209 275.306 664.254 273.379C662.328 271.452 660.103 269.951 657.582 268.874C655.088 267.797 652.397 267.259 649.507 267.259H638.669V309.079ZM703.284 319.024C699.374 319.024 695.804 318.018 692.574 316.006C689.373 313.995 686.809 311.303 684.882 307.931C682.984 304.531 682.034 300.777 682.034 296.669C682.034 293.552 682.587 290.648 683.692 287.956C684.797 285.236 686.313 282.856 688.239 280.816C690.194 278.748 692.461 277.133 695.039 275.971C697.618 274.81 700.366 274.229 703.284 274.229C706.543 274.229 709.532 274.909 712.252 276.269C714.972 277.601 717.295 279.456 719.222 281.836C721.149 284.188 722.565 286.908 723.472 289.996C724.379 293.056 724.648 296.315 724.279 299.771H691.512C691.88 301.726 692.589 303.497 693.637 305.084C694.714 306.642 696.074 307.875 697.717 308.781C699.389 309.688 701.244 310.156 703.284 310.184C705.438 310.184 707.393 309.646 709.149 308.569C710.934 307.492 712.394 306.005 713.527 304.106L722.494 306.189C720.794 309.957 718.23 313.046 714.802 315.454C711.374 317.834 707.534 319.024 703.284 319.024ZM691.214 293.014H715.354C715.071 290.974 714.349 289.132 713.187 287.489C712.054 285.817 710.623 284.5 708.894 283.536C707.194 282.545 705.324 282.049 703.284 282.049C701.273 282.049 699.403 282.531 697.674 283.494C695.974 284.457 694.558 285.775 693.424 287.446C692.319 289.09 691.583 290.946 691.214 293.014ZM752.361 317.919H741.013L725.501 275.334H734.936L746.666 307.719L758.438 275.334H767.831L752.361 317.919ZM790.134 319.024C786.224 319.024 782.654 318.018 779.424 316.006C776.222 313.995 773.658 311.303 771.731 307.931C769.833 304.531 768.884 300.777 768.884 296.669C768.884 293.552 769.436 290.648 770.541 287.956C771.646 285.236 773.162 282.856 775.089 280.816C777.044 278.748 779.311 277.133 781.889 275.971C784.467 274.81 787.216 274.229 790.134 274.229C793.392 274.229 796.381 274.909 799.101 276.269C801.821 277.601 804.145 279.456 806.071 281.836C807.998 284.188 809.415 286.908 810.321 289.996C811.228 293.056 811.497 296.315 811.129 299.771H778.361C778.73 301.726 779.438 303.497 780.486 305.084C781.563 306.642 782.923 307.875 784.566 308.781C786.238 309.688 788.094 310.156 790.134 310.184C792.287 310.184 794.242 309.646 795.999 308.569C797.784 307.492 799.243 306.005 800.376 304.106L809.344 306.189C807.644 309.957 805.08 313.046 801.651 315.454C798.223 317.834 794.384 319.024 790.134 319.024ZM778.064 293.014H802.204C801.921 290.974 801.198 289.132 800.036 287.489C798.903 285.817 797.472 284.5 795.744 283.536C794.044 282.545 792.174 282.049 790.134 282.049C788.122 282.049 786.252 282.531 784.524 283.494C782.824 284.457 781.407 285.775 780.274 287.446C779.169 289.09 778.432 290.946 778.064 293.014ZM816.311 317.919V254.169H825.151V317.919H816.311ZM852.164 319.024C848.254 319.024 844.684 318.018 841.454 316.006C838.252 313.995 835.688 311.303 833.761 307.931C831.863 304.531 830.914 300.777 830.914 296.669C830.914 293.552 831.466 290.648 832.571 287.956C833.676 285.236 835.192 282.856 837.119 280.816C839.074 278.748 841.341 277.133 843.919 275.971C846.497 274.81 849.246 274.229 852.164 274.229C856.074 274.229 859.63 275.235 862.831 277.246C866.061 279.258 868.626 281.964 870.524 285.364C872.451 288.764 873.414 292.532 873.414 296.669C873.414 299.757 872.861 302.647 871.756 305.339C870.651 308.031 869.121 310.411 867.166 312.479C865.24 314.519 862.987 316.12 860.409 317.281C857.859 318.443 855.111 319.024 852.164 319.024ZM852.164 310.184C854.516 310.184 856.626 309.561 858.496 308.314C860.366 307.067 861.84 305.424 862.916 303.384C864.021 301.316 864.574 299.077 864.574 296.669C864.574 294.204 864.007 291.937 862.874 289.869C861.769 287.801 860.281 286.157 858.411 284.939C856.541 283.692 854.459 283.069 852.164 283.069C849.841 283.069 847.73 283.692 845.831 284.939C843.961 286.186 842.474 287.843 841.369 289.911C840.292 291.98 839.754 294.232 839.754 296.669C839.754 299.191 840.321 301.471 841.454 303.511C842.587 305.551 844.089 307.181 845.959 308.399C847.857 309.589 849.926 310.184 852.164 310.184ZM887.845 339.169H879.005V275.419H887.845V281.666C889.262 279.485 891.075 277.714 893.285 276.354C895.495 274.994 898.102 274.314 901.105 274.314C904.194 274.314 907.084 274.895 909.775 276.056C912.495 277.218 914.875 278.833 916.915 280.901C918.955 282.941 920.556 285.307 921.718 287.999C922.88 290.691 923.46 293.581 923.46 296.669C923.46 299.757 922.88 302.661 921.718 305.381C920.556 308.101 918.955 310.496 916.915 312.564C914.875 314.604 912.495 316.205 909.775 317.366C907.084 318.528 904.194 319.109 901.105 319.109C898.102 319.109 895.495 318.429 893.285 317.069C891.075 315.681 889.262 313.91 887.845 311.756V339.169ZM901.02 282.856C898.555 282.856 896.388 283.48 894.518 284.726C892.648 285.973 891.189 287.645 890.14 289.741C889.092 291.81 888.568 294.119 888.568 296.669C888.568 299.219 889.092 301.542 890.14 303.639C891.189 305.736 892.648 307.407 894.518 308.654C896.388 309.901 898.555 310.524 901.02 310.524C903.457 310.524 905.695 309.915 907.735 308.696C909.775 307.45 911.405 305.778 912.623 303.681C913.841 301.585 914.45 299.247 914.45 296.669C914.45 294.147 913.841 291.838 912.623 289.741C911.433 287.645 909.818 285.973 907.778 284.726C905.738 283.48 903.485 282.856 901.02 282.856ZM947.729 319.024C943.819 319.024 940.249 318.018 937.019 316.006C933.818 313.995 931.253 311.303 929.327 307.931C927.428 304.531 926.479 300.777 926.479 296.669C926.479 293.552 927.032 290.648 928.137 287.956C929.242 285.236 930.758 282.856 932.684 280.816C934.639 278.748 936.906 277.133 939.484 275.971C942.063 274.81 944.811 274.229 947.729 274.229C950.988 274.229 953.977 274.909 956.697 276.269C959.417 277.601 961.74 279.456 963.667 281.836C965.593 284.188 967.01 286.908 967.917 289.996C968.823 293.056 969.093 296.315 968.724 299.771H935.957C936.325 301.726 937.033 303.497 938.082 305.084C939.158 306.642 940.518 307.875 942.162 308.781C943.833 309.688 945.689 310.156 947.729 310.184C949.883 310.184 951.838 309.646 953.594 308.569C955.379 307.492 956.838 306.005 957.972 304.106L966.939 306.189C965.239 309.957 962.675 313.046 959.247 315.454C955.818 317.834 951.979 319.024 947.729 319.024ZM935.659 293.014H959.799C959.516 290.974 958.793 289.132 957.632 287.489C956.498 285.817 955.068 284.5 953.339 283.536C951.639 282.545 949.769 282.049 947.729 282.049C945.718 282.049 943.848 282.531 942.119 283.494C940.419 284.457 939.003 285.775 937.869 287.446C936.764 289.09 936.028 290.946 935.659 293.014ZM974.488 317.919V275.419H983.328V279.924C984.801 278.167 986.614 276.779 988.768 275.759C990.921 274.739 993.244 274.229 995.738 274.229C997.324 274.229 998.897 274.441 1000.46 274.866L996.928 283.791C995.823 283.366 994.718 283.154 993.613 283.154C991.743 283.154 990.028 283.621 988.47 284.556C986.912 285.463 985.665 286.696 984.73 288.254C983.795 289.812 983.328 291.541 983.328 293.439V317.919H974.488Z" fill="#171717"/>
<path d="M670.805 232.919V173.419H707.738V182.259H679.645V196.624H702.255V205.464H679.645V224.079H707.738V232.919H670.805ZM715.849 190.419H724.689V232.919H715.849V190.419ZM720.354 184.256C718.994 184.256 717.86 183.817 716.954 182.939C716.047 182.061 715.594 180.956 715.594 179.624C715.594 178.321 716.047 177.23 716.954 176.351C717.86 175.445 718.979 174.991 720.311 174.991C721.614 174.991 722.719 175.445 723.626 176.351C724.533 177.23 724.986 178.321 724.986 179.624C724.986 180.956 724.533 182.061 723.626 182.939C722.748 183.817 721.657 184.256 720.354 184.256ZM733.748 232.919V169.169H742.588V232.919H733.748ZM769.601 234.024C765.691 234.024 762.121 233.018 758.891 231.006C755.689 228.995 753.125 226.303 751.199 222.931C749.3 219.531 748.351 215.777 748.351 211.669C748.351 208.552 748.904 205.648 750.009 202.956C751.114 200.236 752.629 197.856 754.556 195.816C756.511 193.748 758.778 192.133 761.356 190.971C763.934 189.81 766.683 189.229 769.601 189.229C772.859 189.229 775.849 189.909 778.569 191.269C781.289 192.601 783.612 194.456 785.539 196.836C787.465 199.188 788.882 201.908 789.789 204.996C790.695 208.056 790.964 211.315 790.596 214.771H757.829C758.197 216.726 758.905 218.497 759.954 220.084C761.03 221.642 762.39 222.875 764.034 223.781C765.705 224.688 767.561 225.156 769.601 225.184C771.754 225.184 773.709 224.646 775.466 223.569C777.251 222.492 778.71 221.005 779.844 219.106L788.811 221.189C787.111 224.957 784.547 228.046 781.119 230.454C777.69 232.834 773.851 234.024 769.601 234.024ZM757.531 208.014H781.671C781.388 205.974 780.665 204.132 779.504 202.489C778.37 200.817 776.939 199.5 775.211 198.536C773.511 197.545 771.641 197.049 769.601 197.049C767.589 197.049 765.719 197.531 763.991 198.494C762.291 199.457 760.874 200.775 759.741 202.446C758.636 204.09 757.899 205.946 757.531 208.014ZM814.976 234.024C811.066 234.024 807.496 233.018 804.266 231.006C801.065 228.995 798.501 226.303 796.574 222.931C794.676 219.531 793.726 215.777 793.726 211.669C793.726 208.552 794.279 205.648 795.384 202.956C796.489 200.236 798.005 197.856 799.931 195.816C801.886 193.748 804.153 192.133 806.731 190.971C809.31 189.81 812.058 189.229 814.976 189.229C818.235 189.229 821.224 189.909 823.944 191.269C826.664 192.601 828.987 194.456 830.914 196.836C832.841 199.188 834.257 201.908 835.164 204.996C836.071 208.056 836.34 211.315 835.971 214.771H803.204C803.572 216.726 804.281 218.497 805.329 220.084C806.406 221.642 807.766 222.875 809.409 223.781C811.081 224.688 812.936 225.156 814.976 225.184C817.13 225.184 819.085 224.646 820.841 223.569C822.626 222.492 824.086 221.005 825.219 219.106L834.186 221.189C832.486 224.957 829.922 228.046 826.494 230.454C823.066 232.834 819.226 234.024 814.976 234.024ZM802.906 208.014H827.046C826.763 205.974 826.041 204.132 824.879 202.489C823.746 200.817 822.315 199.5 820.586 198.536C818.886 197.545 817.016 197.049 814.976 197.049C812.965 197.049 811.095 197.531 809.366 198.494C807.666 199.457 806.25 200.775 805.116 202.446C804.011 204.09 803.275 205.946 802.906 208.014ZM879.985 206.271V232.919H871.145V208.439C871.145 206.541 870.677 204.812 869.742 203.254C868.836 201.696 867.603 200.463 866.045 199.556C864.515 198.621 862.787 198.154 860.86 198.154C858.99 198.154 857.276 198.621 855.717 199.556C854.159 200.463 852.912 201.696 851.977 203.254C851.042 204.812 850.575 206.541 850.575 208.439V232.919H841.735V190.419H850.575V194.924C852.048 193.167 853.862 191.779 856.015 190.759C858.168 189.739 860.492 189.229 862.985 189.229C866.13 189.229 868.992 189.994 871.57 191.524C874.148 193.054 876.188 195.108 877.69 197.686C879.22 200.265 879.985 203.126 879.985 206.271Z" fill="#FB6514"/>
<path d="M1106.52 448.468C1104.99 448.468 1103.59 448.096 1102.33 447.352C1101.08 446.608 1100.09 445.612 1099.36 444.364C1098.63 443.104 1098.26 441.724 1098.26 440.224H1100.78C1100.78 441.268 1101.04 442.228 1101.55 443.104C1102.07 443.968 1102.76 444.658 1103.62 445.174C1104.5 445.69 1105.47 445.948 1106.52 445.948C1107.57 445.948 1108.52 445.69 1109.38 445.174C1110.25 444.658 1110.94 443.968 1111.45 443.104C1111.98 442.228 1112.25 441.268 1112.25 440.224C1112.25 439.168 1111.99 438.208 1111.49 437.344C1111 436.468 1110.3 435.772 1109.38 435.256C1108.48 434.728 1107.41 434.464 1106.16 434.464H1100.04L1102.42 422.8H1114.21V425.32H1104.45L1103.14 431.944L1106.07 431.962C1107.79 431.986 1109.29 432.352 1110.59 433.06C1111.9 433.768 1112.92 434.74 1113.65 435.976C1114.39 437.2 1114.77 438.616 1114.77 440.224C1114.77 441.352 1114.55 442.414 1114.12 443.41C1113.7 444.406 1113.1 445.288 1112.34 446.056C1111.58 446.812 1110.7 447.406 1109.71 447.838C1108.72 448.258 1107.66 448.468 1106.52 448.468ZM1127.64 422.8L1120.35 450.016H1117.83L1125.12 422.8H1127.64ZM1138.07 448.468C1136.53 448.468 1135.13 448.096 1133.87 447.352C1132.63 446.608 1131.64 445.612 1130.9 444.364C1130.17 443.104 1129.81 441.724 1129.81 440.224H1132.33C1132.33 441.268 1132.58 442.228 1133.1 443.104C1133.62 443.968 1134.31 444.658 1135.17 445.174C1136.05 445.69 1137.01 445.948 1138.07 445.948C1139.11 445.948 1140.07 445.69 1140.93 445.174C1141.79 444.658 1142.48 443.968 1143 443.104C1143.53 442.228 1143.79 441.268 1143.79 440.224C1143.79 439.168 1143.54 438.208 1143.04 437.344C1142.54 436.468 1141.84 435.772 1140.93 435.256C1140.03 434.728 1138.96 434.464 1137.71 434.464H1131.59L1133.96 422.8H1145.75V425.32H1136L1134.68 431.944L1137.62 431.962C1139.33 431.986 1140.84 432.352 1142.14 433.06C1143.44 433.768 1144.46 434.74 1145.2 435.976C1145.94 437.2 1146.31 438.616 1146.31 440.224C1146.31 441.352 1146.1 442.414 1145.66 443.41C1145.24 444.406 1144.65 445.288 1143.88 446.056C1143.13 446.812 1142.25 447.406 1141.25 447.838C1140.27 448.258 1139.21 448.468 1138.07 448.468ZM1165.75 448H1163.16L1157.13 430H1159.59L1164.49 444.508L1169.35 430H1172.01L1176.87 444.508L1181.73 430H1184.22L1178.19 448H1175.58L1170.65 433.348L1165.75 448ZM1193.89 448.468C1192.23 448.468 1190.72 448.042 1189.35 447.19C1188 446.338 1186.91 445.198 1186.09 443.77C1185.29 442.33 1184.89 440.74 1184.89 439C1184.89 437.68 1185.12 436.45 1185.59 435.31C1186.06 434.158 1186.7 433.15 1187.52 432.286C1188.34 431.41 1189.3 430.726 1190.4 430.234C1191.49 429.742 1192.65 429.496 1193.89 429.496C1195.54 429.496 1197.05 429.922 1198.41 430.774C1199.77 431.626 1200.86 432.772 1201.66 434.212C1202.48 435.652 1202.89 437.248 1202.89 439C1202.89 440.308 1202.65 441.532 1202.19 442.672C1201.72 443.812 1201.07 444.82 1200.24 445.696C1199.43 446.56 1198.47 447.238 1197.38 447.73C1196.3 448.222 1195.14 448.468 1193.89 448.468ZM1193.89 445.948C1195.11 445.948 1196.21 445.63 1197.18 444.994C1198.17 444.346 1198.94 443.494 1199.5 442.438C1200.08 441.382 1200.37 440.236 1200.37 439C1200.37 437.74 1200.08 436.582 1199.5 435.526C1198.93 434.458 1198.15 433.606 1197.16 432.97C1196.19 432.334 1195.1 432.016 1193.89 432.016C1192.66 432.016 1191.56 432.34 1190.58 432.988C1189.6 433.624 1188.83 434.47 1188.25 435.526C1187.69 436.582 1187.41 437.74 1187.41 439C1187.41 440.296 1187.7 441.472 1188.29 442.528C1188.88 443.572 1189.66 444.406 1190.65 445.03C1191.63 445.642 1192.71 445.948 1193.89 445.948ZM1204.5 441.106V430H1207.02V440.602C1207.02 441.586 1207.26 442.48 1207.74 443.284C1208.22 444.088 1208.86 444.73 1209.67 445.21C1210.48 445.69 1211.38 445.93 1212.35 445.93C1213.33 445.93 1214.22 445.69 1215.01 445.21C1215.82 444.73 1216.46 444.088 1216.94 443.284C1217.42 442.48 1217.66 441.586 1217.66 440.602V430H1220.18L1220.2 448H1217.68L1217.66 445.48C1217.02 446.392 1216.19 447.118 1215.17 447.658C1214.17 448.198 1213.06 448.468 1211.86 448.468C1210.51 448.468 1209.27 448.138 1208.15 447.478C1207.04 446.818 1206.15 445.93 1205.49 444.814C1204.83 443.698 1204.5 442.462 1204.5 441.106ZM1223.49 448V421H1226.01V448H1223.49ZM1244.48 421H1247V448H1244.48V444.634C1243.85 445.786 1243 446.716 1241.9 447.424C1240.82 448.12 1239.54 448.468 1238.05 448.468C1236.74 448.468 1235.52 448.222 1234.38 447.73C1233.24 447.238 1232.23 446.56 1231.36 445.696C1230.49 444.82 1229.81 443.812 1229.32 442.672C1228.83 441.532 1228.58 440.308 1228.58 439C1228.58 437.692 1228.83 436.468 1229.32 435.328C1229.81 434.176 1230.49 433.168 1231.36 432.304C1232.23 431.428 1233.24 430.744 1234.38 430.252C1235.52 429.76 1236.74 429.514 1238.05 429.514C1239.54 429.514 1240.82 429.868 1241.9 430.576C1243 431.272 1243.85 432.19 1244.48 433.33V421ZM1238.07 446.02C1239.35 446.02 1240.46 445.708 1241.38 445.084C1242.31 444.448 1243.01 443.596 1243.51 442.528C1244.01 441.46 1244.26 440.284 1244.26 439C1244.26 437.68 1244.01 436.492 1243.51 435.436C1243 434.368 1242.29 433.522 1241.36 432.898C1240.44 432.274 1239.34 431.962 1238.07 431.962C1236.8 431.962 1235.64 432.28 1234.6 432.916C1233.55 433.54 1232.72 434.386 1232.09 435.454C1231.47 436.522 1231.16 437.704 1231.16 439C1231.16 440.308 1231.48 441.496 1232.11 442.564C1232.75 443.62 1233.59 444.46 1234.63 445.084C1235.69 445.708 1236.83 446.02 1238.07 446.02ZM1099.16 491V473H1101.68V475.484C1102.32 474.572 1103.14 473.846 1104.16 473.306C1105.18 472.766 1106.29 472.496 1107.49 472.496C1108.19 472.496 1108.86 472.586 1109.51 472.766L1108.48 475.268C1107.98 475.112 1107.49 475.034 1107.01 475.034C1106.04 475.034 1105.14 475.274 1104.33 475.754C1103.52 476.234 1102.88 476.876 1102.4 477.68C1101.92 478.484 1101.68 479.378 1101.68 480.362V491H1099.16ZM1118.21 491.468C1116.56 491.468 1115.04 491.042 1113.68 490.19C1112.32 489.338 1111.23 488.198 1110.42 486.77C1109.61 485.33 1109.21 483.74 1109.21 482C1109.21 480.68 1109.45 479.45 1109.91 478.31C1110.38 477.158 1111.02 476.15 1111.84 475.286C1112.67 474.41 1113.63 473.726 1114.72 473.234C1115.81 472.742 1116.98 472.496 1118.21 472.496C1119.54 472.496 1120.77 472.76 1121.88 473.288C1123.01 473.816 1123.98 474.554 1124.78 475.502C1125.6 476.45 1126.21 477.56 1126.62 478.832C1127.04 480.104 1127.21 481.478 1127.14 482.954H1111.88C1112.02 484.094 1112.38 485.114 1112.96 486.014C1113.54 486.914 1114.29 487.628 1115.19 488.156C1116.1 488.672 1117.11 488.936 1118.21 488.948C1119.41 488.948 1120.49 488.636 1121.45 488.012C1122.42 487.388 1123.2 486.53 1123.79 485.438L1126.35 486.032C1125.63 487.628 1124.54 488.936 1123.09 489.956C1121.64 490.964 1120.01 491.468 1118.21 491.468ZM1111.8 480.92H1124.6C1124.52 479.804 1124.18 478.784 1123.58 477.86C1122.99 476.924 1122.23 476.18 1121.29 475.628C1120.35 475.064 1119.33 474.782 1118.21 474.782C1117.1 474.782 1116.08 475.058 1115.15 475.61C1114.23 476.15 1113.47 476.888 1112.88 477.824C1112.3 478.748 1111.94 479.78 1111.8 480.92ZM1142.36 486.482L1144.61 487.706C1143.8 488.846 1142.76 489.758 1141.5 490.442C1140.25 491.126 1138.89 491.468 1137.43 491.468C1135.77 491.468 1134.26 491.042 1132.89 490.19C1131.54 489.338 1130.45 488.198 1129.64 486.77C1128.83 485.33 1128.43 483.74 1128.43 482C1128.43 480.68 1128.66 479.45 1129.13 478.31C1129.6 477.158 1130.24 476.15 1131.06 475.286C1131.89 474.41 1132.85 473.726 1133.94 473.234C1135.03 472.742 1136.19 472.496 1137.43 472.496C1138.89 472.496 1140.25 472.838 1141.5 473.522C1142.76 474.206 1143.8 475.124 1144.61 476.276L1142.36 477.482C1141.74 476.69 1140.99 476.084 1140.11 475.664C1139.24 475.232 1138.34 475.016 1137.43 475.016C1136.22 475.016 1135.12 475.34 1134.14 475.988C1133.15 476.624 1132.37 477.47 1131.8 478.526C1131.23 479.582 1130.95 480.74 1130.95 482C1130.95 483.26 1131.24 484.418 1131.81 485.474C1132.4 486.53 1133.19 487.376 1134.17 488.012C1135.16 488.636 1136.24 488.948 1137.43 488.948C1138.41 488.948 1139.34 488.72 1140.2 488.264C1141.07 487.808 1141.79 487.214 1142.36 486.482ZM1155 491.468C1153.34 491.468 1151.83 491.042 1150.46 490.19C1149.1 489.338 1148.02 488.198 1147.2 486.77C1146.4 485.33 1146 483.74 1146 482C1146 480.68 1146.23 479.45 1146.7 478.31C1147.17 477.158 1147.81 476.15 1148.62 475.286C1149.45 474.41 1150.41 473.726 1151.5 473.234C1152.6 472.742 1153.76 472.496 1155 472.496C1156.65 472.496 1158.16 472.922 1159.51 473.774C1160.88 474.626 1161.97 475.772 1162.77 477.212C1163.59 478.652 1164 480.248 1164 482C1164 483.308 1163.76 484.532 1163.29 485.672C1162.83 486.812 1162.18 487.82 1161.35 488.696C1160.53 489.56 1159.58 490.238 1158.49 490.73C1157.41 491.222 1156.24 491.468 1155 491.468ZM1155 488.948C1156.22 488.948 1157.32 488.63 1158.29 487.994C1159.27 487.346 1160.05 486.494 1160.61 485.438C1161.19 484.382 1161.48 483.236 1161.48 482C1161.48 480.74 1161.19 479.582 1160.61 478.526C1160.04 477.458 1159.26 476.606 1158.27 475.97C1157.3 475.334 1156.21 475.016 1155 475.016C1153.77 475.016 1152.67 475.34 1151.68 475.988C1150.71 476.624 1149.94 477.47 1149.36 478.526C1148.8 479.582 1148.52 480.74 1148.52 482C1148.52 483.296 1148.81 484.472 1149.4 485.528C1149.99 486.572 1150.77 487.406 1151.76 488.03C1152.74 488.642 1153.82 488.948 1155 488.948ZM1166.5 491V473H1169.02V475.484C1169.67 474.572 1170.5 473.846 1171.51 473.306C1172.52 472.766 1173.62 472.496 1174.82 472.496C1176.18 472.496 1177.42 472.832 1178.55 473.504C1179.67 474.164 1180.56 475.046 1181.19 476.15C1181.83 475.046 1182.7 474.164 1183.82 473.504C1184.94 472.832 1186.17 472.496 1187.53 472.496C1188.88 472.496 1190.12 472.826 1191.24 473.486C1192.35 474.146 1193.24 475.034 1193.9 476.15C1194.56 477.266 1194.89 478.502 1194.89 479.858V491H1192.37V480.416C1192.37 479.456 1192.14 478.568 1191.67 477.752C1191.2 476.936 1190.57 476.282 1189.78 475.79C1189 475.286 1188.13 475.034 1187.17 475.034C1186.21 475.034 1185.33 475.268 1184.54 475.736C1183.76 476.192 1183.14 476.828 1182.67 477.644C1182.2 478.448 1181.97 479.372 1181.97 480.416V491H1179.45V480.416C1179.45 479.372 1179.21 478.448 1178.74 477.644C1178.28 476.828 1177.65 476.192 1176.85 475.736C1176.06 475.268 1175.19 475.034 1174.23 475.034C1173.28 475.034 1172.41 475.286 1171.62 475.79C1170.82 476.282 1170.19 476.936 1169.73 477.752C1169.26 478.568 1169.02 479.456 1169.02 480.416V491H1166.5ZM1197.96 491V473H1200.48V475.484C1201.12 474.572 1201.95 473.846 1202.96 473.306C1203.97 472.766 1205.07 472.496 1206.27 472.496C1207.63 472.496 1208.87 472.832 1210 473.504C1211.13 474.164 1212.01 475.046 1212.64 476.15C1213.28 475.046 1214.16 474.164 1215.27 473.504C1216.39 472.832 1217.62 472.496 1218.98 472.496C1220.34 472.496 1221.57 472.826 1222.69 473.486C1223.8 474.146 1224.69 475.034 1225.35 476.15C1226.01 477.266 1226.34 478.502 1226.34 479.858V491H1223.82V480.416C1223.82 479.456 1223.59 478.568 1223.12 477.752C1222.65 476.936 1222.02 476.282 1221.23 475.79C1220.45 475.286 1219.58 475.034 1218.62 475.034C1217.66 475.034 1216.78 475.268 1215.99 475.736C1215.21 476.192 1214.59 476.828 1214.12 477.644C1213.65 478.448 1213.42 479.372 1213.42 480.416V491H1210.9V480.416C1210.9 479.372 1210.66 478.448 1210.2 477.644C1209.73 476.828 1209.1 476.192 1208.31 475.736C1207.51 475.268 1206.64 475.034 1205.68 475.034C1204.73 475.034 1203.86 475.286 1203.07 475.79C1202.28 476.282 1201.65 476.936 1201.18 477.752C1200.71 478.568 1200.48 479.456 1200.48 480.416V491H1197.96ZM1236.98 491.468C1235.32 491.468 1233.81 491.042 1232.44 490.19C1231.08 489.338 1230 488.198 1229.18 486.77C1228.38 485.33 1227.98 483.74 1227.98 482C1227.98 480.68 1228.21 479.45 1228.68 478.31C1229.15 477.158 1229.79 476.15 1230.6 475.286C1231.43 474.41 1232.39 473.726 1233.48 473.234C1234.58 472.742 1235.74 472.496 1236.98 472.496C1238.31 472.496 1239.53 472.76 1240.65 473.288C1241.78 473.816 1242.74 474.554 1243.55 475.502C1244.36 476.45 1244.97 477.56 1245.38 478.832C1245.8 480.104 1245.98 481.478 1245.9 482.954H1230.64C1230.78 484.094 1231.14 485.114 1231.72 486.014C1232.31 486.914 1233.05 487.628 1233.95 488.156C1234.86 488.672 1235.87 488.936 1236.98 488.948C1238.18 488.948 1239.26 488.636 1240.22 488.012C1241.19 487.388 1241.97 486.53 1242.56 485.438L1245.11 486.032C1244.39 487.628 1243.31 488.936 1241.85 489.956C1240.4 490.964 1238.78 491.468 1236.98 491.468ZM1230.57 480.92H1243.37C1243.28 479.804 1242.94 478.784 1242.34 477.86C1241.75 476.924 1240.99 476.18 1240.05 475.628C1239.12 475.064 1238.09 474.782 1236.98 474.782C1235.86 474.782 1234.84 475.058 1233.92 475.61C1232.99 476.15 1232.24 476.888 1231.65 477.824C1231.06 478.748 1230.7 479.78 1230.57 480.92ZM1264.15 479.858V491H1261.63V480.362C1261.63 479.378 1261.39 478.484 1260.91 477.68C1260.43 476.876 1259.78 476.234 1258.98 475.754C1258.18 475.274 1257.28 475.034 1256.3 475.034C1255.33 475.034 1254.43 475.274 1253.62 475.754C1252.81 476.234 1252.17 476.876 1251.69 477.68C1251.21 478.484 1250.97 479.378 1250.97 480.362V491H1248.45V473H1250.97V475.484C1251.61 474.572 1252.43 473.846 1253.45 473.306C1254.47 472.766 1255.58 472.496 1256.78 472.496C1258.14 472.496 1259.38 472.826 1260.49 473.486C1261.61 474.146 1262.5 475.034 1263.16 476.15C1263.82 477.266 1264.15 478.502 1264.15 479.858ZM1281.67 464H1284.19V491H1281.67V487.634C1281.05 488.786 1280.19 489.716 1279.1 490.424C1278.02 491.12 1276.74 491.468 1275.25 491.468C1273.94 491.468 1272.72 491.222 1271.58 490.73C1270.44 490.238 1269.43 489.56 1268.55 488.696C1267.69 487.82 1267.01 486.812 1266.52 485.672C1266.03 484.532 1265.78 483.308 1265.78 482C1265.78 480.692 1266.03 479.468 1266.52 478.328C1267.01 477.176 1267.69 476.168 1268.55 475.304C1269.43 474.428 1270.44 473.744 1271.58 473.252C1272.72 472.76 1273.94 472.514 1275.25 472.514C1276.74 472.514 1278.02 472.868 1279.1 473.576C1280.19 474.272 1281.05 475.19 1281.67 476.33V464ZM1275.27 489.02C1276.55 489.02 1277.65 488.708 1278.58 488.084C1279.5 487.448 1280.21 486.596 1280.7 485.528C1281.21 484.46 1281.46 483.284 1281.46 482C1281.46 480.68 1281.21 479.492 1280.7 478.436C1280.2 477.368 1279.48 476.522 1278.56 475.898C1277.64 475.274 1276.54 474.962 1275.27 474.962C1273.99 474.962 1272.84 475.28 1271.79 475.916C1270.75 476.54 1269.91 477.386 1269.29 478.454C1268.67 479.522 1268.35 480.704 1268.35 482C1268.35 483.308 1268.67 484.496 1269.31 485.564C1269.94 486.62 1270.78 487.46 1271.83 488.084C1272.88 488.708 1274.03 489.02 1275.27 489.02Z" fill="black"/>
<path d="M1071.27 432.94L1074.5 439.402C1074.94 440.296 1076.1 441.144 1077.09 441.327L1082.93 442.29C1086.67 442.908 1087.54 445.612 1084.86 448.317L1080.3 452.877C1079.54 453.633 1079.11 455.123 1079.36 456.2L1080.66 461.837C1081.7 466.283 1079.31 468.025 1075.39 465.687L1069.92 462.433C1068.93 461.837 1067.28 461.837 1066.3 462.433L1060.82 465.687C1056.9 468.002 1054.52 466.283 1055.55 461.837L1056.85 456.2C1057.06 455.1 1056.62 453.61 1055.87 452.854L1051.31 448.294C1048.63 445.612 1049.5 442.908 1053.23 442.267L1059.08 441.304C1060.06 441.144 1061.23 440.273 1061.67 439.379L1064.9 432.917C1066.66 429.433 1069.5 429.433 1071.27 432.94Z" fill="#FB6514"/>
<path d="M1054.33 434.177H1040.58C1039.64 434.177 1038.86 433.398 1038.86 432.458C1038.86 431.519 1039.64 430.74 1040.58 430.74H1054.33C1055.27 430.74 1056.05 431.519 1056.05 432.458C1056.05 433.398 1055.27 434.177 1054.33 434.177Z" fill="#FB6514"/>
<path d="M1047.46 466.26H1040.58C1039.64 466.26 1038.86 465.481 1038.86 464.542C1038.86 463.602 1039.64 462.823 1040.58 462.823H1047.46C1048.4 462.823 1049.18 463.602 1049.18 464.542C1049.18 465.481 1048.4 466.26 1047.46 466.26Z" fill="#FB6514"/>
<path d="M1042.87 450.219H1040.58C1039.64 450.219 1038.86 449.44 1038.86 448.5C1038.86 447.56 1039.64 446.781 1040.58 446.781H1042.87C1043.81 446.781 1044.59 447.56 1044.59 448.5C1044.59 449.44 1043.81 450.219 1042.87 450.219Z" fill="#FB6514"/>
</svg>
