<svg width="70" height="70" viewBox="0 0 70 70" fill="none" xmlns="http://www.w3.org/2000/svg">
<rect width="70" height="70" rx="35" fill="#FB6514"/>
<path d="M36.6004 29.789V42.8409C36.6004 44.139 36.0947 45.3839 35.1945 46.3018C34.2943 47.2197 33.0735 47.7354 31.8005 47.7354H28.3286C27.9511 48.8244 27.2083 49.7423 26.2313 50.3268C25.2544 50.9113 24.1062 51.1248 22.9898 50.9295C21.8734 50.7343 20.8607 50.1429 20.1306 49.2598C19.4004 48.3767 19 47.2589 19 46.1039C19 44.9489 19.4004 43.831 20.1306 42.948C20.8607 42.0649 21.8734 41.4735 22.9898 41.2782C24.1062 41.083 25.2544 41.2965 26.2313 41.881C27.2083 42.4655 27.9511 43.3834 28.3286 44.4724H31.8005C32.2248 44.4724 32.6318 44.3005 32.9318 43.9945C33.2319 43.6886 33.4004 43.2736 33.4004 42.8409V29.789C33.4004 28.4909 33.9061 27.2459 34.8063 26.328C35.7064 25.4101 36.9273 24.8945 38.2003 24.8945H43.0002V20L51 26.526L43.0002 33.0519V28.1575H38.2003C37.776 28.1575 37.369 28.3294 37.069 28.6353C36.7689 28.9413 36.6004 29.3563 36.6004 29.789Z" fill="white"/>
</svg>
