<svg width="70" height="70" viewBox="0 0 70 70" fill="none" xmlns="http://www.w3.org/2000/svg">
<rect width="70" height="70" rx="35" fill="#FB6514"/>
<path d="M34.5 38L20.699 32.4125L21.55 53H17.85L18.738 31.6063L16 30.5L34.5 23L53 30.5L34.5 38ZM34.5 28.625C33.4825 28.625 32.65 29.0375 32.65 29.5625C32.65 30.0875 33.4825 30.5 34.5 30.5C35.5175 30.5 36.35 30.0875 36.35 29.5625C36.35 29.0375 35.5175 28.625 34.5 28.625ZM34.5 39.875L44.8045 35.6938C46.118 37.4563 47.0245 39.575 47.3205 41.8812C46.7655 41.8062 46.192 41.75 45.6 41.75C40.8825 41.75 36.757 44.3187 34.5 48.1437C33.3544 46.1952 31.7291 44.5815 29.7834 43.4607C27.8376 42.3399 25.638 41.7504 23.4 41.75C22.808 41.75 22.2345 41.8062 21.6795 41.8812C21.9755 39.575 22.882 37.4563 24.1955 35.6938L34.5 39.875Z" fill="white"/>
</svg>
