<svg width="70" height="70" viewBox="0 0 70 70" fill="none" xmlns="http://www.w3.org/2000/svg">
<rect width="70" height="70" rx="35" fill="#FB6514"/>
<path d="M38.1172 27C40.3263 27 42.1172 25.2091 42.1172 23C42.1172 20.7909 40.3263 19 38.1172 19C35.908 19 34.1172 20.7909 34.1172 23C34.1172 25.2091 35.908 27 38.1172 27Z" fill="white"/>
<path d="M42.2071 43.2299C42.0966 43.1556 41.9724 43.1041 41.8417 43.0784C41.711 43.0528 41.5765 43.0535 41.4461 43.0805C41.3157 43.1075 41.192 43.1603 41.0823 43.2357C40.9725 43.3112 40.879 43.4078 40.8071 43.52C39.8404 44.9516 38.6561 46.2236 37.2971 47.29C36.9671 47.54 35.7371 48.49 35.2171 48.29C34.8571 48.18 35.0671 47.47 35.1371 47.17L35.6671 45.6C35.8871 44.96 39.7171 33.6 40.1371 32.3C40.7571 30.4 40.4871 28.5299 37.6571 28.9799C36.8871 29.0599 29.0771 30.07 28.9371 30.08C28.8058 30.0885 28.6774 30.1228 28.5594 30.1809C28.4413 30.2391 28.3359 30.3199 28.249 30.4188C28.1622 30.5177 28.0957 30.6327 28.0534 30.7573C28.011 30.8819 27.9936 31.0136 28.0021 31.145C28.0106 31.2763 28.045 31.4046 28.1031 31.5227C28.1612 31.6407 28.2421 31.7462 28.341 31.833C28.4399 31.9198 28.5549 31.9863 28.6795 32.0287C28.8041 32.0711 28.9358 32.0885 29.0671 32.08C29.0671 32.08 32.0671 31.69 32.3971 31.66C32.5661 31.6434 32.7363 31.6762 32.8872 31.7543C33.038 31.8324 33.163 31.9524 33.2471 32.1C33.4283 32.6601 33.4035 33.2665 33.1771 33.8099C32.9171 34.8099 28.8071 46.3899 28.6771 47.0599C28.5377 47.6206 28.5764 48.2108 28.7879 48.7485C28.9993 49.2861 29.3731 49.7445 29.8571 50.06C30.7656 50.6655 31.8474 50.957 32.9371 50.8899C33.9967 50.877 35.0446 50.6668 36.0271 50.27C38.5171 49.27 41.1171 46.61 42.4871 44.52C42.6051 44.3076 42.6417 44.0596 42.5902 43.8222C42.5387 43.5848 42.4025 43.3743 42.2071 43.2299Z" fill="white"/>
</svg>
