<svg width="1811" height="147" viewBox="0 0 1811 147" fill="none" xmlns="http://www.w3.org/2000/svg">
<rect x="9" width="1440" height="147" fill="#FB6514"/>
<rect width="1450.95" height="63.1663" transform="matrix(0.998874 -0.0474485 0.042565 0.999094 0 76.8909)" fill="white"/>
<path d="M1010.39 75.3891L1009.28 54.4186L1011.56 54.2978L1023.54 70.8912L1022.63 53.7104L1024.72 53.5991L1025.84 74.5696L1023.57 74.6896L1011.58 58.097L1012.49 75.2778L1010.39 75.3891ZM1035.48 74.4482C1034.11 74.5213 1032.83 74.2336 1031.65 73.585C1030.49 72.9359 1029.53 72.0352 1028.79 70.8829C1028.06 69.7201 1027.65 68.4147 1027.58 66.9667C1027.52 65.8683 1027.66 64.8344 1028 63.865C1028.34 62.8857 1028.83 62.0185 1029.47 61.2635C1030.12 60.498 1030.89 59.8864 1031.77 59.4288C1032.66 58.9711 1033.62 58.715 1034.65 58.6604C1035.75 58.6016 1036.78 58.7672 1037.74 59.1573C1038.7 59.5469 1039.54 60.1184 1040.25 60.8718C1040.97 61.6246 1041.53 62.5213 1041.92 63.5618C1042.33 64.6018 1042.53 65.7375 1042.54 66.9689L1029.84 67.643C1030.01 68.5853 1030.35 69.4182 1030.87 70.1417C1031.4 70.8647 1032.05 71.426 1032.82 71.8256C1033.6 72.2147 1034.45 72.3899 1035.37 72.3512C1036.37 72.2982 1037.26 71.9908 1038.03 71.4292C1038.81 70.867 1039.42 70.1185 1039.86 69.1839L1042.01 69.5653C1041.49 70.9252 1040.64 72.0616 1039.48 72.9746C1038.31 73.8775 1036.98 74.3687 1035.48 74.4482ZM1029.69 65.9535L1040.34 65.3884C1040.22 64.4634 1039.89 63.6297 1039.35 62.8873C1038.82 62.1343 1038.15 61.5488 1037.35 61.1308C1036.54 60.7028 1035.68 60.5135 1034.75 60.5627C1033.82 60.612 1032.98 60.8867 1032.24 61.3869C1031.49 61.8771 1030.9 62.5246 1030.45 63.3295C1030 64.1243 1029.74 64.999 1029.69 65.9535ZM1045.01 73.5521L1044.22 58.5732L1046.31 58.4619L1046.42 60.529C1046.91 59.742 1047.57 59.1012 1048.39 58.6068C1049.22 58.1124 1050.13 57.8387 1051.13 57.7857C1051.71 57.755 1052.27 57.8002 1052.82 57.9214L1052.08 60.0488C1051.65 59.9412 1051.24 59.898 1050.84 59.9192C1050.03 59.9621 1049.29 60.2013 1048.64 60.6368C1047.99 61.0718 1047.48 61.6344 1047.12 62.3246C1046.76 63.0149 1046.59 63.7694 1046.64 64.5883L1047.11 73.4408L1045.01 73.5521ZM1065.41 49.938L1067.51 49.8267L1068.7 72.2951L1066.6 72.4063L1066.45 69.6053C1065.99 70.5915 1065.31 71.4033 1064.43 72.0407C1063.57 72.6676 1062.51 73.0139 1061.28 73.0796C1060.19 73.1373 1059.16 72.9867 1058.19 72.6276C1057.22 72.2685 1056.35 71.7488 1055.58 71.0685C1054.82 70.3777 1054.21 69.5688 1053.75 68.6419C1053.29 67.7149 1053.04 66.7072 1052.98 65.6187C1052.92 64.5303 1053.07 63.5008 1053.43 62.5305C1053.79 61.5501 1054.31 60.6813 1054.99 59.9242C1055.68 59.1565 1056.49 58.5428 1057.42 58.083C1058.34 57.6233 1059.35 57.3645 1060.44 57.3068C1061.68 57.241 1062.76 57.4789 1063.69 58.0204C1064.63 58.5514 1065.38 59.2774 1065.95 60.1985L1065.41 49.938ZM1061.18 71.0416C1062.25 70.9849 1063.16 70.6766 1063.9 70.1165C1064.64 69.5464 1065.19 68.8062 1065.55 67.8957C1065.92 66.9847 1066.08 65.9949 1066.03 64.9264C1065.97 63.828 1065.7 62.8505 1065.24 61.994C1064.77 61.1275 1064.14 60.455 1063.34 59.9765C1062.55 59.4981 1061.62 59.2869 1060.56 59.3431C1059.5 59.3993 1058.55 59.715 1057.71 60.2904C1056.87 60.8558 1056.21 61.5966 1055.74 62.5129C1055.27 63.4292 1055.06 64.4266 1055.12 65.5051C1055.18 66.5936 1055.5 67.5681 1056.07 68.4288C1056.65 69.2795 1057.38 69.9414 1058.28 70.4146C1059.19 70.8872 1060.15 71.0962 1061.18 71.0416ZM1071.05 57.1491L1073.15 57.0378L1073.94 72.0168L1071.85 72.128L1071.05 57.1491ZM1071.98 54.4714C1071.64 54.4894 1071.34 54.3949 1071.09 54.1879C1070.85 53.9705 1070.72 53.6919 1070.7 53.3524C1070.68 53.0129 1070.78 52.7272 1071 52.4953C1071.23 52.2529 1071.51 52.1227 1071.85 52.1047C1072.18 52.0872 1072.47 52.1872 1072.71 52.4047C1072.96 52.6117 1073.09 52.8849 1073.11 53.2245C1073.13 53.564 1073.03 53.8547 1072.81 54.0965C1072.59 54.3284 1072.32 54.4534 1071.98 54.4714ZM1087.45 67.5297L1089.38 68.4489C1088.75 69.4336 1087.93 70.2384 1086.91 70.8632C1085.9 71.4875 1084.79 71.832 1083.57 71.8966C1082.19 71.9698 1080.91 71.682 1079.74 71.0334C1078.57 70.3843 1077.62 69.4836 1076.87 68.3313C1076.14 67.1685 1075.74 65.8631 1075.66 64.4152C1075.6 63.3167 1075.74 62.2828 1076.08 61.3135C1076.42 60.3342 1076.91 59.467 1077.55 58.712C1078.2 57.9464 1078.97 57.3348 1079.86 56.8772C1080.74 56.4195 1081.7 56.1634 1082.73 56.1089C1083.95 56.0442 1085.09 56.2689 1086.16 56.783C1087.24 57.2966 1088.14 58.0147 1088.87 58.9373L1087.05 60.0402C1086.5 59.4087 1085.85 58.9375 1085.1 58.6267C1084.35 58.3059 1083.6 58.1656 1082.84 58.2059C1081.83 58.2594 1080.93 58.5775 1080.14 59.1602C1079.35 59.7329 1078.74 60.4714 1078.31 61.3756C1077.88 62.2793 1077.7 63.2554 1077.76 64.3039C1077.81 65.3524 1078.1 66.3033 1078.63 67.1567C1079.17 68.0095 1079.86 68.6788 1080.7 69.1646C1081.55 69.6404 1082.47 69.8521 1083.46 69.7996C1084.27 69.7561 1085.03 69.5256 1085.73 69.108C1086.43 68.6904 1087 68.1643 1087.45 67.5297Z" fill="#171717"/>
<path d="M306.361 87.3805L309.777 95.4949L318.102 98.3605L309.987 101.777L307.122 110.102L303.705 101.987L295.381 99.1216L303.495 95.7053L306.361 87.3805Z" fill="#FB6514"/>
<path d="M1116.36 47.3805L1119.78 55.4949L1128.1 58.3605L1119.99 61.7768L1117.12 70.1017L1113.71 61.9872L1105.38 59.1216L1113.49 55.7053L1116.36 47.3805Z" fill="#FB6514"/>
<path d="M979.361 55.3805L982.777 63.4949L991.102 66.3605L982.987 69.7768L980.122 78.1017L976.705 69.9872L968.381 67.1216L976.495 63.7053L979.361 55.3805Z" fill="#FB6514"/>
<path d="M344.698 105.428L338.382 84.6929L340.54 84.595L345.763 101.761L349.396 84.1933L351.254 84.1091L356.477 101.275L360.11 83.7074L362.268 83.6095L357.885 104.83L355.397 104.943L350.546 89.0212L347.156 105.317L344.698 105.428ZM378.115 94.6177L378.536 103.893L376.438 103.988L376.036 95.1325C375.999 94.3133 375.766 93.5781 375.336 92.9269C374.906 92.2758 374.347 91.7656 373.66 91.3963C372.972 91.0271 372.219 90.8611 371.4 90.8982C370.591 90.9349 369.856 91.1685 369.194 91.5989C368.543 92.0288 368.033 92.5875 367.664 93.2749C367.294 93.9624 367.128 94.7157 367.166 95.5348L367.567 104.391L365.469 104.486L364.45 82.009L366.548 81.9138L366.981 91.474C367.476 90.6908 368.138 90.0551 368.967 89.5671C369.796 89.079 370.71 88.8123 371.709 88.767C372.837 88.7158 373.879 88.9439 374.833 89.4512C375.787 89.9585 376.56 90.6642 377.151 91.5683C377.743 92.4724 378.064 93.4889 378.115 94.6177ZM392.432 88.2475L394.53 88.1523L395.21 103.137L393.112 103.232L392.911 100.448C392.464 101.42 391.815 102.22 390.962 102.849C390.11 103.468 389.074 103.806 387.855 103.861C386.756 103.911 385.718 103.753 384.74 103.387C383.762 103.01 382.892 102.474 382.13 101.778C381.368 101.082 380.76 100.264 380.307 99.3233C379.854 98.3828 379.602 97.3632 379.552 96.2643C379.503 95.1854 379.657 94.1624 380.014 93.1953C380.38 92.2277 380.902 91.3681 381.579 90.6167C382.265 89.8648 383.069 89.2678 383.99 88.8256C384.92 88.373 385.925 88.1222 387.004 88.0733C388.253 88.0166 389.355 88.2669 390.311 88.8242C391.267 89.3714 392.041 90.1121 392.634 91.0462L392.432 88.2475ZM387.718 101.825C388.787 101.777 389.694 101.475 390.44 100.921C391.185 100.356 391.742 99.6204 392.111 98.7128C392.49 97.8047 392.656 96.8162 392.607 95.7473C392.558 94.6484 392.303 93.6689 391.843 92.8088C391.384 91.9388 390.757 91.2615 389.964 90.7769C389.172 90.2923 388.246 90.0741 387.187 90.1221C386.128 90.1701 385.171 90.4788 384.316 91.0481C383.47 91.607 382.808 92.3428 382.329 93.2554C381.86 94.1676 381.65 95.1632 381.699 96.242C381.748 97.3309 382.058 98.3079 382.627 99.173C383.197 100.028 383.928 100.696 384.82 101.176C385.723 101.655 386.689 101.872 387.718 101.825ZM404.831 89.7872L401.25 89.9497L401.82 102.837L399.722 102.932L399.152 90.0448L396.44 90.1679L396.345 88.07L399.057 87.947L398.829 83.2425L400.927 83.1474L401.155 87.8518L404.736 87.6894L404.831 89.7872ZM425.703 79.2307L427.801 79.1355L428.821 101.612L426.723 101.708L426.596 98.9054C426.12 99.888 425.441 100.695 424.558 101.325C423.686 101.945 422.63 102.284 421.391 102.34C420.302 102.389 419.274 102.231 418.306 101.864C417.339 101.498 416.474 100.971 415.712 100.285C414.96 99.5884 414.357 98.7748 413.905 97.8444C413.452 96.914 413.201 95.9043 413.152 94.8154C413.102 93.7265 413.261 92.6983 413.627 91.7307C413.993 90.7531 414.52 89.8884 415.206 89.1365C415.903 88.3741 416.716 87.7667 417.646 87.314C418.577 86.8614 419.587 86.6104 420.675 86.561C421.914 86.5048 422.996 86.751 423.922 87.2997C424.858 87.8378 425.606 88.5697 426.169 89.4951L425.703 79.2307ZM421.314 100.301C422.383 100.253 423.29 99.9513 424.035 99.397C424.781 98.8326 425.338 98.0966 425.707 97.1889C426.086 96.2808 426.252 95.2923 426.203 94.2234C426.153 93.1245 425.899 92.1451 425.439 91.285C424.979 90.415 424.353 89.7376 423.56 89.2531C422.768 88.7685 421.842 88.5502 420.783 88.5982C419.724 88.6463 418.772 88.9547 417.927 89.5236C417.081 90.0825 416.419 90.8183 415.94 91.7309C415.461 92.6436 415.246 93.6393 415.294 94.7182C415.344 95.8071 415.653 96.7841 416.223 97.6491C416.793 98.5042 417.524 99.1718 418.416 99.6518C419.319 100.131 420.285 100.348 421.314 100.301ZM438.463 101.565C437.085 101.628 435.81 101.33 434.639 100.673C433.478 100.015 432.531 99.1067 431.798 97.9488C431.074 96.7804 430.679 95.4719 430.613 94.0234C430.564 92.9245 430.712 91.8917 431.059 90.925C431.405 89.9483 431.901 89.085 432.548 88.3349C433.204 87.5744 433.977 86.9687 434.868 86.5179C435.758 86.0671 436.718 85.8184 437.747 85.7717C439.125 85.7092 440.395 86.0069 441.556 86.665C442.727 87.3226 443.675 88.2356 444.398 89.404C445.132 90.572 445.532 91.8852 445.598 93.3437C445.647 94.4326 445.499 95.4604 445.152 96.4271C444.806 97.3938 444.304 98.2574 443.648 99.0179C443.001 99.768 442.233 100.368 441.342 100.819C440.462 101.27 439.502 101.518 438.463 101.565ZM438.368 99.4676C439.387 99.4214 440.289 99.1152 441.074 98.549C441.869 97.9724 442.481 97.2339 442.911 96.3336C443.35 95.4327 443.547 94.4678 443.5 93.4389C443.453 92.3899 443.169 91.4368 442.65 90.5795C442.13 89.7121 441.448 89.0323 440.605 88.54C439.772 88.0473 438.851 87.8238 437.842 87.8695C436.823 87.9157 435.916 88.2272 435.122 88.8038C434.336 89.3699 433.724 90.1034 433.284 91.0043C432.855 91.9047 432.664 92.8793 432.711 93.9282C432.76 95.0071 433.049 95.975 433.579 96.8319C434.108 97.6788 434.793 98.3434 435.636 98.8257C436.478 99.298 437.389 99.512 438.368 99.4676ZM464.508 84.9783L466.725 84.8777L459.548 107.726L457.315 107.828L459.703 100.212L453.644 85.4711L455.936 85.3671L460.621 97.2721L464.508 84.9783ZM475.659 99.8783C474.28 99.9409 473.006 99.6433 471.835 98.9857C470.674 98.3276 469.726 97.4196 468.993 96.2616C468.27 95.0932 467.875 93.7848 467.809 92.3363C467.759 91.2374 467.908 90.2046 468.254 89.2379C468.6 88.2612 469.097 87.3979 469.743 86.6478C470.4 85.8873 471.173 85.2816 472.063 84.8308C472.954 84.38 473.914 84.1312 474.943 84.0846C476.321 84.022 477.591 84.3198 478.752 84.9779C479.923 85.6355 480.87 86.5485 481.594 87.7169C482.328 88.8849 482.728 90.1981 482.794 91.6566C482.843 92.7455 482.695 93.7733 482.348 94.74C482.001 95.7067 481.5 96.5703 480.844 97.3308C480.197 98.0809 479.429 98.6813 478.538 99.1321C477.658 99.5825 476.698 99.8312 475.659 99.8783ZM475.564 97.7805C476.583 97.7343 477.485 97.4281 478.27 96.8619C479.065 96.2853 479.677 95.5468 480.106 94.6464C480.546 93.7456 480.743 92.7807 480.696 91.7518C480.648 90.7028 480.365 89.7497 479.845 88.8924C479.326 88.025 478.644 87.3452 477.801 86.8529C476.968 86.3601 476.047 86.1366 475.038 86.1824C474.019 86.2286 473.112 86.54 472.317 87.1166C471.532 87.6828 470.92 88.4163 470.48 89.3171C470.05 90.2175 469.859 91.1922 469.907 92.2411C469.956 93.32 470.245 94.2879 470.774 95.1448C471.303 95.9917 471.989 96.6563 472.832 97.1386C473.674 97.6109 474.585 97.8249 475.564 97.7805ZM484.216 93.3489L483.797 84.1034L485.895 84.0082L486.295 92.8342C486.332 93.6533 486.566 94.3885 486.996 95.0397C487.425 95.6909 487.984 96.2011 488.672 96.5703C489.369 96.9391 490.122 97.1051 490.931 97.0684C491.751 97.0313 492.481 96.798 493.122 96.3685C493.773 95.9385 494.283 95.3798 494.653 94.6924C495.022 94.0049 495.188 93.2516 495.151 92.4325L494.75 83.6066L496.848 83.5114L497.543 98.4953L495.445 98.5905L495.335 96.4933C494.84 97.2765 494.178 97.9122 493.349 98.4002C492.531 98.8878 491.622 99.1543 490.623 99.1996C489.494 99.2508 488.452 99.0228 487.499 98.5155C486.545 98.0082 485.772 97.3025 485.18 96.3983C484.589 95.4942 484.267 94.4777 484.216 93.3489ZM517.358 93.8277L519.277 94.7617C518.641 95.7415 517.811 96.54 516.788 97.1569C515.775 97.7735 514.659 98.1094 513.44 98.1647C512.061 98.2272 510.787 97.9297 509.616 97.272C508.455 96.614 507.508 95.706 506.774 94.548C506.051 93.3796 505.656 92.0711 505.59 90.6226C505.54 89.5237 505.689 88.491 506.035 87.5243C506.381 86.5476 506.878 85.6842 507.524 84.9341C508.181 84.1736 508.954 83.5679 509.845 83.1171C510.735 82.6663 511.695 82.4176 512.724 82.3709C513.942 82.3156 515.084 82.5491 516.149 83.0714C517.224 83.5933 518.122 84.3183 518.845 85.2465L517.018 86.3354C516.468 85.6997 515.821 85.2235 515.076 84.9069C514.33 84.5804 513.578 84.4343 512.819 84.4687C511.81 84.5145 510.908 84.8257 510.113 85.4023C509.318 85.9689 508.701 86.7026 508.261 87.6035C507.832 88.5039 507.641 89.4785 507.688 90.5275C507.736 91.5764 508.019 92.5295 508.539 93.3869C509.068 94.2437 509.754 94.9183 510.597 95.4106C511.44 95.893 512.356 96.1117 513.345 96.0668C514.164 96.0297 514.925 95.805 515.627 95.3927C516.329 94.9805 516.906 94.4588 517.358 93.8277ZM533.09 81.8676L535.188 81.7724L535.867 96.757L533.769 96.8522L533.568 94.0684C533.122 95.0397 532.472 95.8399 531.62 96.4692C530.767 97.0885 529.731 97.4257 528.512 97.481C527.414 97.5309 526.375 97.3727 525.398 97.0067C524.42 96.6306 523.55 96.0945 522.787 95.3983C522.025 94.7021 521.417 93.8838 520.964 92.9434C520.511 92.0029 520.26 90.9833 520.21 89.8844C520.161 88.8055 520.315 87.7825 520.671 86.8154C521.038 85.8478 521.559 84.9882 522.236 84.2368C522.923 83.4849 523.726 82.8879 524.647 82.4457C525.578 81.9931 526.582 81.7423 527.661 81.6934C528.91 81.6367 530.012 81.887 530.969 82.4443C531.924 82.9915 532.699 83.7322 533.292 84.6663L533.09 81.8676ZM528.375 95.4452C529.444 95.3967 530.351 95.0953 531.097 94.5409C531.842 93.9766 532.399 93.2405 532.769 92.3329C533.148 91.4248 533.313 90.4363 533.265 89.3674C533.215 88.2685 532.96 87.289 532.501 86.429C532.041 85.5589 531.415 84.8816 530.622 84.397C529.829 83.9124 528.903 83.6942 527.844 83.7422C526.785 83.7902 525.828 84.0989 524.973 84.6682C524.128 85.2271 523.465 85.9629 522.986 86.8755C522.517 87.7877 522.307 88.7833 522.356 89.8622C522.405 90.951 522.715 91.928 523.285 92.7931C523.854 93.6482 524.585 94.3157 525.478 94.7958C526.38 95.2754 527.346 95.4918 528.375 95.4452ZM538.621 96.6321L537.602 74.1552L539.699 74.0601L540.719 96.537L538.621 96.6321ZM543.879 96.3936L542.859 73.9168L544.957 73.8216L545.976 96.2985L543.879 96.3936ZM567.524 80.3057L569.622 80.2106L570.301 95.1952L568.203 95.2903L568.002 92.5066C567.556 93.4778 566.906 94.2781 566.054 94.9073C565.201 95.5266 564.165 95.8639 562.947 95.9192C561.848 95.969 560.809 95.8109 559.832 95.4448C558.854 95.0687 557.984 94.5326 557.221 93.8364C556.459 93.1403 555.851 92.322 555.398 91.3815C554.945 90.4411 554.694 89.4214 554.644 88.3226C554.595 87.2437 554.749 86.2207 555.105 85.2535C555.472 84.2859 555.993 83.4264 556.67 82.675C557.357 81.9231 558.16 81.326 559.081 80.8839C560.012 80.4312 561.016 80.1805 562.095 80.1315C563.344 80.0749 564.447 80.3252 565.403 80.8824C566.359 81.4297 567.133 82.1704 567.726 83.1045L567.524 80.3057ZM562.809 93.8833C563.878 93.8348 564.785 93.5334 565.531 92.979C566.276 92.4147 566.833 91.6787 567.203 90.771C567.582 89.8629 567.747 88.8744 567.699 87.8055C567.649 86.7066 567.394 85.7272 566.935 84.8671C566.475 83.997 565.849 83.3197 565.056 82.8352C564.263 82.3506 563.337 82.1323 562.278 82.1803C561.219 82.2284 560.262 82.537 559.407 83.1064C558.562 83.6653 557.899 84.401 557.42 85.3137C556.951 86.2259 556.741 87.2214 556.79 88.3003C556.839 89.3892 557.149 90.3662 557.719 91.2312C558.288 92.0863 559.019 92.7539 559.912 93.2339C560.814 93.7135 561.78 93.93 562.809 93.8833ZM582.038 102.171L579.94 102.266L578.921 79.7888L581.019 79.6936L581.146 82.4958C581.622 81.5232 582.297 80.7218 583.169 80.0916C584.041 79.4614 585.097 79.1183 586.335 79.0621C587.424 79.0127 588.453 79.1713 589.42 79.5378C590.398 79.9039 591.263 80.4352 592.015 81.1319C592.767 81.8185 593.369 82.627 593.822 83.5575C594.274 84.4879 594.525 85.4976 594.575 86.5865C594.624 87.6754 594.466 88.7086 594.1 89.6862C593.734 90.6638 593.208 91.5335 592.521 92.2954C591.835 93.0473 591.021 93.6497 590.081 94.1028C589.15 94.5554 588.141 94.8065 587.052 94.8558C585.813 94.912 584.731 94.6658 583.805 94.1172C582.879 93.5686 582.135 92.8315 581.573 91.9061L582.038 102.171ZM586.413 81.1007C585.364 81.1482 584.462 81.4544 583.707 82.0192C582.961 82.5736 582.398 83.2998 582.019 84.1979C581.639 85.0961 581.474 86.0896 581.523 87.1785C581.572 88.2474 581.821 89.2171 582.271 90.0876C582.731 90.9576 583.357 91.6399 584.151 92.1345C584.954 92.6286 585.885 92.8517 586.944 92.8036C587.983 92.7565 588.925 92.4535 589.77 91.8946C590.626 91.3353 591.299 90.604 591.788 89.7009C592.277 88.7878 592.497 87.7819 592.447 86.683C592.399 85.6141 592.095 84.6519 591.535 83.7963C590.976 82.9308 590.249 82.253 589.356 81.763C588.463 81.273 587.482 81.0522 586.413 81.1007ZM597.004 93.984L596.324 78.9994L598.422 78.9043L598.516 80.9721C599.011 80.1889 599.673 79.5533 600.501 79.0652C601.33 78.5772 602.244 78.3105 603.243 78.2652C603.822 78.2389 604.385 78.2884 604.931 78.4138L604.172 80.5354C603.746 80.4246 603.334 80.3782 602.934 80.3963C602.125 80.433 601.39 80.6666 600.729 81.097C600.077 81.5269 599.567 82.0856 599.198 82.7731C598.829 83.4605 598.663 84.2138 598.7 85.033L599.101 93.8889L597.004 93.984ZM612.882 93.6542C611.503 93.7168 610.228 93.4192 609.057 92.7616C607.896 92.1035 606.949 91.1955 606.216 90.0375C605.492 88.8691 605.097 87.5607 605.032 86.1122C604.982 85.0133 605.13 83.9805 605.477 83.0138C605.823 82.0371 606.319 81.1738 606.966 80.4237C607.622 79.6632 608.396 79.0575 609.286 78.6067C610.177 78.1559 611.136 77.9071 612.165 77.8605C613.544 77.7979 614.814 78.0957 615.975 78.7538C617.146 79.4114 618.093 80.3244 618.817 81.4928C619.55 82.6608 619.95 83.974 620.016 85.4325C620.066 86.5214 619.917 87.5492 619.571 88.5159C619.224 89.4826 618.723 90.3462 618.066 91.1067C617.42 91.8568 616.651 92.4572 615.761 92.908C614.88 93.3584 613.92 93.6071 612.882 93.6542ZM612.786 91.5564C613.805 91.5102 614.707 91.204 615.493 90.6378C616.287 90.0612 616.899 89.3227 617.329 88.4223C617.769 87.5215 617.965 86.5566 617.919 85.5277C617.871 84.4787 617.587 83.5256 617.068 82.6683C616.548 81.8009 615.867 81.1211 615.024 80.6288C614.19 80.136 613.269 79.9125 612.26 79.9583C611.241 80.0045 610.335 80.3159 609.54 80.8925C608.755 81.4587 608.142 82.1922 607.703 83.093C607.273 83.9934 607.082 84.9681 607.13 86.017C607.179 87.0959 607.468 88.0638 607.997 88.9207C608.526 89.7676 609.212 90.4322 610.055 90.9145C610.897 91.3868 611.807 91.6008 612.786 91.5564ZM633.531 77.3118L635.629 77.2166L636.334 92.7556C636.378 93.7147 636.209 94.6233 635.827 95.4814C635.456 96.3391 634.929 97.0988 634.249 97.7603C633.578 98.4313 632.802 98.9671 631.919 99.3675C631.036 99.7679 630.11 99.9901 629.141 100.034C628.103 100.081 627.088 99.8869 626.097 99.4514C625.107 99.0258 624.234 98.4348 623.479 97.6782C622.734 96.9212 622.19 96.0699 621.847 95.1245L623.739 94.1528C623.963 94.8934 624.348 95.5516 624.895 96.1274C625.452 96.7128 626.093 97.1642 626.818 97.4817C627.554 97.8087 628.296 97.9552 629.046 97.9212C629.735 97.8899 630.393 97.7299 631.021 97.4412C631.659 97.162 632.223 96.7911 632.712 96.3284C633.212 95.8653 633.598 95.3323 633.871 94.7293C634.144 94.1363 634.266 93.5101 634.236 92.8508L634.086 89.5392C633.609 90.5018 632.939 91.293 632.077 91.9127C631.224 92.532 630.213 92.8681 629.044 92.9211C627.995 92.9687 626.997 92.8088 626.049 92.4413C625.112 92.0734 624.277 91.5457 623.545 90.8582C622.813 90.1607 622.225 89.3464 621.782 88.4155C621.35 87.4842 621.109 86.4741 621.059 85.3852C621.01 84.2963 621.159 83.2685 621.505 82.3018C621.861 81.3247 622.373 80.4606 623.039 79.7097C623.706 78.9487 624.489 78.3426 625.389 77.8913C626.3 77.4396 627.279 77.1899 628.328 77.1424C629.497 77.0893 630.534 77.3326 631.44 77.8721C632.355 78.4012 633.093 79.1285 633.656 80.054L633.531 77.3118ZM628.967 90.8826C630.006 90.8354 630.887 90.5252 631.612 89.9517C632.347 89.3778 632.899 88.6371 633.268 87.7294C633.637 86.8217 633.799 85.8484 633.751 84.8095C633.703 83.7406 633.449 82.7761 632.989 81.9161C632.54 81.0456 631.923 80.3628 631.14 79.8678C630.356 79.3628 629.455 79.1334 628.436 79.1796C627.417 79.2258 626.5 79.5327 625.685 80.1002C624.879 80.6573 624.252 81.3914 623.803 82.3027C623.353 83.214 623.153 84.2091 623.202 85.288C623.251 86.3669 623.546 87.3395 624.085 88.206C624.625 89.0624 625.321 89.7366 626.174 90.2284C627.037 90.7098 627.968 90.9279 628.967 90.8826ZM639.467 92.058L638.788 77.0734L640.886 76.9782L640.979 79.0461C641.474 78.2629 642.136 77.6272 642.965 77.1392C643.794 76.6511 644.708 76.3844 645.707 76.3391C646.286 76.3128 646.849 76.3624 647.395 76.4878L646.635 78.6094C646.21 78.4985 645.797 78.4522 645.398 78.4703C644.589 78.507 643.853 78.7405 643.192 79.1709C642.541 79.6009 642.031 80.1596 641.662 80.847C641.292 81.5345 641.126 82.2878 641.164 83.1069L641.565 91.9628L639.467 92.058ZM660.372 76.0943L662.47 75.9992L663.15 90.9838L661.052 91.0789L660.85 88.2952C660.404 89.2664 659.755 90.0667 658.902 90.6959C658.049 91.3152 657.014 91.6525 655.795 91.7078C654.696 91.7576 653.658 91.5995 652.68 91.2334C651.702 90.8574 650.832 90.3212 650.07 89.6251C649.307 88.9289 648.7 88.1106 648.247 87.1701C647.793 86.2297 647.542 85.2101 647.492 84.1112C647.443 83.0323 647.597 82.0093 647.954 81.0421C648.32 80.0745 648.842 79.215 649.518 78.4636C650.205 77.7117 651.009 77.1147 651.93 76.6725C652.86 76.2199 653.865 75.9691 654.944 75.9201C656.192 75.8635 657.295 76.1138 658.251 76.671C659.207 77.2183 659.981 77.959 660.574 78.8931L660.372 76.0943ZM655.657 89.6719C656.726 89.6234 657.634 89.322 658.379 88.7677C659.125 88.2033 659.682 87.4673 660.051 86.5596C660.43 85.6515 660.596 84.663 660.547 83.5941C660.497 82.4952 660.243 81.5158 659.783 80.6557C659.323 79.7857 658.697 79.1083 657.904 78.6238C657.111 78.1392 656.186 77.9209 655.127 77.9689C654.068 78.017 653.111 78.3257 652.256 78.895C651.41 79.4539 650.748 80.1896 650.269 81.1023C649.8 82.0145 649.589 83.01 649.638 84.0889C649.688 85.1778 649.997 86.1548 650.567 87.0198C651.136 87.8749 651.867 88.5425 652.76 89.0225C653.663 89.5021 654.629 89.7186 655.657 89.6719ZM665.699 90.8682L665.019 75.8836L667.117 75.7884L667.211 77.8563C667.716 77.0726 668.377 76.437 669.196 75.9494C670.015 75.4618 670.924 75.1953 671.923 75.15C673.052 75.0988 674.098 75.3316 675.063 75.8484C676.027 76.3553 676.794 77.0562 677.365 77.9513C677.853 77.0082 678.549 76.2409 679.453 75.6493C680.357 75.0477 681.373 74.7214 682.502 74.6702C683.631 74.619 684.672 74.847 685.626 75.3543C686.58 75.8616 687.353 76.5673 687.944 77.4714C688.536 78.3756 688.857 79.392 688.909 80.5209L689.329 89.7963L687.231 89.8915L686.832 81.0805C686.796 80.2814 686.567 79.551 686.147 78.8893C685.726 78.2277 685.177 77.7071 684.499 77.3274C683.831 76.9373 683.097 76.7603 682.298 76.7966C681.499 76.8328 680.778 77.0607 680.137 77.4802C679.505 77.8893 679.009 78.4423 678.65 79.1393C678.291 79.8262 678.131 80.6043 678.171 81.4734L678.57 90.2843L676.473 90.3795L676.073 81.5685C676.033 80.6994 675.804 79.9391 675.384 79.2874C674.963 78.6258 674.415 78.1201 673.738 77.7704C673.061 77.4107 672.323 77.249 671.524 77.2853C670.735 77.3211 670.02 77.5637 669.38 78.0132C668.739 78.4526 668.239 79.0209 667.881 79.7178C667.522 80.4148 667.361 81.1629 667.397 81.9621L667.796 90.773L665.699 90.8682ZM691.882 89.6806L691.202 74.696L693.3 74.6008L693.394 76.6687C693.899 75.885 694.561 75.2494 695.379 74.7618C696.198 74.2742 697.107 74.0077 698.106 73.9624C699.235 73.9112 700.282 74.144 701.246 74.6608C702.21 75.1677 702.977 75.8686 703.549 76.7637C704.036 75.8206 704.732 75.0533 705.636 74.4617C706.54 73.8601 707.556 73.5337 708.685 73.4825C709.814 73.4313 710.855 73.6594 711.809 74.1667C712.763 74.674 713.536 75.3797 714.128 76.2838C714.719 77.1879 715.041 78.2044 715.092 79.3333L715.513 88.6087L713.415 88.7039L713.015 79.8929C712.979 79.0938 712.75 78.3634 712.33 77.7017C711.91 77.0401 711.361 76.5194 710.683 76.1398C710.014 75.7497 709.28 75.5727 708.481 75.609C707.682 75.6452 706.962 75.8731 706.32 76.2926C705.688 76.7017 705.192 77.2547 704.834 77.9516C704.474 78.6386 704.315 79.4167 704.354 80.2858L704.754 89.0967L702.656 89.1919L702.256 80.3809C702.217 79.5118 701.987 78.7515 701.567 78.0998C701.147 77.4382 700.598 76.9325 699.922 76.5828C699.245 76.2231 698.507 76.0614 697.707 76.0976C696.918 76.1334 696.203 76.3761 695.563 76.8256C694.922 77.265 694.423 77.8333 694.064 78.5302C693.705 79.2272 693.544 79.9753 693.58 80.7745L693.98 89.5854L691.882 89.6806ZM724.383 88.5968C723.005 88.6593 721.73 88.3618 720.559 87.7041C719.398 87.0461 718.451 86.1381 717.718 84.9801C716.994 83.8117 716.599 82.5032 716.534 81.0547C716.484 79.9558 716.632 78.9231 716.979 77.9564C717.325 76.9797 717.821 76.1163 718.468 75.3662C719.124 74.6057 719.897 74 720.788 73.5492C721.678 73.0984 722.638 72.8497 723.667 72.803C724.776 72.7527 725.805 72.9263 726.754 73.3237C727.713 73.7206 728.545 74.2985 729.25 75.0574C729.965 75.8157 730.516 76.7167 730.904 77.7602C731.302 78.8032 731.498 79.9405 731.494 81.1719L718.787 81.7483C718.95 82.6919 719.288 83.5274 719.802 84.2549C720.325 84.9819 720.972 85.5482 721.741 85.9538C722.52 86.3489 723.369 86.5306 724.288 86.4989C725.287 86.4536 726.174 86.1531 726.95 85.5974C727.736 85.0412 728.353 84.2975 728.801 83.3662L730.951 83.7642C730.412 85.12 729.557 86.2499 728.387 87.1539C727.216 88.0478 725.882 88.5288 724.383 88.5968ZM718.651 80.0578L729.305 79.5745C729.193 78.6486 728.869 77.8124 728.335 77.0659C727.81 76.3089 727.148 75.7183 726.348 75.2941C725.547 74.8599 724.682 74.6639 723.753 74.706C722.824 74.7482 721.986 75.0165 721.237 75.5109C720.488 75.9953 719.887 76.6382 719.433 77.4396C718.978 78.231 718.717 79.1037 718.651 80.0578ZM733.917 87.7739L733.237 72.7893L735.335 72.6942L735.429 74.7621C735.924 73.9788 736.586 73.3432 737.415 72.8551C738.243 72.3671 739.157 72.1004 740.156 72.0551C740.736 72.0288 741.299 72.0784 741.845 72.2037L741.085 74.3253C740.66 74.2145 740.247 74.1681 739.848 74.1863C739.038 74.223 738.303 74.4565 737.642 74.8869C736.991 75.3169 736.481 75.8756 736.111 76.563C735.742 77.2504 735.576 78.0037 735.613 78.8229L736.015 87.6788L733.917 87.7739ZM753.174 67.966L753.352 71.877L757.847 71.6731L757.942 73.771L753.447 73.9749L754.031 86.8616L751.933 86.9568L751.349 74.07L749.296 74.1631L749.201 72.0653L751.254 71.9722L751.076 68.0612C751.043 67.3319 751.188 66.6647 751.511 66.0594C751.843 65.4437 752.301 64.9475 752.885 64.5707C753.468 64.1838 754.124 63.9739 754.853 63.9408C755.383 63.9168 755.897 63.9986 756.396 64.1862C756.905 64.3733 757.364 64.6628 757.772 65.0547L756.341 66.6062C756.172 66.4136 755.96 66.2681 755.705 66.1695C755.461 66.0705 755.208 66.0269 754.949 66.0387C754.439 66.0618 754.008 66.2615 753.654 66.6379C753.311 67.0139 753.151 67.4566 753.174 67.966ZM760.899 86.5501L760.219 71.5655L762.317 71.4704L762.411 73.5382C762.906 72.755 763.568 72.1194 764.396 71.6313C765.225 71.1433 766.139 70.8766 767.138 70.8313C767.717 70.805 768.28 70.8545 768.826 70.9799L768.067 73.1015C767.641 72.9907 767.229 72.9443 766.829 72.9624C766.02 72.9991 765.285 73.2327 764.624 73.6631C763.972 74.093 763.462 74.6517 763.093 75.3392C762.724 76.0266 762.558 76.7799 762.595 77.5991L762.997 86.455L760.899 86.5501ZM776.777 86.2203C775.398 86.2829 774.123 85.9853 772.952 85.3277C771.791 84.6696 770.844 83.7616 770.111 82.6036C769.387 81.4352 768.993 80.1268 768.927 78.6783C768.877 77.5794 769.025 76.5466 769.372 75.5799C769.718 74.6032 770.214 73.7398 770.861 72.9898C771.517 72.2293 772.291 71.6236 773.181 71.1728C774.072 70.722 775.031 70.4732 776.06 70.4266C777.439 70.364 778.709 70.6618 779.87 71.3199C781.041 71.9775 781.988 72.8905 782.712 74.0589C783.445 75.2269 783.845 76.5401 783.912 77.9986C783.961 79.0875 783.812 80.1153 783.466 81.082C783.119 82.0487 782.618 82.9123 781.962 83.6728C781.315 84.4228 780.546 85.0233 779.656 85.4741C778.775 85.9245 777.816 86.1732 776.777 86.2203ZM776.682 84.1225C777.701 84.0763 778.603 83.7701 779.388 83.2039C780.182 82.6273 780.795 81.8888 781.224 80.9884C781.664 80.0876 781.86 79.1227 781.814 78.0937C781.766 77.0448 781.483 76.0917 780.963 75.2343C780.443 74.367 779.762 73.6872 778.919 73.1949C778.086 72.7021 777.164 72.4786 776.156 72.5244C775.137 72.5706 774.23 72.882 773.435 73.4586C772.65 74.0248 772.038 74.7583 771.598 75.6591C771.168 76.5595 770.977 77.5342 771.025 78.5831C771.074 79.662 771.363 80.6299 771.892 81.4868C772.421 82.3337 773.107 82.9983 773.95 83.4806C774.792 83.9529 775.703 84.1669 776.682 84.1225ZM786.34 85.3962L785.66 70.4116L787.758 70.3164L787.852 72.3843C788.357 71.6006 789.019 70.965 789.837 70.4774C790.656 69.9898 791.565 69.7233 792.564 69.678C793.693 69.6268 794.739 69.8596 795.704 70.3764C796.668 70.8833 797.435 71.5842 798.007 72.4793C798.494 71.5362 799.19 70.7689 800.094 70.1773C800.998 69.5757 802.014 69.2494 803.143 69.1982C804.272 69.1469 805.313 69.375 806.267 69.8823C807.221 70.3896 807.994 71.0953 808.586 71.9994C809.177 72.9035 809.499 73.92 809.55 75.0489L809.971 84.3243L807.873 84.4195L807.473 75.6085C807.437 74.8094 807.208 74.079 806.788 73.4173C806.368 72.7557 805.818 72.235 805.141 71.8554C804.472 71.4653 803.738 71.2883 802.939 71.3246C802.14 71.3608 801.42 71.5887 800.778 72.0082C800.146 72.4173 799.65 72.9703 799.292 73.6673C798.932 74.3542 798.773 75.1323 798.812 76.0014L799.212 84.8123L797.114 84.9075L796.714 76.0965C796.675 75.2274 796.445 74.4671 796.025 73.8154C795.605 73.1538 795.056 72.6481 794.38 72.2984C793.703 71.9387 792.965 71.777 792.165 71.8133C791.376 71.849 790.661 72.0917 790.021 72.5412C789.38 72.9806 788.881 73.5489 788.522 74.2458C788.163 74.9428 788.002 75.6909 788.038 76.4901L788.438 85.301L786.34 85.3962ZM831.433 62.3292L833.531 62.2341L834.483 83.2125L832.385 83.3077L831.923 73.1182L820.909 73.6177L821.371 83.8072L819.273 83.9024L818.322 62.924L820.419 62.8288L820.814 71.5199L831.827 71.0203L831.433 62.3292ZM849.163 67.5312L851.261 67.4361L851.94 82.4207L849.842 82.5158L849.641 79.7321C849.195 80.7033 848.545 81.5036 847.693 82.1328C846.84 82.7521 845.804 83.0894 844.586 83.1447C843.487 83.1945 842.448 83.0364 841.471 82.6703C840.493 82.2942 839.623 81.7581 838.86 81.062C838.098 80.3658 837.49 79.5475 837.037 78.607C836.584 77.6666 836.333 76.6469 836.283 75.5481C836.234 74.4692 836.388 73.4462 836.744 72.479C837.111 71.5114 837.632 70.6519 838.309 69.9005C838.996 69.1486 839.799 68.5516 840.72 68.1094C841.651 67.6567 842.655 67.406 843.734 67.357C844.983 67.3004 846.085 67.5507 847.042 68.1079C847.997 68.6552 848.772 69.3959 849.365 70.33L849.163 67.5312ZM844.448 81.1088C845.517 81.0603 846.424 80.7589 847.17 80.2046C847.915 79.6402 848.472 78.9042 848.842 77.9965C849.221 77.0884 849.386 76.0999 849.338 75.031C849.288 73.9321 849.033 72.9527 848.574 72.0926C848.114 71.2226 847.488 70.5452 846.695 70.0607C845.902 69.5761 844.976 69.3578 843.917 69.4058C842.858 69.4539 841.901 69.7625 841.046 70.3319C840.201 70.8908 839.538 71.6265 839.059 72.5392C838.59 73.4514 838.38 74.4469 838.429 75.5258C838.478 76.6147 838.788 77.5917 839.358 78.4567C839.927 79.3118 840.658 79.9794 841.551 80.4594C842.453 80.939 843.419 81.1555 844.448 81.1088ZM854.489 82.3051L853.81 67.3205L855.907 67.2253L856.001 69.2932C856.506 68.5095 857.168 67.8739 857.987 67.3863C858.806 66.8987 859.714 66.6322 860.713 66.5869C861.842 66.5357 862.889 66.7685 863.853 67.2853C864.817 67.7922 865.585 68.4931 866.156 69.3882C866.644 68.4451 867.34 67.6778 868.244 67.0862C869.147 66.4846 870.164 66.1582 871.293 66.107C872.421 66.0558 873.463 66.2839 874.417 66.7912C875.371 67.2985 876.144 68.0042 876.735 68.9083C877.327 69.8124 877.648 70.8289 877.699 71.9578L878.12 81.2332L876.022 81.3284L875.622 72.5174C875.586 71.7183 875.358 70.9879 874.937 70.3262C874.517 69.6646 873.968 69.1439 873.29 68.7643C872.622 68.3742 871.888 68.1972 871.089 68.2335C870.29 68.2697 869.569 68.4976 868.927 68.9171C868.295 69.3262 867.8 69.8792 867.441 70.5762C867.082 71.2631 866.922 72.0412 866.961 72.9103L867.361 81.7212L865.263 81.8164L864.864 73.0054C864.824 72.1363 864.594 71.376 864.174 70.7243C863.754 70.0627 863.206 69.557 862.529 69.2073C861.852 68.8476 861.114 68.6859 860.315 68.7221C859.526 68.7579 858.811 69.0006 858.171 69.4501C857.53 69.8895 857.03 70.4578 856.671 71.1547C856.312 71.8517 856.151 72.5998 856.187 73.399L856.587 82.2099L854.489 82.3051ZM887.611 65.3669C889.07 65.3007 890.409 65.5953 891.63 66.2507C892.861 66.9056 893.858 67.8163 894.622 68.9829C895.385 70.1395 895.8 71.4471 895.866 72.9056C895.916 73.9945 895.757 75.0277 895.391 76.0053C895.025 76.9729 894.493 77.8378 893.797 78.6002C893.11 79.3521 892.297 79.9545 891.356 80.4076C890.426 80.8602 889.416 81.1113 888.327 81.1606C887.089 81.2168 886.006 80.9706 885.081 80.422C884.155 79.8734 883.411 79.1363 882.848 78.2109L882.975 81.013L880.877 81.1082L879.858 58.6313L881.956 58.5361L882.421 68.8006C882.898 67.828 883.572 67.0266 884.444 66.3964C885.317 65.7662 886.372 65.4231 887.611 65.3669ZM888.219 79.1084C889.288 79.0599 890.245 78.7563 891.091 78.1974C891.936 77.6285 892.598 76.8877 893.077 75.9751C893.557 75.0624 893.772 74.0717 893.723 73.0028C893.674 71.9039 893.364 70.9269 892.795 70.0718C892.225 69.2068 891.489 68.5344 890.586 68.0548C889.693 67.5748 888.727 67.3583 887.689 67.4055C886.63 67.4535 885.723 67.7599 884.967 68.3247C884.222 68.889 883.66 69.6253 883.281 70.5334C882.911 71.4411 882.751 72.4293 882.8 73.4982C882.849 74.5871 883.104 75.5666 883.564 76.4366C884.023 77.2967 884.649 77.969 885.442 78.4536C886.245 78.9377 887.17 79.156 888.219 79.1084ZM897.304 74.6122L896.884 65.3667L898.982 65.2715L899.383 74.0975C899.42 74.9166 899.653 75.6518 900.083 76.303C900.513 76.9542 901.072 77.4644 901.759 77.8336C902.457 78.2024 903.21 78.3684 904.019 78.3317C904.838 78.2946 905.569 78.0612 906.21 77.6317C906.861 77.2018 907.371 76.6431 907.74 75.9557C908.11 75.2682 908.276 74.5149 908.239 73.6958L907.838 64.8699L909.936 64.7747L910.631 79.7586L908.533 79.8538L908.423 77.7566C907.928 78.5398 907.266 79.1755 906.437 79.6635C905.618 80.1511 904.709 80.4176 903.711 80.4629C902.582 80.5141 901.54 80.2861 900.586 79.7788C899.632 79.2715 898.86 78.5658 898.268 77.6616C897.676 76.7575 897.355 75.741 897.304 74.6122ZM913.167 79.6436L912.487 64.659L914.585 64.5638L914.679 66.6317C915.174 65.8485 915.836 65.2128 916.664 64.7248C917.493 64.2367 918.407 63.97 919.406 63.9247C919.985 63.8985 920.548 63.948 921.094 64.0734L920.335 66.195C919.909 66.0841 919.497 66.0378 919.097 66.0559C918.288 66.0926 917.553 66.3262 916.892 66.7566C916.241 67.1865 915.73 67.7452 915.361 68.4326C914.992 69.1201 914.826 69.8734 914.863 70.6925L915.265 79.5484L913.167 79.6436ZM933.667 63.6983L935.765 63.6032L936.47 79.1422C936.513 80.1012 936.344 81.0098 935.963 81.868C935.591 82.7257 935.065 83.4853 934.384 84.1468C933.714 84.8179 932.937 85.3536 932.055 85.754C931.172 86.1544 930.246 86.3766 929.277 86.4206C928.238 86.4677 927.223 86.2735 926.232 85.8379C925.242 85.4124 924.37 84.8213 923.614 84.0647C922.869 83.3077 922.325 82.4565 921.982 81.5111L923.875 80.5393C924.099 81.2799 924.484 81.9381 925.031 82.514C925.588 83.0993 926.229 83.5507 926.954 83.8682C927.69 84.1952 928.432 84.3417 929.181 84.3077C929.87 84.2765 930.529 84.1165 931.156 83.8277C931.794 83.5486 932.358 83.1776 932.848 82.715C933.347 82.2519 933.734 81.7188 934.007 81.1158C934.28 80.5228 934.402 79.8967 934.372 79.2373L934.222 75.9257C933.745 76.8883 933.075 77.6795 932.212 78.2992C931.359 78.9185 930.348 79.2547 929.18 79.3077C928.131 79.3553 927.132 79.1953 926.185 78.8279C925.247 78.46 924.412 77.9323 923.681 77.2447C922.948 76.5472 922.361 75.733 921.918 74.8021C921.485 73.8707 921.244 72.8606 921.195 71.7717C921.146 70.6829 921.294 69.6551 921.641 68.6884C921.997 67.7112 922.508 66.8472 923.175 66.0962C923.841 65.3352 924.624 64.7291 925.525 64.2778C926.435 63.8261 927.415 63.5765 928.464 63.5289C929.633 63.4759 930.67 63.7191 931.575 64.2587C932.49 64.7878 933.229 65.515 933.791 66.4405L933.667 63.6983ZM929.102 77.2691C930.141 77.222 931.023 76.9117 931.748 76.3383C932.482 75.7644 933.034 75.0236 933.404 74.1159C933.773 73.2083 933.934 72.235 933.887 71.1961C933.838 70.1272 933.584 69.1627 933.125 68.3026C932.675 67.4321 932.059 66.7493 931.275 66.2543C930.492 65.7493 929.59 65.5199 928.571 65.5661C927.552 65.6123 926.635 65.9192 925.82 66.4867C925.015 67.0438 924.387 67.778 923.938 68.6893C923.489 69.6006 923.289 70.5956 923.338 71.6745C923.387 72.7534 923.681 73.7261 924.221 74.5925C924.76 75.449 925.457 76.1231 926.31 76.615C927.172 77.0964 928.103 77.3144 929.102 77.2691ZM943.846 71.0296C943.801 70.0406 944.005 69.1205 944.457 68.2691C944.919 67.4173 945.573 66.7319 946.421 66.213C947.026 65.8653 947.489 65.3738 947.81 64.7385C948.131 64.0933 948.275 63.3961 948.241 62.6469C948.208 61.9176 947.998 61.2665 947.612 60.6934C947.235 60.1198 946.74 59.6718 946.124 59.3494C945.519 59.0265 944.857 58.8813 944.138 58.914C943.418 58.9466 942.767 59.1513 942.183 59.5281C941.61 59.9045 941.162 60.3953 940.839 61.0006C940.516 61.6058 940.371 62.2731 940.404 63.0023L938.306 63.0975C938.256 61.9886 938.48 60.9674 938.978 60.0339C939.476 59.1004 940.168 58.3433 941.052 57.7626C941.947 57.1815 942.944 56.866 944.042 56.8161C945.151 56.7658 946.173 56.9898 947.106 57.488C948.05 57.9858 948.812 58.6769 949.392 59.5615C949.973 60.4461 950.289 61.4429 950.339 62.5517C950.39 63.6806 950.163 64.7369 949.657 65.7209C949.15 66.6948 948.429 67.4633 947.494 68.0262C946.987 68.3295 946.595 68.7377 946.318 69.2508C946.041 69.7639 945.917 70.3251 945.944 70.9345L943.846 71.0296ZM945.18 78.5819C944.85 78.5969 944.56 78.4899 944.309 78.2611C944.069 78.0317 943.941 77.7522 943.926 77.4226C943.911 77.0929 944.013 76.808 944.233 76.5678C944.462 76.3272 944.741 76.1994 945.071 76.1844C945.401 76.1695 945.686 76.2717 945.926 76.491C946.176 76.7099 946.309 76.9842 946.324 77.3138C946.339 77.6435 946.232 77.9336 946.003 78.1843C945.784 78.4344 945.51 78.567 945.18 78.5819Z" fill="#171717"/>
</svg>
