<svg width="1559" height="147" viewBox="0 0 1559 147" fill="none" xmlns="http://www.w3.org/2000/svg">
<rect x="36" width="1440" height="147" fill="#FB6514"/>
<rect x="0.313232" y="77.8135" width="1556.65" height="63.0056" transform="rotate(-2.57578 0.313232 77.8135)" fill="white"/>
<path d="M1037.39 75.3891L1036.28 54.4186L1038.56 54.2978L1050.54 70.8912L1049.63 53.7104L1051.72 53.5991L1052.84 74.5696L1050.57 74.6896L1038.58 58.097L1039.49 75.2778L1037.39 75.3891ZM1062.48 74.4482C1061.11 74.5213 1059.83 74.2336 1058.65 73.585C1057.49 72.9359 1056.53 72.0352 1055.79 70.8829C1055.06 69.7201 1054.65 68.4147 1054.58 66.9667C1054.52 65.8683 1054.66 64.8344 1055 63.865C1055.34 62.8857 1055.83 62.0185 1056.47 61.2635C1057.12 60.498 1057.89 59.8864 1058.77 59.4288C1059.66 58.9711 1060.62 58.715 1061.65 58.6604C1062.75 58.6016 1063.78 58.7672 1064.74 59.1573C1065.7 59.5469 1066.54 60.1184 1067.25 60.8718C1067.97 61.6246 1068.53 62.5213 1068.92 63.5618C1069.33 64.6018 1069.53 65.7375 1069.54 66.9689L1056.84 67.643C1057.01 68.5853 1057.35 69.4182 1057.87 70.1417C1058.4 70.8647 1059.05 71.426 1059.82 71.8256C1060.6 72.2147 1061.45 72.3899 1062.37 72.3512C1063.37 72.2982 1064.26 71.9908 1065.03 71.4292C1065.81 70.867 1066.42 70.1185 1066.86 69.1839L1069.01 69.5653C1068.49 70.9252 1067.64 72.0616 1066.48 72.9746C1065.31 73.8775 1063.98 74.3687 1062.48 74.4482ZM1056.69 65.9535L1067.34 65.3884C1067.22 64.4634 1066.89 63.6297 1066.35 62.8873C1065.82 62.1343 1065.15 61.5488 1064.35 61.1308C1063.54 60.7028 1062.68 60.5135 1061.75 60.5627C1060.82 60.612 1059.98 60.8867 1059.24 61.3869C1058.49 61.8771 1057.9 62.5246 1057.45 63.3295C1057 64.1243 1056.74 64.999 1056.69 65.9535ZM1072.01 73.5521L1071.22 58.5732L1073.31 58.4619L1073.42 60.529C1073.91 59.742 1074.57 59.1012 1075.39 58.6068C1076.22 58.1124 1077.13 57.8387 1078.13 57.7857C1078.71 57.755 1079.27 57.8002 1079.82 57.9214L1079.08 60.0488C1078.65 59.9412 1078.24 59.898 1077.84 59.9192C1077.03 59.9621 1076.29 60.2013 1075.64 60.6368C1074.99 61.0718 1074.48 61.6344 1074.12 62.3246C1073.76 63.0149 1073.59 63.7694 1073.64 64.5883L1074.11 73.4408L1072.01 73.5521ZM1092.41 49.938L1094.51 49.8267L1095.7 72.2951L1093.6 72.4063L1093.45 69.6053C1092.99 70.5915 1092.31 71.4033 1091.43 72.0407C1090.57 72.6676 1089.51 73.0139 1088.28 73.0796C1087.19 73.1373 1086.16 72.9867 1085.19 72.6276C1084.22 72.2685 1083.35 71.7488 1082.58 71.0685C1081.82 70.3777 1081.21 69.5688 1080.75 68.6419C1080.29 67.7149 1080.04 66.7072 1079.98 65.6187C1079.92 64.5303 1080.07 63.5008 1080.43 62.5305C1080.79 61.5501 1081.31 60.6813 1081.99 59.9242C1082.68 59.1565 1083.49 58.5428 1084.42 58.083C1085.34 57.6233 1086.35 57.3645 1087.44 57.3068C1088.68 57.241 1089.76 57.4789 1090.69 58.0204C1091.63 58.5514 1092.38 59.2774 1092.95 60.1985L1092.41 49.938ZM1088.18 71.0416C1089.25 70.9849 1090.16 70.6766 1090.9 70.1165C1091.64 69.5464 1092.19 68.8062 1092.55 67.8957C1092.92 66.9847 1093.08 65.9949 1093.03 64.9264C1092.97 63.828 1092.7 62.8505 1092.24 61.994C1091.77 61.1275 1091.14 60.455 1090.34 59.9765C1089.55 59.4981 1088.62 59.2869 1087.56 59.3431C1086.5 59.3993 1085.55 59.715 1084.71 60.2904C1083.87 60.8558 1083.21 61.5966 1082.74 62.5129C1082.27 63.4292 1082.06 64.4266 1082.12 65.5051C1082.18 66.5936 1082.5 67.5681 1083.07 68.4288C1083.65 69.2795 1084.38 69.9414 1085.28 70.4146C1086.19 70.8872 1087.15 71.0962 1088.18 71.0416ZM1098.05 57.1491L1100.15 57.0378L1100.94 72.0168L1098.85 72.128L1098.05 57.1491ZM1098.98 54.4714C1098.64 54.4894 1098.34 54.3949 1098.09 54.1879C1097.85 53.9705 1097.72 53.6919 1097.7 53.3524C1097.68 53.0129 1097.78 52.7272 1098 52.4953C1098.23 52.2529 1098.51 52.1227 1098.85 52.1047C1099.18 52.0872 1099.47 52.1872 1099.71 52.4047C1099.96 52.6117 1100.09 52.8849 1100.11 53.2245C1100.13 53.564 1100.03 53.8547 1099.81 54.0965C1099.59 54.3284 1099.32 54.4534 1098.98 54.4714ZM1114.45 67.5297L1116.38 68.4489C1115.75 69.4336 1114.93 70.2384 1113.91 70.8632C1112.9 71.4875 1111.79 71.832 1110.57 71.8966C1109.19 71.9698 1107.91 71.682 1106.74 71.0334C1105.57 70.3843 1104.62 69.4836 1103.87 68.3313C1103.14 67.1685 1102.74 65.8631 1102.66 64.4152C1102.6 63.3167 1102.74 62.2828 1103.08 61.3135C1103.42 60.3342 1103.91 59.467 1104.55 58.712C1105.2 57.9464 1105.97 57.3348 1106.86 56.8772C1107.74 56.4195 1108.7 56.1634 1109.73 56.1089C1110.95 56.0442 1112.09 56.2689 1113.16 56.783C1114.24 57.2966 1115.14 58.0147 1115.87 58.9373L1114.05 60.0402C1113.5 59.4087 1112.85 58.9375 1112.1 58.6267C1111.35 58.3059 1110.6 58.1656 1109.84 58.2059C1108.83 58.2594 1107.93 58.5775 1107.14 59.1602C1106.35 59.7329 1105.74 60.4714 1105.31 61.3756C1104.88 62.2793 1104.7 63.2554 1104.76 64.3039C1104.81 65.3524 1105.1 66.3033 1105.63 67.1567C1106.17 68.0095 1106.86 68.6788 1107.7 69.1646C1108.55 69.6404 1109.47 69.8521 1110.46 69.7996C1111.27 69.7561 1112.03 69.5256 1112.73 69.108C1113.43 68.6904 1114 68.1643 1114.45 67.5297Z" fill="#171717"/>
<path d="M333.361 87.3805L336.777 95.4949L345.102 98.3605L336.987 101.777L334.122 110.102L330.705 101.987L322.381 99.1216L330.495 95.7053L333.361 87.3805Z" fill="#FB6514"/>
<path d="M1143.36 47.3805L1146.78 55.4949L1155.1 58.3605L1146.99 61.7768L1144.12 70.1017L1140.71 61.9872L1132.38 59.1216L1140.49 55.7053L1143.36 47.3805Z" fill="#FB6514"/>
<path d="M1006.36 55.3805L1009.78 63.4949L1018.1 66.3605L1009.99 69.7768L1007.12 78.1017L1003.71 69.9872L995.381 67.1216L1003.49 63.7053L1006.36 55.3805Z" fill="#FB6514"/>
<path d="M371.698 105.428L365.382 84.6929L367.54 84.595L372.763 101.761L376.396 84.1933L378.254 84.1091L383.477 101.275L387.11 83.7074L389.268 83.6095L384.885 104.83L382.397 104.943L377.546 89.0212L374.156 105.317L371.698 105.428ZM405.115 94.6177L405.536 103.893L403.438 103.988L403.036 95.1325C402.999 94.3133 402.766 93.5781 402.336 92.9269C401.906 92.2758 401.347 91.7656 400.66 91.3963C399.972 91.0271 399.219 90.8611 398.4 90.8982C397.591 90.9349 396.855 91.1685 396.194 91.5989C395.543 92.0288 395.033 92.5875 394.664 93.2749C394.294 93.9624 394.128 94.7157 394.166 95.5348L394.567 104.391L392.469 104.486L391.45 82.009L393.548 81.9138L393.981 91.474C394.476 90.6908 395.138 90.0551 395.967 89.5671C396.796 89.079 397.71 88.8123 398.709 88.767C399.837 88.7158 400.879 88.9439 401.833 89.4512C402.787 89.9585 403.56 90.6642 404.151 91.5683C404.743 92.4724 405.064 93.4889 405.115 94.6177ZM419.432 88.2475L421.53 88.1523L422.21 103.137L420.112 103.232L419.911 100.448C419.464 101.42 418.815 102.22 417.962 102.849C417.11 103.468 416.074 103.806 414.855 103.861C413.756 103.911 412.718 103.753 411.74 103.387C410.762 103.01 409.892 102.474 409.13 101.778C408.368 101.082 407.76 100.264 407.307 99.3233C406.854 98.3828 406.602 97.3632 406.552 96.2643C406.503 95.1854 406.657 94.1624 407.014 93.1953C407.38 92.2277 407.902 91.3681 408.579 90.6167C409.265 89.8648 410.069 89.2678 410.99 88.8256C411.92 88.373 412.925 88.1222 414.004 88.0733C415.253 88.0166 416.355 88.2669 417.311 88.8242C418.267 89.3714 419.041 90.1121 419.634 91.0462L419.432 88.2475ZM414.718 101.825C415.787 101.777 416.694 101.475 417.44 100.921C418.185 100.356 418.742 99.6204 419.111 98.7128C419.49 97.8047 419.656 96.8162 419.607 95.7473C419.557 94.6484 419.303 93.6689 418.843 92.8088C418.384 91.9388 417.757 91.2615 416.964 90.7769C416.172 90.2923 415.246 90.0741 414.187 90.1221C413.128 90.1701 412.171 90.4788 411.316 91.0481C410.47 91.607 409.808 92.3428 409.329 93.2554C408.86 94.1676 408.65 95.1632 408.699 96.242C408.748 97.3309 409.058 98.3079 409.627 99.173C410.197 100.028 410.928 100.696 411.82 101.176C412.723 101.655 413.689 101.872 414.718 101.825ZM431.831 89.7872L428.25 89.9497L428.82 102.837L426.722 102.932L426.152 90.0448L423.44 90.1679L423.345 88.07L426.057 87.947L425.829 83.2425L427.927 83.1474L428.155 87.8518L431.736 87.6894L431.831 89.7872ZM452.703 79.2307L454.801 79.1355L455.821 101.612L453.723 101.708L453.596 98.9054C453.12 99.888 452.441 100.695 451.558 101.325C450.686 101.945 449.63 102.284 448.391 102.34C447.302 102.389 446.274 102.231 445.306 101.864C444.339 101.498 443.474 100.971 442.712 100.285C441.96 99.5884 441.357 98.7748 440.905 97.8444C440.452 96.914 440.201 95.9043 440.152 94.8154C440.102 93.7265 440.261 92.6983 440.627 91.7307C440.993 90.7531 441.52 89.8884 442.206 89.1365C442.903 88.3741 443.716 87.7667 444.646 87.314C445.577 86.8614 446.587 86.6104 447.675 86.561C448.914 86.5048 449.996 86.751 450.922 87.2997C451.858 87.8378 452.606 88.5697 453.169 89.4951L452.703 79.2307ZM448.314 100.301C449.383 100.253 450.29 99.9513 451.035 99.397C451.781 98.8326 452.338 98.0966 452.707 97.1889C453.086 96.2808 453.252 95.2923 453.203 94.2234C453.153 93.1245 452.899 92.1451 452.439 91.285C451.979 90.415 451.353 89.7376 450.56 89.2531C449.768 88.7685 448.842 88.5502 447.783 88.5982C446.724 88.6463 445.772 88.9547 444.927 89.5236C444.081 90.0825 443.419 90.8183 442.94 91.7309C442.461 92.6436 442.246 93.6393 442.294 94.7182C442.344 95.8071 442.653 96.7841 443.223 97.6491C443.793 98.5042 444.524 99.1718 445.416 99.6518C446.319 100.131 447.285 100.348 448.314 100.301ZM465.463 101.565C464.085 101.628 462.81 101.33 461.639 100.673C460.478 100.015 459.531 99.1067 458.798 97.9488C458.074 96.7804 457.679 95.4719 457.613 94.0234C457.564 92.9245 457.712 91.8917 458.058 90.925C458.405 89.9483 458.901 89.085 459.548 88.3349C460.204 87.5744 460.977 86.9687 461.868 86.5179C462.758 86.0671 463.718 85.8184 464.747 85.7717C466.125 85.7092 467.395 86.0069 468.556 86.665C469.727 87.3226 470.675 88.2356 471.398 89.404C472.132 90.572 472.532 91.8852 472.598 93.3437C472.647 94.4326 472.499 95.4604 472.152 96.4271C471.806 97.3938 471.304 98.2574 470.648 99.0179C470.001 99.768 469.233 100.368 468.342 100.819C467.462 101.27 466.502 101.518 465.463 101.565ZM465.368 99.4676C466.387 99.4214 467.289 99.1152 468.074 98.549C468.869 97.9724 469.481 97.2339 469.911 96.3336C470.35 95.4327 470.547 94.4678 470.5 93.4389C470.453 92.3899 470.169 91.4368 469.65 90.5795C469.13 89.7121 468.448 89.0323 467.605 88.54C466.772 88.0473 465.851 87.8238 464.842 87.8695C463.823 87.9157 462.916 88.2272 462.122 88.8038C461.336 89.3699 460.724 90.1034 460.284 91.0043C459.855 91.9047 459.664 92.8793 459.711 93.9282C459.76 95.0071 460.049 95.975 460.579 96.8319C461.108 97.6788 461.793 98.3434 462.636 98.8257C463.478 99.298 464.389 99.512 465.368 99.4676ZM491.508 84.9783L493.725 84.8777L486.548 107.726L484.315 107.828L486.703 100.212L480.644 85.4711L482.936 85.3671L487.621 97.2721L491.508 84.9783ZM502.659 99.8783C501.28 99.9409 500.006 99.6433 498.835 98.9857C497.674 98.3276 496.726 97.4196 495.993 96.2616C495.27 95.0932 494.875 93.7848 494.809 92.3363C494.759 91.2374 494.908 90.2046 495.254 89.2379C495.6 88.2612 496.097 87.3979 496.743 86.6478C497.4 85.8873 498.173 85.2816 499.063 84.8308C499.954 84.38 500.914 84.1312 501.943 84.0846C503.321 84.022 504.591 84.3198 505.752 84.9779C506.923 85.6355 507.87 86.5485 508.594 87.7169C509.328 88.8849 509.728 90.1981 509.794 91.6566C509.843 92.7455 509.695 93.7733 509.348 94.74C509.001 95.7067 508.5 96.5703 507.844 97.3308C507.197 98.0809 506.429 98.6813 505.538 99.1321C504.658 99.5825 503.698 99.8312 502.659 99.8783ZM502.564 97.7805C503.583 97.7343 504.485 97.4281 505.27 96.8619C506.065 96.2853 506.677 95.5468 507.106 94.6464C507.546 93.7456 507.743 92.7807 507.696 91.7518C507.648 90.7028 507.365 89.7497 506.845 88.8924C506.326 88.025 505.644 87.3452 504.801 86.8529C503.968 86.3601 503.047 86.1366 502.038 86.1824C501.019 86.2286 500.112 86.54 499.317 87.1166C498.532 87.6828 497.92 88.4163 497.48 89.3171C497.05 90.2175 496.859 91.1922 496.907 92.2411C496.956 93.32 497.245 94.2879 497.774 95.1448C498.303 95.9917 498.989 96.6563 499.832 97.1386C500.674 97.6109 501.585 97.8249 502.564 97.7805ZM511.216 93.3489L510.797 84.1034L512.895 84.0082L513.295 92.8342C513.332 93.6533 513.566 94.3885 513.996 95.0397C514.425 95.6909 514.984 96.2011 515.672 96.5703C516.369 96.9391 517.122 97.1051 517.931 97.0684C518.751 97.0313 519.481 96.798 520.122 96.3685C520.773 95.9385 521.283 95.3798 521.653 94.6924C522.022 94.0049 522.188 93.2516 522.151 92.4325L521.75 83.6066L523.848 83.5114L524.543 98.4953L522.445 98.5905L522.335 96.4933C521.84 97.2765 521.178 97.9122 520.349 98.4002C519.531 98.8878 518.622 99.1543 517.623 99.1996C516.494 99.2508 515.452 99.0228 514.499 98.5155C513.545 98.0082 512.772 97.3025 512.18 96.3983C511.589 95.4942 511.267 94.4777 511.216 93.3489ZM544.358 93.8277L546.277 94.7617C545.641 95.7415 544.811 96.54 543.788 97.1569C542.775 97.7735 541.659 98.1094 540.44 98.1647C539.061 98.2272 537.787 97.9297 536.616 97.272C535.455 96.614 534.508 95.706 533.774 94.548C533.051 93.3796 532.656 92.0711 532.59 90.6226C532.54 89.5237 532.689 88.491 533.035 87.5243C533.381 86.5476 533.878 85.6842 534.524 84.9341C535.181 84.1736 535.954 83.5679 536.845 83.1171C537.735 82.6663 538.695 82.4176 539.724 82.3709C540.942 82.3156 542.084 82.5491 543.149 83.0714C544.224 83.5933 545.122 84.3183 545.845 85.2465L544.018 86.3354C543.468 85.6997 542.821 85.2235 542.076 84.9069C541.33 84.5804 540.578 84.4343 539.819 84.4687C538.81 84.5145 537.908 84.8257 537.113 85.4023C536.318 85.9689 535.701 86.7026 535.261 87.6035C534.832 88.5039 534.641 89.4785 534.688 90.5275C534.736 91.5764 535.019 92.5295 535.539 93.3869C536.068 94.2437 536.754 94.9183 537.597 95.4106C538.44 95.893 539.356 96.1117 540.345 96.0668C541.164 96.0297 541.925 95.805 542.627 95.3927C543.329 94.9805 543.906 94.4588 544.358 93.8277ZM560.09 81.8676L562.188 81.7724L562.867 96.757L560.769 96.8522L560.568 94.0684C560.122 95.0397 559.472 95.8399 558.62 96.4692C557.767 97.0885 556.731 97.4257 555.512 97.481C554.414 97.5309 553.375 97.3727 552.398 97.0067C551.42 96.6306 550.55 96.0945 549.787 95.3983C549.025 94.7021 548.417 93.8838 547.964 92.9434C547.511 92.0029 547.26 90.9833 547.21 89.8844C547.161 88.8055 547.315 87.7825 547.671 86.8154C548.038 85.8478 548.559 84.9882 549.236 84.2368C549.923 83.4849 550.726 82.8879 551.647 82.4457C552.578 81.9931 553.582 81.7423 554.661 81.6934C555.91 81.6367 557.012 81.887 557.969 82.4443C558.924 82.9915 559.699 83.7322 560.292 84.6663L560.09 81.8676ZM555.375 95.4452C556.444 95.3967 557.351 95.0953 558.097 94.5409C558.842 93.9766 559.399 93.2405 559.769 92.3329C560.148 91.4248 560.313 90.4363 560.265 89.3674C560.215 88.2685 559.96 87.289 559.501 86.429C559.041 85.5589 558.415 84.8816 557.622 84.397C556.829 83.9124 555.903 83.6942 554.844 83.7422C553.785 83.7902 552.828 84.0989 551.973 84.6682C551.128 85.2271 550.465 85.9629 549.986 86.8755C549.517 87.7877 549.307 88.7833 549.356 89.8622C549.405 90.951 549.715 91.928 550.285 92.7931C550.854 93.6482 551.585 94.3157 552.478 94.7958C553.38 95.2754 554.346 95.4918 555.375 95.4452ZM565.621 96.6321L564.602 74.1552L566.699 74.0601L567.719 96.537L565.621 96.6321ZM570.879 96.3936L569.859 73.9168L571.957 73.8216L572.976 96.2985L570.879 96.3936ZM594.524 80.3057L596.622 80.2106L597.301 95.1952L595.203 95.2903L595.002 92.5066C594.556 93.4778 593.906 94.2781 593.054 94.9073C592.201 95.5266 591.165 95.8639 589.947 95.9192C588.848 95.969 587.809 95.8109 586.832 95.4448C585.854 95.0687 584.984 94.5326 584.221 93.8364C583.459 93.1403 582.851 92.322 582.398 91.3815C581.945 90.4411 581.694 89.4214 581.644 88.3226C581.595 87.2437 581.749 86.2207 582.105 85.2535C582.472 84.2859 582.993 83.4264 583.67 82.675C584.357 81.9231 585.16 81.326 586.081 80.8839C587.012 80.4312 588.016 80.1805 589.095 80.1315C590.344 80.0749 591.447 80.3252 592.403 80.8824C593.359 81.4297 594.133 82.1704 594.726 83.1045L594.524 80.3057ZM589.809 93.8833C590.878 93.8348 591.785 93.5334 592.531 92.979C593.276 92.4147 593.833 91.6787 594.203 90.771C594.582 89.8629 594.747 88.8744 594.699 87.8055C594.649 86.7066 594.394 85.7272 593.935 84.8671C593.475 83.997 592.849 83.3197 592.056 82.8352C591.263 82.3506 590.337 82.1323 589.278 82.1803C588.219 82.2284 587.262 82.537 586.407 83.1064C585.562 83.6653 584.899 84.401 584.42 85.3137C583.951 86.2259 583.741 87.2214 583.79 88.3003C583.839 89.3892 584.149 90.3662 584.719 91.2312C585.288 92.0863 586.019 92.7539 586.912 93.2339C587.814 93.7135 588.78 93.93 589.809 93.8833ZM609.038 102.171L606.94 102.266L605.921 79.7888L608.019 79.6936L608.146 82.4958C608.622 81.5232 609.296 80.7218 610.169 80.0916C611.041 79.4614 612.097 79.1183 613.335 79.0621C614.424 79.0127 615.453 79.1713 616.42 79.5378C617.398 79.9039 618.263 80.4352 619.015 81.1319C619.767 81.8185 620.369 82.627 620.822 83.5575C621.274 84.4879 621.525 85.4976 621.575 86.5865C621.624 87.6754 621.466 88.7086 621.1 89.6862C620.734 90.6638 620.208 91.5335 619.521 92.2954C618.835 93.0473 618.021 93.6497 617.081 94.1028C616.15 94.5554 615.141 94.8065 614.052 94.8558C612.813 94.912 611.731 94.6658 610.805 94.1172C609.879 93.5686 609.135 92.8315 608.573 91.9061L609.038 102.171ZM613.413 81.1007C612.364 81.1482 611.462 81.4544 610.707 82.0192C609.961 82.5736 609.398 83.2998 609.019 84.1979C608.639 85.0961 608.474 86.0896 608.523 87.1785C608.572 88.2474 608.821 89.2171 609.271 90.0876C609.731 90.9576 610.357 91.6399 611.151 92.1345C611.954 92.6286 612.885 92.8517 613.944 92.8036C614.983 92.7565 615.925 92.4535 616.77 91.8946C617.626 91.3353 618.299 90.604 618.788 89.7009C619.277 88.7878 619.497 87.7819 619.447 86.683C619.399 85.6141 619.095 84.6519 618.535 83.7963C617.976 82.9308 617.249 82.253 616.356 81.763C615.463 81.273 614.482 81.0522 613.413 81.1007ZM624.004 93.984L623.324 78.9994L625.422 78.9043L625.516 80.9721C626.011 80.1889 626.672 79.5533 627.501 79.0652C628.33 78.5772 629.244 78.3105 630.243 78.2652C630.822 78.2389 631.385 78.2884 631.931 78.4138L631.172 80.5354C630.746 80.4246 630.334 80.3782 629.934 80.3963C629.125 80.433 628.39 80.6666 627.729 81.097C627.077 81.5269 626.567 82.0856 626.198 82.7731C625.829 83.4605 625.663 84.2138 625.7 85.033L626.101 93.8889L624.004 93.984ZM639.882 93.6542C638.503 93.7168 637.228 93.4192 636.057 92.7616C634.896 92.1035 633.949 91.1955 633.216 90.0375C632.492 88.8691 632.097 87.5607 632.032 86.1122C631.982 85.0133 632.13 83.9805 632.477 83.0138C632.823 82.0371 633.319 81.1738 633.966 80.4237C634.622 79.6632 635.396 79.0575 636.286 78.6067C637.177 78.1559 638.136 77.9071 639.165 77.8605C640.544 77.7979 641.814 78.0957 642.975 78.7538C644.146 79.4114 645.093 80.3244 645.817 81.4928C646.55 82.6608 646.95 83.974 647.016 85.4325C647.066 86.5214 646.917 87.5492 646.571 88.5159C646.224 89.4826 645.723 90.3462 645.066 91.1067C644.42 91.8568 643.651 92.4572 642.761 92.908C641.88 93.3584 640.92 93.6071 639.882 93.6542ZM639.786 91.5564C640.805 91.5102 641.707 91.204 642.493 90.6378C643.287 90.0612 643.899 89.3227 644.329 88.4223C644.769 87.5215 644.965 86.5566 644.918 85.5277C644.871 84.4787 644.587 83.5256 644.068 82.6683C643.548 81.8009 642.867 81.1211 642.024 80.6288C641.19 80.136 640.269 79.9125 639.26 79.9583C638.241 80.0045 637.335 80.3159 636.54 80.8925C635.755 81.4587 635.142 82.1922 634.703 83.093C634.273 83.9934 634.082 84.9681 634.13 86.017C634.179 87.0959 634.468 88.0638 634.997 88.9207C635.526 89.7676 636.212 90.4322 637.054 90.9145C637.897 91.3868 638.807 91.6008 639.786 91.5564ZM660.531 77.3118L662.629 77.2166L663.334 92.7556C663.378 93.7147 663.209 94.6233 662.827 95.4814C662.456 96.3391 661.929 97.0988 661.249 97.7603C660.578 98.4313 659.802 98.9671 658.919 99.3675C658.036 99.7679 657.11 99.9901 656.141 100.034C655.103 100.081 654.088 99.8869 653.097 99.4514C652.107 99.0258 651.234 98.4348 650.479 97.6782C649.734 96.9212 649.19 96.0699 648.847 95.1245L650.739 94.1528C650.963 94.8934 651.348 95.5516 651.895 96.1274C652.452 96.7128 653.093 97.1642 653.818 97.4817C654.554 97.8087 655.296 97.9552 656.046 97.9212C656.735 97.8899 657.393 97.7299 658.021 97.4412C658.659 97.162 659.223 96.7911 659.712 96.3284C660.212 95.8653 660.598 95.3323 660.871 94.7293C661.144 94.1363 661.266 93.5101 661.236 92.8508L661.086 89.5392C660.609 90.5018 659.939 91.293 659.076 91.9127C658.224 92.532 657.213 92.8681 656.044 92.9211C654.995 92.9687 653.997 92.8088 653.049 92.4413C652.112 92.0734 651.277 91.5457 650.545 90.8582C649.813 90.1607 649.225 89.3464 648.782 88.4155C648.35 87.4842 648.109 86.4741 648.059 85.3852C648.01 84.2963 648.159 83.2685 648.505 82.3018C648.861 81.3247 649.373 80.4606 650.039 79.7097C650.705 78.9487 651.489 78.3426 652.389 77.8913C653.3 77.4396 654.279 77.1899 655.328 77.1424C656.497 77.0893 657.534 77.3326 658.44 77.8721C659.355 78.4012 660.093 79.1285 660.656 80.054L660.531 77.3118ZM655.967 90.8826C657.006 90.8354 657.887 90.5252 658.612 89.9517C659.347 89.3778 659.899 88.6371 660.268 87.7294C660.637 86.8217 660.798 85.8484 660.751 84.8095C660.703 83.7406 660.449 82.7761 659.989 81.9161C659.54 81.0456 658.923 80.3628 658.14 79.8678C657.356 79.3628 656.455 79.1334 655.436 79.1796C654.417 79.2258 653.5 79.5327 652.685 80.1002C651.879 80.6573 651.252 81.3914 650.803 82.3027C650.353 83.214 650.153 84.2091 650.202 85.288C650.251 86.3669 650.546 87.3395 651.085 88.206C651.625 89.0624 652.321 89.7366 653.174 90.2284C654.037 90.7098 654.968 90.9279 655.967 90.8826ZM666.467 92.058L665.788 77.0734L667.886 76.9782L667.979 79.0461C668.474 78.2629 669.136 77.6272 669.965 77.1392C670.794 76.6511 671.708 76.3844 672.707 76.3391C673.286 76.3128 673.849 76.3624 674.395 76.4878L673.635 78.6094C673.21 78.4985 672.797 78.4522 672.398 78.4703C671.589 78.507 670.853 78.7405 670.192 79.1709C669.541 79.6009 669.031 80.1596 668.662 80.847C668.292 81.5345 668.126 82.2878 668.164 83.1069L668.565 91.9628L666.467 92.058ZM687.372 76.0943L689.47 75.9992L690.15 90.9838L688.052 91.0789L687.85 88.2952C687.404 89.2664 686.755 90.0667 685.902 90.6959C685.049 91.3152 684.014 91.6525 682.795 91.7078C681.696 91.7576 680.658 91.5995 679.68 91.2334C678.702 90.8574 677.832 90.3212 677.07 89.6251C676.307 88.9289 675.7 88.1106 675.247 87.1701C674.793 86.2297 674.542 85.2101 674.492 84.1112C674.443 83.0323 674.597 82.0093 674.954 81.0421C675.32 80.0745 675.842 79.215 676.518 78.4636C677.205 77.7117 678.009 77.1147 678.93 76.6725C679.86 76.2199 680.865 75.9691 681.944 75.9201C683.192 75.8635 684.295 76.1138 685.251 76.671C686.207 77.2183 686.981 77.959 687.574 78.8931L687.372 76.0943ZM682.657 89.6719C683.726 89.6234 684.634 89.322 685.379 88.7677C686.124 88.2033 686.682 87.4673 687.051 86.5596C687.43 85.6515 687.596 84.663 687.547 83.5941C687.497 82.4952 687.243 81.5158 686.783 80.6557C686.323 79.7857 685.697 79.1083 684.904 78.6238C684.111 78.1392 683.186 77.9209 682.127 77.9689C681.068 78.017 680.111 78.3257 679.256 78.895C678.41 79.4539 677.748 80.1896 677.269 81.1023C676.799 82.0145 676.589 83.01 676.638 84.0889C676.688 85.1778 676.997 86.1548 677.567 87.0198C678.136 87.8749 678.867 88.5425 679.76 89.0225C680.663 89.5021 681.629 89.7186 682.657 89.6719ZM692.699 90.8682L692.019 75.8836L694.117 75.7884L694.211 77.8563C694.716 77.0726 695.377 76.437 696.196 75.9494C697.015 75.4618 697.924 75.1953 698.923 75.15C700.052 75.0988 701.098 75.3316 702.063 75.8484C703.027 76.3553 703.794 77.0562 704.365 77.9513C704.853 77.0082 705.549 76.2409 706.453 75.6493C707.357 75.0477 708.373 74.7214 709.502 74.6702C710.631 74.619 711.672 74.847 712.626 75.3543C713.58 75.8616 714.353 76.5673 714.944 77.4714C715.536 78.3756 715.857 79.392 715.909 80.5209L716.329 89.7963L714.231 89.8915L713.832 81.0805C713.796 80.2814 713.567 79.551 713.147 78.8893C712.726 78.2277 712.177 77.7071 711.499 77.3274C710.831 76.9373 710.097 76.7603 709.298 76.7966C708.499 76.8328 707.778 77.0607 707.137 77.4802C706.505 77.8893 706.009 78.4423 705.65 79.1393C705.291 79.8262 705.131 80.6043 705.171 81.4734L705.57 90.2843L703.473 90.3795L703.073 81.5685C703.033 80.6994 702.804 79.9391 702.384 79.2874C701.963 78.6258 701.415 78.1201 700.738 77.7704C700.061 77.4107 699.323 77.249 698.524 77.2853C697.735 77.3211 697.02 77.5637 696.38 78.0132C695.739 78.4526 695.239 79.0209 694.881 79.7178C694.522 80.4148 694.361 81.1629 694.397 81.9621L694.796 90.773L692.699 90.8682ZM718.882 89.6806L718.202 74.696L720.3 74.6008L720.394 76.6687C720.899 75.885 721.561 75.2494 722.379 74.7618C723.198 74.2742 724.107 74.0077 725.106 73.9624C726.235 73.9112 727.281 74.144 728.246 74.6608C729.21 75.1677 729.977 75.8686 730.549 76.7637C731.036 75.8206 731.732 75.0533 732.636 74.4617C733.54 73.8601 734.556 73.5337 735.685 73.4825C736.814 73.4313 737.855 73.6594 738.809 74.1667C739.763 74.674 740.536 75.3797 741.128 76.2838C741.719 77.1879 742.041 78.2044 742.092 79.3333L742.513 88.6087L740.415 88.7039L740.015 79.8929C739.979 79.0938 739.75 78.3634 739.33 77.7017C738.91 77.0401 738.361 76.5194 737.683 76.1398C737.014 75.7497 736.28 75.5727 735.481 75.609C734.682 75.6452 733.962 75.8731 733.32 76.2926C732.688 76.7017 732.192 77.2547 731.834 77.9516C731.474 78.6386 731.315 79.4167 731.354 80.2858L731.754 89.0967L729.656 89.1919L729.256 80.3809C729.217 79.5118 728.987 78.7515 728.567 78.0998C728.147 77.4382 727.598 76.9325 726.922 76.5828C726.245 76.2231 725.507 76.0614 724.707 76.0976C723.918 76.1334 723.203 76.3761 722.563 76.8256C721.922 77.265 721.423 77.8333 721.064 78.5302C720.705 79.2272 720.544 79.9753 720.58 80.7745L720.98 89.5854L718.882 89.6806ZM751.383 88.5968C750.005 88.6593 748.73 88.3618 747.559 87.7041C746.398 87.0461 745.451 86.1381 744.718 84.9801C743.994 83.8117 743.599 82.5032 743.534 81.0547C743.484 79.9558 743.632 78.9231 743.979 77.9564C744.325 76.9797 744.821 76.1163 745.468 75.3662C746.124 74.6057 746.897 74 747.788 73.5492C748.678 73.0984 749.638 72.8497 750.667 72.803C751.776 72.7527 752.805 72.9263 753.754 73.3237C754.713 73.7206 755.545 74.2985 756.25 75.0574C756.965 75.8157 757.516 76.7167 757.904 77.7602C758.302 78.8032 758.498 79.9405 758.494 81.1719L745.787 81.7483C745.95 82.6919 746.288 83.5274 746.802 84.2549C747.325 84.9819 747.972 85.5482 748.741 85.9538C749.52 86.3489 750.369 86.5306 751.288 86.4989C752.287 86.4536 753.174 86.1531 753.95 85.5974C754.736 85.0412 755.353 84.2975 755.801 83.3662L757.951 83.7642C757.412 85.12 756.557 86.2499 755.387 87.1539C754.216 88.0478 752.882 88.5288 751.383 88.5968ZM745.651 80.0578L756.305 79.5745C756.192 78.6486 755.869 77.8124 755.335 77.0659C754.81 76.3089 754.148 75.7183 753.348 75.2941C752.547 74.8599 751.682 74.6639 750.753 74.706C749.824 74.7482 748.986 75.0165 748.237 75.5109C747.488 75.9953 746.887 76.6382 746.433 77.4396C745.978 78.231 745.717 79.1037 745.651 80.0578ZM760.917 87.7739L760.237 72.7893L762.335 72.6942L762.429 74.7621C762.924 73.9788 763.586 73.3432 764.415 72.8551C765.243 72.3671 766.157 72.1004 767.156 72.0551C767.736 72.0288 768.299 72.0784 768.845 72.2037L768.085 74.3253C767.66 74.2145 767.247 74.1681 766.848 74.1863C766.038 74.223 765.303 74.4565 764.642 74.8869C763.991 75.3169 763.481 75.8756 763.111 76.563C762.742 77.2504 762.576 78.0037 762.613 78.8229L763.015 87.6788L760.917 87.7739ZM780.174 67.966L780.351 71.877L784.847 71.6731L784.942 73.771L780.447 73.9749L781.031 86.8616L778.933 86.9568L778.349 74.07L776.296 74.1631L776.201 72.0653L778.254 71.9722L778.076 68.0612C778.043 67.3319 778.188 66.6647 778.511 66.0594C778.843 65.4437 779.301 64.9475 779.885 64.5707C780.468 64.1838 781.124 63.9739 781.853 63.9408C782.383 63.9168 782.897 63.9986 783.396 64.1862C783.905 64.3733 784.364 64.6628 784.772 65.0547L783.341 66.6062C783.172 66.4136 782.96 66.2681 782.705 66.1695C782.461 66.0705 782.208 66.0269 781.949 66.0387C781.439 66.0618 781.008 66.2615 780.654 66.6379C780.311 67.0139 780.151 67.4566 780.174 67.966ZM787.899 86.5501L787.219 71.5655L789.317 71.4704L789.411 73.5382C789.906 72.755 790.568 72.1194 791.396 71.6313C792.225 71.1433 793.139 70.8766 794.138 70.8313C794.717 70.805 795.28 70.8545 795.826 70.9799L795.067 73.1015C794.641 72.9907 794.229 72.9443 793.829 72.9624C793.02 72.9991 792.285 73.2327 791.624 73.6631C790.972 74.093 790.462 74.6517 790.093 75.3392C789.724 76.0266 789.558 76.7799 789.595 77.5991L789.997 86.455L787.899 86.5501ZM803.777 86.2203C802.398 86.2829 801.123 85.9853 799.952 85.3277C798.791 84.6696 797.844 83.7616 797.111 82.6036C796.387 81.4352 795.993 80.1268 795.927 78.6783C795.877 77.5794 796.025 76.5466 796.372 75.5799C796.718 74.6032 797.214 73.7398 797.861 72.9898C798.517 72.2293 799.291 71.6236 800.181 71.1728C801.072 70.722 802.031 70.4732 803.06 70.4266C804.439 70.364 805.709 70.6618 806.87 71.3199C808.041 71.9775 808.988 72.8905 809.712 74.0589C810.445 75.2269 810.845 76.5401 810.912 77.9986C810.961 79.0875 810.812 80.1153 810.466 81.082C810.119 82.0487 809.618 82.9123 808.962 83.6728C808.315 84.4228 807.546 85.0233 806.656 85.4741C805.775 85.9245 804.816 86.1732 803.777 86.2203ZM803.682 84.1225C804.701 84.0763 805.603 83.7701 806.388 83.2039C807.182 82.6273 807.795 81.8888 808.224 80.9884C808.664 80.0876 808.86 79.1227 808.814 78.0937C808.766 77.0448 808.483 76.0917 807.963 75.2343C807.443 74.367 806.762 73.6872 805.919 73.1949C805.086 72.7021 804.164 72.4786 803.156 72.5244C802.137 72.5706 801.23 72.882 800.435 73.4586C799.65 74.0248 799.037 74.7583 798.598 75.6591C798.168 76.5595 797.977 77.5342 798.025 78.5831C798.074 79.662 798.363 80.6299 798.892 81.4868C799.421 82.3337 800.107 82.9983 800.95 83.4806C801.792 83.9529 802.703 84.1669 803.682 84.1225ZM813.34 85.3962L812.66 70.4116L814.758 70.3164L814.852 72.3843C815.357 71.6006 816.019 70.965 816.837 70.4774C817.656 69.9898 818.565 69.7233 819.564 69.678C820.693 69.6268 821.739 69.8596 822.704 70.3764C823.668 70.8833 824.435 71.5842 825.007 72.4793C825.494 71.5362 826.19 70.7689 827.094 70.1773C827.998 69.5757 829.014 69.2494 830.143 69.1982C831.272 69.1469 832.313 69.375 833.267 69.8823C834.221 70.3896 834.994 71.0953 835.586 71.9994C836.177 72.9035 836.499 73.92 836.55 75.0489L836.971 84.3243L834.873 84.4195L834.473 75.6085C834.437 74.8094 834.208 74.079 833.788 73.4173C833.368 72.7557 832.818 72.235 832.141 71.8554C831.472 71.4653 830.738 71.2883 829.939 71.3246C829.14 71.3608 828.42 71.5887 827.778 72.0082C827.146 72.4173 826.65 72.9703 826.292 73.6673C825.932 74.3542 825.773 75.1323 825.812 76.0014L826.212 84.8123L824.114 84.9075L823.714 76.0965C823.675 75.2274 823.445 74.4671 823.025 73.8154C822.605 73.1538 822.056 72.6481 821.38 72.2984C820.703 71.9387 819.965 71.777 819.165 71.8133C818.376 71.849 817.661 72.0917 817.021 72.5412C816.38 72.9806 815.881 73.5489 815.522 74.2458C815.163 74.9428 815.002 75.6909 815.038 76.4901L815.438 85.301L813.34 85.3962ZM858.433 62.3292L860.531 62.2341L861.483 83.2125L859.385 83.3077L858.922 73.1182L847.909 73.6177L848.371 83.8072L846.273 83.9024L845.322 62.924L847.419 62.8288L847.814 71.5199L858.827 71.0203L858.433 62.3292ZM876.163 67.5312L878.261 67.4361L878.94 82.4207L876.842 82.5158L876.641 79.7321C876.195 80.7033 875.545 81.5036 874.693 82.1328C873.84 82.7521 872.804 83.0894 871.585 83.1447C870.487 83.1945 869.448 83.0364 868.471 82.6703C867.493 82.2942 866.623 81.7581 865.86 81.062C865.098 80.3658 864.49 79.5475 864.037 78.607C863.584 77.6666 863.333 76.6469 863.283 75.5481C863.234 74.4692 863.388 73.4462 863.744 72.479C864.111 71.5114 864.632 70.6519 865.309 69.9005C865.996 69.1486 866.799 68.5516 867.72 68.1094C868.651 67.6567 869.655 67.406 870.734 67.357C871.983 67.3004 873.085 67.5507 874.042 68.1079C874.997 68.6552 875.772 69.3959 876.365 70.33L876.163 67.5312ZM871.448 81.1088C872.517 81.0603 873.424 80.7589 874.17 80.2046C874.915 79.6402 875.472 78.9042 875.842 77.9965C876.221 77.0884 876.386 76.0999 876.338 75.031C876.288 73.9321 876.033 72.9527 875.574 72.0926C875.114 71.2226 874.488 70.5452 873.695 70.0607C872.902 69.5761 871.976 69.3578 870.917 69.4058C869.858 69.4539 868.901 69.7625 868.046 70.3319C867.201 70.8908 866.538 71.6265 866.059 72.5392C865.59 73.4514 865.38 74.4469 865.429 75.5258C865.478 76.6147 865.788 77.5917 866.358 78.4567C866.927 79.3118 867.658 79.9794 868.551 80.4594C869.453 80.939 870.419 81.1555 871.448 81.1088ZM881.489 82.3051L880.81 67.3205L882.907 67.2253L883.001 69.2932C883.506 68.5095 884.168 67.8739 884.987 67.3863C885.806 66.8987 886.714 66.6322 887.713 66.5869C888.842 66.5357 889.889 66.7685 890.853 67.2853C891.817 67.7922 892.585 68.4931 893.156 69.3882C893.644 68.4451 894.34 67.6778 895.244 67.0862C896.147 66.4846 897.164 66.1582 898.293 66.107C899.421 66.0558 900.463 66.2839 901.417 66.7912C902.371 67.2985 903.144 68.0042 903.735 68.9083C904.327 69.8124 904.648 70.8289 904.699 71.9578L905.12 81.2332L903.022 81.3284L902.622 72.5174C902.586 71.7183 902.358 70.9879 901.937 70.3262C901.517 69.6646 900.968 69.1439 900.29 68.7643C899.622 68.3742 898.888 68.1972 898.089 68.2335C897.29 68.2697 896.569 68.4976 895.927 68.9171C895.295 69.3262 894.8 69.8792 894.441 70.5762C894.082 71.2631 893.922 72.0412 893.961 72.9103L894.361 81.7212L892.263 81.8164L891.864 73.0054C891.824 72.1363 891.594 71.376 891.174 70.7243C890.754 70.0627 890.206 69.557 889.529 69.2073C888.852 68.8476 888.114 68.6859 887.315 68.7221C886.526 68.7579 885.811 69.0006 885.171 69.4501C884.53 69.8895 884.03 70.4578 883.671 71.1547C883.312 71.8517 883.151 72.5998 883.187 73.399L883.587 82.2099L881.489 82.3051ZM914.611 65.3669C916.07 65.3007 917.409 65.5953 918.63 66.2507C919.861 66.9056 920.858 67.8163 921.622 68.9829C922.385 70.1395 922.8 71.4471 922.866 72.9056C922.916 73.9945 922.757 75.0277 922.391 76.0053C922.025 76.9729 921.493 77.8378 920.797 78.6002C920.11 79.3521 919.297 79.9545 918.356 80.4076C917.426 80.8602 916.416 81.1113 915.327 81.1606C914.089 81.2168 913.006 80.9706 912.081 80.422C911.155 79.8734 910.411 79.1363 909.848 78.2109L909.975 81.013L907.877 81.1082L906.858 58.6313L908.956 58.5361L909.421 68.8006C909.898 67.828 910.572 67.0266 911.444 66.3964C912.317 65.7662 913.372 65.4231 914.611 65.3669ZM915.219 79.1084C916.288 79.0599 917.245 78.7563 918.091 78.1974C918.936 77.6285 919.598 76.8877 920.077 75.9751C920.556 75.0624 920.772 74.0717 920.723 73.0028C920.673 71.9039 920.364 70.9269 919.795 70.0718C919.225 69.2068 918.489 68.5344 917.586 68.0548C916.693 67.5748 915.727 67.3583 914.689 67.4055C913.63 67.4535 912.723 67.7599 911.967 68.3247C911.222 68.889 910.66 69.6253 910.281 70.5334C909.911 71.4411 909.751 72.4293 909.8 73.4982C909.849 74.5871 910.104 75.5666 910.563 76.4366C911.023 77.2967 911.649 77.969 912.442 78.4536C913.245 78.9377 914.17 79.156 915.219 79.1084ZM924.304 74.6122L923.884 65.3667L925.982 65.2715L926.383 74.0975C926.42 74.9166 926.653 75.6518 927.083 76.303C927.513 76.9542 928.072 77.4644 928.759 77.8336C929.457 78.2024 930.21 78.3684 931.019 78.3317C931.838 78.2946 932.569 78.0612 933.21 77.6317C933.861 77.2018 934.371 76.6431 934.74 75.9557C935.11 75.2682 935.276 74.5149 935.239 73.6958L934.838 64.8699L936.936 64.7747L937.631 79.7586L935.533 79.8538L935.423 77.7566C934.928 78.5398 934.266 79.1755 933.437 79.6635C932.618 80.1511 931.709 80.4176 930.711 80.4629C929.582 80.5141 928.54 80.2861 927.586 79.7788C926.632 79.2715 925.86 78.5658 925.268 77.6616C924.676 76.7575 924.355 75.741 924.304 74.6122ZM940.167 79.6436L939.487 64.659L941.585 64.5638L941.679 66.6317C942.174 65.8485 942.836 65.2128 943.664 64.7248C944.493 64.2367 945.407 63.97 946.406 63.9247C946.985 63.8985 947.548 63.948 948.094 64.0734L947.335 66.195C946.909 66.0841 946.497 66.0378 946.097 66.0559C945.288 66.0926 944.553 66.3262 943.892 66.7566C943.241 67.1865 942.73 67.7452 942.361 68.4326C941.992 69.1201 941.826 69.8734 941.863 70.6925L942.265 79.5484L940.167 79.6436ZM960.667 63.6983L962.765 63.6032L963.47 79.1422C963.513 80.1012 963.344 81.0098 962.963 81.868C962.591 82.7257 962.065 83.4853 961.384 84.1468C960.714 84.8179 959.937 85.3536 959.055 85.754C958.172 86.1544 957.246 86.3766 956.277 86.4206C955.238 86.4677 954.223 86.2735 953.232 85.8379C952.242 85.4124 951.369 84.8213 950.614 84.0647C949.869 83.3077 949.325 82.4565 948.982 81.5111L950.875 80.5393C951.099 81.2799 951.484 81.9381 952.031 82.514C952.588 83.0993 953.229 83.5507 953.954 83.8682C954.69 84.1952 955.432 84.3417 956.181 84.3077C956.87 84.2765 957.529 84.1165 958.156 83.8277C958.794 83.5486 959.358 83.1776 959.848 82.715C960.347 82.2519 960.734 81.7188 961.006 81.1158C961.28 80.5228 961.402 79.8967 961.372 79.2373L961.222 75.9257C960.745 76.8883 960.075 77.6795 959.212 78.2992C958.359 78.9185 957.348 79.2547 956.18 79.3077C955.131 79.3553 954.132 79.1953 953.185 78.8279C952.247 78.46 951.412 77.9323 950.68 77.2447C949.948 76.5472 949.361 75.733 948.918 74.8021C948.485 73.8707 948.244 72.8606 948.195 71.7717C948.146 70.6829 948.294 69.6551 948.641 68.6884C948.997 67.7112 949.508 66.8472 950.175 66.0962C950.841 65.3352 951.624 64.7291 952.525 64.2778C953.435 63.8261 954.415 63.5765 955.464 63.5289C956.633 63.4759 957.67 63.7191 958.575 64.2587C959.49 64.7878 960.229 65.515 960.791 66.4405L960.667 63.6983ZM956.102 77.2691C957.141 77.222 958.023 76.9117 958.748 76.3383C959.482 75.7644 960.034 75.0236 960.404 74.1159C960.773 73.2083 960.934 72.235 960.887 71.1961C960.838 70.1272 960.584 69.1627 960.125 68.3026C959.675 67.4321 959.059 66.7493 958.275 66.2543C957.492 65.7493 956.59 65.5199 955.571 65.5661C954.552 65.6123 953.635 65.9192 952.82 66.4867C952.015 67.0438 951.387 67.778 950.938 68.6893C950.489 69.6006 950.289 70.5956 950.338 71.6745C950.387 72.7534 950.681 73.7261 951.221 74.5925C951.76 75.449 952.456 76.1231 953.31 76.615C954.172 77.0964 955.103 77.3144 956.102 77.2691ZM970.846 71.0296C970.801 70.0406 971.005 69.1205 971.457 68.2691C971.919 67.4173 972.573 66.7319 973.421 66.213C974.026 65.8653 974.489 65.3738 974.81 64.7385C975.131 64.0933 975.275 63.3961 975.241 62.6469C975.208 61.9176 974.998 61.2665 974.612 60.6934C974.235 60.1198 973.74 59.6718 973.124 59.3494C972.519 59.0265 971.857 58.8813 971.138 58.914C970.418 58.9466 969.767 59.1513 969.183 59.5281C968.61 59.9045 968.162 60.3953 967.839 61.0006C967.516 61.6058 967.371 62.2731 967.404 63.0023L965.306 63.0975C965.256 61.9886 965.48 60.9674 965.978 60.0339C966.476 59.1004 967.168 58.3433 968.052 57.7626C968.947 57.1815 969.944 56.866 971.042 56.8161C972.151 56.7658 973.173 56.9898 974.106 57.488C975.05 57.9858 975.812 58.6769 976.392 59.5615C976.973 60.4461 977.289 61.4429 977.339 62.5517C977.39 63.6806 977.163 64.7369 976.657 65.7209C976.15 66.6948 975.429 67.4633 974.494 68.0262C973.987 68.3295 973.595 68.7377 973.318 69.2508C973.041 69.7639 972.916 70.3251 972.944 70.9345L970.846 71.0296ZM972.18 78.5819C971.85 78.5969 971.56 78.4899 971.309 78.2611C971.069 78.0317 970.941 77.7522 970.926 77.4226C970.911 77.0929 971.013 76.808 971.233 76.5678C971.462 76.3272 971.741 76.1994 972.071 76.1844C972.401 76.1695 972.686 76.2717 972.926 76.491C973.176 76.7099 973.309 76.9842 973.324 77.3138C973.339 77.6435 973.232 77.9336 973.003 78.1843C972.784 78.4344 972.51 78.567 972.18 78.5819Z" fill="#171717"/>
</svg>
