<svg width="24" height="24" viewBox="0 0 24 24" fill="none" xmlns="http://www.w3.org/2000/svg">
<path d="M18.54 4.12009L13.04 2.06009C12.47 1.85009 11.54 1.85009 10.97 2.06009L5.46999 4.12009C4.40999 4.52009 3.54999 5.76009 3.54999 6.89009V14.9901C3.54999 15.8001 4.07999 16.8701 4.72999 17.3501L10.23 21.4601C11.2 22.1901 12.79 22.1901 13.76 21.4601L19.26 17.3501C19.91 16.8601 20.44 15.8001 20.44 14.9901V6.89009C20.45 5.76009 19.59 4.52009 18.54 4.12009ZM15.48 9.72009L11.18 14.0201C11.03 14.1701 10.84 14.2401 10.65 14.2401C10.46 14.2401 10.27 14.1701 10.12 14.0201L8.51999 12.4001C8.22999 12.1101 8.22999 11.6301 8.51999 11.3401C8.80999 11.0501 9.28999 11.0501 9.57999 11.3401L10.66 12.4201L14.43 8.65009C14.72 8.36009 15.2 8.36009 15.49 8.65009C15.78 8.94009 15.78 9.43009 15.48 9.72009Z" fill="#FB6514"/>
</svg>
