<svg width="70" height="70" viewBox="0 0 70 70" fill="none" xmlns="http://www.w3.org/2000/svg">
<rect width="70" height="70" rx="35" fill="#FB6514"/>
<path d="M38.75 50C38.2703 49.9997 37.8034 49.8458 37.4178 49.5608L37.3559 49.5131L28.7816 42.49H22.25C21.6533 42.49 21.081 42.2532 20.659 41.8318C20.2371 41.4103 20 40.8387 20 40.2426V29.7558C20 29.1598 20.2371 28.5882 20.659 28.1667C21.081 27.7452 21.6533 27.5085 22.25 27.5085H28.7797L37.3541 20.4854L37.4159 20.4376C37.7511 20.1911 38.1483 20.0423 38.5631 20.0078C38.9779 19.9732 39.3942 20.0543 39.7657 20.242C40.1371 20.4297 40.4492 20.7166 40.6671 21.0709C40.885 21.4252 41.0002 21.8329 41 22.2487V47.7508C41 48.3468 40.7629 48.9184 40.341 49.3399C39.919 49.7614 39.3467 49.9981 38.75 49.9981V50ZM47 42.491C46.7442 42.4908 46.4926 42.4253 46.2693 42.3007C46.0459 42.1761 45.8582 41.9965 45.7239 41.7789C45.5897 41.5614 45.5134 41.3132 45.5022 41.0579C45.4911 40.8026 45.5455 40.5487 45.6603 40.3204C46.55 38.5506 47.0009 36.762 47.0009 34.9997C47.0009 33.1868 46.5641 31.4489 45.665 29.6875C45.4928 29.3345 45.4661 28.9282 45.5908 28.5558C45.7154 28.1834 45.9815 27.8748 46.3317 27.6964C46.6818 27.5179 47.0881 27.4839 47.4631 27.6017C47.8381 27.7194 48.1519 27.9795 48.3369 28.3259C49.4563 30.5199 50 32.7027 50 34.9997C50 37.2312 49.4375 39.4739 48.3406 41.665C48.2158 41.9133 48.0243 42.1221 47.7876 42.2679C47.5508 42.4138 47.2782 42.491 47 42.491Z" fill="white"/>
</svg>
